<?xml version="1.0" encoding="utf-8"?>
<!-- Generator: Adobe Illustrator 25.0.1, SVG Export Plug-In . SVG Version: 6.00 Build 0)  -->
<svg version="1.1" id="圖層_1" xmlns="http://www.w3.org/2000/svg" xmlns:xlink="http://www.w3.org/1999/xlink" x="0px" y="0px"
	 viewBox="0 0 204 26" style="enable-background:new 0 0 204 26;" xml:space="preserve">
<style type="text/css">
	.st0{fill:#64C2BF;}
</style>
<g>
	<path class="st0" d="M170.6,15.9c2.1,0,3.8-0.8,5.1-2.4c1.1-1.4,1.7-3.2,1.7-5.2s-0.6-3.8-1.7-5.2c-1.2-1.6-2.9-2.4-5.1-2.4h-14.3
		v5.3h13.4c0.6,0,1.1,0.2,1.5,0.7c0.3,0.4,0.5,1,0.5,1.6c0,0.6-0.2,1.1-0.5,1.5c-0.3,0.4-0.8,0.6-1.5,0.6h-6.8
		c-2.2,0-3.9,0.7-5.1,2.2c-1,1.2-1.5,2.9-1.5,4.9v8.4h5.5v-6.3l15.9,6.3v-5.9l-10.5-4L170.6,15.9L170.6,15.9z"/>
	<path class="st0" d="M143.3,0.6h-9c-2.9,0-5.2,1.3-6.9,4c-1.6,2.4-2.3,5.3-2.3,8.8c0,3.4,0.8,6.2,2.3,8.5c1.7,2.6,4,3.9,7,3.9h9
		c3,0,5.3-1.3,7-3.9c1.5-2.3,2.3-5.1,2.3-8.5c0-3.4-0.8-6.4-2.4-8.8C148.5,2,146.2,0.6,143.3,0.6z M145.5,18
		c-0.8,1.5-1.9,2.3-3.2,2.3h-7.2c-1.3,0-2.4-0.8-3.2-2.3c-0.7-1.4-1.1-3.1-1.1-5.1c0-1.9,0.4-3.5,1.1-4.8c0.8-1.5,1.9-2.2,3.2-2.2
		h7.2c1.4,0,2.4,0.7,3.2,2.2c0.7,1.3,1.1,2.9,1.1,4.8C146.6,14.9,146.3,16.6,145.5,18z"/>
	<path class="st0" d="M120,1.4c-1.2-0.8-2.7-1.2-4.6-1.2c-2.5,0-4.5,1.3-6,3.8c-1,1.7-2.9,7.7-2.9,7.7s-1.7,4.8-2.1,5.8
		c-0.1,0.3-0.3,0.6-0.6,0.8s-0.5,0.3-0.8,0.3c-0.3,0-0.5-0.1-0.8-0.3c-0.2-0.2-0.4-0.4-0.6-0.8c-0.5-1-2.1-5.8-2.1-5.8
		s-1.9-6-2.9-7.7c-1.5-2.5-3.5-3.8-6-3.8c-1.9,0-3.4,0.4-4.6,1.2c-1.4,1-2.1,2.4-2.1,4.2v20.2h5.6V6.9c0-0.4,0.1-0.6,0.2-0.8
		c0.1-0.2,0.4-0.3,0.7-0.4c0.5-0.1,1.2,1,2,3.3c0.6,1.7,3.5,9.6,3.6,9.9c0.6,1.6,1.5,2.9,2.8,3.8c1.2,0.8,2.5,1.2,4,1.2h0.1
		c1.5,0,2.8-0.4,4-1.2c1.3-0.9,2.3-2.1,2.8-3.8c0.1-0.3,3-8.3,3.6-9.9c0.8-2.3,1.5-3.4,2-3.3c0.3,0.1,0.6,0.2,0.7,0.4
		c0.1,0.2,0.2,0.5,0.2,0.8v18.9h5.6V5.6C122.1,3.8,121.4,2.4,120,1.4z"/>
	<path class="st0" d="M74.7,19.3c0,0.4-0.1,0.7-0.3,0.9c-0.2,0.2-0.4,0.3-0.7,0.3c-0.5,0-0.9-0.3-1.1-0.8c-0.4-1-1.2-3.5-2.2-7.7
		c-0.9-3.8-1.8-6.5-2.8-8.1c-1.5-2.5-3.5-3.8-6-3.8c-1.9,0-3.4,0.4-4.6,1.2c-1.4,1-2.1,2.4-2.1,4.2v20.2h5.6V6.9
		c0-0.4,0.1-0.6,0.2-0.8c0.1-0.2,0.4-0.3,0.7-0.4c0.5-0.1,1.2,1,2,3.3c0.6,1.7,1.3,4,2.1,6.9c0.9,3.2,1.4,5,1.5,5.4
		c0.6,1.6,1.5,2.9,2.8,3.8c1.2,0.8,2.5,1.2,4,1.2c1.7,0,3.2-0.5,4.4-1.5c1.3-1,2-2.4,2-4V0.4h-5.6V19.3z"/>
	<path class="st0" d="M2.3,4.6C0.7,7.1,0,10,0,13.4c0,3.4,0.8,6.2,2.3,8.5c1.7,2.6,4.1,3.9,7,3.9h12.3v-5.5H10.2
		c-1.3,0-2.4-0.8-3.2-2.3c-0.7-1.4-1.1-3.1-1.1-5.1c0-1.9,0.3-3.5,1-4.8c0.8-1.5,1.9-2.2,3.2-2.2h11.4V0.6H9.3
		C6.4,0.6,4.1,2,2.3,4.6z"/>
	<path class="st0" d="M45.7,8.5c-1.2-3.5-1.9-5.4-2.2-5.8C43,2,42.3,1.4,41.4,1.1s-2-0.6-3.1-0.6c-1.1,0-2.1,0.2-3.1,0.6
		S33.5,2,33,2.7c-0.3,0.4-1,2.4-2.2,5.9c-1.1,3.2-2.2,6.5-3.3,10.1c-1.1,3.6-1.9,5.9-2.2,7.1h2.5h3.5l1.3-4h1.8h5.8v-5.5h-4h-1.8
		l3.3-9.9c0.1-0.2,0.3-0.3,0.5-0.3c0.2,0,0.4,0.1,0.4,0.3l6.6,19.4h6c-0.6-2-1.4-4.4-2.3-7.2C47.5,14,46.5,10.7,45.7,8.5z"/>
	<path class="st0" d="M191.9,5.9H204V0.6H191c-2.9,0-5.2,1.3-7,4c-1.6,2.4-2.4,5.3-2.4,8.8c0,3.4,0.8,6.2,2.3,8.5
		c1.7,2.6,4.1,3.9,7,3.9H204v-5.5h-12.1c-1.3,0-2.4-0.8-3.2-2.3c-0.3-0.7-0.6-1.4-0.8-2.2H204v-5.3h-16.2c0.2-0.9,0.4-1.7,0.8-2.4
		C189.4,6.7,190.5,5.9,191.9,5.9z"/>
</g>
</svg>
