<?xml version="1.0" encoding="utf-8"?>
<!-- Generator: Adobe Illustrator 25.2.3, SVG Export Plug-In . SVG Version: 6.00 Build 0)  -->
<svg version="1.1" id="圖層_1" xmlns="http://www.w3.org/2000/svg" xmlns:xlink="http://www.w3.org/1999/xlink" x="0px" y="0px"
	 viewBox="0 0 150 150" style="enable-background:new 0 0 150 150;" xml:space="preserve">
<style type="text/css">
	.st0{fill:#89B829;}
	.st1{fill:#DD5519;}
	.st2{fill:#FFFFFF;}
	.st3{opacity:0.78;fill:#FFF000;}
	.st4{fill:#004212;}
	.st5{fill:#111111;}
	.st6{fill:#060001;}
	.st7{clip-path:url(#SVGID_4_);}
	.st8{fill:none;stroke:#004212;stroke-width:7.1711;stroke-linecap:round;stroke-linejoin:round;stroke-miterlimit:10;}
	.st9{clip-path:url(#SVGID_6_);}
	.st10{fill:none;stroke:#111111;stroke-width:5;stroke-linecap:round;stroke-linejoin:round;stroke-miterlimit:10;}
</style>
<g>
	<defs>
		<rect id="SVGID_1_" x="-1670.9" y="-481.7" width="1000" height="1000"/>
	</defs>
	<clipPath id="SVGID_2_">
		<use xlink:href="#SVGID_1_"  style="overflow:visible;"/>
	</clipPath>
	<g style="clip-path:url(#SVGID_2_);">
		
			<image style="overflow:visible;" width="3264" height="2448" xlink:href="AC8DF6CB.jpg"  transform="matrix(0.8271 0 0 0.8271 -1673.5422 -1032.7037)">
		</image>
	</g>
</g>
<g>
	<g>
		<polygon class="st0" points="-1549.5,760.4 -1547,759.4 -1545.7,759.4 -1544.1,758.7 -1544.1,757.1 -1543.1,756.7 -1544.7,756 
			-1545.8,755.6 -1545.8,754.5 -1550,752.8 -1550.1,752.8 -1552.1,753.6 -1552.1,754.9 -1555.5,754.9 -1555.5,756.5 -1554.4,756.9 
			-1554.4,757.7 -1556,758.3 -1556,759.3 -1553.2,760.4 		"/>
		<polygon class="st0" points="-1546.6,750.8 -1546.6,752.1 -1545.3,752.1 -1545.3,753.2 -1546.3,753.2 -1546.6,753.4 
			-1544.4,754.2 -1544.4,755.4 -1542.1,755.4 -1540.9,755.9 -1540.9,756.6 -1542.5,757.3 -1542.5,758.4 -1543.8,758.9 
			-1544.8,759.4 -1544.2,759.4 -1544.2,760.4 -1546.5,760.4 -1546.5,761.2 -1545.2,761.8 -1541.5,761.8 -1540.6,761.4 
			-1538.8,761.4 -1538.8,760.9 -1537,760.9 -1535.6,760.4 -1533.2,760.4 -1531.1,759.5 -1531.1,758.8 -1528.6,758.8 -1528.6,758 
			-1526.3,757 -1527.7,756.5 -1529.6,756.5 -1529.6,755.6 -1531.2,754.9 -1532.9,754.2 -1532.9,753.4 -1534.3,752.8 -1535.3,752.4 
			-1535.3,751.5 -1534.5,751.1 -1534.5,749.4 -1535.5,749 -1537.5,749 -1536.7,748.6 -1535.1,748 -1535.1,747.1 -1536.6,746.5 
			-1539.5,746.5 -1539.5,747.4 -1542.1,747.4 -1543.8,748.1 -1545.2,747.6 -1547.4,747.6 -1549.9,748.6 -1549.9,749.5 
			-1548.2,750.2 		"/>
		<polygon class="st0" points="-1187.9,836.7 -1190.6,835.6 -1192.6,834.8 -1192.6,833.6 -1194.7,832.8 -1196.3,832.8 
			-1197.5,832.3 -1201.1,830.8 -1202.9,830.1 -1202.9,828.5 -1204.7,827.8 -1204.7,826.7 -1206.7,825.8 -1209.7,824.7 
			-1209.7,823.9 -1210.7,823.5 -1210.7,822.4 -1212.6,822.4 -1214.9,823.3 -1214.9,825.5 -1216.8,825.5 -1216.8,829.2 
			-1218.3,829.2 -1220.6,828.2 -1222.4,828.2 -1223.5,827.8 -1224.5,827.4 -1225.9,826.8 -1225.9,825.2 -1224.4,824.6 
			-1224.4,823.7 -1230.6,823.7 -1231.3,823.4 -1234.4,823.4 -1235.6,822.9 -1237.2,822.9 -1239.3,823.8 -1240.5,824.3 
			-1240.5,825.3 -1243.2,826 -1246.1,824.8 -1251.2,826.9 -1253.3,826.9 -1254.2,827.2 -1257.7,827.2 -1259.6,828 -1259.6,829.2 
			-1261.6,830 -1261.6,830.9 -1265,830.9 -1266.6,831.5 -1270.6,831.5 -1274.4,833.1 -1278.1,833.1 -1278.1,835 -1279.9,835.8 
			-1279.9,837 -1279.9,838.6 -1277.8,839.5 -1277.8,840.3 -1274.2,841.8 -1274.2,842.8 -1274.2,844.6 -1275.4,845.1 -1275.4,846.6 
			-1273.7,847.2 -1265.7,847.2 -1263.8,846.5 -1255.8,846.5 -1251.7,844.8 -1244.9,844.8 -1242.7,843.9 -1237.8,843.9 
			-1236.4,844.5 -1232,844.5 -1230.6,845.1 -1230.6,846.7 -1227.8,847.8 -1225.2,848.8 -1223,848.8 -1223,848.2 -1219.4,848.2 
			-1219.4,849.7 -1217.1,850.6 -1214.2,851.8 -1211.3,851.8 -1209,850.9 -1207,850.9 -1207,851.7 -1203.5,851.7 -1201.1,850.7 
			-1196.3,850.7 -1194.8,850.1 -1194.8,847.8 -1191.5,846.4 -1191.5,845.3 -1189.5,844.5 -1189.5,843.4 -1186.8,842.3 
			-1186.8,838.2 -1187.9,837.8 		"/>
		<polygon class="st0" points="-1201,851.8 -1202.4,852.4 -1200.3,853.2 -1202,853.9 -1204.1,853.9 -1206.2,853.1 -1207.9,853.1 
			-1208.9,853.5 -1208.9,855.5 -1207.5,856.1 -1205.9,856.8 -1205.9,857.7 -1202.3,857.7 -1201,857.1 -1198.8,856.3 -1198.8,855.4 
			-1197,855.4 -1197,854.3 -1198.1,853.8 -1196.7,853.3 -1196.7,852.7 -1199.4,851.6 		"/>
		<polygon class="st0" points="-1133.7,849.9 -1137.9,849.9 -1137.9,849 -1139.4,848.4 -1139.4,846.8 -1140.6,846.8 -1142.5,846 
			-1145.4,846 -1146.8,846.6 -1145.5,847.1 -1145.5,848 -1144.1,848 -1144.1,849.1 -1142.2,849.8 -1142.2,850.6 -1143.3,851.1 
			-1143.3,852.5 -1144.6,852.5 -1146.3,853.2 -1147.9,853.2 -1147.9,854.2 -1149.4,854.2 -1149.4,854.9 -1150.8,855.5 
			-1153.4,856.6 -1155.2,856.6 -1155.2,857.3 -1157.9,858.4 -1158.8,858.8 -1160.3,859.3 -1160.3,860.1 -1158.8,860.7 
			-1156.4,860.7 -1156.4,861.2 -1151,861.2 -1147.4,859.8 -1147.4,858.9 -1145.5,858.2 -1143,858.2 -1143,856.5 -1142,856.1 
			-1142,855.2 -1138.1,855.2 -1135.3,854 -1135.3,853.2 -1134.6,853.2 -1134.6,852.4 -1132.1,851.3 -1130.6,851.3 -1130.6,849.9 
			-1130.6,849.1 -1132.8,849.1 		"/>
		<polygon class="st0" points="-1283.6,816.9 -1275.8,816.9 -1274.7,817.3 -1271.8,817.3 -1269.3,816.3 -1269.3,815.1 
			-1267.3,815.1 -1267.3,813.6 -1266.2,813.2 -1264.9,812.7 -1266.6,812 -1266.6,810.1 -1262.9,808.6 -1265.2,807.7 -1267.6,807.7 
			-1268.6,807.3 -1270.5,807.3 -1275.2,809.1 -1278.2,809.1 -1280.1,809.9 -1281.2,810.4 -1283.6,811.4 -1286.7,811.4 
			-1288.6,812.1 -1288.6,813.5 -1286.3,814.5 -1286.3,816 		"/>
		<polygon class="st0" points="-1265.8,802.9 -1269.8,804.5 -1269.8,805.8 -1269.8,806.6 -1267.8,806.6 -1267.8,805.8 
			-1263.8,804.2 -1261.1,805.3 -1258.9,805.3 -1261.2,806.2 -1261.2,807.5 -1262.3,807.9 -1260.4,808.7 -1258.2,808.7 
			-1258.2,807.4 -1255.3,806.2 -1253.2,806.2 -1253.2,807.4 -1251.7,808 -1248,808 -1245.3,806.9 -1247.4,806 -1247.4,805.4 
			-1249.5,804.6 -1250.7,804.1 -1250.7,802.1 -1252.4,801.4 -1255.2,801.4 -1255.2,800.6 -1258.7,799.2 -1258.7,798 -1260.9,797.1 
			-1264.3,797.1 -1267.3,798.4 -1265,799.3 -1266.6,799.3 -1266.6,800.2 -1264,801.3 -1264,802.1 		"/>
		<polygon class="st0" points="-1249.3,817.5 -1247,817.5 -1246,817.1 -1241,817.1 -1238.8,818 -1236.3,816.9 -1236.3,815.9 
			-1234.7,816.6 -1234.7,817.4 -1229.9,817.4 -1229.9,818.5 -1232.1,818.5 -1232.1,819.5 -1233,819.5 -1233,820.3 -1231,821.1 
			-1229,820.3 -1229,819.3 -1227.1,818.6 -1225.7,818.6 -1222.6,818.6 -1222.6,819.8 -1223.6,820.3 -1223.6,821.8 -1222.2,822.3 
			-1220.6,821.7 -1217.5,821.7 -1215.9,821.7 -1213.5,821.7 -1210.4,820.4 -1207.5,820.4 -1205.2,821.3 -1202,822.6 -1199.7,822.6 
			-1198,823.3 -1193.5,823.3 -1192.5,822.9 -1194.7,822 -1196.1,821.5 -1200.5,819.7 -1198.6,818.9 -1197,819.6 -1192.3,819.6 
			-1189.4,818.4 -1189.4,817.4 -1187.9,817.4 -1187.9,816.4 -1188.7,816.1 -1191.4,816.1 -1192.7,816.6 -1194.2,817.2 
			-1198.3,817.2 -1199.6,817.8 -1202.4,817.8 -1205.4,816.6 -1208.6,816.6 -1211.6,815.4 -1213.3,815.4 -1218.1,815.4 -1220,814.6 
			-1221.4,814.1 -1223.2,814.8 -1229,814.8 -1231.7,813.7 -1234.8,813.7 -1238.3,813.7 -1240.2,814.5 -1242.8,814.5 -1242.8,813.8 
			-1241.3,813.2 -1243.1,812.5 -1243.1,811.2 -1243.1,810.5 -1246.3,810.5 -1246.3,811.2 -1247.9,811.8 -1247.9,815.5 
			-1249.2,815.5 -1251.1,814.7 -1252.4,814.7 -1252.4,813.7 -1249.4,812.5 -1249.4,811.8 -1253.3,811.8 -1254.6,812.4 
			-1258.1,812.4 -1258.8,812 -1262.4,812 -1264.8,812.9 -1264.8,814.8 -1266.3,815.4 -1266.3,816.7 -1265.5,817 -1265.5,819 
			-1261.5,819 -1261.5,818 -1259.7,818 -1259.7,818.9 -1256.3,818.9 -1254.8,818.3 -1254.8,817.4 -1256.6,816.6 -1256.6,815.5 
			-1254.6,815.5 -1252.4,815.5 -1250.6,816.3 -1250.6,817 		"/>
		<polygon class="st0" points="-1271,802.5 -1273.7,801.5 -1275.3,802.1 -1275.3,803.1 -1276.7,803.7 -1276.7,804.2 -1275.2,804.2 
					"/>
		<polygon class="st0" points="-1323.6,804.4 -1323.6,803.4 -1325.2,803.4 -1325.2,801.3 -1327,800.8 -1329.4,801.8 -1329.4,803.6 
			-1328.4,804 -1326.8,804.6 -1326.8,805.7 -1324.1,805.7 -1322.3,804.9 		"/>
		<polygon class="st0" points="-1239.5,820.1 -1239.5,821.4 -1238.4,821.8 -1234.9,820.4 -1237.5,819.3 		"/>
		<polygon class="st0" points="-1160.4,824.3 -1159,823.7 -1161.4,822.7 -1164.4,821.5 -1164.4,820.7 -1166.6,820.7 -1168.2,821.4 
			-1170.7,820.3 -1171.9,819.8 -1176.4,819.8 -1176.4,819.3 -1178.4,818.5 -1180.2,819.2 -1184.4,817.4 -1185.2,818.5 
			-1185.2,820.1 -1181.2,820.1 -1181.2,821.5 -1177.2,821.5 -1174.1,822.7 -1170.1,822.7 -1168.1,823.5 -1165,823.5 -1163,824.3 		
			"/>
		<polygon class="st0" points="-1144.5,823.7 -1145.6,823.3 -1148.3,823.3 -1152.1,821.8 -1154.6,822.3 -1152.4,823.2 -1154,823.8 
			-1157.4,823.8 -1157.4,824.3 -1155.8,824.9 -1149.9,824.9 -1147.9,824 -1146.1,824 -1143.6,825.1 -1142.4,824.6 		"/>
		<polygon class="st0" points="-1131,825.8 -1131,824.6 -1132.5,824 -1135.9,824 -1138.4,823.5 -1140.2,824.2 -1138.4,825 
			-1138.4,826 -1136.8,826 -1136.8,825.4 -1133.2,825.4 -1133.2,825.8 		"/>
		<polygon class="st0" points="-1114.6,824.3 -1113.1,823.7 -1113.1,823.1 -1116.6,823.1 -1118.1,823.7 -1118.1,822.5 
			-1119.9,822.5 -1121.2,822.5 -1123.5,822.5 -1126.4,822.5 -1126.4,821.5 -1125.3,821.1 -1125.3,820.4 -1128.3,820.4 
			-1132.4,819.3 -1135.7,820.6 -1132,822.1 -1129.9,821.2 -1128.4,821.9 -1130.4,822.7 -1129,823.2 -1126.3,823.2 -1124.6,823.2 
			-1122.3,824.2 -1120.5,824.9 -1120.5,825.7 -1118.9,826.4 -1117.1,825.6 -1114.6,825.6 		"/>
		<polygon class="st0" points="-1108.1,821.4 -1110.4,820.2 -1112.3,820.9 -1112.3,821.8 -1109.2,821.8 		"/>
		<polygon class="st0" points="-1094.4,823.4 -1092.9,822.8 -1092.9,822.3 -1094.8,821.5 -1097.9,821.9 -1099.5,822.6 
			-1097.4,823.4 		"/>
		<polygon class="st0" points="-1090.6,828.6 -1089,827.9 -1091.4,827.9 -1094.4,827.9 -1095.7,827.4 -1098.6,827.4 -1100.2,826.8 
			-1101.7,826.2 -1103,826.5 -1104.6,827.1 -1101.5,828.4 -1098.3,828.4 -1098.3,828.9 -1094.4,828.9 -1093.5,828.6 		"/>
		<polygon class="st0" points="-1087.7,831.2 -1089.9,831.3 -1091.3,831.8 -1093.5,831.8 -1093.5,832.4 -1092.4,832.8 
			-1090.7,833.5 -1090.7,834.1 -1091.9,834.5 -1093.4,835.2 -1092.2,835.7 -1088.1,834 -1088.1,832.9 -1085.8,832 		"/>
		<polygon class="st0" points="-1111.1,830.7 -1109.5,831.4 -1112.4,832.5 -1112.4,833.5 -1113.3,833.9 -1111.4,834.7 -1109.6,834 
			-1107.1,832.9 -1107.1,832.4 -1107.1,830.3 -1109.4,830.1 		"/>
		<polygon class="st0" points="-1110.4,827.6 -1109,828.2 -1107.4,827.6 -1108.8,827 		"/>
		<polygon class="st0" points="-1120.3,833 -1121.3,833.4 -1122.7,834 -1121.7,834.4 -1119.2,834.4 -1117.8,833.8 -1119.2,832.5 		
			"/>
		<polygon class="st0" points="-1116.4,835.6 -1114.4,836.4 -1112.5,835.7 -1114.6,834.9 		"/>
		<polygon class="st0" points="-1125.4,837.8 -1123.8,838.4 -1120.9,837.2 -1123.4,837 		"/>
		<polygon class="st0" points="-1131.2,829.3 -1131.2,830.2 -1135.2,830.2 -1135.2,831 -1133.1,831.8 -1130.1,830.6 -1128.6,830.1 
			-1127.4,830.1 -1127.4,829.4 -1125.7,829.4 -1125.7,828.4 -1128.6,828.3 		"/>
		<polygon class="st0" points="-1145,833.5 -1143.9,833.1 -1143.9,831.4 -1142.4,830.8 -1142.4,829.6 -1144.7,828.7 -1144.7,827.8 
			-1147.2,827.3 -1148.4,827.8 -1151.5,827.8 -1151.5,828.9 -1149.4,829.8 -1149.4,830.9 -1150.6,830.9 -1147.6,832.1 
			-1147.6,833.5 		"/>
		<polygon class="st0" points="-1159.4,835 -1156.4,835 -1156.4,836 -1154.1,836 -1152.2,835.2 -1150.3,836 -1148.1,836 
			-1148.1,835 -1150.4,834.1 -1152.1,833.4 -1154.3,833.4 -1157,833.4 -1161.2,831.7 -1163.4,832.6 -1161.3,833.5 -1159.4,834.2 		
			"/>
		<polygon class="st0" points="-1171.2,830.7 -1173.4,830.6 -1176.4,831.8 -1176.4,834.3 -1174.3,835.2 -1171,835.2 -1168.9,834.3 
			-1168.9,832.7 -1171.2,832.7 		"/>
		<polygon class="st0" points="-1122.6,832.8 -1122.6,831.4 -1121,831.4 -1121,829.7 -1122.8,829.3 -1124.3,829.9 -1124.3,830.9 
			-1125.5,831.4 -1125.5,832.3 -1124.2,832.8 		"/>
		<polygon class="st0" points="-1219.2,775.2 -1220.7,775.9 -1220.7,776.6 -1224.7,776.6 -1226.7,777.4 -1227.3,777.6 
			-1227.4,778.4 -1233.2,778.4 -1235.2,779.2 -1238.4,780.6 -1241.2,781.7 -1242.4,782.2 -1242.4,783.1 -1240.9,783.8 
			-1240.9,784.8 -1237.3,784.8 -1237.3,783.4 -1234.9,782.5 -1231.3,782.5 -1229.6,781.8 -1226.4,781.8 -1224.5,781 -1220.4,781 
			-1220.4,779.4 -1218.3,780.3 -1216.4,779.5 -1216.4,777.3 -1214.4,776.5 -1211.6,775.3 -1211.6,773.9 -1213.8,773.9 
			-1213.8,772.5 -1214.4,772.2 -1211.4,772.2 -1211.4,772.9 -1207.2,771.2 -1203.4,771.2 -1203.4,769.8 -1201.4,769 -1198,767.6 
			-1195.2,767.6 -1192.3,766.5 -1192.3,766 -1197.3,766 -1198.8,766.6 -1201.5,766.6 -1201.5,768.4 -1204.1,768.4 -1205.7,769 
			-1208.7,769 -1210.7,768.2 -1210.7,767.3 -1215.3,767.3 -1215.3,769.1 -1216.6,769.7 -1218.2,770.3 -1218.2,771.1 -1220.6,771.1 
			-1220.6,771.8 -1219.2,771.8 -1219.2,774.4 		"/>
		<path class="st0" d="M-1185.3,761.4l2.1,0.8l6.5-2.6l1.5-0.6v-1.4h3.6v-2.4h4.1v-2.4l2.1-0.9v-2.3l-1.1-0.4v-1.3l1.7-0.7l1.3-0.5
			l2.1-0.8l1.6,0.6l3.3-1.3h4.4v1h3.4v-1.3h1.3l3.8-1.5h1.8l4.7-1.9h2.4l1.9,0.8h2.9l2-0.8v-0.9l-1.4-0.6v-1.4l-1.2-0.5v-0.8l3-1.2
			v-10.1l-1.2-0.5l-1.8-0.7h-1.4l-2-0.8h-2.3l-1.6-0.6h-13.2v2.1l1.9,0.8l-1.7,0.7l-1.6-0.6h-2.2v-2.5h-1.6l-1.1,0.4h-3.1l-1.7-0.7
			h-3.4v0.8h-3v0.5l-1.3-0.5h-3.1v-3.2l-1.5-0.6h-1.3l-1.3-0.5h-9v1.4l-1.1-0.4l-3.8-1.5h-2.1v-1.1l-2.2-0.9h-3.3l-2.1-0.8h-5.8
			l-2-0.8h-3.1l-2.5-1h-2.1l-2.1,0.8v2.3h-3.2v1.2l-2.8,1.2c0,0-1.8-1.2-2.9-1.2c-1.1,0-5.1,0-5.1,0l-1.5-0.6l-2.2,0.9v2.3h-1.8
			l-2.2-0.9v-1.2h-1.8V719l1.1-0.4v-4.1h-1.9v-0.7l-1.7-0.7h-5.6l-2.7-1.1h-2.9l-2.2,0.9v1.4h-5.7l-1.3-0.5l-2.8-1.1h-9.2l-2.4-1
			h-4.8l0.9-0.4l7.4-3v-3.6l-7.5-3h-6l-2-0.8h-2.2v-2.1l-2.5-1h-5.5l-0.7,0.1v1.5v1.2l-3.1,1.2v1.8h-2.2v2.4h-2.4v-0.9h-3.3v1.2
			h-5.6v-0.9h-3l-2.3,0.9h-3.7l-2.3,0.9h-3.2l-5.7,2.3v1.5l2.7,1.1l-2.7,1.1h-5.1l-1.5,0.6h-5.4v2.6l7,2.8v5h-2.1l-2.7-1.1v-2.4
			l2-0.8l-1.7-0.7h-3.1l-4.7-1.9v4.1h-2.5l-2.2-0.9h-3.1v-2.3l-1.8,0.7v1c0,0,0,1.1,0,1.3c0,0.2,0,1.3,0,1.3l1.6,0.7v2.8h5.4
			l2.8,1.1v1.5h-1.5v0.7h2.7v1.3h-4.5l-1.8-0.7v-2.9h-3.4v1l1.1,0.5v1.2l-1.4,0.5l-1.7,0.7l-3.2,1.3v1.2h-2.8l-1.4-0.6l-1.8-0.7
			v-0.8h3.9l0.8-0.3v-1.1l2.2-0.9v-1.7v-1.8v-2.6v-1.8l-2.5-1v-1l3.7-1.5v-1.4l-1.5-0.6h-1.8l-2.4-1h-4v1l-3,1.2v1.4l-4.5,1.8v0.9
			l2,0.8v2.9l4.6,1.9l-1.8,0.7l-2.1-0.8l-3.5-1.4l-1.9-0.8h-4v-0.8h-5.4l-2.1,0.9v0.7l1.5,0.6l-1.9,0.8h-3.1l-2,0.8h-4.6v-0.8
			l-1.1-0.4l-1.2,0.5h-2.9v0.8h-2.9v1.2h-4.9v0.8h-1.9l-1.7,0.7v1.2h-3v-1l2.1-0.9v-1.7l-1.2-0.5h-2.7v-0.7h-6.2v0.6l2.5,1v1.3
			l-0.9,0.4v0.8l1.1,0.4v1.1h-1.5v0.7h-1.6h-1.8l-4.4,1.8h1.9v1.1l1.5,0.6v0.8h-3.1l-3.8-1.5h-1.4l-0.8,0.3l3.6,1.5v1.1h-4.9v-0.6
			l-3.5-1.4v-0.9h-0.9v-1.2v-1l-5.3-2.1v-0.8h2.8l4.8,1.9l0.2,0.1h0.7l2.4,1h2.7v0.5h2.9l2.1-0.8l2.7-1.1v-1v-1.8l-2.9-1.2h-2.3
			l-6.5-2.6l-1.1-0.5h-4.4l-1.7-0.7l-1.4-0.6l-1.3-0.5v-1.2l-2.6-1h-3.4l-1.5-0.6h-2.9l-0.8,0.3h-5.7l-1.5,0.6v1.2h-1.5l-1.3-0.5
			h-2.7l-2.5,1v0.8h-2.7l-1.7,0.7l-3.7,1.5v0.9l-3.9,1.6v1.2l-4,1.6v0.8l-1.8,0.7l-1.4,0.6v0.9v1.2l-2.8,1.1l-5.9,2.4h-3.1v1.8h-2.9
			l-1.6,0.7v3l0.9,0.4v0.9v2.3l0.7,0.3l2.4,1h5.8v0.9l-1.5,0.6v1.5v1h2.5l2.9-1.2v-1h1.3v1h1.8l2.1-0.8h1v1.5h2l1.7-0.7l1.4-0.6
			v-3.4l2.4-1l1.3-0.5l-2.3-0.9V745h3.4v-3.8l8.6-3.5v-2.2l2.9-1.2h4v1.8l-10.6,4.3v1.7l2.3,0.9v1.9l2.1,0.8h2.3v1.3l-2.1,0.8v1.7
			l-2.5,1l-1.1,0.4v2.3l-2.1,0.8l-1.2-0.5h-4.5l-4.1,1.7l-1.5-0.6v-1h-3.3v1.6h-3.1l-2.5-1h-2.6v0.9h-2.4v0.4h-2.9v0.8h-2.8
			l-2.7,1.1l-1.3,0.5v0.8l-1,0.4h-1.1v-0.4h-1.6l-1.5,0.6l-2,0.8l-1.5,0.6h-2.4l-2.2,0.9v0.4l-2,0.8h-5.3v1.1l2.9,1.2h2.9l2.9,1.2
			v2.1l-1.9,0.8h-4.1l-1-0.4h-2.5h-5.2l-2.3,0.9v1.3l-2,0.8v2v1.4l2.1,0.8v2.3h5.3v0.1l5.9-0.9h4.9l2-0.8v-1.5h3.8l1.2,0.5h1.7v-0.5
			h2.7l1.8-0.7h2v-1h-4.9l-2.2,0.9h-1.8V774l2.1-0.8h2.3v-0.6h2.4v-2.3h2.5l1.7,0.7h1.9l2.1-0.9h2.2v0.5l-0.9,0.4v1.2l-1.5,0.6v1.2
			l1.1,0.4v0.7l1.4,0.6h3.9v-2.3l-1.4-0.5l1.6-0.7v-0.7l4.5,1.8h2.5v0.8h2.5l2.6,1.1v0.8h-7.2l-1.3,0.5v1.1l1.4,0.5h3.2v0.3h2.4
			l2.5-1v-0.9h2.5v-0.7h1.1l2.4-1h1.5v0.7l1.5,0.6v1.2l2.1,0.8l1.2,0.5h2.4v1.2l2,0.8h1.5v0.6h3.3l1.7-0.7v-0.8v-0.4h-4.5v-0.7h-2
			v-0.8h2.5h2v-0.8h2v1.3l2.4,1h5.5l1.3-0.5h3.3v0.7l-1,0.4v0.9l1.8,0.7h2.3v-0.8h2.9v1l-1.5,0.6v1h-3.3l-1-0.4h-3.9l-1.6,0.6h-5.7
			l-1-0.4h-4.3l-1.2-0.5h-2.2l-1.5-0.6h-3.6l-2.1,0.8h-1.6v1.1v0.7h-1.6l-1-0.4l-1.9-0.8h-3.3v-0.9l-1.5-0.6h-8.2l-1.9-0.8l2.4-1
			v-0.9l-1.4-0.6l1.3-0.5v-0.6l-1.9-0.8h-4.3l-0.8,0.3h-13l-2,0.8h-4l-2,0.8h-2.2h-5.8l-5.8,0.9v0.2l-6.4,2.6l-2.7,1.1v1.9l-2.5,1
			h-2.9l-2.1,0.9v1.3l-2.8,1.1v1.7l-3.8,1.6v1v1.1v2.4l-1.9,0.8v1.7l1.7,0.7v1.8l7.9,3.2v0.6l1.9,0.8l3.7,1.5l5.2,2.1h5.4l2.8-1.1
			h4.9v0.7h2.9h4.4l3.5-1.4h7.5v0.9l2.4,1l1.5-0.6h3l1.8,0.7v2.6l-2.1,0.9v1.5l4.1,1.7l5.1,2.1v1.7l1.5,0.6v1.2v2l-2.5,1l-3.3,1.3v1
			v1.6l3.2,1.3v1v1.5l3.5,1.4v3.9l6.1,2.5v1.5l3.5,1.4v3.1l1.8,0.7h14.4l5.6-2.3l13.3-5.4v-0.7l1.8-0.7v-1.5h1.5l1.7-0.7l2.5-1v-1.3
			l-2.3-0.9V832l3.6-1.5l1.7-0.7h2.5l1.3-0.5h2.1l2.7-1.1v-5.5l-3.2-1.3v-3.2l1.3-0.5v-1.2l1.6-0.7l4.8-1.9h2.5l9.2-3.7l1.5-0.6v-2
			l2.2-0.9v-1.1l2.6-1v-1.4l-1.4-0.6v-0.7h-2.5v0.7h-4.4v0.7h-5.6h-3.2l-0.1,0h-2.8l-0.7-0.3l-2.2-0.9v-1.4l-2.6-1.1l-2-0.8v-1.2
			l-3-1.2v-1.8h-1.2v-1.2l-1.4-0.6v-0.7l-1.4-0.5V790l1.1-0.4l4.5,1.8l2.1,0.8v2l2,0.8v1.6l4.3,1.7v1.2l3,1.2v1l2.2,0.8l0,0h3.8V802
			h3.1v-0.5h3l1.9-0.8l1.1-0.4h2.2l3.5-1.4h5.3v-0.7h1.7l4.4-1.8l2.4-1v-0.8l2.4-1v-1.1l-0.5-0.2h-3.8l-5.2-2.1h-3.1l-1.1,0.4h-4.9
			V790l-3.5-1.4l-1.4-0.6v-0.8l-2.3-0.9l1.8-0.7l2.5,1v1.1l2.3,0.9h1.8l1.9,0.8h3l1.5-0.6h3.1v0.9h2.6l3.9,1.6h14.4l2.7,1.1h1.9v1.4
			l3.6,1.4h2.9l1.8,0.7v1.8l2.9,1.2v1l4.1,1.7v1.6l1.9,0.8v1.8l3,1.2l2.8-1.1h1.5v2.1l3.5,1.4l4-1.6v-1.8l-4.4-1.8V803l1.6-0.7v-2.8
			h1.7l7.5-3h2V796h1.3l2.8-1.1v-0.8h6.6v-0.8l2.2,0.9v1l4.2,1.7v1.5h-1.2v0.7l1.7,0.7h3.1l1.7-0.7h1.6v2l3.3,1.3v1.2l-1.9,0.8v1.7
			l4.9,2v2.1l-6.1-2.5h-4.2l-2.4-1l-1.7,0.7l3,1.2v1.1l8.3,3.3v1.5l8.2,3.3h2l7.7,3.1h6.9l1.8,0.7h4.8h1.9h5.3l1.7,0.7h4.6v0.5h1.8
			l1.8,0.7h2.7v-1.9h4.2v0.6l-2.3,0.9l1.5,0.6l1.2-0.5h4.4l1.5-0.6v-0.7h3.7v-1.7l-1.3-0.5h-3.5l-1.1,0.4h-23.5v-0.9h-4.1l-1.2-0.5
			h-8v-0.6h-3.4v-1.5h2.7v-1.1l-1.8-0.7l-1.5-0.6l-1.3-0.5h-1.2l-0.7,0.3l-1.3-0.5l-1.9-0.8l1.4-0.6v-1l-1.6-0.6v-2l-5.6-2.2
			l-1.5-0.6v-1.1h-2.1v-0.7l1.8-0.7l1.5-0.6h2.3v1.1l2.1,0.8h2.5v1.8h3.1l2.8-1.1l0.4-0.2h2.4l3.5-1.4v-1.1v-1.9l-1.2-0.5v-0.9
			l-6.4-2.6v-0.7l4.3-1.7l1.1-0.5v1.1l-2.4,1l0.4,0.2v0.8l1.2,0.5h3.5l3.5-1.4v-1.7h2.9v-0.8h4.4v-0.8h2.7l4.5-1.8h2.7v2h1.8v0.6h4
			v-0.9l0.7-0.3v-2.5l-0.8-0.3h-2.7v0.4h-1.3v-0.4v-0.4l1.5-0.6h2v-0.6l1.5-0.6l1.5-0.6v-1.6h-1.5v-2.3h-1.7v-1.1l-2.3-0.9l-1.2-0.5
			l2.6-1.1V779h2.3l2.5-1v-0.8l-1.2-0.5h-2.7V776h-3.5v0.7h-1.2l-1.1-0.5l2.4-1l3-1.2h1.5v1.2v0.4l0.8,0.3l0.8-0.3h1.3l3-1.2v0.6
			h-0.5v0.7l-0.9,0.4v0.8l1,0.4h2.2v0.3l-1.3,0.5v0.6h1.2v2.1l1.2,0.5h4.3l1.8-0.7h1.2l1.6-0.7l0.6-0.2v-2.3l-1.3-0.5h-1.1v-0.6
			l-1.3-0.5l-1-0.4v-0.6h1.9l4.1-1.7v-1h7.6l4.5-1.8v-0.5l1.4-0.6v-0.5l2.3-0.9l1.1-0.4l2.1-0.9v-0.6l1.5-0.6l2.1-0.8v-2.1h0.2V755
			l-1.4-0.6h-4.5l-1.2,0.5l-2.1-0.8h-3.2l2.2-0.9h4v-1l5.7-2.3v-1l3.6-1.5h14.5V747h4.4v0.9h6.7l0.8-0.3h2.9v-1.1h-1v-0.7l2.7-1.1
			l2.9-1.2v-1.1h3.2v1.9h1.7v1.1l6.1-2.4l0.8,0.3l-9.3,3.8h-1.9v1.9h-1.5l-6.2,2.5v3.3l1.5,0.6v1.9l2.1,0.8v1.9L-1185.3,761.4z
			 M-1440.6,772.2h-8.2l-2.9-0.8h-6.3l-2.2,0.9h-3.9h-1.9l-2.1-0.8v-1.2l1.8-0.7l3-1.2v-1.1l1.4-0.6h1.4v1l2.2,0.9l1.6,0.6l1.8,0.7
			l1.1-0.4l1.6-0.6h2.9l1.6,0.6h2.1l1.5,0.6l2.5,1l1,0.4V772.2z M-1412.9,771.9l-2,0.8v1.8l3.3,1.3v1.8h-4l-2.1-0.8h-4.6v-1l2.7-1.1
			v-1.3h-2.4v-1.7l-2.4-1v-1v-1l-1.2-0.5l5.8-2.3l1-0.7h6.5l2.9,1.2l-2.4,1h-4.8v1.4v1.5L-1412.9,771.9z"/>
		<polygon class="st0" points="-1210.2,753.6 -1211.7,753.6 -1213.6,754.4 -1213.6,756.1 -1214.4,756.1 -1214.4,762.3 
			-1214.3,762.3 -1214.3,764.3 -1214.3,766 -1213.3,766 -1213.3,766.8 -1208.1,766.8 -1208.1,765.4 -1209.2,764.9 -1209.2,763.1 
			-1207.9,763.1 -1206.8,763.6 -1204.6,762.7 -1204.6,762.1 -1206.1,761.5 -1206.1,760.3 -1207.8,759.7 -1207.8,756.3 
			-1208.7,755.9 -1208.7,754.2 		"/>
		<polygon class="st0" points="-1412.6,722.7 -1412.6,724.3 -1407.8,724.3 -1405.1,725.4 -1402.4,725.4 -1402.4,723.2 -1405,722.2 
			-1405,720.9 -1406.5,720.3 -1406.5,719.2 -1403.3,717.9 -1403.3,716.8 -1406.3,715.7 -1412.1,715.7 -1415.4,717 -1415.4,718.6 
			-1418,719.7 -1418,721.6 -1415.2,722.7 		"/>
		<polygon class="st0" points="-1421.3,727.9 -1418.3,726.7 -1418.3,725.8 -1422.3,724.5 -1425.8,725.9 -1425.8,727.2 
			-1423.9,727.9 		"/>
		<polygon class="st0" points="-1426.7,827.8 -1431,827.8 -1431,830.3 -1431,831.7 -1433.6,832.7 -1433.6,833.8 -1433.6,836.2 
			-1431.8,836.9 -1427.9,836.9 -1425.1,835.8 -1425.1,833.4 -1422.5,832.3 -1422.5,830.4 -1420.6,829.6 -1420.6,827 -1419.9,826.7 
			-1419.9,825.7 -1421.3,825.6 		"/>
		<polygon class="st0" points="-1365.4,808.6 -1368.5,807.3 -1368.5,806.4 -1370.9,805.4 -1374.3,806.7 -1370.7,808.2 
			-1370.7,810.7 -1370.7,812.6 -1370.7,815.3 -1368.7,815.3 -1366.1,815.3 -1366.1,813.3 -1363.3,812.2 -1363.3,810.7 
			-1365.4,809.9 		"/>
		<polygon class="st0" points="-1396,817.4 -1397.6,816.8 -1399,816.8 -1399,817.7 -1401.2,817.2 -1402.5,817.8 -1402.5,819.3 
			-1399.7,819.3 -1397.5,819.3 -1396,818.7 		"/>
		<polygon class="st0" points="-1406.3,818.3 -1406.8,817.6 -1409.3,818.6 -1409.3,819.6 -1412.3,820.7 -1410.6,821.4 
			-1407.7,820.2 -1406.3,819.7 		"/>
		<polygon class="st0" points="-1407.3,832.4 -1407.3,833.2 -1405.3,833.2 -1404,832.7 -1404,831.7 -1405.5,831.7 		"/>
		<polygon class="st0" points="-1396.4,832.3 -1394.6,833.1 -1391.8,831.9 -1393.7,831.2 		"/>
		<polygon class="st0" points="-1415.8,833.5 -1414,834.2 -1411,834.2 -1411,833.1 -1414.2,832.8 		"/>
		<polygon class="st0" points="-1419,822.8 -1419,824 -1416.8,823.1 -1416.8,821.7 -1419,821.3 		"/>
		<polygon class="st0" points="-1421.3,822.4 -1424.6,821.9 -1426.2,822.5 -1423.9,823.4 		"/>
		<polygon class="st0" points="-1435.5,822.8 -1437.2,823.5 -1437.2,824.7 -1433.2,824.7 -1433.2,825.9 -1431.2,826.7 
			-1429.1,825.8 -1427.5,826.5 -1425.3,825.6 -1426.9,825 -1428.3,824.4 -1430.1,825.1 -1431.9,824.3 -1431.9,823.1 		"/>
		<polygon class="st0" points="-1373.8,801 -1376,801.8 -1376,802.4 -1371.9,804.1 -1370.6,803.6 -1373.9,802.2 -1372.3,801.5 		"/>
		<polygon class="st0" points="-1581.5,730.9 -1585.5,730.9 -1585.5,730 -1587.3,729.3 -1590.3,729.3 -1591.7,728.7 -1595.6,728.7 
			-1596.1,729.1 -1599.3,730.4 -1596.4,731.6 -1596.4,732.6 -1595.2,733.1 -1592.7,733.1 -1592.7,734.1 -1589.6,734.1 
			-1587.6,733.3 -1585.3,734.3 -1583,735.2 -1579.9,733.9 -1579.9,732.6 -1581.5,732 		"/>
		<polygon class="st0" points="-1569.7,740.1 -1569.8,741.2 -1569.2,741.4 -1567.6,741.4 -1567.6,742.1 -1566.7,742.1 
			-1565.5,742.1 -1565.5,741.2 -1563.5,740.4 -1565.5,739.6 -1568.4,739.6 		"/>
		<polygon class="st0" points="-767.2,694.5 -762.9,692.8 -762.9,692.2 -766,692.2 -768.3,691.3 -770.4,691.3 -772.7,692.2 
			-772.7,693.3 -774.5,694 -779.8,694 -781.8,694 -789.3,697 -790.7,696.4 -782.9,693.2 -782.9,691.4 -788.5,691.4 -788.5,692.5 
			-789.8,693 -791.8,693.8 -797.8,693.8 -797.8,692.8 -794.7,691.6 -793.4,691 -800.4,691 -802.5,691.9 -805.8,691.9 -805.8,692.5 
			-809.6,692.5 -811,692 -807.9,690.7 -801.9,690.7 -800.3,690.1 -790,690.1 -785.9,690.1 -783.5,689.2 -783.5,687.6 -788.3,687.6 
			-791,687.6 -794,688.8 -794.9,688.5 -794.9,687.8 -791.7,686.5 -791.7,685.9 -795.8,685.9 -797.8,686.6 -802.6,686.6 
			-805.8,686.6 -807.7,687.4 -811.3,687.4 -812.3,687.8 -815.9,687.8 -815.9,686.8 -810.1,686.8 -810.1,685.6 -803.6,685.6 
			-799.2,685.6 -796.1,685.6 -796.1,684.9 -799.9,684.9 -802.1,684 -807,684 -811.8,684 -811.8,684.9 -814,684 -818.6,684 
			-822,685.4 -818.6,685.4 -818.6,686.2 -823,686.2 -823,688.1 -826,686.9 -830,686.9 -830,685.9 -835.3,685.9 -835.3,686.9 
			-830.7,686.9 -827.9,688.1 -825.2,689.2 -827.6,689.2 -830.2,689.2 -832.1,688.4 -834.1,688.4 -834.1,689.5 -834.1,691.3 
			-836.3,692.2 -844.7,688.8 -847.7,690.1 -845.4,691 -848.1,692.1 -852.5,692.1 -852.5,692.9 -856.4,692.9 -856.4,690.6 
			-858.8,690.6 -864.4,690.6 -866.1,691.2 -864.3,692 -862.8,692.6 -862.8,694 -863.8,693.6 -867,692.3 -869.3,692.3 -871.5,692.3 
			-871.5,693.3 -871.5,694.5 -871.5,695 -874.6,695 -876.4,694.2 -884.4,697.5 -882.6,698.2 -879,696.7 -876.7,697.6 -876.7,698.5 
			-878.5,699.2 -878.5,700.1 -880.7,701 -880.7,701.8 -880.7,702 -886.7,702 -891.5,703.9 -895.1,703.9 -895.1,705 -892.2,705 
			-888.4,706.6 -884.7,705.1 -880.5,705.1 -880.5,706.5 -883.8,707.8 -888.5,707.8 -888.5,709.7 -884.5,709.7 -880.5,708.1 
			-873.3,708.1 -867.8,710.3 -864.5,710.3 -864.5,712.5 -861.3,712.5 -856.4,714.5 -856.4,716.5 -856.4,719.4 -854.2,719.4 
			-854.2,718.6 -849.4,718.6 -846.7,719.7 -846.7,721.5 -844.9,722.2 -844.9,724.1 -846.9,724.9 -846.9,725.8 -851.3,725.8 
			-851.3,727.5 -851.3,729 -848.9,730 -846.2,730 -846.2,731.3 -847.7,731.3 -847.7,732.5 -845.8,733.3 -841.9,734.9 -837.5,734.9 
			-834.6,734.9 -834.6,735.9 -831.2,735.9 -828.2,734.6 -828.2,733.5 -829.3,733.1 -829.3,732.1 -827.6,732.1 -827.6,729.4 
			-821.6,727 -817.4,727 -817.4,728 -813.8,728 -808.3,725.8 -808.3,724.1 -803.8,724.1 -803.8,724.9 -799,724.9 -796.5,723.9 
			-791.9,723.9 -790,723.1 -787.9,722.3 -793.9,722.3 -799.2,722.3 -799.2,721.4 -797.3,720.6 -797.3,719.1 -795.2,718.3 
			-793.3,719.1 -790.5,720.2 -787.1,720.2 -787.1,721.6 -784.7,721.6 -784.7,718.8 -789.8,718.8 -793.2,717.5 -795.8,717.5 
			-795.8,716.2 -789.3,716.2 -789.3,714.7 -786.9,714.7 -784.1,715.9 -781,715.9 -781,714.8 -783.1,714 -783.1,713 -780.3,713 
			-780.3,712 -783.5,710.7 -782.9,710.5 -780.4,711.5 -778,710.5 -783.2,708.4 -780.5,707.3 -776.9,707.3 -778.6,706.6 
			-780.7,705.8 -784.2,705.8 -784.2,704.6 -781.8,704.6 -781.8,702.4 -777.9,702.4 -777.9,700.5 -780.4,699.5 -780.4,698.3 
			-778.7,697.6 -781.6,696.4 -780.8,696 -775,696 -772.7,695.1 -768.7,695.1 		"/>
		<polygon class="st0" points="-899,716.6 -902.9,716.6 -902.9,717.6 -905.6,717.6 -908.3,718.7 -910.4,718.7 -910.4,717 
			-908.8,716.4 -910.2,715.8 -910.2,714.1 -914.7,714.1 -914.7,714.7 -919.3,714.7 -919.3,716.8 -917.5,717.5 -917.5,718.7 
			-920.4,718.7 -920.4,716.6 -920.7,714.2 -920.9,713.3 -925,713.3 -930.7,715.6 -930.7,718.3 -927.6,719.5 -927.6,720.8 
			-924.5,720.8 -921.6,720.8 -921.6,720 -918.7,720 -918.7,721.7 -925.3,721.7 -925.3,723 -922.7,724 -919.5,724 -913.4,724 
			-911.1,723.1 -909.3,723.1 -907,724 -905.1,723.2 -901,724.9 -897.2,726.5 -899.2,727.3 -901.6,728.3 -901.6,730.3 -895.9,730.3 
			-895.9,728.9 -893.6,728 -891.8,728.7 -891.8,730.4 -894.5,731.5 -894.5,733.7 -896.9,734.7 -902.5,734.7 -902.5,736.3 
			-902.5,737.8 -896.7,737.8 -896.7,736.7 -893.4,738 -889.5,739.5 -885.3,739.5 -884.5,739.9 -877.7,742.6 -875.5,741.7 
			-882.7,738.7 -880.9,738.7 -876.2,740.6 -871.8,738.9 -871.8,737.3 -875.5,737.3 -875.5,736.2 -878.4,736.2 -880.2,735.4 
			-881.4,735 -881.4,732.9 -878.8,731.8 -876.6,732.7 -876.6,733.7 -872.5,735.3 -869.3,734 -866.8,733 -869,732.2 -874.5,729.9 
			-876.2,729.3 -877.8,729.3 -879,728.8 -881.5,727.8 -881.5,725.3 -884.4,724.1 -892.8,720.7 -894.5,720.7 -894.5,718.4 		"/>
		<polygon class="st0" points="-1004,720.7 -1001.3,719.6 -998.2,718.4 -998.2,717.3 -995.4,716.1 -993.1,715.2 -987.6,713.2 
			-991.7,711.9 -993.9,712.8 -997.5,712.8 -997.5,711.3 -1001.9,711.3 -1006.2,711.3 -1006.2,712.3 -1006.2,713.4 -1006.2,714.5 
			-1007.4,715.5 -1010.7,716.8 -1010.7,718 -1007.4,719.3 		"/>
		<polygon class="st0" points="-960.9,726.1 -958.4,727.1 -955.9,727.1 -955.9,724.5 -957.3,724 -959.6,723 -963.8,721.4 
			-963.8,719.5 -962.5,719 -962.5,715.5 -966.1,714 -967.2,713.6 -969.5,714.5 -969.5,716.4 -969.5,718.5 -972.4,718.5 
			-972.4,717.1 -974.5,716.2 -976.8,717.1 -979.6,717.1 -979.6,715.9 -982.5,715.9 -984.2,716.5 -986,715.8 -983,714.6 -985,713.8 
			-987.1,714.3 -994.7,717.4 -994.7,718.4 -992.7,719.2 -990.1,720.2 -987.6,720.2 -987.6,720.7 -988.8,721.1 -992.7,721.1 
			-992.7,722.1 -989.9,723.2 -983.4,723.2 -983.4,722 -981.6,722.7 -980.1,723.3 -980.1,723.8 -990.1,723.8 -990.1,725 
			-987.9,725.8 -982.6,725.8 -982.6,726.7 -972.9,726.7 -971.6,726.2 -968.9,726.2 -968.9,724.9 -966.1,724.9 -966.1,726.1 		"/>
		<polygon class="st0" points="-937.8,698.7 -937.8,699.5 -937.8,700.5 -934,700.5 -934,701.4 -931.5,701.4 -928,700 -928,698.9 
			-924.9,698.9 -922.8,698 -926.3,696.6 -927.4,696.2 -929.9,695.2 -932.8,694 -937.1,691.4 -941.5,693.1 -938.6,694.3 
			-941.5,695.4 -941.5,696.3 -943,696.9 -943,697.9 -937.8,697.9 		"/>
		<path class="st0" d="M-926.4,690.5l-1.9,0.8l-2.3,0.9h3h6.2v1.2h-4.7l2.7,1.1h5.1v-1.6h4.4l0.7,0.3h1.8v-1.5l5.2-2.1l2.2,0.9
			l-4,1.6v1.4h5.7v0.2v0.7h-6.4h-3.8l-1.3,0.5h-2v0.8h2.9v0.9l1.6,0.7h2.2l-1.1,0.4h-3.1h-1.8l-4.4-1.8l-0.8-0.3h-1.5l-1-0.4h-2v0.9
			l2.4,1l3.8,1.5l1.8,0.7h3.8v0.8l-2.1,0.8l-2.4-1h-1.7h-3.8l-2,0.8l1.2,0.5h3.2v0.6v1.1h2.4l1.9-0.8h1v0.8l-2.8,1.1h-5.5v-0.8
			l-2-0.8l-2.3,0.9l2.1,0.8l-1.6,0.7l-1.4,0.6v0.5h3.9v0.5c0,0,4.5,0.2,4.5,0s0-1.2,0-1.2h5.6v1.1h3.8l2.4-1l-1.7-0.7h-3l-1.4-0.6
			l1.8-0.7h2h2.7l3-1.2h3.4v-1.1v-1h1.6v-0.6h-4.2v-1.4l1.8-0.7h3.5h4.5v-1l2.2,0.9l3.5-1.4v-1.3h3.9l8-3.2l-2.8-1.1l-4.1,1.7h-2.7
			l-1.9-0.8h2.1v-1.4h3.5h5.5l1.6-0.7l5.8-2.3l-1.3-0.5h-1.5l-1.5-0.6l-1.8-0.7h-2.5v0.8h-5.5h-2.7l2.4-1h-2l-1.3-0.5h-6.4l-1.8,0.7
			v0.7l-1.2-0.5l-2.9-1.2h-4.5l5,2l-2.1,0.9l-2.4-1l-2.2-0.9h-4.2l-1.9,0.8l-2.2,0.9v0.4l0.9,0.3l1.5,0.6h-4.9h-1.8l-1.6,0.7v-1.2
			l-2.1-0.8v1v0.9l-0.8,0.3h-2.4l-1.7-0.7l-1.6,0.5l-2.5,1l2.1,0.8H-926.4z"/>
		<polygon class="st0" points="-997,706 -995.3,705.3 -994,705.3 -994,706.7 -994,707.8 -990,707.8 -990,708.5 -984.4,708.5 
			-982.7,709.2 -982.7,710 -978.2,710 -976.2,709.2 -971.4,709.2 -968.6,708.1 -968.6,709.7 -964.4,708 -967.3,706.8 -969.2,706 
			-971.3,706.9 -973,706.2 -973,705.1 -976.5,705.1 -976.5,706.6 -976.5,708 -981.4,708 -981.4,706.4 -983.8,706.4 -987.1,706.4 
			-991.3,706.4 -991.3,704.8 -988.4,704.8 -988.4,703.3 -992,703.3 -994.2,703.3 -994.4,703.9 -998.4,704.2 -1001.2,705.4 
			-1001.2,707.2 -999.8,707.2 		"/>
		<polygon class="st0" points="-979.6,702.7 -979.6,701.6 -978.3,701 -978.3,700.1 -981.4,700.1 -982.5,700.1 -982.2,700.7 
			-984.5,701.7 -984.5,703.3 -981.1,703.3 		"/>
		<polygon class="st0" points="-956.7,705.9 -959.9,707.2 -956.5,708.6 -956.5,709.7 -953.3,709.7 -953.3,707.6 -949.6,707.6 
			-947.5,706.8 -952.4,705.9 		"/>
		<polygon class="st0" points="-947.9,708.8 -943.4,710.7 -939.4,709 -936.6,710.1 -936.6,707.8 -940.2,707.8 -940.2,706.1 
			-942,705.2 -946.9,705.2 -942.9,706.8 -945.9,708 		"/>
		<polygon class="st0" points="-925.6,710.3 -927.3,711 -921.3,711 -921.3,709.5 -916.7,709.5 -916.7,710.3 -914.3,711.2 
			-910.4,709.7 -913,708.6 -915.2,707.7 -921.5,707.7 -924.7,709 -927.8,709 -930.5,707.9 -930.5,706.4 -933.6,706.4 -933.6,708.1 
			-933.6,710.3 -929.6,710.3 		"/>
		<polygon class="st0" points="-950.2,700.3 -950.2,702.2 -947.5,702.2 -944.4,703.5 -940.2,703.5 -938.4,702.8 -939.6,702 
			-941.3,701.3 -944.5,701.3 -946.1,700.7 -948.5,699.7 		"/>
		<polygon class="st0" points="-964.7,700.9 -962.5,701.8 -958.2,701.8 -954.3,703.4 -952.9,702.8 -954.4,702.3 -954.4,700.3 
			-956.9,700.3 -962.2,700.3 -962.2,698.7 -964.7,698.7 -967.7,698.7 -964.7,699.9 		"/>
		<polygon class="st0" points="-951.1,718.7 -951.1,720.1 -948.8,721 -945.4,719.6 -945.4,717.6 -948.2,716.4 -950.5,716.4 
			-950.5,714.9 -947.1,714.9 -947.1,713 -949.4,713.2 -952.4,713.2 -952.4,714.9 -952.4,716.2 -953.7,716.7 -956,716.7 
			-953.8,717.6 		"/>
		<polygon class="st0" points="-938,718.3 -934.8,717 -933.5,716.5 -933.5,714.1 -930.9,714.1 -930.9,712.1 -934.4,712.1 
			-936.3,712.9 -937.7,712.3 -940.2,712.3 -943.7,713.7 -943.7,715.4 -940.1,716.8 -940.1,717.4 		"/>
		<polygon class="st0" points="-942.7,727.5 -942.7,726.1 -948.2,724.6 -951.8,726 -948.2,727.5 		"/>
		<polygon class="st0" points="-903.5,715.1 -901.5,715.9 -899.1,714.9 -902.4,713.3 -909.3,713.3 -909.3,715.5 -906.8,716.5 		"/>
		<polygon class="st0" points="-947.1,696.8 -951,695.2 -953.5,695.7 -955.4,696.5 -950.8,698.3 		"/>
		<polygon class="st0" points="-963.5,705 -963.5,703.1 -966.3,701.9 -968.4,702.2 -968.4,703.1 -965.5,704.2 		"/>
		<polygon class="st0" points="-910.2,741.9 -910.2,742.7 -907.9,743.7 -905,742.5 -905,741.4 -908.1,741.1 		"/>
		<polygon class="st0" points="-901.1,795.9 -898.7,794.9 -894.4,794.9 -894.4,794.2 -898.7,794.2 -902.5,792.7 -902.5,791.9 
			-905.8,791.9 -910,791.9 -910,791.1 -913.1,791.1 -915.9,792.3 -913.1,793.4 -911.5,793.4 -906.9,793.4 -903.5,794.8 
			-906.1,795.9 		"/>
		<polygon class="st0" points="-864.8,802 -862,802 -860.5,801.4 -864.7,799.7 -864.7,798.3 -867.2,797.3 -869.3,797.3 
			-870.9,796.6 -872.6,795.9 -878.7,795.9 -881.8,795.9 -881.8,795 -886.9,795 -889.4,794 -888.4,793.6 -891.6,792.2 -895.3,792.2 
			-895.3,791.1 -897.4,790.3 -899.9,789.3 -899.9,788.1 -902.7,786.9 -904.9,787.8 -906.9,787.6 -906.9,789.1 -903.5,789.1 
			-901.3,789.1 -901.3,790 -903.1,790.7 -903.9,791 -902.5,791.6 -899.3,791.6 -899.3,792.5 -897.9,793 -894.4,793 -894.4,794 
			-892.8,794.6 -892.8,795.7 -896.7,795.7 -896.7,797.2 -893.6,797.2 -888.9,797.2 -886.2,797.2 -884.2,797.2 -882.5,796.5 
			-880.2,797.5 -872.9,797.5 -869.9,798.7 -865.7,800.4 -865.7,801.6 		"/>
		<polygon class="st0" points="-911.2,796.7 -908.1,795.4 -910.9,794.9 -913.3,795.8 		"/>
		<polygon class="st0" points="-918.5,792 -920.2,792.5 -920.2,793.6 -914.7,793.6 -917.1,792.7 -917.1,791.8 		"/>
		<polygon class="st0" points="-930,813.8 -930,812.4 -930.5,812.7 -935.8,813.6 -935.8,814.6 -933.7,815.5 -930,815.5 
			-927.2,814.4 -928.5,813.8 		"/>
		<polygon class="st0" points="-909.1,837.7 -906.6,838.7 -904.9,838 -904.9,836.8 -907.5,837 		"/>
		<path class="st0" d="M-812.9,817.4l-1.5-0.6l-2.8-1.1h-8.2l-1.7-0.7h-3.2l-5.3-2.2l-3.8-1.5l-2.5-1v-1.8h-3.5l-3-1.2h-7.8
			l-3.6-1.5h-2.9l-2.2-0.9l1.9-0.8v-1.5h-3.3l-2.5,1v-0.8h-6.1v0.7h-1.9h-2.8l-1.8-0.7v-1.2h-1.9l-1.2,0.5h-3.6v-0.9h-2.7l-2.4,1
			l-1.7,0.7l-2.2,0.9l-3.6,1.5h-3.9l2.2-0.9h-3.4h-2.4l-2.2,0.9l-2.5-1l-2.6-1.1v-2.4l2.2-0.9l-1.7-0.7l-3-1.2h-3.6l-1.8,0.7l-2-0.8
			l1.5-0.6l2-0.8v-2.1v-1l-1.5-0.6h-6.5l-2.6,1.1v1l-1.3,0.5v0.8h-0.2l-1.6,0.7h-3.2l-3.8-1.5l-2.7-1.1l-1.7-0.7v-3.5h1.1v-2.3
			l4.8-2l2.1-0.8h7.4l3,1.2v-1.5h6.2h5.1l3.6,1.5v2.1l3.4,1.4h2.2v-2.3l-3.9-1.6v-2.3l8.7-3.5l2.8-1.1v-1.1l2.1-0.9l3.3-1.3v-2.2
			l4.9-2h4.4v-1l3-1.2h2.3h3.4v0.6l2.5,1l2.3-0.9l2.5-1h5.1l2.7-1.1v-2.1h-2h-3.5h-3.1h-4.2v-1.3h-5.1l-2.4,1v1.7l-3.2,1.3h-10.2
			l-5.3,2.2l-1.5,0.6h-8l-2.7-1.1v-2h-4.4v-2.2h-2.7l-1.9,0.8l-2.5-1l1.5-0.6h-5.9v-0.7h3.6h3.8v1.3h4.2l1.5,0.6h2.8h3.5v1.2
			l1.9,0.8v0.6h-2.3v1.5h2.7h3.8l2.3-0.9l3.4-1.4v-0.4h10.5l1.8-0.7v-1l-1.2-0.5v-0.8l4.3-1.7h3.4l1.7,0.7h3.2l1.8-0.7l1.9,0.8
			l1.4-0.5h3.5l3.5-1.4l2.2-0.9l1.4,0.6v0.8l-1.7,0.7l-2.1,0.8l2,0.8h7.6l2.3-0.9v-0.8h-3.9v-1.7l2.2-0.9v-3.2l-4-1.6l-3.5,1.4h-4
			v-1.2h1.8l2.3-0.9l-2.3-0.9l-2.7-1.1l-3-1.2h-2.1v-2.1l-2.1-0.8l-2.9-1.2v0.6v0.9h-3.9l-1.1,0.4h-1.5v-1.4h-3.1h-2.5l1.7-0.7v-1.6
			v-1.4l-3.3-1.3h-4.2v-1.1h-4.4h-1.5l-2.2-0.9l-2.6,1.1l2.5,1v2.2v1.2l-2.9,1.2v0.5l1.8,0.7l2,0.8v1.5l1.7,0.7v1.1h-3.9l-3.6,1.5
			l3.5,1.4v1.8v1.7l-2.5,1h-3.5h-1.8v-1.1l-2-0.8l-1.8-0.7v-3.2l-2.3-0.9h-2.1l-2.7,1.1v-1.5h-3.1l-3.6-1.5h-2.7v-0.6h-1.8h-2.2
			h-1.8v-1.7l-1.7-0.7l-1.9-0.8h-1.3v-3.6l3-1.2v-0.8l2.1-0.9v-1.1h3l2-0.8V739h-3.8h-1.6l-1.8-0.7l1.2-0.5h1.5l1.3,0.5h3.4h2
			l1.6-0.7h2.9v1.8l1.3,0.5h2.7l1.3,0.5l4.9-2l1.2,0.5l-4.5,1.8v1l1.8,0.7l1.8-0.7h2v-1.3v-0.7l1.6-0.7l2.1-0.8l-6.1-2.5v-1h-2.2
			l-2.4-1h2.9l5.1-2.1v-2.1l-1.2-0.5l-2.5-0.8v-1l3.1-1.2l-3.6-1.5h-3.1v1.7l-2.9,1.2v1.8l-2.9,1.2l-2.7-1.1v-2.3l-2.8-1.1v1.9
			l-2.3,0.9v-2l-4.2-1.7V724v-1.6v-1.2l-3-1.2h-3v1.4v2.3l3.8,1.5v2v1.2l-2.8,1.1v1.8h-3.5v-1.5h-13.8l-2.7-1.1h-3.8l-1.5,0.6v2.1
			h-5.7l-3.5-1.4h-11.1v-1.5l2.7-1.1v-1.2h-10.4l-4.9-2l-3.5,1.4h-9.1l-3.3-1.3l-4.4,1.8h-5.1l-2.7,1.1h-5.6h-7.6v-1.7h-5.8l-2-0.8
			h-5.6l-4.3-1.7h-5.9h-8l-3-1.2h-5l-4.7,1.9h-4.8l-5.4,2.2v1.5h-5.5v1l4,1.6l4,1.6h6.2v1.2l-1.3,0.5l-2.9,1.2h-4.9l-3.2-1.3
			l-3.2,1.3v1.7h7.8h3.6l1.8-0.7v3.4l-3.1,1.2l-5.3,2.1v1.8l2.4,1l-2.4,1l2.5,1l4.4-1.8v1.3l2.9,1.2h7.6v0.7l-4,1.6l1.6,0.7
			l-5.5,2.2l1.5,0.6l6.5-2.6l4.9-2v-1.9l4.4-1.8l4.9-2v-1.5h2.4v1.3l5.6,2.3h5.3h2.2h7.3l3.2,1.3h4.5h4l4.1,1.7v2.7h3.1v1.5h5.5v2.5
			v1.9l3.6,1.5v1.6h4.4l4.2,1.7l3.8,1.5v1.8l-1.6,0.7v9.3l3.9,1.6v1.7l4,1.6l3.1,1.2v1.3h3.6v2.4l4.1,1.7v2l2.4,1l3.2,1.3v1l1.6,0.6
			l2.1,0.8h2.2v-0.9l-2.8-1.1v-1l-4.5-1.8v-1.4l-4-1.6c0,0,0-1.3,0-1.7c0-0.4,1.9,0,1.9,0v1.7l3.5,1.4l3.5,1.4l2.1,0.8v1h3.8l7.4,3
			v2.8l3.5,1.4h2.5l4.1,1.7h3.2h3.1h5.1l2.4,1h0.5l1.2,1.6l2.2,0.9h3.6l1.8,0.7h5.5l1.6,0.6v1.7h1.9l2.5,1l2.6,1.1h3l3.2,1.3l2.4-1
			v-0.9l1.1-0.4l1.2,0.5v1.4v1.3l1.7,0.7v0.6h-2.4l-2.4,1v1.7l-4,1.6v2.5v1.6l1.9,0.8l5.1,2.1v2.4l1.9,0.8v1.3l4.5,1.8l3.8,1.5h3.9
			l3.4,1.4v4.3h-3.1v2.1v2.7v2.6v2.3v2.7l-3.4,1.4v1.7v3h-2.2v4.1h3.3v1.4l-2.2,0.9l-2,0.8v0.8l-1.8,0.7v4l3,1.2v3l2.5,1l1.9,0.8
			h3.9v1.6h1.2l1.9,0.8h4.4v-1h6.1h2.6v-0.8l-1.6-0.6l-2-0.8h-3.8l-2.8-1.1v-2.1l-1.5-0.6v-1.2h3.3v-0.9l5.3-2.1v-1.7l-1.8-0.7h-2.2
			v-0.9h4.4v-1.6l1.5-0.6l2.9-1.2v-1.5h-2.4v-0.5h3.4l1.7-0.7v-1.5l1.5-0.6h8.4l2.6-1.1v-1.8l-1.6-0.6v-0.8h6.1l2.2-0.9v-0.8l2.4-1
			l5.3-2.2v-2h5.5v-3l6.4-2.6h6.2v-1l5.4-2.2v-2.1l3.4-1.4v-2.9l8.9-3.6v-3.7l-2.6-1.1H-812.9z"/>
		<polygon class="st0" points="-1096.7,789.7 -1097.9,790.2 -1099.6,790.2 -1099.6,791.2 -1099.6,792 -1097.5,791.1 -1095.2,792 
			-1092.3,790.9 -1092.3,790 -1093.3,789.6 		"/>
		<polygon class="st0" points="-1073.4,795 -1075.3,794.2 -1075.3,792.9 -1079,792.9 -1081.1,792 -1084.8,792 -1084.8,791.3 
			-1089.4,791 -1091.4,791.8 -1091.4,792.7 -1088.4,792.7 -1086.4,793.6 -1084,793.6 -1081.9,794.4 -1078.2,794.4 -1078.2,795.7 
			-1078.2,796.3 -1078.2,798.2 -1075.1,798.2 -1072.9,797.3 -1069.5,797.3 -1068.7,797 -1068.7,795.8 -1070.7,795 		"/>
		<polygon class="st0" points="-864.2,866.8 -867.9,868.3 -867.9,869.4 -864.7,869.4 -862.8,870.1 -859.5,868.7 -855.5,868.7 
			-855.5,867.6 -857.5,866.8 		"/>
	</g>
	<g>
		<g>
			<circle class="st1" cx="-1262.7" cy="764.7" r="11.6"/>
			<polygon class="st1" points="-1262.9,789.3 -1274.2,765.1 -1251.1,765.1 			"/>
		</g>
		<circle class="st2" cx="-1262.7" cy="764.7" r="6"/>
	</g>
	<g>
		<g>
			<circle class="st1" cx="-1217.4" cy="820.5" r="11.6"/>
			<polygon class="st1" points="-1217.6,845.1 -1229,820.9 -1205.8,820.9 			"/>
		</g>
		<circle class="st2" cx="-1217.4" cy="820.5" r="6"/>
	</g>
	<g>
		<g>
			<circle class="st1" cx="-1148.1" cy="830.6" r="11.6"/>
			<polygon class="st1" points="-1148.3,855.2 -1159.7,831.1 -1136.5,831.1 			"/>
		</g>
		<circle class="st2" cx="-1148.1" cy="830.6" r="6"/>
	</g>
	<g>
		<g>
			<circle class="st1" cx="-1089" cy="766.4" r="11.6"/>
			<polygon class="st1" points="-1089.2,791 -1100.6,766.8 -1077.4,766.8 			"/>
		</g>
		<circle class="st2" cx="-1089" cy="766.4" r="6"/>
	</g>
	<g>
		<g>
			<circle class="st1" cx="-1251.1" cy="812.6" r="11.6"/>
			<polygon class="st1" points="-1251.3,837.2 -1262.7,813 -1239.5,813 			"/>
		</g>
		<circle class="st2" cx="-1251.1" cy="812.6" r="6"/>
	</g>
	<g>
		<g>
			<circle class="st1" cx="-978.3" cy="743.3" r="11.6"/>
			<polygon class="st1" points="-978.5,767.9 -989.9,743.8 -966.7,743.8 			"/>
		</g>
		<circle class="st2" cx="-978.3" cy="743.3" r="6"/>
	</g>
	<g>
		<g>
			<circle class="st1" cx="-944.3" cy="758.2" r="11.6"/>
			<polygon class="st1" points="-944.5,782.8 -955.9,758.6 -932.7,758.6 			"/>
		</g>
		<circle class="st2" cx="-944.3" cy="758.2" r="6"/>
	</g>
	<g>
		<g>
			<circle class="st1" cx="-895.1" cy="794.5" r="11.6"/>
			<polygon class="st1" points="-895.3,819.1 -906.7,794.9 -883.5,794.9 			"/>
		</g>
		<circle class="st2" cx="-895.1" cy="794.5" r="6"/>
	</g>
	<g>
		<g>
			<circle class="st1" cx="-848.9" cy="800.5" r="11.6"/>
			<polygon class="st1" points="-849.2,825.1 -860.5,800.9 -837.3,800.9 			"/>
		</g>
		<circle class="st2" cx="-848.9" cy="800.5" r="6"/>
	</g>
	<g>
		<g>
			<circle class="st1" cx="-872.1" cy="827.7" r="11.6"/>
			<polygon class="st1" points="-872.4,852.3 -883.7,828.1 -860.5,828.1 			"/>
		</g>
		<circle class="st2" cx="-872.1" cy="827.7" r="6"/>
	</g>
	<g>
		<g>
			<circle class="st1" cx="-1291.5" cy="743.3" r="11.6"/>
			<polygon class="st1" points="-1291.7,767.9 -1303.1,743.8 -1279.9,743.8 			"/>
		</g>
		<circle class="st2" cx="-1291.5" cy="743.3" r="6"/>
	</g>
	<g>
		<g>
			<circle class="st1" cx="-1314.3" cy="758.8" r="11.6"/>
			<polygon class="st1" points="-1314.5,783.4 -1325.8,759.3 -1302.7,759.3 			"/>
		</g>
		<circle class="st2" cx="-1314.3" cy="758.8" r="6"/>
	</g>
	<g>
		<g>
			<circle class="st1" cx="-1355.8" cy="772.4" r="11.6"/>
			<polygon class="st1" points="-1356,797 -1367.4,772.8 -1344.2,772.8 			"/>
		</g>
		<circle class="st2" cx="-1355.8" cy="772.4" r="6"/>
	</g>
	<g>
		<g>
			<circle class="st1" cx="-1380.2" cy="764.8" r="11.6"/>
			<polygon class="st1" points="-1380.5,789.4 -1391.8,765.3 -1368.6,765.3 			"/>
		</g>
		<circle class="st2" cx="-1380.2" cy="764.8" r="6"/>
	</g>
	<g>
		<g>
			<circle class="st1" cx="-1425.3" cy="770.8" r="11.6"/>
			<polygon class="st1" points="-1425.6,795.5 -1436.9,771.3 -1413.7,771.3 			"/>
		</g>
		<circle class="st2" cx="-1425.3" cy="770.8" r="6"/>
	</g>
	<g>
		<g>
			<circle class="st1" cx="-1220" cy="755.3" r="11.6"/>
			<polygon class="st1" points="-1220.3,779.9 -1231.6,755.8 -1208.4,755.8 			"/>
		</g>
		<circle class="st2" cx="-1220" cy="755.3" r="6"/>
	</g>
	<g>
		<g>
			<circle class="st1" cx="-1210.5" cy="739" r="8"/>
			<polygon class="st1" points="-1210.6,756 -1218.4,739.3 -1202.5,739.3 			"/>
		</g>
		<circle class="st2" cx="-1210.5" cy="739" r="4.1"/>
	</g>
	<g>
		<g>
			<circle class="st1" cx="-1238.3" cy="716.1" r="8"/>
			<polygon class="st1" points="-1238.5,733 -1246.3,716.4 -1230.3,716.4 			"/>
		</g>
		<circle class="st2" cx="-1238.3" cy="716.1" r="4.1"/>
	</g>
	<g>
		<g>
			<circle class="st1" cx="-1176.4" cy="725.1" r="8"/>
			<polygon class="st1" points="-1176.6,742.1 -1184.4,725.4 -1168.5,725.4 			"/>
		</g>
		<circle class="st2" cx="-1176.4" cy="725.1" r="4.1"/>
	</g>
	<g>
		<g>
			<circle class="st1" cx="-1265.8" cy="726.1" r="8"/>
			<polygon class="st1" points="-1266,743.1 -1273.8,726.4 -1257.9,726.4 			"/>
		</g>
		<circle class="st2" cx="-1265.8" cy="726.1" r="4.1"/>
	</g>
	<g>
		<g>
			<circle class="st1" cx="-1145.4" cy="712.7" r="8"/>
			<polygon class="st1" points="-1145.6,729.6 -1153.4,713 -1137.5,713 			"/>
		</g>
		<circle class="st2" cx="-1145.4" cy="712.7" r="4.1"/>
	</g>
	<g>
		<g>
			<circle class="st1" cx="-1080.1" cy="722.6" r="8"/>
			<polygon class="st1" points="-1080.2,739.6 -1088,722.9 -1072.1,722.9 			"/>
		</g>
		<circle class="st2" cx="-1080.1" cy="722.6" r="4.1"/>
	</g>
	<g>
		<g>
			<circle class="st1" cx="-1049.5" cy="720.1" r="8"/>
			<polygon class="st1" points="-1049.7,737 -1057.5,720.4 -1041.5,720.4 			"/>
		</g>
		<circle class="st2" cx="-1049.5" cy="720.1" r="4.1"/>
	</g>
	<g>
		<g>
			<circle class="st1" cx="-999.1" cy="715.1" r="8"/>
			<polygon class="st1" points="-999.3,732.1 -1007.1,715.4 -991.2,715.4 			"/>
		</g>
		<circle class="st2" cx="-999.1" cy="715.1" r="4.1"/>
	</g>
	<g>
		<g>
			<circle class="st1" cx="-959.7" cy="726.7" r="8"/>
			<polygon class="st1" points="-959.9,743.7 -967.7,727 -951.8,727 			"/>
		</g>
		<circle class="st2" cx="-959.7" cy="726.7" r="4.1"/>
	</g>
	<g>
		<g>
			<circle class="st1" cx="-893.1" cy="740.6" r="8"/>
			<polygon class="st1" points="-893.2,757.6 -901.1,740.9 -885.1,740.9 			"/>
		</g>
		<circle class="st2" cx="-893.1" cy="740.6" r="4.1"/>
	</g>
	<g>
		<g>
			<circle class="st1" cx="-1018.7" cy="729.3" r="8"/>
			<polygon class="st1" points="-1018.9,746.2 -1026.7,729.6 -1010.7,729.6 			"/>
		</g>
		<circle class="st2" cx="-1018.7" cy="729.3" r="4.1"/>
	</g>
	<g>
		<g>
			<circle class="st1" cx="-1466.1" cy="725.5" r="8"/>
			<polygon class="st1" points="-1466.3,742.5 -1474.1,725.8 -1458.1,725.8 			"/>
		</g>
		<circle class="st2" cx="-1466.1" cy="725.5" r="4.1"/>
	</g>
	<g>
		<g>
			<circle class="st1" cx="-1476.1" cy="754.8" r="8"/>
			<polygon class="st1" points="-1476.3,771.7 -1484.1,755.1 -1468.2,755.1 			"/>
		</g>
		<circle class="st2" cx="-1476.1" cy="754.8" r="4.1"/>
	</g>
	<g>
		<g>
			<circle class="st1" cx="-1426.2" cy="730.7" r="8"/>
			<polygon class="st1" points="-1426.3,747.6 -1434.1,731 -1418.2,731 			"/>
		</g>
		<circle class="st2" cx="-1426.2" cy="730.7" r="4.1"/>
	</g>
	<g>
		<g>
			<circle class="st1" cx="-1402.4" cy="734.8" r="8"/>
			<polygon class="st1" points="-1402.6,751.8 -1410.4,735.1 -1394.4,735.1 			"/>
		</g>
		<circle class="st2" cx="-1402.4" cy="734.8" r="4.1"/>
	</g>
	<g>
		<g>
			<circle class="st1" cx="-1359.9" cy="726.2" r="8"/>
			<polygon class="st1" points="-1360.1,743.2 -1367.9,726.5 -1351.9,726.5 			"/>
		</g>
		<circle class="st2" cx="-1359.9" cy="726.2" r="4.1"/>
	</g>
	<g>
		<g>
			<circle class="st1" cx="-1526.3" cy="750.4" r="8"/>
			<polygon class="st1" points="-1526.5,767.4 -1534.3,750.7 -1518.4,750.7 			"/>
		</g>
		<circle class="st2" cx="-1526.3" cy="750.4" r="4.1"/>
	</g>
	<g>
		<g>
			<circle class="st1" cx="-1501" cy="744.8" r="8"/>
			<polygon class="st1" points="-1501.2,761.8 -1509,745.1 -1493,745.1 			"/>
		</g>
		<circle class="st2" cx="-1501" cy="744.8" r="4.1"/>
	</g>
</g>
<g>
	<text transform="matrix(1 0 0 1 -1560.8851 -368.3727)"><tspan x="0" y="0" class="st2" style="font-family:'CenturyGothic-Bold'; font-size:78px;">38,00</tspan><tspan x="196.6" y="0" class="st2" style="font-family:'CenturyGothic-Bold'; font-size:78px; letter-spacing:3;">0+</tspan><tspan x="294.9" y="0" class="st2" style="font-family:'CenturyGothic-Bold'; font-size:78px;">Free Courses</tspan></text>
</g>
<rect x="-1620.9" y="-206.7" class="st3" width="900" height="678"/>
<g>
	<text transform="matrix(1.1 0 0 1 -1061.095 5.2792)" style="font-family:'ArialNarrow-Bold'; font-size:38.549px;">Scored card</text>
</g>
<g>
	<path class="st4" d="M-932-171.1c1.3,0.4,2.2,1.3,3.1,2.2c8.6,8.3,17.3,16.6,25.9,24.8c1.2,1.2,1.8,2.5,1.8,4.1
		c0,30.3,0,60.6,0,90.9c0,2.7-1.7,4.4-4.4,4.4c-29.1,0-58.2,0-87.2,0c-2.8,0-4.4-1.7-4.4-4.5c0-17.3,0-34.6,0-51.8c0-3.5,0-7,0-10.5
		c0-0.3,0-0.6,0-0.8c0.1-0.1,0.2-0.1,0.3-0.2c0.5,0.6,0.9,1.2,1.5,1.7c1.9,1.9,3.8,3.9,5.8,5.7c0.4,0.4,0.6,0.9,0.6,1.5
		c0,16.6,0,33.2,0,49.9c0,0.3,0,0.6,0,1c26.6,0,53.2,0,79.8,0c0-27.9,0-55.8,0-83.8c-0.3,0-0.7,0-1,0c-7.3,0-14.6,0-21.9,0
		c-2.9,0-4.5-1.6-4.5-4.5c0-6.9,0-13.9,0-20.8c0-0.3,0-0.6,0-1c-17.5,0-34.9,0-52.4,0c0,5.3,0,10.5,0,16c-0.3-0.3-0.5-0.4-0.6-0.5
		c-2.4-2.4-4.7-4.7-7.1-7.1c-0.3-0.3-0.4-0.7-0.4-1.1c0-3.4,0-6.9,0-10.3c0-3,0.6-3.9,3.3-5.1C-973.3-171.1-952.7-171.1-932-171.1z
		 M-928.7-144.7c4.4,0,8.7,0,13.2,0c-4.4-4.2-8.7-8.4-13.2-12.6C-928.7-153-928.7-148.9-928.7-144.7z"/>
	<path class="st4" d="M-1020-142.1c0.6-0.7,1-1.6,1.7-2.2c3.6-3.6,7.2-7.2,10.8-10.8c1.6-1.6,3.3-1.6,4.9,0c2.2,2.2,4.4,4.4,6.5,6.5
		c0.1,0.1,0.3,0.3,0.4,0.4c-5.4,5.4-10.8,10.8-16.3,16.3c-2.1-2.1-4.2-4.2-6.3-6.4c-0.7-0.7-1.2-1.6-1.8-2.3
		C-1020-141.2-1020-141.7-1020-142.1z"/>
	<path class="st4" d="M-1009.8-130.2c5.3-5.3,10.7-10.7,16-16.1c19.4,19.4,38.7,38.8,58.1,58.2c-5.3,5.3-10.7,10.7-16,16.1
		C-971-91.3-990.4-110.7-1009.8-130.2z"/>
	<path class="st4" d="M-958.1-115.9c1.4,0,2.7,0,4,0c10.3,0,20.6,0,30.9,0c2.2,0,3.7,1.2,4.2,3.3c0.5,2.4-1.3,4.7-3.8,4.8
		c-2.3,0.1-4.5,0-6.8,0c-6.6,0-13.3,0-19.9,0c-0.3,0-0.7-0.1-0.9-0.3c-2.5-2.4-5-4.9-7.5-7.4C-957.9-115.6-957.9-115.7-958.1-115.9z
		"/>
	<path class="st4" d="M-949.6-69.9c5.4-5.4,10.7-10.7,16.1-16.1c0.6,2,1.1,4.1,1.7,6.2c1.2,4.4,2.4,8.7,3.6,13.1
		c0.5,1.7-0.5,2.6-2.1,2.2c-6.4-1.7-12.7-3.5-19.1-5.2C-949.5-69.8-949.5-69.9-949.6-69.9z"/>
	<path class="st4" d="M-942.8-100.7c0.2,0,0.3,0,0.4,0c6.5,0,12.9,0,19.4,0c1.9,0,3.5,1.3,3.9,3c0.5,1.8-0.3,3.7-2,4.5
		c-0.6,0.3-1.3,0.5-2,0.5c-3.8,0-7.6,0-11.4,0c-0.3,0-0.6-0.1-0.8-0.3c-2.5-2.5-5-4.9-7.4-7.4C-942.7-100.4-942.7-100.5-942.8-100.7
		z"/>
</g>
<g>
	<text transform="matrix(1.1 0 0 1 -1497.7981 220.6899)" style="font-family:'ArialNarrow-Bold'; font-size:38.549px;">Distance to Hazard</text>
</g>
<g>
	<path class="st4" d="M-1405.6-94.6l-1.9,0v0.1c-0.1,19.6,10.9,27.4,20,33.1c9.5,6,22.8,8.7,36.8,8.7c7.4,0,35-2.6,49.9-17.7
		c8.5-8.7,10.2-19.5,10.2-29.1c0-7-0.9-13.5-0.9-18l0-0.7c0.3-10.7,4.3-15.5,5.7-18.6c4.5-10.5,10.6-20.7,10.6-33.3l0-1.9
		c-0.3-7-3.8-12-8.7-15c-4.8-3.1-10.8-4.3-16.7-4.3h0l-0.1,0c-6.2,0.1-18.6,4.5-27.3,13.2c-8.6,8.7-15.1,24.8-18.1,29.3
		c-4.5,7-15.8,12.2-24.1,14.7c-7.6,2.4-16.6,6.1-23.5,10.9c-6.7,4.6-14,10.3-13.9,28.8h3.7c0.2-17.6,5.7-21,12.3-25.7
		c6.4-4.5,15.1-8.1,22.5-10.4c8.6-2.8,20.5-7.8,26-16.2c3.3-5.2,9.7-20.8,17.6-28.7c7.7-7.9,20.1-12.1,24.7-12.1h0.1
		c5.3,0.1,10.7,1.2,14.7,3.8c4,2.6,6.7,6.3,7,12.1l0,1.7c0,11.4-5.6,21.1-10.2,31.9c-0.9,2.1-5.8,8.5-6,20l0,0.8
		c0,5,0.9,11.3,0.9,18c0,9.2-1.6,18.8-9.1,26.5c-13.3,13.8-40.6,16.7-47.3,16.6c-13.6,0-26.3-2.7-34.9-8.1c-9-5.8-18.2-11.9-18.3-30
		v-0.1H-1405.6"/>
	<path class="st4" d="M-1349.7-126.1c-25.5,0-46.1,14.1-46.1,31.5c0,17.4,20.7,31.5,46.1,31.5c25.5,0,46.2-14.1,46.2-31.5
		C-1303.6-112-1324.2-126.1-1349.7-126.1z M-1360.9-97c-5,0-8.9-1.5-8.9-3.6c0-2,4-3.6,8.9-3.6c5,0,9,1.6,9,3.6
		C-1352-98.5-1356-97-1360.9-97z"/>
	<path class="st4" d="M-1295.8-144.1c7.9-11.4,7.3-25.5-1.3-31.4c-8.6-5.9-22-1.5-29.8,10c-7.9,11.4-7.3,25.4,1.3,31.4
		C-1317.1-128.3-1303.7-132.7-1295.8-144.1"/>
	<polygon class="st4" points="-1389.7,-142.2 -1366.7,-142.4 -1366.7,-99.5 -1363.2,-99.5 -1363.2,-163.6 	"/>
	<path class="st4" d="M-1358.3-125.5c0,0,24.2-12,27.2-31.8c2,3.5,29.5,11.7,37.7,9.1c-5,9.9-14.7,29.7-14.1,56.9
		C-1312.6-116.9-1332.5-122.1-1358.3-125.5z"/>
</g>
<g>
	<path class="st5" d="M-329.3-82.4l-1.9,0v0.1c-0.1,19.6,10.9,27.4,20,33.1c9.5,6,22.8,8.7,36.8,8.7c7.4,0,35-2.6,49.9-17.7
		c8.5-8.7,10.2-19.5,10.2-29.1c0-7-0.9-13.5-0.9-18l0-0.7c0.3-10.7,4.3-15.5,5.7-18.6c4.5-10.5,10.6-20.7,10.6-33.3l0-1.9
		c-0.3-7-3.8-12-8.7-15c-4.8-3.1-10.8-4.3-16.7-4.3h0l-0.1,0c-6.2,0.1-18.6,4.5-27.3,13.2c-8.6,8.7-15.1,24.8-18.1,29.3
		c-4.5,7-15.8,12.2-24.1,14.7c-7.6,2.4-16.6,6.1-23.5,10.9c-6.7,4.6-14,10.3-13.9,28.8h3.7c0.2-17.6,5.7-21,12.3-25.7
		c6.4-4.5,15.1-8.1,22.5-10.4c8.6-2.8,20.5-7.8,26-16.2c3.3-5.2,9.7-20.8,17.6-28.7c7.7-7.9,20.1-12.1,24.7-12.1h0.1
		c5.3,0.1,10.7,1.2,14.7,3.8c4,2.6,6.7,6.3,7,12.1l0,1.7c0,11.4-5.6,21.1-10.2,31.9c-0.9,2.1-5.8,8.5-6,20l0,0.8
		c0,5,0.9,11.3,0.9,18c0,9.2-1.6,18.8-9.1,26.5c-13.3,13.8-40.6,16.7-47.3,16.6c-13.6,0-26.3-2.7-34.9-8.1c-9-5.8-18.2-11.9-18.3-30
		v-0.1H-329.3"/>
	<path class="st5" d="M-273.4-113.9c-25.5,0-46.1,14.1-46.1,31.5c0,17.4,20.7,31.5,46.1,31.5c25.5,0,46.2-14.1,46.2-31.5
		C-227.3-99.8-247.9-113.9-273.4-113.9z M-284.6-84.8c-5,0-8.9-1.5-8.9-3.6c0-2,4-3.6,8.9-3.6c5,0,9,1.6,9,3.6
		C-275.7-86.3-279.7-84.8-284.6-84.8z"/>
	<path class="st5" d="M-219.6-132c7.9-11.4,7.3-25.5-1.3-31.4c-8.6-5.9-22-1.5-29.8,10c-7.9,11.4-7.3,25.4,1.3,31.4
		C-240.8-116.1-227.4-120.5-219.6-132"/>
	<polygon class="st5" points="-313.4,-130 -290.4,-130.2 -290.4,-87.3 -286.9,-87.3 -286.9,-151.4 	"/>
	<path class="st5" d="M-282-113.4c0,0,24.2-12,27.2-31.8c2,3.5,29.5,11.7,37.7,9.1c-5,9.9-14.7,29.7-14.1,56.9
		C-236.3-104.7-256.2-109.9-282-113.4z"/>
</g>
<g>
	<text transform="matrix(1.1 0 0 1 -1082.3167 417.1537)"><tspan x="0" y="0" style="font-family:'ArialNarrow-Bold'; font-size:38.549px;">Up to 12 hours</tspan><tspan x="12.3" y="37.9" style="font-family:'ArialNarrow-Bold'; font-size:38.549px;">in GPS mode</tspan></text>
</g>
<g>
	<path class="st4" d="M-979.2,270c0.5-3.2,0.5-3.2,3.7-3.2c1.3,0,2.6,0,4.3,0c0-1.6,0.1-3,0-4.4c-0.1-1.6,0.5-2.4,2.3-2.3
		c5.6,0.1,11.2,0.1,16.8,0c1.6,0,2.3,0.5,2.2,2.1c-0.1,1.4,0,2.9,0,4.6c1.6,0,2.9,0,4.3,0c3.8,0.1,3.1-0.2,3.7,3.2
		c2.5,0,5.1,0,7.7,0c3.3,0,4.6,1.3,4.6,4.6c0,33.7,0,67.4,0,101.2c0,3-1.4,4.4-4.3,4.4c-17.7,0-35.4,0-53.1,0c-3,0-4.4-1.4-4.4-4.4
		c0-33.8,0-67.6,0-101.4c0-3,1.4-4.3,4.4-4.4C-984.5,269.9-981.9,270-979.2,270z M-932.8,325.3c0-15.7,0-31.5,0-47.2
		c0-3.5-1.1-4.6-4.5-4.6c-15.5,0-31,0-46.6,0c-3.3,0-4.5,1.1-4.5,4.4c0,31.4,0,62.8,0,94.2c0,3.6,1.1,4.6,4.7,4.6
		c15.2,0,30.5,0,45.7,0c4.2,0,5.1-0.9,5.1-5.1C-932.8,356.1-932.8,340.7-932.8,325.3z"/>
	<path class="st4" d="M-960.8,373c-6.8,0-13.6,0-20.4,0c-3.1,0-4-0.9-4-4c0-4,0-8,0-12c0-2.5,1.3-3.7,3.7-3.7c13.9,0,27.8,0,41.7,0
		c2.7,0,3.8,1.1,3.8,3.8c0,4,0,8,0,12c0,2.9-1.1,3.9-4,3.9C-946.9,373-953.8,373-960.8,373z"/>
	<path class="st4" d="M-960.8,347.5c-6.8,0-13.6,0-20.4,0c-3.1,0-4-0.9-4-4c0-4,0-8,0-12c0-2.5,1.3-3.7,3.7-3.7
		c13.9,0,27.8,0,41.7,0c2.7,0,3.8,1.1,3.8,3.8c0,4,0,8,0,12c0,2.9-1.1,3.9-4,3.9C-946.9,347.6-953.8,347.5-960.8,347.5z"/>
	<path class="st4" d="M-960.8,296.7c-6.8,0-13.6,0-20.4,0c-3.1,0-4-0.9-4-4c0-4,0-8,0-12c0-2.5,1.3-3.7,3.7-3.7
		c13.9,0,27.8,0,41.7,0c2.7,0,3.8,1.1,3.8,3.8c0,4,0,8,0,12c0,2.9-1.1,3.9-4,3.9C-946.9,296.7-953.8,296.7-960.8,296.7z"/>
	<path class="st4" d="M-960.8,322.1c-6.8,0-13.6,0-20.4,0c-3.1,0-4-0.9-4-4c0-4,0-8,0-12c0-2.5,1.3-3.7,3.7-3.7
		c13.9,0,27.8,0,41.7,0c2.7,0,3.8,1.1,3.8,3.8c0,4,0,8,0,12c0,2.9-1.1,3.9-4,3.9C-946.9,322.1-953.8,322.1-960.8,322.1z"/>
</g>
<g>
	<text transform="matrix(1.1 0 0 1 -1489.0808 -13.668)"><tspan x="0" y="0" style="font-family:'ArialNarrow-Bold'; font-size:38.549px;">Distance to Front/</tspan><tspan x="-27.3" y="37.9" style="font-family:'ArialNarrow-Bold'; font-size:38.549px;">Center/Back of Green</tspan></text>
</g>
<g>
	<text transform="matrix(1.1 0 0 1 -1457.2156 436.102)" style="font-family:'ArialNarrow-Bold'; font-size:38.549px;">Shot Distance</text>
</g>
<g>
	<path class="st4" d="M-1359.9,379.4c0,11.3-9.1,20.4-20.4,20.4c-11.3,0-20.4-9.1-20.4-20.4c0-11.3,9.1-20.4,20.4-20.4
		C-1369.1,359-1359.9,368.1-1359.9,379.4z"/>
	<polygon class="st4" points="-1354,346.1 -1341.8,353.7 -1292.1,310.1 -1296.5,308 -1284.5,305.1 -1281.9,314.7 -1286,313.1 
		-1324,363.9 -1307.9,372.8 -1359.9,382.8 	"/>
	<path class="st4" d="M-1366.7,367c0,0-20.7-44.6,18.7-64.9c0,0,29.4-15.4,61.7,1.7c0,0-30.6-26.4-77.6-2.9c0,0-37.5,17.6-35.6,71
		l7.9-3c0,0-7.4-47.5,42.7-70.4c0,0,14.6-7.5,39-3.6c0,0-57.8-5.6-66.3,39.4c0,0-4.2,19.8,3,35.5L-1366.7,367z"/>
</g>
<g>
	<polygon class="st2" points="-917.1,1362.6 -932,1387.1 -932,1406.4 -899.4,1410.8 -884.8,1404.2 -890.6,1374.6 	"/>
	<polygon class="st6" points="-908.2,1372.7 -900.7,1382.1 -901.6,1395.6 -914.4,1404.9 -899.2,1405.8 -890.6,1397.8 -894.8,1380.7 
			"/>
	<polygon class="st2" points="-966.7,1358.9 -977.2,1369.4 -969.3,1379.7 -950.5,1380.5 -945.2,1374.9 -954.2,1355 	"/>
	<polygon class="st2" points="-931.2,1318.4 -919.7,1306.4 -922.4,1304.7 -949.5,1308.8 -968.8,1302.8 -978.8,1319.9 -980.5,1329.9 
		-971.5,1327 -968.3,1328.9 -958.3,1349.6 -953.5,1348.4 -950.1,1349.6 -948.6,1352.6 -942.5,1331.4 -942.5,1319.4 -956.1,1320.3 
		-965.9,1311.3 -955.1,1316 -940,1313.3 	"/>
	<polygon class="st2" points="-973.8,1333.8 -994.8,1340.9 -1000.4,1367.7 -985,1369 -970.3,1354.1 	"/>
	<polygon class="st2" points="-998.6,1406.8 -978.7,1416.7 -955.9,1401.7 -965.8,1389.9 -986.8,1390 	"/>
	<polygon class="st2" points="-854.5,1353.8 -864.7,1318.6 -903.9,1298.9 -935.9,1331.6 -945.2,1360.6 -939,1372.9 -932,1376.1 
		-921,1357.7 -917.5,1356.5 -896,1365.5 -890.1,1361.4 -888.4,1346.3 -884.3,1364.5 -887.9,1368.9 -885.3,1371.4 -882.4,1382.9 
		-862.5,1378.7 -851.5,1370.5 	"/>
	<polygon class="st6" points="-885.4,1315.1 -899.1,1318 -877.2,1338.2 -868.9,1358 -869.6,1337.1 	"/>
</g>
<g>
	<ellipse class="st2" cx="-926.3" cy="1570" rx="74.2" ry="27.1"/>
	<g>
		<g>
			<g>
				<g>
					<path class="st6" d="M-925.1,1532.3c0,23.4-15.8,42.5-35.2,42.5c-19.5,0-35.2-19-35.2-42.5c0-23.4,35.2-59.8,35.2-59.8
						S-925.1,1508.8-925.1,1532.3z"/>
				</g>
			</g>
			<g>
				<g>
					<path class="st6" d="M-964,1561.5c-2.9,0.4-5.8-0.1-8.6-1.1c-2.8-1-5.5-2.6-7.9-4.9c-2.3-2.3-4.3-5.4-5.2-9
						c-1-3.5-0.9-7.3,0.1-10.6c0.5,3.4,1.3,6.6,2.5,9.3c1.3,2.7,2.9,5,4.9,6.9C-974.2,1556-969.2,1558.7-964,1561.5z"/>
				</g>
			</g>
		</g>
		<g>
			<g>
				<g>
					<path class="st2" d="M-934.3,1533.2c0,17.3-11.6,31.4-26,31.4c-14.4,0-26-14-26-31.4c0-17.3,26-44.2,26-44.2
						S-934.3,1515.9-934.3,1533.2z"/>
				</g>
			</g>
			<g>
				<g>
					<path class="st6" d="M-963,1554.8c-2.1,0.3-4.3-0.1-6.4-0.8c-2.1-0.7-4.1-1.9-5.8-3.6c-1.7-1.7-3.2-4-3.9-6.6
						c-0.7-2.6-0.7-5.4,0.1-7.8c0.4,2.5,0.9,4.8,1.9,6.8c0.9,2,2.2,3.7,3.7,5.1C-970.5,1550.8-966.9,1552.7-963,1554.8z"/>
				</g>
			</g>
		</g>
	</g>
</g>
<g>
	<g>
		<path class="st2" d="M-925.9,1212.2c25.3,0,50.5,0,75.8,0c-6.2-11-12.3-22-18.5-33c-2.7-4.7-5.4-9.3-8-14.2
			c-2.8-5.2-5.6-11.9-10-12.8c-4.6-1-8.7,4.2-11.7,9.7C-910.1,1184.1-925.9,1212.2-925.9,1212.2z"/>
		<path class="st6" d="M-977.3,1212.2c33.6,0,67.3,0,100.9,0c-8.2-14.6-16.4-29.3-24.6-44c-3.5-6.3-7.2-12.4-10.6-18.9
			c-3.7-6.9-7.4-15.8-13.3-17c-6.2-1.3-11.6,5.5-15.6,12.9C-956.3,1174.7-977.3,1212.2-977.3,1212.2z"/>
		<path class="st2" d="M-984.8,1212.2c33.6,0,67.3,0,100.9,0c-8.2-14.6-16.4-29.3-24.6-44c-3.5-6.3-7.2-12.4-10.6-18.9
			c-3.7-6.9-7.4-15.8-13.3-17c-6.2-1.3-11.6,5.5-15.6,12.9C-963.8,1174.7-984.8,1212.2-984.8,1212.2z"/>
	</g>
	<path class="st2" d="M-1004.3,1212.2c19,0,38,0,57,0c-4.6-8.3-9.3-16.6-13.9-25c-2-3.6-4.1-7-6-10.7c-2.1-3.9-4.2-9-7.5-9.7
		c-3.5-0.7-6.6,3.1-8.8,7.3C-992.4,1190.9-1004.3,1212.2-1004.3,1212.2z"/>
</g>
<g>
	<path class="st4" d="M-1221.8,103.6c-10.4-9.8-26.6-12.9-33.8-9.3c-8.3,4.1-14.5,12.8-23.2,12.7c0,0-19.8-1.6-29.3,0.2
		c-12.4,2.2-22.9,6.3-22.5,29.9c0,14.4,10.9,19.9,23.7,25.1c9.4,3.8,14.8,8,38.2,9.4c23.4,1.5,42.5-8.8,52.1-26
		C-1212.4,137.6-1210.7,114.2-1221.8,103.6z M-1226.9,117.8v4.2h-2.6v2.7h-4.1V122h-2.6v-4.2h2.6v-2.7h4.1v2.7H-1226.9z
		 M-1236.4,136.6v-4.2h2.6v-2.7h4.1v2.7h2.6v4.2h-2.6v2.7h-4.1v-2.7H-1236.4z M-1240.2,101.6h2.6v-2.7h4.1v2.7h2.6v4.2h-2.6v2.7
		h-4.1v-2.7h-2.6V101.6z M-1246.8,143.9v-4.2h2.6v-2.7h4.1v2.7h2.6v4.2h-2.6v2.7h-4.1v-2.7H-1246.8z M-1238.5,125.4v4.2h-2.6v2.7
		h-4.1v-2.7h-2.6v-4.2h2.6v-2.7h4.1v2.7H-1238.5z M-1248.9,112.1h2.6v-2.7h4.1v2.7h2.6v4.2h-2.6v2.7h-4.1v-2.7h-2.6V112.1z
		 M-1250.1,120.4v4.2h-2.6v2.7h-4.1v-2.7h-2.6v-4.2h2.6v-2.7h4.1v2.7H-1250.1z M-1259.9,138.4v-4.2h2.6v-2.7h4.1v2.7h2.6v4.2h-2.6
		v2.7h-4.1v-2.7H-1259.9z M-1262.2,106.4h2.6v-2.7h4.1v2.7h2.6v4.2h-2.6v2.7h-4.1v-2.7h-2.6V106.4z M-1271.3,116.3h2.6v-2.7h4.1v2.7
		h2.6v4.2h-2.6v2.7h-4.1v-2.7h-2.6V116.3z M-1272.1,128.9h2.6v-2.7h4.1v2.7h2.6v4.2h-2.6v2.7h-4.1v-2.7h-2.6V128.9z M-1283.6,140.6
		v-4.2h2.6v-2.7h4.1v2.7h2.6v4.2h-2.6v2.7h-4.1v-2.7H-1283.6z M-1284.2,122.4h2.6v-2.7h4.1v2.7h2.6v4.2h-2.6v2.7h-4.1v-2.7h-2.6
		V122.4z M-1284.6,132v4.2h-2.6v2.7h-4.1v-2.7h-2.6V132h2.6v-2.7h4.1v2.7H-1284.6z M-1296.9,118.4h2.6v-2.7h4.1v2.7h2.6v4.2h-2.6
		v2.7h-4.1v-2.7h-2.6V118.4z M-1295.6,127.8v4.2h-2.6v2.7h-4.1V132h-2.6v-4.2h2.6v-2.7h4.1v2.7H-1295.6z M-1307.9,113.2h2.6v-2.7
		h4.1v2.7h2.6v4.2h-2.6v2.7h-4.1v-2.7h-2.6V113.2z M-1316,122.8h2.6v-2.7h4.1v2.7h2.6v4.2h-2.6v2.7h-4.1V127h-2.6V122.8z
		 M-1314.9,135.8h-2.6v2.7h-4.1v-2.7h-2.6v-4.2h2.6v-2.7h4.1v2.7h2.6V135.8z M-1314.3,137h2.6v-2.7h4.1v2.7h2.6v4.2h-2.6v2.7h-4.1
		v-2.7h-2.6V137z M-1302.8,154.4h-2.6v2.7h-4.1v-2.7h-2.6v-4.2h2.6v-2.7h4.1v2.7h2.6V154.4z M-1302.6,144.9v-4.2h2.6V138h4.1v2.7
		h2.6v4.2h-2.6v2.7h-4.1v-2.7H-1302.6z M-1290.4,158.9h-2.6v2.7h-4.1v-2.7h-2.6v-4.2h2.6V152h4.1v2.7h2.6V158.9z M-1291.6,150v-4.2
		h2.6v-2.7h4.1v2.7h2.6v4.2h-2.6v2.7h-4.1V150H-1291.6z M-1276.6,161.6h-2.6v2.7h-4.1v-2.7h-2.6v-4.2h2.6v-2.7h4.1v2.7h2.6V161.6z
		 M-1269,153.5h-2.6v2.7h-4.1v-2.7h-2.6v-4.2h2.6v-2.7h4.1v2.7h2.6V153.5z M-1269.8,145.4v-4.2h2.6v-2.7h4.1v2.7h2.6v4.2h-2.6v2.7
		h-4.1v-2.7H-1269.8z M-1258.2,160.5h-2.6v2.7h-4.1v-2.7h-2.6v-4.2h2.6v-2.7h4.1v2.7h2.6V160.5z M-1258.4,151.7v-4.2h2.6v-2.7h4.1
		v2.7h2.6v4.2h-2.6v2.7h-4.1v-2.7H-1258.4z M-1245.7,162.7h-2.6v2.7h-4.1v-2.7h-2.6v-4.2h2.6v-2.7h4.1v2.7h2.6V162.7z M-1235.5,157
		h-2.6v2.7h-4.1V157h-2.6v-4.2h2.6v-2.7h4.1v2.7h2.6V157z M-1225.6,151.1h-2.6v2.7h-4.1v-2.7h-2.6v-4.2h2.6v-2.7h4.1v2.7h2.6V151.1z
		"/>
	<g>
		<defs>
			<rect id="SVGID_3_" x="-1454" y="96.7" width="103.8" height="71.1"/>
		</defs>
		<clipPath id="SVGID_4_">
			<use xlink:href="#SVGID_3_"  style="overflow:visible;"/>
		</clipPath>
		<g class="st7">
			<path class="st8" d="M-1474.3,106.2c0,0,14,18.9,35.8-0.9v0c0,0,14.5,21.3,35,0.4c0,0,16.2,19.6,35.8-0.5v0v0
				c0,0,16.1,20.5,35.8,2.3"/>
			<path class="st8" d="M-1474.3,127.9c0,0,14,18.9,35.8-0.9v0c0,0,14.5,21.3,35,0.4c0,0,16.2,19.6,35.8-0.5v0v0
				c0,0,16.1,20.5,35.8,2.3"/>
			<path class="st8" d="M-1474.3,149.6c0,0,14,18.9,35.8-0.9v0c0,0,14.5,21.3,35,0.4c0,0,16.2,19.6,35.8-0.5v0v0
				c0,0,16.1,20.5,35.8,2.3"/>
		</g>
	</g>
</g>
<g>
	<text transform="matrix(1.1 0 0 1 -1042.6877 220.6908)" style="font-family:'ArialNarrow-Bold'; font-size:38.549px;">Auto Hole</text>
</g>
<g>
	<path class="st4" d="M-1030.4,150.9c-0.2,0-0.3,0-0.4,0V122l53.8-24.6l-53.8-21.1v-2.9h-7.5v52v26.3c-9.7,1.8-16.7,6.6-16.7,12.4
		c0,7.3,11,13.2,24.7,13.2c13.6,0,24.7-5.9,24.7-13.2C-1005.7,156.8-1016.8,150.9-1030.4,150.9z M-1027.3,86.4h5.3h5v23.9h-5V91
		h-5.3V86.4z"/>
	<path class="st4" d="M-919.5,154.1c-0.2,0-0.3,0-0.4,0v-28.9l53.8-24.6L-920,79.6v-2.9h-7.5v52v26.3c-9.7,1.8-16.7,6.6-16.7,12.4
		c0,7.3,11,13.2,24.7,13.2c13.6,0,24.7-5.9,24.7-13.2C-894.9,160-905.9,154.1-919.5,154.1z M-922.6,109.1c0-4.7,3.2-7.7,9.7-8.9
		c5.3-1,8-2.2,8-3.6c0-0.2,0-0.4,0-0.5c0-1.2-0.6-1.9-1.9-1.9c-2.1,0-3.5,0-4.3,0c-0.9,0-2.3,0-4.4,0c-1.2,0-1.9,1.1-1.9,3.2
		c0,0.3,0,0.5,0,0.8h-4.9c0-0.6,0-1.2,0-1.7c0-4.6,2.2-6.9,6.7-6.9c1.5,0,3,0,4.5,0c1.5,0,2.9,0,4.4,0c4.5,0,6.7,1.8,6.7,5.5
		c0,0.5,0,0.9,0,1.4c0,3.7-3.2,6.2-9.6,7.5c-5.4,1.1-8,2.7-8,5h17.9v4.5h-22.8V109.1z"/>
	<g>
		<rect x="-973.4" y="106.4" class="st4" width="15.8" height="24.9"/>
		<polygon class="st4" points="-941.1,118.9 -961.7,144.9 -961.7,92.8 		"/>
	</g>
</g>
<rect x="-1563" y="-343.8" style="fill:none;" width="794.2" height="118"/>
<text transform="matrix(1.0098 0 0 1 -1562.9723 -317.0733)"><tspan x="0" y="0" class="st2" style="font-family:'Calibri'; font-size:34px;">Support more than 38000 courses around the world. </tspan><tspan x="0" y="40.8" class="st2" style="font-family:'Calibri'; font-size:34px;">Quickly gets your location by high sensitivity GPS,  to </tspan><tspan x="0" y="81.6" class="st2" style="font-family:'Calibri'; font-size:34px;">recognize Golf course nearby.</tspan></text>
<g>
	<path class="st5" d="M-66.4-173.1c1.3,0.4,2.2,1.3,3.1,2.2c8.6,8.3,17.3,16.6,25.9,24.8c1.2,1.2,1.8,2.5,1.8,4.1
		c0,30.3,0,60.6,0,90.9c0,2.7-1.7,4.4-4.4,4.4c-29.1,0-58.2,0-87.2,0c-2.8,0-4.4-1.7-4.4-4.5c0-17.3,0-34.6,0-51.8c0-3.5,0-7,0-10.5
		c0-0.3,0-0.6,0-0.8c0.1-0.1,0.2-0.1,0.3-0.2c0.5,0.6,0.9,1.2,1.5,1.7c1.9,1.9,3.8,3.9,5.8,5.7c0.4,0.4,0.6,0.9,0.6,1.5
		c0,16.6,0,33.2,0,49.9c0,0.3,0,0.6,0,1c26.6,0,53.2,0,79.8,0c0-27.9,0-55.8,0-83.8c-0.3,0-0.7,0-1,0c-7.3,0-14.6,0-21.9,0
		c-2.9,0-4.5-1.6-4.5-4.5c0-6.9,0-13.9,0-20.8c0-0.3,0-0.6,0-1c-17.5,0-34.9,0-52.4,0c0,5.3,0,10.5,0,16c-0.3-0.3-0.5-0.4-0.6-0.5
		c-2.4-2.4-4.7-4.7-7.1-7.1c-0.3-0.3-0.4-0.7-0.4-1.1c0-3.4,0-6.9,0-10.3c0-3,0.6-3.9,3.3-5.1C-107.7-173.1-87-173.1-66.4-173.1z
		 M-63.1-146.8c4.4,0,8.7,0,13.2,0c-4.4-4.2-8.7-8.4-13.2-12.6C-63.1-155.1-63.1-151-63.1-146.8z"/>
	<path class="st5" d="M-154.4-144.2c0.6-0.7,1-1.6,1.7-2.2c3.6-3.6,7.2-7.2,10.8-10.8c1.6-1.6,3.3-1.6,4.9,0
		c2.2,2.2,4.4,4.4,6.5,6.5c0.1,0.1,0.3,0.3,0.4,0.4c-5.4,5.4-10.8,10.8-16.3,16.3c-2.1-2.1-4.2-4.2-6.3-6.4
		c-0.7-0.7-1.2-1.6-1.8-2.3C-154.4-143.2-154.4-143.7-154.4-144.2z"/>
	<path class="st5" d="M-144.2-132.2c5.3-5.3,10.7-10.7,16-16.1c19.4,19.4,38.7,38.8,58.1,58.2c-5.3,5.3-10.7,10.7-16,16.1
		C-105.4-93.4-124.8-112.8-144.2-132.2z"/>
	<path class="st5" d="M-92.5-117.9c1.4,0,2.7,0,4,0c10.3,0,20.6,0,30.9,0c2.2,0,3.7,1.2,4.2,3.3c0.5,2.4-1.3,4.7-3.8,4.8
		c-2.3,0.1-4.5,0-6.8,0c-6.6,0-13.3,0-19.9,0c-0.3,0-0.7-0.1-0.9-0.3c-2.5-2.4-5-4.9-7.5-7.4C-92.3-117.6-92.3-117.7-92.5-117.9z"/>
	<path class="st5" d="M-84-71.9c5.4-5.4,10.7-10.7,16.1-16.1c0.6,2,1.1,4.1,1.7,6.2c1.2,4.4,2.4,8.7,3.6,13.1
		c0.5,1.7-0.5,2.6-2.1,2.2c-6.4-1.7-12.7-3.5-19.1-5.2C-83.9-71.9-83.9-71.9-84-71.9z"/>
	<path class="st5" d="M-77.2-102.7c0.2,0,0.3,0,0.4,0c6.5,0,12.9,0,19.4,0c1.9,0,3.5,1.3,3.9,3c0.5,1.8-0.3,3.7-2,4.5
		c-0.6,0.3-1.3,0.5-2,0.5c-3.8,0-7.6,0-11.4,0c-0.3,0-0.6-0.1-0.8-0.3c-2.5-2.5-5-4.9-7.4-7.4C-77.1-102.5-77.1-102.6-77.2-102.7z"
		/>
</g>
<g>
	<path class="st5" d="M132.4-112.4c-10.4-9.8-26.6-12.9-33.8-9.3c-8.3,4.1-14.5,12.8-23.2,12.7c0,0-19.8-1.6-29.3,0.2
		c-12.4,2.2-22.9,6.3-22.5,29.9c0,14.4,10.9,19.9,23.7,25.1c9.4,3.8,14.8,8,38.2,9.4c23.4,1.5,42.5-8.8,52.1-26
		C141.9-78.5,143.6-101.9,132.4-112.4z M127.4-98.3v4.2h-2.6v2.7h-4.1v-2.7h-2.6v-4.2h2.6v-2.7h4.1v2.7H127.4z M117.8-79.4v-4.2h2.6
		v-2.7h4.1v2.7h2.6v4.2h-2.6v2.7h-4.1v-2.7H117.8z M114-114.5h2.6v-2.7h4.1v2.7h2.6v4.2h-2.6v2.7h-4.1v-2.7H114V-114.5z M107.5-72.2
		v-4.2h2.6v-2.7h4.1v2.7h2.6v4.2h-2.6v2.7h-4.1v-2.7H107.5z M115.7-90.6v4.2h-2.6v2.7H109v-2.7h-2.6v-4.2h2.6v-2.7h4.1v2.7H115.7z
		 M105.4-104h2.6v-2.7h4.1v2.7h2.6v4.2H112v2.7H108v-2.7h-2.6V-104z M104.1-95.7v4.2h-2.6v2.7h-4.1v-2.7h-2.6v-4.2h2.6v-2.7h4.1v2.7
		H104.1z M94.4-77.7v-4.2H97v-2.7h4.1v2.7h2.6v4.2H101v2.7H97v-2.7H94.4z M92-109.7h2.6v-2.7h4.1v2.7h2.6v4.2h-2.6v2.7h-4.1v-2.7H92
		V-109.7z M82.9-99.8h2.6v-2.7h4.1v2.7h2.6v4.2h-2.6v2.7h-4.1v-2.7h-2.6V-99.8z M82.1-87.1h2.6v-2.7h4.1v2.7h2.6v4.2h-2.6v2.7h-4.1
		v-2.7h-2.6V-87.1z M70.7-75.5v-4.2h2.6v-2.7h4.1v2.7H80v4.2h-2.6v2.7h-4.1v-2.7H70.7z M70-93.7h2.6v-2.7h4.1v2.7h2.6v4.2h-2.6v2.7
		h-4.1v-2.7H70V-93.7z M69.6-84.1v4.2H67v2.7h-4.1v-2.7h-2.6v-4.2h2.6v-2.7H67v2.7H69.6z M57.3-97.6h2.6v-2.7H64v2.7h2.6v4.2H64v2.7
		h-4.1v-2.7h-2.6V-97.6z M58.6-88.2v4.2H56v2.7h-4.1V-84h-2.6v-4.2h2.6v-2.7H56v2.7H58.6z M46.3-102.9h2.6v-2.7H53v2.7h2.6v4.2H53
		v2.7h-4.1v-2.7h-2.6V-102.9z M38.3-93.2h2.6V-96h4.1v2.7h2.6v4.2h-2.6v2.7h-4.1v-2.7h-2.6V-93.2z M39.3-80.3h-2.6v2.7h-4.1v-2.7H30
		v-4.2h2.6v-2.7h4.1v2.7h2.6V-80.3z M39.9-79h2.6v-2.7h4.1v2.7h2.6v4.2h-2.6v2.7h-4.1v-2.7h-2.6V-79z M51.4-61.7h-2.6v2.7h-4.1v-2.7
		h-2.6v-4.2h2.6v-2.7h4.1v2.7h2.6V-61.7z M51.6-71.1v-4.2h2.6V-78h4.1v2.7h2.6v4.2h-2.6v2.7h-4.1v-2.7H51.6z M63.9-57.1h-2.6v2.7
		h-4.1v-2.7h-2.6v-4.2h2.6V-64h4.1v2.7h2.6V-57.1z M62.6-66.1v-4.2h2.6V-73h4.1v2.7h2.6v4.2h-2.6v2.7h-4.1v-2.7H62.6z M77.6-54.5H75
		v2.7H71v-2.7h-2.6v-4.2H71v-2.7H75v2.7h2.6V-54.5z M85.3-62.6h-2.6v2.7h-4.1v-2.7h-2.6v-4.2h2.6v-2.7h4.1v2.7h2.6V-62.6z
		 M84.4-70.7v-4.2H87v-2.7h4.1v2.7h2.6v4.2h-2.6v2.7H87v-2.7H84.4z M96-55.6h-2.6v2.7h-4.1v-2.7h-2.6v-4.2h2.6v-2.7h4.1v2.7H96
		V-55.6z M95.8-64.3v-4.2h2.6v-2.7h4.1v2.7h2.6v4.2h-2.6v2.7h-4.1v-2.7H95.8z M108.5-53.4h-2.6v2.7h-4.1v-2.7h-2.6v-4.2h2.6v-2.7
		h4.1v2.7h2.6V-53.4z M118.7-59.1h-2.6v2.7H112v-2.7h-2.6v-4.2h2.6V-66h4.1v2.7h2.6V-59.1z M128.6-65H126v2.7H122V-65h-2.6v-4.2h2.6
		v-2.7h4.1v2.7h2.6V-65z"/>
	<g>
		<defs>
			<rect id="SVGID_5_" x="15.1" y="-172.5" width="74" height="50.7"/>
		</defs>
		<clipPath id="SVGID_6_">
			<use xlink:href="#SVGID_5_"  style="overflow:visible;"/>
		</clipPath>
		<g class="st9">
			<path class="st10" d="M0.6-165.8c0,0,10,13.5,25.5-0.6v0c0,0,10.3,15.2,24.9,0.3c0,0,11.6,14,25.5-0.4v0v0
				c0,0,11.4,14.6,25.6,1.6"/>
			<path class="st10" d="M0.6-150.3c0,0,10,13.5,25.5-0.6v0c0,0,10.3,15.2,24.9,0.3c0,0,11.6,14,25.5-0.4v0v0
				c0,0,11.4,14.6,25.6,1.6"/>
			<path class="st10" d="M0.6-134.8c0,0,10,13.5,25.5-0.6v0c0,0,10.3,15.2,24.9,0.3c0,0,11.6,14,25.5-0.4v0v0
				c0,0,11.4,14.6,25.6,1.6"/>
		</g>
	</g>
</g>
<g>
	<path class="st5" d="M-313.9,104.4c-0.1,0-0.3,0-0.4,0V74.2l40-25.9l-40-21.8v-3.1h-7.2v54.3v27.4c-9.3,1.9-16,6.9-16,13
		c0,7.6,10.6,13.8,23.6,13.8s23.6-6.2,23.6-13.8C-290.3,110.5-300.9,104.4-313.9,104.4z M-310.9,39h5h4.8v22.9h-4.8V43.4h-5V39z"/>
	<path class="st5" d="M-232.1,104.4c-0.1,0-0.3,0-0.4,0V74.2l40-25.9l-40-21.8v-3.1h-7.2v54.3v27.4c-9.3,1.9-16,6.9-16,13
		c0,7.6,10.6,13.8,23.6,13.8c13,0,23.6-6.2,23.6-13.8C-208.5,110.5-219,104.4-232.1,104.4z M-232.7,56.6c0-4.5,2.3-7.4,6.9-8.5
		c3.8-0.9,5.7-2.1,5.7-3.4c0-0.2,0-0.3,0-0.5c0-1.2-0.4-1.8-1.3-1.8c-1.5,0-2.5,0-3.1,0c-0.6,0-1.7,0-3.1,0c-0.9,0-1.3,1.1-1.3,3.1
		c0,0.3,0,0.5,0,0.8h-3.5c0-0.6,0-1.1,0-1.7c0-4.4,1.6-6.6,4.8-6.6c1.1,0,2.1,0,3.2,0c1,0,2.1,0,3.2,0c3.2,0,4.8,1.8,4.8,5.3
		c0,0.4,0,0.9,0,1.3c0,3.6-2.3,6-6.9,7.2c-3.8,1-5.7,2.6-5.7,4.8h12.8V61h-16.3V56.6z"/>
	<g>
		<rect x="-282" y="75.9" class="st5" width="15.1" height="13.7"/>
		<polygon class="st5" points="-251.1,82.8 -270.8,97.1 -270.8,68.4 		"/>
	</g>
</g>
<g>
	<path class="st5" d="M-114.4,110.3c0,11.7-9.5,21.2-21.2,21.2c-11.7,0-21.2-9.5-21.2-21.2c0-11.7,9.5-21.2,21.2-21.2
		C-123.9,89.1-114.4,98.6-114.4,110.3z"/>
	<polygon class="st5" points="-108.2,75.6 -95.5,83.5 -43.9,38.2 -48.4,36 -35.9,33 -33.2,43 -37.6,41.3 -77.1,94.2 -60.3,103.4 
		-114.4,113.8 	"/>
	<path class="st5" d="M-121.5,97.4c0,0-21.5-46.4,19.5-67.5c0,0,30.6-16,64.2,1.7c0,0-31.8-27.4-80.7-3c0,0-38.9,18.3-37,73.9
		l8.2-3.2c0,0-7.7-49.4,44.4-73.2c0,0,15.1-7.8,40.5-3.8c0,0-60.1-5.8-68.9,40.9c0,0-4.3,20.6,3.1,36.9L-121.5,97.4z"/>
</g>
<g>
	<path class="st5" d="M55.4,22.9c0.6-3.4,0.6-3.4,3.9-3.4c1.4,0,2.7,0,4.5,0c0-1.6,0.1-3.1,0-4.6c-0.1-1.7,0.5-2.5,2.4-2.5
		c5.9,0.1,11.8,0.1,17.7,0c1.6,0,2.4,0.6,2.3,2.3c-0.1,1.5,0,3,0,4.8c1.7,0,3.1,0,4.5,0c4,0.1,3.3-0.3,3.9,3.4c2.7,0,5.4,0,8.2,0
		c3.5,0,4.9,1.4,4.9,4.8c0,35.7,0,71.3,0,107c0,3.2-1.4,4.7-4.6,4.7c-18.7,0-37.4,0-56.1,0c-3.2,0-4.6-1.4-4.6-4.6
		c0-35.7,0-71.5,0-107.2c0-3.1,1.5-4.6,4.6-4.6C49.7,22.9,52.5,22.9,55.4,22.9z M104.4,81.4c0-16.6,0-33.3,0-49.9
		c0-3.7-1.2-4.9-4.8-4.9c-16.4,0-32.8,0-49.2,0c-3.5,0-4.7,1.2-4.7,4.7c0,33.2,0,66.4,0,99.6c0,3.8,1.1,4.9,5,4.9
		c16.1,0,32.2,0,48.3,0c4.5,0,5.4-0.9,5.4-5.3C104.4,114,104.4,97.7,104.4,81.4z"/>
	<path class="st5" d="M74.8,131.8c-7.2,0-14.4,0-21.6,0c-3.3,0-4.3-1-4.3-4.2c0-4.2,0-8.4,0-12.6c0-2.6,1.3-3.9,3.9-3.9
		c14.7,0,29.4,0,44.1,0c2.9,0,4,1.1,4.1,4c0,4.2,0,8.4,0,12.6c0,3-1.1,4.1-4.2,4.1C89.5,131.8,82.2,131.8,74.8,131.8z"/>
	<path class="st5" d="M74.8,105c-7.2,0-14.4,0-21.6,0c-3.3,0-4.3-1-4.3-4.2c0-4.2,0-8.4,0-12.6c0-2.6,1.3-3.9,3.9-3.9
		c14.7,0,29.4,0,44.1,0c2.9,0,4,1.1,4.1,4c0,4.2,0,8.4,0,12.6c0,3-1.1,4.1-4.2,4.1C89.5,105,82.2,104.9,74.8,105z"/>
	<path class="st5" d="M74.8,51.2c-7.2,0-14.4,0-21.6,0c-3.3,0-4.3-1-4.3-4.2c0-4.2,0-8.4,0-12.6c0-2.6,1.3-3.9,3.9-3.9
		c14.7,0,29.4,0,44.1,0c2.9,0,4,1.1,4.1,4c0,4.2,0,8.4,0,12.6c0,3-1.1,4.1-4.2,4.1C89.5,51.2,82.2,51.2,74.8,51.2z"/>
	<path class="st5" d="M74.8,78.1c-7.2,0-14.4,0-21.6,0c-3.3,0-4.3-1-4.3-4.2c0-4.2,0-8.4,0-12.6c0-2.6,1.3-3.9,3.9-3.9
		c14.7,0,29.4,0,44.1,0c2.9,0,4,1.1,4.1,4c0,4.2,0,8.4,0,12.6c0,3-1.1,4.1-4.2,4.1C89.5,78.1,82.2,78.1,74.8,78.1z"/>
</g>
</svg>
