<?xml version="1.0" encoding="utf-8"?>
<!-- Generator: Adobe Illustrator 25.2.3, SVG Export Plug-In . SVG Version: 6.00 Build 0)  -->
<svg version="1.1" id="圖層_1" xmlns="http://www.w3.org/2000/svg" xmlns:xlink="http://www.w3.org/1999/xlink" x="0px" y="0px"
	 viewBox="0 0 150 150" style="enable-background:new 0 0 150 150;" xml:space="preserve">
<style type="text/css">
	.st0{fill:#89B829;}
	.st1{fill:#DD5519;}
	.st2{fill:#FFFFFF;}
	.st3{opacity:0.78;fill:#FFF000;}
	.st4{fill:#004212;}
	.st5{fill:#111111;}
	.st6{fill:#060001;}
	.st7{clip-path:url(#SVGID_4_);}
	.st8{fill:none;stroke:#004212;stroke-width:7.1711;stroke-linecap:round;stroke-linejoin:round;stroke-miterlimit:10;}
	.st9{clip-path:url(#SVGID_6_);}
	.st10{fill:none;stroke:#111111;stroke-width:5;stroke-linecap:round;stroke-linejoin:round;stroke-miterlimit:10;}
</style>
<g>
	<defs>
		<rect id="SVGID_1_" x="-1500.9" y="-481.7" width="1000" height="1000"/>
	</defs>
	<clipPath id="SVGID_2_">
		<use xlink:href="#SVGID_1_"  style="overflow:visible;"/>
	</clipPath>
	<g style="clip-path:url(#SVGID_2_);">
		
			<image style="overflow:visible;" width="3264" height="2448" xlink:href="F27FA280.jpg"  transform="matrix(0.8271 0 0 0.8271 -1503.5422 -1032.7037)">
		</image>
	</g>
</g>
<g>
	<g>
		<polygon class="st0" points="-1379.5,760.4 -1377,759.4 -1375.7,759.4 -1374.1,758.7 -1374.1,757.1 -1373.1,756.7 -1374.7,756 
			-1375.8,755.6 -1375.8,754.5 -1380,752.8 -1380.1,752.8 -1382.1,753.6 -1382.1,754.9 -1385.5,754.9 -1385.5,756.5 -1384.4,756.9 
			-1384.4,757.7 -1386,758.3 -1386,759.3 -1383.2,760.4 		"/>
		<polygon class="st0" points="-1376.6,750.8 -1376.6,752.1 -1375.3,752.1 -1375.3,753.2 -1376.3,753.2 -1376.6,753.4 
			-1374.4,754.2 -1374.4,755.4 -1372.1,755.4 -1370.9,755.9 -1370.9,756.6 -1372.5,757.3 -1372.5,758.4 -1373.8,758.9 
			-1374.8,759.4 -1374.2,759.4 -1374.2,760.4 -1376.5,760.4 -1376.5,761.2 -1375.2,761.8 -1371.5,761.8 -1370.6,761.4 
			-1368.8,761.4 -1368.8,760.9 -1367,760.9 -1365.6,760.4 -1363.2,760.4 -1361.1,759.5 -1361.1,758.8 -1358.6,758.8 -1358.6,758 
			-1356.3,757 -1357.7,756.5 -1359.6,756.5 -1359.6,755.6 -1361.2,754.9 -1362.9,754.2 -1362.9,753.4 -1364.3,752.8 -1365.3,752.4 
			-1365.3,751.5 -1364.5,751.1 -1364.5,749.4 -1365.5,749 -1367.5,749 -1366.7,748.6 -1365.1,748 -1365.1,747.1 -1366.6,746.5 
			-1369.5,746.5 -1369.5,747.4 -1372.1,747.4 -1373.8,748.1 -1375.2,747.6 -1377.4,747.6 -1379.9,748.6 -1379.9,749.5 
			-1378.2,750.2 		"/>
		<polygon class="st0" points="-1017.9,836.7 -1020.6,835.6 -1022.6,834.8 -1022.6,833.6 -1024.7,832.8 -1026.3,832.8 
			-1027.5,832.3 -1031.1,830.8 -1032.9,830.1 -1032.9,828.5 -1034.7,827.8 -1034.7,826.7 -1036.7,825.8 -1039.7,824.7 
			-1039.7,823.9 -1040.7,823.5 -1040.7,822.4 -1042.6,822.4 -1044.9,823.3 -1044.9,825.5 -1046.8,825.5 -1046.8,829.2 
			-1048.3,829.2 -1050.6,828.2 -1052.4,828.2 -1053.5,827.8 -1054.5,827.4 -1055.9,826.8 -1055.9,825.2 -1054.4,824.6 
			-1054.4,823.7 -1060.6,823.7 -1061.3,823.4 -1064.4,823.4 -1065.6,822.9 -1067.2,822.9 -1069.3,823.8 -1070.5,824.3 
			-1070.5,825.3 -1073.2,826 -1076.1,824.8 -1081.2,826.9 -1083.3,826.9 -1084.2,827.2 -1087.7,827.2 -1089.6,828 -1089.6,829.2 
			-1091.6,830 -1091.6,830.9 -1095,830.9 -1096.6,831.5 -1100.6,831.5 -1104.4,833.1 -1108.1,833.1 -1108.1,835 -1109.9,835.8 
			-1109.9,837 -1109.9,838.6 -1107.8,839.5 -1107.8,840.3 -1104.2,841.8 -1104.2,842.8 -1104.2,844.6 -1105.4,845.1 -1105.4,846.6 
			-1103.7,847.2 -1095.7,847.2 -1093.8,846.5 -1085.8,846.5 -1081.7,844.8 -1074.9,844.8 -1072.7,843.9 -1067.8,843.9 
			-1066.4,844.5 -1062,844.5 -1060.6,845.1 -1060.6,846.7 -1057.8,847.8 -1055.2,848.8 -1053,848.8 -1053,848.2 -1049.4,848.2 
			-1049.4,849.7 -1047.1,850.6 -1044.2,851.8 -1041.3,851.8 -1039,850.9 -1037,850.9 -1037,851.7 -1033.5,851.7 -1031.1,850.7 
			-1026.3,850.7 -1024.8,850.1 -1024.8,847.8 -1021.5,846.4 -1021.5,845.3 -1019.5,844.5 -1019.5,843.4 -1016.8,842.3 
			-1016.8,838.2 -1017.9,837.8 		"/>
		<polygon class="st0" points="-1031,851.8 -1032.4,852.4 -1030.3,853.2 -1032,853.9 -1034.1,853.9 -1036.2,853.1 -1037.9,853.1 
			-1038.9,853.5 -1038.9,855.5 -1037.5,856.1 -1035.9,856.8 -1035.9,857.7 -1032.3,857.7 -1031,857.1 -1028.8,856.3 -1028.8,855.4 
			-1027,855.4 -1027,854.3 -1028.1,853.8 -1026.7,853.3 -1026.7,852.7 -1029.4,851.6 		"/>
		<polygon class="st0" points="-963.7,849.9 -967.9,849.9 -967.9,849 -969.4,848.4 -969.4,846.8 -970.6,846.8 -972.5,846 
			-975.4,846 -976.8,846.6 -975.5,847.1 -975.5,848 -974.1,848 -974.1,849.1 -972.2,849.8 -972.2,850.6 -973.3,851.1 -973.3,852.5 
			-974.6,852.5 -976.3,853.2 -977.9,853.2 -977.9,854.2 -979.4,854.2 -979.4,854.9 -980.8,855.5 -983.4,856.6 -985.2,856.6 
			-985.2,857.3 -987.9,858.4 -988.8,858.8 -990.3,859.3 -990.3,860.1 -988.8,860.7 -986.4,860.7 -986.4,861.2 -981,861.2 
			-977.4,859.8 -977.4,858.9 -975.5,858.2 -973,858.2 -973,856.5 -972,856.1 -972,855.2 -968.1,855.2 -965.3,854 -965.3,853.2 
			-964.6,853.2 -964.6,852.4 -962.1,851.3 -960.6,851.3 -960.6,849.9 -960.6,849.1 -962.8,849.1 		"/>
		<polygon class="st0" points="-1113.6,816.9 -1105.8,816.9 -1104.7,817.3 -1101.8,817.3 -1099.3,816.3 -1099.3,815.1 
			-1097.3,815.1 -1097.3,813.6 -1096.2,813.2 -1094.9,812.7 -1096.6,812 -1096.6,810.1 -1092.9,808.6 -1095.2,807.7 -1097.6,807.7 
			-1098.6,807.3 -1100.5,807.3 -1105.2,809.1 -1108.2,809.1 -1110.1,809.9 -1111.2,810.4 -1113.6,811.4 -1116.7,811.4 
			-1118.6,812.1 -1118.6,813.5 -1116.3,814.5 -1116.3,816 		"/>
		<polygon class="st0" points="-1095.8,802.9 -1099.8,804.5 -1099.8,805.8 -1099.8,806.6 -1097.8,806.6 -1097.8,805.8 
			-1093.8,804.2 -1091.1,805.3 -1088.9,805.3 -1091.2,806.2 -1091.2,807.5 -1092.3,807.9 -1090.4,808.7 -1088.2,808.7 
			-1088.2,807.4 -1085.3,806.2 -1083.2,806.2 -1083.2,807.4 -1081.7,808 -1078,808 -1075.3,806.9 -1077.4,806 -1077.4,805.4 
			-1079.5,804.6 -1080.7,804.1 -1080.7,802.1 -1082.4,801.4 -1085.2,801.4 -1085.2,800.6 -1088.7,799.2 -1088.7,798 -1090.9,797.1 
			-1094.3,797.1 -1097.3,798.4 -1095,799.3 -1096.6,799.3 -1096.6,800.2 -1094,801.3 -1094,802.1 		"/>
		<polygon class="st0" points="-1079.3,817.5 -1077,817.5 -1076,817.1 -1071,817.1 -1068.8,818 -1066.3,816.9 -1066.3,815.9 
			-1064.7,816.6 -1064.7,817.4 -1059.9,817.4 -1059.9,818.5 -1062.1,818.5 -1062.1,819.5 -1063,819.5 -1063,820.3 -1061,821.1 
			-1059,820.3 -1059,819.3 -1057.1,818.6 -1055.7,818.6 -1052.6,818.6 -1052.6,819.8 -1053.6,820.3 -1053.6,821.8 -1052.2,822.3 
			-1050.6,821.7 -1047.5,821.7 -1045.9,821.7 -1043.5,821.7 -1040.4,820.4 -1037.5,820.4 -1035.2,821.3 -1032,822.6 -1029.7,822.6 
			-1028,823.3 -1023.5,823.3 -1022.5,822.9 -1024.7,822 -1026.1,821.5 -1030.5,819.7 -1028.6,818.9 -1027,819.6 -1022.3,819.6 
			-1019.4,818.4 -1019.4,817.4 -1017.9,817.4 -1017.9,816.4 -1018.7,816.1 -1021.4,816.1 -1022.7,816.6 -1024.2,817.2 
			-1028.3,817.2 -1029.6,817.8 -1032.4,817.8 -1035.4,816.6 -1038.6,816.6 -1041.6,815.4 -1043.3,815.4 -1048.1,815.4 -1050,814.6 
			-1051.4,814.1 -1053.2,814.8 -1059,814.8 -1061.7,813.7 -1064.8,813.7 -1068.3,813.7 -1070.2,814.5 -1072.8,814.5 -1072.8,813.8 
			-1071.3,813.2 -1073.1,812.5 -1073.1,811.2 -1073.1,810.5 -1076.3,810.5 -1076.3,811.2 -1077.9,811.8 -1077.9,815.5 
			-1079.2,815.5 -1081.1,814.7 -1082.4,814.7 -1082.4,813.7 -1079.4,812.5 -1079.4,811.8 -1083.3,811.8 -1084.6,812.4 
			-1088.1,812.4 -1088.8,812 -1092.4,812 -1094.8,812.9 -1094.8,814.8 -1096.3,815.4 -1096.3,816.7 -1095.5,817 -1095.5,819 
			-1091.5,819 -1091.5,818 -1089.7,818 -1089.7,818.9 -1086.3,818.9 -1084.8,818.3 -1084.8,817.4 -1086.6,816.6 -1086.6,815.5 
			-1084.6,815.5 -1082.4,815.5 -1080.6,816.3 -1080.6,817 		"/>
		<polygon class="st0" points="-1101,802.5 -1103.7,801.5 -1105.3,802.1 -1105.3,803.1 -1106.7,803.7 -1106.7,804.2 -1105.2,804.2 
					"/>
		<polygon class="st0" points="-1153.6,804.4 -1153.6,803.4 -1155.2,803.4 -1155.2,801.3 -1157,800.8 -1159.4,801.8 -1159.4,803.6 
			-1158.4,804 -1156.8,804.6 -1156.8,805.7 -1154.1,805.7 -1152.3,804.9 		"/>
		<polygon class="st0" points="-1069.5,820.1 -1069.5,821.4 -1068.4,821.8 -1064.9,820.4 -1067.5,819.3 		"/>
		<polygon class="st0" points="-990.4,824.3 -989,823.7 -991.4,822.7 -994.4,821.5 -994.4,820.7 -996.6,820.7 -998.2,821.4 
			-1000.7,820.3 -1001.9,819.8 -1006.4,819.8 -1006.4,819.3 -1008.4,818.5 -1010.2,819.2 -1014.4,817.4 -1015.2,818.5 
			-1015.2,820.1 -1011.2,820.1 -1011.2,821.5 -1007.2,821.5 -1004.1,822.7 -1000.1,822.7 -998.1,823.5 -995,823.5 -993,824.3 		"/>
		<polygon class="st0" points="-974.5,823.7 -975.6,823.3 -978.3,823.3 -982.1,821.8 -984.6,822.3 -982.4,823.2 -984,823.8 
			-987.4,823.8 -987.4,824.3 -985.8,824.9 -979.9,824.9 -977.9,824 -976.1,824 -973.6,825.1 -972.4,824.6 		"/>
		<polygon class="st0" points="-961,825.8 -961,824.6 -962.5,824 -965.9,824 -968.4,823.5 -970.2,824.2 -968.4,825 -968.4,826 
			-966.8,826 -966.8,825.4 -963.2,825.4 -963.2,825.8 		"/>
		<polygon class="st0" points="-944.6,824.3 -943.1,823.7 -943.1,823.1 -946.6,823.1 -948.1,823.7 -948.1,822.5 -949.9,822.5 
			-951.2,822.5 -953.5,822.5 -956.4,822.5 -956.4,821.5 -955.3,821.1 -955.3,820.4 -958.3,820.4 -962.4,819.3 -965.7,820.6 
			-962,822.1 -959.9,821.2 -958.4,821.9 -960.4,822.7 -959,823.2 -956.3,823.2 -954.6,823.2 -952.3,824.2 -950.5,824.9 
			-950.5,825.7 -948.9,826.4 -947.1,825.6 -944.6,825.6 		"/>
		<polygon class="st0" points="-938.1,821.4 -940.4,820.2 -942.3,820.9 -942.3,821.8 -939.2,821.8 		"/>
		<polygon class="st0" points="-924.4,823.4 -922.9,822.8 -922.9,822.3 -924.8,821.5 -927.9,821.9 -929.5,822.6 -927.4,823.4 		"/>
		<polygon class="st0" points="-920.6,828.6 -919,827.9 -921.4,827.9 -924.4,827.9 -925.7,827.4 -928.6,827.4 -930.2,826.8 
			-931.7,826.2 -933,826.5 -934.6,827.1 -931.5,828.4 -928.3,828.4 -928.3,828.9 -924.4,828.9 -923.5,828.6 		"/>
		<polygon class="st0" points="-917.7,831.2 -919.9,831.3 -921.3,831.8 -923.5,831.8 -923.5,832.4 -922.4,832.8 -920.7,833.5 
			-920.7,834.1 -921.9,834.5 -923.4,835.2 -922.2,835.7 -918.1,834 -918.1,832.9 -915.8,832 		"/>
		<polygon class="st0" points="-941.1,830.7 -939.5,831.4 -942.4,832.5 -942.4,833.5 -943.3,833.9 -941.4,834.7 -939.6,834 
			-937.1,832.9 -937.1,832.4 -937.1,830.3 -939.4,830.1 		"/>
		<polygon class="st0" points="-940.4,827.6 -939,828.2 -937.4,827.6 -938.8,827 		"/>
		<polygon class="st0" points="-950.3,833 -951.3,833.4 -952.7,834 -951.7,834.4 -949.2,834.4 -947.8,833.8 -949.2,832.5 		"/>
		<polygon class="st0" points="-946.4,835.6 -944.4,836.4 -942.5,835.7 -944.6,834.9 		"/>
		<polygon class="st0" points="-955.4,837.8 -953.8,838.4 -950.9,837.2 -953.4,837 		"/>
		<polygon class="st0" points="-961.2,829.3 -961.2,830.2 -965.2,830.2 -965.2,831 -963.1,831.8 -960.1,830.6 -958.6,830.1 
			-957.4,830.1 -957.4,829.4 -955.7,829.4 -955.7,828.4 -958.6,828.3 		"/>
		<polygon class="st0" points="-975,833.5 -973.9,833.1 -973.9,831.4 -972.4,830.8 -972.4,829.6 -974.7,828.7 -974.7,827.8 
			-977.2,827.3 -978.4,827.8 -981.5,827.8 -981.5,828.9 -979.4,829.8 -979.4,830.9 -980.6,830.9 -977.6,832.1 -977.6,833.5 		"/>
		<polygon class="st0" points="-989.4,835 -986.4,835 -986.4,836 -984.1,836 -982.2,835.2 -980.3,836 -978.1,836 -978.1,835 
			-980.4,834.1 -982.1,833.4 -984.3,833.4 -987,833.4 -991.2,831.7 -993.4,832.6 -991.3,833.5 -989.4,834.2 		"/>
		<polygon class="st0" points="-1001.2,830.7 -1003.4,830.6 -1006.4,831.8 -1006.4,834.3 -1004.3,835.2 -1001,835.2 -998.9,834.3 
			-998.9,832.7 -1001.2,832.7 		"/>
		<polygon class="st0" points="-952.6,832.8 -952.6,831.4 -951,831.4 -951,829.7 -952.8,829.3 -954.3,829.9 -954.3,830.9 
			-955.5,831.4 -955.5,832.3 -954.2,832.8 		"/>
		<polygon class="st0" points="-1049.2,775.2 -1050.7,775.9 -1050.7,776.6 -1054.7,776.6 -1056.7,777.4 -1057.3,777.6 
			-1057.4,778.4 -1063.2,778.4 -1065.2,779.2 -1068.4,780.6 -1071.2,781.7 -1072.4,782.2 -1072.4,783.1 -1070.9,783.8 
			-1070.9,784.8 -1067.3,784.8 -1067.3,783.4 -1064.9,782.5 -1061.3,782.5 -1059.6,781.8 -1056.4,781.8 -1054.5,781 -1050.4,781 
			-1050.4,779.4 -1048.3,780.3 -1046.4,779.5 -1046.4,777.3 -1044.4,776.5 -1041.6,775.3 -1041.6,773.9 -1043.8,773.9 
			-1043.8,772.5 -1044.4,772.2 -1041.4,772.2 -1041.4,772.9 -1037.2,771.2 -1033.4,771.2 -1033.4,769.8 -1031.4,769 -1028,767.6 
			-1025.2,767.6 -1022.3,766.5 -1022.3,766 -1027.3,766 -1028.8,766.6 -1031.5,766.6 -1031.5,768.4 -1034.1,768.4 -1035.7,769 
			-1038.7,769 -1040.7,768.2 -1040.7,767.3 -1045.3,767.3 -1045.3,769.1 -1046.6,769.7 -1048.2,770.3 -1048.2,771.1 -1050.6,771.1 
			-1050.6,771.8 -1049.2,771.8 -1049.2,774.4 		"/>
		<path class="st0" d="M-1015.3,761.4l2.1,0.8l6.5-2.6l1.5-0.6v-1.4h3.6v-2.4h4.1v-2.4l2.1-0.9v-2.3l-1.1-0.4v-1.3l1.7-0.7l1.3-0.5
			l2.1-0.8l1.6,0.6l3.3-1.3h4.4v1h3.4v-1.3h1.3l3.8-1.5h1.8l4.7-1.9h2.4l1.9,0.8h2.9l2-0.8v-0.9l-1.4-0.6v-1.4l-1.2-0.5v-0.8l3-1.2
			v-10.1l-1.2-0.5l-1.8-0.7h-1.4l-2-0.8h-2.3l-1.6-0.6h-13.2v2.1l1.9,0.8l-1.7,0.7l-1.6-0.6h-2.2v-2.5h-1.6l-1.1,0.4h-3.1l-1.7-0.7
			h-3.4v0.8h-3v0.5l-1.3-0.5h-3.1v-3.2l-1.5-0.6h-1.3l-1.3-0.5h-9v1.4l-1.1-0.4l-3.8-1.5h-2.1v-1.1l-2.2-0.9h-3.3l-2.1-0.8h-5.8
			l-2-0.8h-3.1l-2.5-1h-2.1l-2.1,0.8v2.3h-3.2v1.2l-2.8,1.2c0,0-1.8-1.2-2.9-1.2c-1.1,0-5.1,0-5.1,0l-1.5-0.6l-2.2,0.9v2.3h-1.8
			l-2.2-0.9v-1.2h-1.8V719l1.1-0.4v-4.1h-1.9v-0.7l-1.7-0.7h-5.6l-2.7-1.1h-2.9l-2.2,0.9v1.4h-5.7l-1.3-0.5l-2.8-1.1h-9.2l-2.4-1
			h-4.8l0.9-0.4l7.4-3v-3.6l-7.5-3h-6l-2-0.8h-2.2v-2.1l-2.5-1h-5.5l-0.7,0.1v1.5v1.2l-3.1,1.2v1.8h-2.2v2.4h-2.4v-0.9h-3.3v1.2
			h-5.6v-0.9h-3l-2.3,0.9h-3.7l-2.3,0.9h-3.2l-5.7,2.3v1.5l2.7,1.1l-2.7,1.1h-5.1l-1.5,0.6h-5.4v2.6l7,2.8v5h-2.1l-2.7-1.1v-2.4
			l2-0.8l-1.7-0.7h-3.1l-4.7-1.9v4.1h-2.5l-2.2-0.9h-3.1v-2.3l-1.8,0.7v1c0,0,0,1.1,0,1.3c0,0.2,0,1.3,0,1.3l1.6,0.7v2.8h5.4
			l2.8,1.1v1.5h-1.5v0.7h2.7v1.3h-4.5l-1.8-0.7v-2.9h-3.4v1l1.1,0.5v1.2l-1.4,0.5l-1.7,0.7l-3.2,1.3v1.2h-2.8l-1.4-0.6l-1.8-0.7
			v-0.8h3.9l0.8-0.3v-1.1l2.2-0.9v-1.7v-1.8v-2.6v-1.8l-2.5-1v-1l3.7-1.5v-1.4l-1.5-0.6h-1.8l-2.4-1h-4v1l-3,1.2v1.4l-4.5,1.8v0.9
			l2,0.8v2.9l4.6,1.9l-1.8,0.7l-2.1-0.8l-3.5-1.4l-1.9-0.8h-4v-0.8h-5.4l-2.1,0.9v0.7l1.5,0.6l-1.9,0.8h-3.1l-2,0.8h-4.6v-0.8
			l-1.1-0.4l-1.2,0.5h-2.9v0.8h-2.9v1.2h-4.9v0.8h-1.9l-1.7,0.7v1.2h-3v-1l2.1-0.9v-1.7l-1.2-0.5h-2.7v-0.7h-6.2v0.6l2.5,1v1.3
			l-0.9,0.4v0.8l1.1,0.4v1.1h-1.5v0.7h-1.6h-1.8l-4.4,1.8h1.9v1.1l1.5,0.6v0.8h-3.1l-3.8-1.5h-1.4l-0.8,0.3l3.6,1.5v1.1h-4.9v-0.6
			l-3.5-1.4v-0.9h-0.9v-1.2v-1l-5.3-2.1v-0.8h2.8l4.8,1.9l0.2,0.1h0.7l2.4,1h2.7v0.5h2.9l2.1-0.8l2.7-1.1v-1v-1.8l-2.9-1.2h-2.3
			l-6.5-2.6l-1.1-0.5h-4.4l-1.7-0.7l-1.4-0.6l-1.3-0.5v-1.2l-2.6-1h-3.4l-1.5-0.6h-2.9l-0.8,0.3h-5.7l-1.5,0.6v1.2h-1.5l-1.3-0.5
			h-2.7l-2.5,1v0.8h-2.7l-1.7,0.7l-3.7,1.5v0.9l-3.9,1.6v1.2l-4,1.6v0.8l-1.8,0.7l-1.4,0.6v0.9v1.2l-2.8,1.1l-5.9,2.4h-3.1v1.8h-2.9
			l-1.6,0.7v3l0.9,0.4v0.9v2.3l0.7,0.3l2.4,1h5.8v0.9l-1.5,0.6v1.5v1h2.5l2.9-1.2v-1h1.3v1h1.8l2.1-0.8h1v1.5h2l1.7-0.7l1.4-0.6
			v-3.4l2.4-1l1.3-0.5l-2.3-0.9V745h3.4v-3.8l8.6-3.5v-2.2l2.9-1.2h4v1.8l-10.6,4.3v1.7l2.3,0.9v1.9l2.1,0.8h2.3v1.3l-2.1,0.8v1.7
			l-2.5,1l-1.1,0.4v2.3l-2.1,0.8l-1.2-0.5h-4.5l-4.1,1.7l-1.5-0.6v-1h-3.3v1.6h-3.1l-2.5-1h-2.6v0.9h-2.4v0.4h-2.9v0.8h-2.8
			l-2.7,1.1l-1.3,0.5v0.8l-1,0.4h-1.1v-0.4h-1.6l-1.5,0.6l-2,0.8l-1.5,0.6h-2.4l-2.2,0.9v0.4l-2,0.8h-5.3v1.1l2.9,1.2h2.9l2.9,1.2
			v2.1l-1.9,0.8h-4.1l-1-0.4h-2.5h-5.2l-2.3,0.9v1.3l-2,0.8v2v1.4l2.1,0.8v2.3h5.3v0.1l5.9-0.9h4.9l2-0.8v-1.5h3.8l1.2,0.5h1.7v-0.5
			h2.7l1.8-0.7h2v-1h-4.9l-2.2,0.9h-1.8V774l2.1-0.8h2.3v-0.6h2.4v-2.3h2.5l1.7,0.7h1.9l2.1-0.9h2.2v0.5l-0.9,0.4v1.2l-1.5,0.6v1.2
			l1.1,0.4v0.7l1.4,0.6h3.9v-2.3l-1.4-0.5l1.6-0.7v-0.7l4.5,1.8h2.5v0.8h2.5l2.6,1.1v0.8h-7.2l-1.3,0.5v1.1l1.4,0.5h3.2v0.3h2.4
			l2.5-1v-0.9h2.5v-0.7h1.1l2.4-1h1.5v0.7l1.5,0.6v1.2l2.1,0.8l1.2,0.5h2.4v1.2l2,0.8h1.5v0.6h3.3l1.7-0.7v-0.8v-0.4h-4.5v-0.7h-2
			v-0.8h2.5h2v-0.8h2v1.3l2.4,1h5.5l1.3-0.5h3.3v0.7l-1,0.4v0.9l1.8,0.7h2.3v-0.8h2.9v1l-1.5,0.6v1h-3.3l-1-0.4h-3.9l-1.6,0.6h-5.7
			l-1-0.4h-4.3l-1.2-0.5h-2.2l-1.5-0.6h-3.6l-2.1,0.8h-1.6v1.1v0.7h-1.6l-1-0.4l-1.9-0.8h-3.3v-0.9l-1.5-0.6h-8.2l-1.9-0.8l2.4-1
			v-0.9l-1.4-0.6l1.3-0.5v-0.6l-1.9-0.8h-4.3l-0.8,0.3h-13l-2,0.8h-4l-2,0.8h-2.2h-5.8l-5.8,0.9v0.2l-6.4,2.6l-2.7,1.1v1.9l-2.5,1
			h-2.9l-2.1,0.9v1.3l-2.8,1.1v1.7l-3.8,1.6v1v1.1v2.4l-1.9,0.8v1.7l1.7,0.7v1.8l7.9,3.2v0.6l1.9,0.8l3.7,1.5l5.2,2.1h5.4l2.8-1.1
			h4.9v0.7h2.9h4.4l3.5-1.4h7.5v0.9l2.4,1l1.5-0.6h3l1.8,0.7v2.6l-2.1,0.9v1.5l4.1,1.7l5.1,2.1v1.7l1.5,0.6v1.2v2l-2.5,1l-3.3,1.3v1
			v1.6l3.2,1.3v1v1.5l3.5,1.4v3.9l6.1,2.5v1.5l3.5,1.4v3.1l1.8,0.7h14.4l5.6-2.3l13.3-5.4v-0.7l1.8-0.7v-1.5h1.5l1.7-0.7l2.5-1v-1.3
			l-2.3-0.9V832l3.6-1.5l1.7-0.7h2.5l1.3-0.5h2.1l2.7-1.1v-5.5l-3.2-1.3v-3.2l1.3-0.5v-1.2l1.6-0.7l4.8-1.9h2.5l9.2-3.7l1.5-0.6v-2
			l2.2-0.9v-1.1l2.6-1v-1.4l-1.4-0.6v-0.7h-2.5v0.7h-4.4v0.7h-5.6h-3.2l-0.1,0h-2.8l-0.7-0.3l-2.2-0.9v-1.4l-2.6-1.1l-2-0.8v-1.2
			l-3-1.2v-1.8h-1.2v-1.2l-1.4-0.6v-0.7l-1.4-0.5V790l1.1-0.4l4.5,1.8l2.1,0.8v2l2,0.8v1.6l4.3,1.7v1.2l3,1.2v1l2.2,0.8l0,0h3.8V802
			h3.1v-0.5h3l1.9-0.8l1.1-0.4h2.2l3.5-1.4h5.3v-0.7h1.7l4.4-1.8l2.4-1v-0.8l2.4-1v-1.1l-0.5-0.2h-3.8l-5.2-2.1h-3.1l-1.1,0.4h-4.9
			V790l-3.5-1.4l-1.4-0.6v-0.8l-2.3-0.9l1.8-0.7l2.5,1v1.1l2.3,0.9h1.8l1.9,0.8h3l1.5-0.6h3.1v0.9h2.6l3.9,1.6h14.4l2.7,1.1h1.9v1.4
			l3.6,1.4h2.9l1.8,0.7v1.8l2.9,1.2v1l4.1,1.7v1.6l1.9,0.8v1.8l3,1.2l2.8-1.1h1.5v2.1l3.5,1.4l4-1.6v-1.8l-4.4-1.8V803l1.6-0.7v-2.8
			h1.7l7.5-3h2V796h1.3l2.8-1.1v-0.8h6.6v-0.8l2.2,0.9v1l4.2,1.7v1.5h-1.2v0.7l1.7,0.7h3.1l1.7-0.7h1.6v2l3.3,1.3v1.2l-1.9,0.8v1.7
			l4.9,2v2.1l-6.1-2.5h-4.2l-2.4-1l-1.7,0.7l3,1.2v1.1l8.3,3.3v1.5l8.2,3.3h2l7.7,3.1h6.9l1.8,0.7h4.8h1.9h5.3l1.7,0.7h4.6v0.5h1.8
			l1.8,0.7h2.7v-1.9h4.2v0.6l-2.3,0.9l1.5,0.6l1.2-0.5h4.4l1.5-0.6v-0.7h3.7v-1.7l-1.3-0.5h-3.5l-1.1,0.4h-23.5v-0.9h-4.1l-1.2-0.5
			h-8v-0.6h-3.4v-1.5h2.7v-1.1l-1.8-0.7l-1.5-0.6l-1.3-0.5h-1.2l-0.7,0.3l-1.3-0.5l-1.9-0.8l1.4-0.6v-1l-1.6-0.6v-2l-5.6-2.2
			l-1.5-0.6v-1.1h-2.1v-0.7l1.8-0.7l1.5-0.6h2.3v1.1l2.1,0.8h2.5v1.8h3.1l2.8-1.1l0.4-0.2h2.4l3.5-1.4v-1.1v-1.9l-1.2-0.5v-0.9
			l-6.4-2.6v-0.7l4.3-1.7l1.1-0.5v1.1l-2.4,1l0.4,0.2v0.8l1.2,0.5h3.5l3.5-1.4v-1.7h2.9v-0.8h4.4v-0.8h2.7l4.5-1.8h2.7v2h1.8v0.6h4
			v-0.9l0.7-0.3v-2.5l-0.8-0.3h-2.7v0.4h-1.3v-0.4v-0.4l1.5-0.6h2v-0.6l1.5-0.6l1.5-0.6v-1.6h-1.5v-2.3h-1.7v-1.1l-2.3-0.9l-1.2-0.5
			l2.6-1.1V779h2.3l2.5-1v-0.8l-1.2-0.5h-2.7V776h-3.5v0.7h-1.2l-1.1-0.5l2.4-1l3-1.2h1.5v1.2v0.4l0.8,0.3l0.8-0.3h1.3l3-1.2v0.6
			h-0.5v0.7l-0.9,0.4v0.8l1,0.4h2.2v0.3l-1.3,0.5v0.6h1.2v2.1l1.2,0.5h4.3l1.8-0.7h1.2l1.6-0.7l0.6-0.2v-2.3l-1.3-0.5h-1.1v-0.6
			l-1.3-0.5l-1-0.4v-0.6h1.9l4.1-1.7v-1h7.6l4.5-1.8v-0.5l1.4-0.6v-0.5l2.3-0.9l1.1-0.4l2.1-0.9v-0.6l1.5-0.6l2.1-0.8v-2.1h0.2V755
			l-1.4-0.6h-4.5l-1.2,0.5l-2.1-0.8h-3.2l2.2-0.9h4v-1l5.7-2.3v-1l3.6-1.5h14.5V747h4.4v0.9h6.7l0.8-0.3h2.9v-1.1h-1v-0.7l2.7-1.1
			l2.9-1.2v-1.1h3.2v1.9h1.7v1.1l6.1-2.4l0.8,0.3l-9.3,3.8h-1.9v1.9h-1.5l-6.2,2.5v3.3l1.5,0.6v1.9l2.1,0.8v1.9L-1015.3,761.4z
			 M-1270.6,772.2h-8.2l-2.9-0.8h-6.3l-2.2,0.9h-3.9h-1.9l-2.1-0.8v-1.2l1.8-0.7l3-1.2v-1.1l1.4-0.6h1.4v1l2.2,0.9l1.6,0.6l1.8,0.7
			l1.1-0.4l1.6-0.6h2.9l1.6,0.6h2.1l1.5,0.6l2.5,1l1,0.4V772.2z M-1242.9,771.9l-2,0.8v1.8l3.3,1.3v1.8h-4l-2.1-0.8h-4.6v-1l2.7-1.1
			v-1.3h-2.4v-1.7l-2.4-1v-1v-1l-1.2-0.5l5.8-2.3l1-0.7h6.5l2.9,1.2l-2.4,1h-4.8v1.4v1.5L-1242.9,771.9z"/>
		<polygon class="st0" points="-1040.2,753.6 -1041.7,753.6 -1043.6,754.4 -1043.6,756.1 -1044.4,756.1 -1044.4,762.3 
			-1044.3,762.3 -1044.3,764.3 -1044.3,766 -1043.3,766 -1043.3,766.8 -1038.1,766.8 -1038.1,765.4 -1039.2,764.9 -1039.2,763.1 
			-1037.9,763.1 -1036.8,763.6 -1034.6,762.7 -1034.6,762.1 -1036.1,761.5 -1036.1,760.3 -1037.8,759.7 -1037.8,756.3 
			-1038.7,755.9 -1038.7,754.2 		"/>
		<polygon class="st0" points="-1242.6,722.7 -1242.6,724.3 -1237.8,724.3 -1235.1,725.4 -1232.4,725.4 -1232.4,723.2 -1235,722.2 
			-1235,720.9 -1236.5,720.3 -1236.5,719.2 -1233.3,717.9 -1233.3,716.8 -1236.3,715.7 -1242.1,715.7 -1245.4,717 -1245.4,718.6 
			-1248,719.7 -1248,721.6 -1245.2,722.7 		"/>
		<polygon class="st0" points="-1251.3,727.9 -1248.3,726.7 -1248.3,725.8 -1252.3,724.5 -1255.8,725.9 -1255.8,727.2 
			-1253.9,727.9 		"/>
		<polygon class="st0" points="-1256.7,827.8 -1261,827.8 -1261,830.3 -1261,831.7 -1263.6,832.7 -1263.6,833.8 -1263.6,836.2 
			-1261.8,836.9 -1257.9,836.9 -1255.1,835.8 -1255.1,833.4 -1252.5,832.3 -1252.5,830.4 -1250.6,829.6 -1250.6,827 -1249.9,826.7 
			-1249.9,825.7 -1251.3,825.6 		"/>
		<polygon class="st0" points="-1195.4,808.6 -1198.5,807.3 -1198.5,806.4 -1200.9,805.4 -1204.3,806.7 -1200.7,808.2 
			-1200.7,810.7 -1200.7,812.6 -1200.7,815.3 -1198.7,815.3 -1196.1,815.3 -1196.1,813.3 -1193.3,812.2 -1193.3,810.7 
			-1195.4,809.9 		"/>
		<polygon class="st0" points="-1226,817.4 -1227.6,816.8 -1229,816.8 -1229,817.7 -1231.2,817.2 -1232.5,817.8 -1232.5,819.3 
			-1229.7,819.3 -1227.5,819.3 -1226,818.7 		"/>
		<polygon class="st0" points="-1236.3,818.3 -1236.8,817.6 -1239.3,818.6 -1239.3,819.6 -1242.3,820.7 -1240.6,821.4 
			-1237.7,820.2 -1236.3,819.7 		"/>
		<polygon class="st0" points="-1237.3,832.4 -1237.3,833.2 -1235.3,833.2 -1234,832.7 -1234,831.7 -1235.5,831.7 		"/>
		<polygon class="st0" points="-1226.4,832.3 -1224.6,833.1 -1221.8,831.9 -1223.7,831.2 		"/>
		<polygon class="st0" points="-1245.8,833.5 -1244,834.2 -1241,834.2 -1241,833.1 -1244.2,832.8 		"/>
		<polygon class="st0" points="-1249,822.8 -1249,824 -1246.8,823.1 -1246.8,821.7 -1249,821.3 		"/>
		<polygon class="st0" points="-1251.3,822.4 -1254.6,821.9 -1256.2,822.5 -1253.9,823.4 		"/>
		<polygon class="st0" points="-1265.5,822.8 -1267.2,823.5 -1267.2,824.7 -1263.2,824.7 -1263.2,825.9 -1261.2,826.7 
			-1259.1,825.8 -1257.5,826.5 -1255.3,825.6 -1256.9,825 -1258.3,824.4 -1260.1,825.1 -1261.9,824.3 -1261.9,823.1 		"/>
		<polygon class="st0" points="-1203.8,801 -1206,801.8 -1206,802.4 -1201.9,804.1 -1200.6,803.6 -1203.9,802.2 -1202.3,801.5 		"/>
		<polygon class="st0" points="-1411.5,730.9 -1415.5,730.9 -1415.5,730 -1417.3,729.3 -1420.3,729.3 -1421.7,728.7 -1425.6,728.7 
			-1426.1,729.1 -1429.3,730.4 -1426.4,731.6 -1426.4,732.6 -1425.2,733.1 -1422.7,733.1 -1422.7,734.1 -1419.6,734.1 
			-1417.6,733.3 -1415.3,734.3 -1413,735.2 -1409.9,733.9 -1409.9,732.6 -1411.5,732 		"/>
		<polygon class="st0" points="-1399.7,740.1 -1399.8,741.2 -1399.2,741.4 -1397.6,741.4 -1397.6,742.1 -1396.7,742.1 
			-1395.5,742.1 -1395.5,741.2 -1393.5,740.4 -1395.5,739.6 -1398.4,739.6 		"/>
		<polygon class="st0" points="-597.2,694.5 -592.9,692.8 -592.9,692.2 -596,692.2 -598.3,691.3 -600.4,691.3 -602.7,692.2 
			-602.7,693.3 -604.5,694 -609.8,694 -611.8,694 -619.3,697 -620.7,696.4 -612.9,693.2 -612.9,691.4 -618.5,691.4 -618.5,692.5 
			-619.8,693 -621.8,693.8 -627.8,693.8 -627.8,692.8 -624.7,691.6 -623.4,691 -630.4,691 -632.5,691.9 -635.8,691.9 -635.8,692.5 
			-639.6,692.5 -641,692 -637.9,690.7 -631.9,690.7 -630.3,690.1 -620,690.1 -615.9,690.1 -613.5,689.2 -613.5,687.6 -618.3,687.6 
			-621,687.6 -624,688.8 -624.9,688.5 -624.9,687.8 -621.7,686.5 -621.7,685.9 -625.8,685.9 -627.8,686.6 -632.6,686.6 
			-635.8,686.6 -637.7,687.4 -641.3,687.4 -642.3,687.8 -645.9,687.8 -645.9,686.8 -640.1,686.8 -640.1,685.6 -633.6,685.6 
			-629.2,685.6 -626.1,685.6 -626.1,684.9 -629.9,684.9 -632.1,684 -637,684 -641.8,684 -641.8,684.9 -644,684 -648.6,684 
			-652,685.4 -648.6,685.4 -648.6,686.2 -653,686.2 -653,688.1 -656,686.9 -660,686.9 -660,685.9 -665.3,685.9 -665.3,686.9 
			-660.7,686.9 -657.9,688.1 -655.2,689.2 -657.6,689.2 -660.2,689.2 -662.1,688.4 -664.1,688.4 -664.1,689.5 -664.1,691.3 
			-666.3,692.2 -674.7,688.8 -677.7,690.1 -675.4,691 -678.1,692.1 -682.5,692.1 -682.5,692.9 -686.4,692.9 -686.4,690.6 
			-688.8,690.6 -694.4,690.6 -696.1,691.2 -694.3,692 -692.8,692.6 -692.8,694 -693.8,693.6 -697,692.3 -699.3,692.3 -701.5,692.3 
			-701.5,693.3 -701.5,694.5 -701.5,695 -704.6,695 -706.4,694.2 -714.4,697.5 -712.6,698.2 -709,696.7 -706.7,697.6 -706.7,698.5 
			-708.5,699.2 -708.5,700.1 -710.7,701 -710.7,701.8 -710.7,702 -716.7,702 -721.5,703.9 -725.1,703.9 -725.1,705 -722.2,705 
			-718.4,706.6 -714.7,705.1 -710.5,705.1 -710.5,706.5 -713.8,707.8 -718.5,707.8 -718.5,709.7 -714.5,709.7 -710.5,708.1 
			-703.3,708.1 -697.8,710.3 -694.5,710.3 -694.5,712.5 -691.3,712.5 -686.4,714.5 -686.4,716.5 -686.4,719.4 -684.2,719.4 
			-684.2,718.6 -679.4,718.6 -676.7,719.7 -676.7,721.5 -674.9,722.2 -674.9,724.1 -676.9,724.9 -676.9,725.8 -681.3,725.8 
			-681.3,727.5 -681.3,729 -678.9,730 -676.2,730 -676.2,731.3 -677.7,731.3 -677.7,732.5 -675.8,733.3 -671.9,734.9 -667.5,734.9 
			-664.6,734.9 -664.6,735.9 -661.2,735.9 -658.2,734.6 -658.2,733.5 -659.3,733.1 -659.3,732.1 -657.6,732.1 -657.6,729.4 
			-651.6,727 -647.4,727 -647.4,728 -643.8,728 -638.3,725.8 -638.3,724.1 -633.8,724.1 -633.8,724.9 -629,724.9 -626.5,723.9 
			-621.9,723.9 -620,723.1 -617.9,722.3 -623.9,722.3 -629.2,722.3 -629.2,721.4 -627.3,720.6 -627.3,719.1 -625.2,718.3 
			-623.3,719.1 -620.5,720.2 -617.1,720.2 -617.1,721.6 -614.7,721.6 -614.7,718.8 -619.8,718.8 -623.2,717.5 -625.8,717.5 
			-625.8,716.2 -619.3,716.2 -619.3,714.7 -616.9,714.7 -614.1,715.9 -611,715.9 -611,714.8 -613.1,714 -613.1,713 -610.3,713 
			-610.3,712 -613.5,710.7 -612.9,710.5 -610.4,711.5 -608,710.5 -613.2,708.4 -610.5,707.3 -606.9,707.3 -608.6,706.6 
			-610.7,705.8 -614.2,705.8 -614.2,704.6 -611.8,704.6 -611.8,702.4 -607.9,702.4 -607.9,700.5 -610.4,699.5 -610.4,698.3 
			-608.7,697.6 -611.6,696.4 -610.8,696 -605,696 -602.7,695.1 -598.7,695.1 		"/>
		<polygon class="st0" points="-729,716.6 -732.9,716.6 -732.9,717.6 -735.6,717.6 -738.3,718.7 -740.4,718.7 -740.4,717 
			-738.8,716.4 -740.2,715.8 -740.2,714.1 -744.7,714.1 -744.7,714.7 -749.3,714.7 -749.3,716.8 -747.5,717.5 -747.5,718.7 
			-750.4,718.7 -750.4,716.6 -750.7,714.2 -750.9,713.3 -755,713.3 -760.7,715.6 -760.7,718.3 -757.6,719.5 -757.6,720.8 
			-754.5,720.8 -751.6,720.8 -751.6,720 -748.7,720 -748.7,721.7 -755.3,721.7 -755.3,723 -752.7,724 -749.5,724 -743.4,724 
			-741.1,723.1 -739.3,723.1 -737,724 -735.1,723.2 -731,724.9 -727.2,726.5 -729.2,727.3 -731.6,728.3 -731.6,730.3 -725.9,730.3 
			-725.9,728.9 -723.6,728 -721.8,728.7 -721.8,730.4 -724.5,731.5 -724.5,733.7 -726.9,734.7 -732.5,734.7 -732.5,736.3 
			-732.5,737.8 -726.7,737.8 -726.7,736.7 -723.4,738 -719.5,739.5 -715.3,739.5 -714.5,739.9 -707.7,742.6 -705.5,741.7 
			-712.7,738.7 -710.9,738.7 -706.2,740.6 -701.8,738.9 -701.8,737.3 -705.5,737.3 -705.5,736.2 -708.4,736.2 -710.2,735.4 
			-711.4,735 -711.4,732.9 -708.8,731.8 -706.6,732.7 -706.6,733.7 -702.5,735.3 -699.3,734 -696.8,733 -699,732.2 -704.5,729.9 
			-706.2,729.3 -707.8,729.3 -709,728.8 -711.5,727.8 -711.5,725.3 -714.4,724.1 -722.8,720.7 -724.5,720.7 -724.5,718.4 		"/>
		<polygon class="st0" points="-834,720.7 -831.3,719.6 -828.2,718.4 -828.2,717.3 -825.4,716.1 -823.1,715.2 -817.6,713.2 
			-821.7,711.9 -823.9,712.8 -827.5,712.8 -827.5,711.3 -831.9,711.3 -836.2,711.3 -836.2,712.3 -836.2,713.4 -836.2,714.5 
			-837.4,715.5 -840.7,716.8 -840.7,718 -837.4,719.3 		"/>
		<polygon class="st0" points="-790.9,726.1 -788.4,727.1 -785.9,727.1 -785.9,724.5 -787.3,724 -789.6,723 -793.8,721.4 
			-793.8,719.5 -792.5,719 -792.5,715.5 -796.1,714 -797.2,713.6 -799.5,714.5 -799.5,716.4 -799.5,718.5 -802.4,718.5 
			-802.4,717.1 -804.5,716.2 -806.8,717.1 -809.6,717.1 -809.6,715.9 -812.5,715.9 -814.2,716.5 -816,715.8 -813,714.6 -815,713.8 
			-817.1,714.3 -824.7,717.4 -824.7,718.4 -822.7,719.2 -820.1,720.2 -817.6,720.2 -817.6,720.7 -818.8,721.1 -822.7,721.1 
			-822.7,722.1 -819.9,723.2 -813.4,723.2 -813.4,722 -811.6,722.7 -810.1,723.3 -810.1,723.8 -820.1,723.8 -820.1,725 
			-817.9,725.8 -812.6,725.8 -812.6,726.7 -802.9,726.7 -801.6,726.2 -798.9,726.2 -798.9,724.9 -796.1,724.9 -796.1,726.1 		"/>
		<polygon class="st0" points="-767.8,698.7 -767.8,699.5 -767.8,700.5 -764,700.5 -764,701.4 -761.5,701.4 -758,700 -758,698.9 
			-754.9,698.9 -752.8,698 -756.3,696.6 -757.4,696.2 -759.9,695.2 -762.8,694 -767.1,691.4 -771.5,693.1 -768.6,694.3 
			-771.5,695.4 -771.5,696.3 -773,696.9 -773,697.9 -767.8,697.9 		"/>
		<path class="st0" d="M-756.4,690.5l-1.9,0.8l-2.3,0.9h3h6.2v1.2h-4.7l2.7,1.1h5.1v-1.6h4.4l0.7,0.3h1.8v-1.5l5.2-2.1l2.2,0.9
			l-4,1.6v1.4h5.7v0.2v0.7h-6.4h-3.8l-1.3,0.5h-2v0.8h2.9v0.9l1.6,0.7h2.2l-1.1,0.4h-3.1h-1.8l-4.4-1.8l-0.8-0.3h-1.5l-1-0.4h-2v0.9
			l2.4,1l3.8,1.5l1.8,0.7h3.8v0.8l-2.1,0.8l-2.4-1h-1.7h-3.8l-2,0.8l1.2,0.5h3.2v0.6v1.1h2.4l1.9-0.8h1v0.8l-2.8,1.1h-5.5v-0.8
			l-2-0.8l-2.3,0.9l2.1,0.8l-1.6,0.7l-1.4,0.6v0.5h3.9v0.5c0,0,4.5,0.2,4.5,0s0-1.2,0-1.2h5.6v1.1h3.8l2.4-1l-1.7-0.7h-3l-1.4-0.6
			l1.8-0.7h2h2.7l3-1.2h3.4v-1.1v-1h1.6v-0.6h-4.2v-1.4l1.8-0.7h3.5h4.5v-1l2.2,0.9l3.5-1.4v-1.3h3.9l8-3.2l-2.8-1.1l-4.1,1.7h-2.7
			l-1.9-0.8h2.1v-1.4h3.5h5.5l1.6-0.7l5.8-2.3l-1.3-0.5h-1.5l-1.5-0.6l-1.8-0.7h-2.5v0.8h-5.5h-2.7l2.4-1h-2l-1.3-0.5h-6.4l-1.8,0.7
			v0.7l-1.2-0.5l-2.9-1.2h-4.5l5,2l-2.1,0.9l-2.4-1l-2.2-0.9h-4.2l-1.9,0.8l-2.2,0.9v0.4l0.9,0.3l1.5,0.6h-4.9h-1.8l-1.6,0.7v-1.2
			l-2.1-0.8v1v0.9l-0.8,0.3h-2.4l-1.7-0.7l-1.6,0.5l-2.5,1l2.1,0.8H-756.4z"/>
		<polygon class="st0" points="-827,706 -825.3,705.3 -824,705.3 -824,706.7 -824,707.8 -820,707.8 -820,708.5 -814.4,708.5 
			-812.7,709.2 -812.7,710 -808.2,710 -806.2,709.2 -801.4,709.2 -798.6,708.1 -798.6,709.7 -794.4,708 -797.3,706.8 -799.2,706 
			-801.3,706.9 -803,706.2 -803,705.1 -806.5,705.1 -806.5,706.6 -806.5,708 -811.4,708 -811.4,706.4 -813.8,706.4 -817.1,706.4 
			-821.3,706.4 -821.3,704.8 -818.4,704.8 -818.4,703.3 -822,703.3 -824.2,703.3 -824.4,703.9 -828.4,704.2 -831.2,705.4 
			-831.2,707.2 -829.8,707.2 		"/>
		<polygon class="st0" points="-809.6,702.7 -809.6,701.6 -808.3,701 -808.3,700.1 -811.4,700.1 -812.5,700.1 -812.2,700.7 
			-814.5,701.7 -814.5,703.3 -811.1,703.3 		"/>
		<polygon class="st0" points="-786.7,705.9 -789.9,707.2 -786.5,708.6 -786.5,709.7 -783.3,709.7 -783.3,707.6 -779.6,707.6 
			-777.5,706.8 -782.4,705.9 		"/>
		<polygon class="st0" points="-777.9,708.8 -773.4,710.7 -769.4,709 -766.6,710.1 -766.6,707.8 -770.2,707.8 -770.2,706.1 
			-772,705.2 -776.9,705.2 -772.9,706.8 -775.9,708 		"/>
		<polygon class="st0" points="-755.6,710.3 -757.3,711 -751.3,711 -751.3,709.5 -746.7,709.5 -746.7,710.3 -744.3,711.2 
			-740.4,709.7 -743,708.6 -745.2,707.7 -751.5,707.7 -754.7,709 -757.8,709 -760.5,707.9 -760.5,706.4 -763.6,706.4 -763.6,708.1 
			-763.6,710.3 -759.6,710.3 		"/>
		<polygon class="st0" points="-780.2,700.3 -780.2,702.2 -777.5,702.2 -774.4,703.5 -770.2,703.5 -768.4,702.8 -769.6,702 
			-771.3,701.3 -774.5,701.3 -776.1,700.7 -778.5,699.7 		"/>
		<polygon class="st0" points="-794.7,700.9 -792.5,701.8 -788.2,701.8 -784.3,703.4 -782.9,702.8 -784.4,702.3 -784.4,700.3 
			-786.9,700.3 -792.2,700.3 -792.2,698.7 -794.7,698.7 -797.7,698.7 -794.7,699.9 		"/>
		<polygon class="st0" points="-781.1,718.7 -781.1,720.1 -778.8,721 -775.4,719.6 -775.4,717.6 -778.2,716.4 -780.5,716.4 
			-780.5,714.9 -777.1,714.9 -777.1,713 -779.4,713.2 -782.4,713.2 -782.4,714.9 -782.4,716.2 -783.7,716.7 -786,716.7 
			-783.8,717.6 		"/>
		<polygon class="st0" points="-768,718.3 -764.8,717 -763.5,716.5 -763.5,714.1 -760.9,714.1 -760.9,712.1 -764.4,712.1 
			-766.3,712.9 -767.7,712.3 -770.2,712.3 -773.7,713.7 -773.7,715.4 -770.1,716.8 -770.1,717.4 		"/>
		<polygon class="st0" points="-772.7,727.5 -772.7,726.1 -778.2,724.6 -781.8,726 -778.2,727.5 		"/>
		<polygon class="st0" points="-733.5,715.1 -731.5,715.9 -729.1,714.9 -732.4,713.3 -739.3,713.3 -739.3,715.5 -736.8,716.5 		"/>
		<polygon class="st0" points="-777.1,696.8 -781,695.2 -783.5,695.7 -785.4,696.5 -780.8,698.3 		"/>
		<polygon class="st0" points="-793.5,705 -793.5,703.1 -796.3,701.9 -798.4,702.2 -798.4,703.1 -795.5,704.2 		"/>
		<polygon class="st0" points="-740.2,741.9 -740.2,742.7 -737.9,743.7 -735,742.5 -735,741.4 -738.1,741.1 		"/>
		<polygon class="st0" points="-731.1,795.9 -728.7,794.9 -724.4,794.9 -724.4,794.2 -728.7,794.2 -732.5,792.7 -732.5,791.9 
			-735.8,791.9 -740,791.9 -740,791.1 -743.1,791.1 -745.9,792.3 -743.1,793.4 -741.5,793.4 -736.9,793.4 -733.5,794.8 
			-736.1,795.9 		"/>
		<polygon class="st0" points="-694.8,802 -692,802 -690.5,801.4 -694.7,799.7 -694.7,798.3 -697.2,797.3 -699.3,797.3 
			-700.9,796.6 -702.6,795.9 -708.7,795.9 -711.8,795.9 -711.8,795 -716.9,795 -719.4,794 -718.4,793.6 -721.6,792.2 -725.3,792.2 
			-725.3,791.1 -727.4,790.3 -729.9,789.3 -729.9,788.1 -732.7,786.9 -734.9,787.8 -736.9,787.6 -736.9,789.1 -733.5,789.1 
			-731.3,789.1 -731.3,790 -733.1,790.7 -733.9,791 -732.5,791.6 -729.3,791.6 -729.3,792.5 -727.9,793 -724.4,793 -724.4,794 
			-722.8,794.6 -722.8,795.7 -726.7,795.7 -726.7,797.2 -723.6,797.2 -718.9,797.2 -716.2,797.2 -714.2,797.2 -712.5,796.5 
			-710.2,797.5 -702.9,797.5 -699.9,798.7 -695.7,800.4 -695.7,801.6 		"/>
		<polygon class="st0" points="-741.2,796.7 -738.1,795.4 -740.9,794.9 -743.3,795.8 		"/>
		<polygon class="st0" points="-748.5,792 -750.2,792.5 -750.2,793.6 -744.7,793.6 -747.1,792.7 -747.1,791.8 		"/>
		<polygon class="st0" points="-760,813.8 -760,812.4 -760.5,812.7 -765.8,813.6 -765.8,814.6 -763.7,815.5 -760,815.5 
			-757.2,814.4 -758.5,813.8 		"/>
		<polygon class="st0" points="-739.1,837.7 -736.6,838.7 -734.9,838 -734.9,836.8 -737.5,837 		"/>
		<path class="st0" d="M-642.9,817.4l-1.5-0.6l-2.8-1.1h-8.2l-1.7-0.7h-3.2l-5.3-2.2l-3.8-1.5l-2.5-1v-1.8h-3.5l-3-1.2h-7.8
			l-3.6-1.5h-2.9l-2.2-0.9l1.9-0.8v-1.5h-3.3l-2.5,1v-0.8h-6.1v0.7h-1.9h-2.8l-1.8-0.7v-1.2h-1.9l-1.2,0.5h-3.6v-0.9h-2.7l-2.4,1
			l-1.7,0.7l-2.2,0.9l-3.6,1.5h-3.9l2.2-0.9h-3.4h-2.4l-2.2,0.9l-2.5-1l-2.6-1.1v-2.4l2.2-0.9l-1.7-0.7l-3-1.2h-3.6l-1.8,0.7l-2-0.8
			l1.5-0.6l2-0.8v-2.1v-1l-1.5-0.6h-6.5l-2.6,1.1v1l-1.3,0.5v0.8h-0.2l-1.6,0.7h-3.2l-3.8-1.5l-2.7-1.1l-1.7-0.7v-3.5h1.1v-2.3
			l4.8-2l2.1-0.8h7.4l3,1.2v-1.5h6.2h5.1l3.6,1.5v2.1l3.4,1.4h2.2v-2.3l-3.9-1.6v-2.3l8.7-3.5l2.8-1.1v-1.1l2.1-0.9l3.3-1.3v-2.2
			l4.9-2h4.4v-1l3-1.2h2.3h3.4v0.6l2.5,1l2.3-0.9l2.5-1h5.1l2.7-1.1v-2.1h-2h-3.5h-3.1h-4.2v-1.3h-5.1l-2.4,1v1.7l-3.2,1.3h-10.2
			l-5.3,2.2l-1.5,0.6h-8l-2.7-1.1v-2h-4.4v-2.2h-2.7l-1.9,0.8l-2.5-1l1.5-0.6h-5.9v-0.7h3.6h3.8v1.3h4.2l1.5,0.6h2.8h3.5v1.2
			l1.9,0.8v0.6h-2.3v1.5h2.7h3.8l2.3-0.9l3.4-1.4v-0.4h10.5l1.8-0.7v-1l-1.2-0.5v-0.8l4.3-1.7h3.4l1.7,0.7h3.2l1.8-0.7l1.9,0.8
			l1.4-0.5h3.5l3.5-1.4l2.2-0.9l1.4,0.6v0.8l-1.7,0.7l-2.1,0.8l2,0.8h7.6l2.3-0.9v-0.8h-3.9v-1.7l2.2-0.9v-3.2l-4-1.6l-3.5,1.4h-4
			v-1.2h1.8l2.3-0.9l-2.3-0.9l-2.7-1.1l-3-1.2h-2.1v-2.1l-2.1-0.8l-2.9-1.2v0.6v0.9h-3.9l-1.1,0.4h-1.5v-1.4h-3.1h-2.5l1.7-0.7v-1.6
			v-1.4l-3.3-1.3h-4.2v-1.1h-4.4h-1.5l-2.2-0.9l-2.6,1.1l2.5,1v2.2v1.2l-2.9,1.2v0.5l1.8,0.7l2,0.8v1.5l1.7,0.7v1.1h-3.9l-3.6,1.5
			l3.5,1.4v1.8v1.7l-2.5,1h-3.5h-1.8v-1.1l-2-0.8l-1.8-0.7v-3.2l-2.3-0.9h-2.1l-2.7,1.1v-1.5h-3.1l-3.6-1.5h-2.7v-0.6h-1.8h-2.2
			h-1.8v-1.7l-1.7-0.7l-1.9-0.8h-1.3v-3.6l3-1.2v-0.8l2.1-0.9v-1.1h3l2-0.8V739h-3.8h-1.6l-1.8-0.7l1.2-0.5h1.5l1.3,0.5h3.4h2
			l1.6-0.7h2.9v1.8l1.3,0.5h2.7l1.3,0.5l4.9-2l1.2,0.5l-4.5,1.8v1l1.8,0.7l1.8-0.7h2v-1.3v-0.7l1.6-0.7l2.1-0.8l-6.1-2.5v-1h-2.2
			l-2.4-1h2.9l5.1-2.1v-2.1l-1.2-0.5l-2.5-0.8v-1l3.1-1.2l-3.6-1.5h-3.1v1.7l-2.9,1.2v1.8l-2.9,1.2l-2.7-1.1v-2.3l-2.8-1.1v1.9
			l-2.3,0.9v-2l-4.2-1.7V724v-1.6v-1.2l-3-1.2h-3v1.4v2.3l3.8,1.5v2v1.2l-2.8,1.1v1.8h-3.5v-1.5h-13.8l-2.7-1.1h-3.8l-1.5,0.6v2.1
			h-5.7l-3.5-1.4h-11.1v-1.5l2.7-1.1v-1.2h-10.4l-4.9-2l-3.5,1.4h-9.1l-3.3-1.3l-4.4,1.8h-5.1l-2.7,1.1h-5.6h-7.6v-1.7h-5.8l-2-0.8
			h-5.6l-4.3-1.7h-5.9h-8l-3-1.2h-5l-4.7,1.9h-4.8l-5.4,2.2v1.5h-5.5v1l4,1.6l4,1.6h6.2v1.2l-1.3,0.5l-2.9,1.2h-4.9l-3.2-1.3
			l-3.2,1.3v1.7h7.8h3.6l1.8-0.7v3.4l-3.1,1.2l-5.3,2.1v1.8l2.4,1l-2.4,1l2.5,1l4.4-1.8v1.3l2.9,1.2h7.6v0.7l-4,1.6l1.6,0.7
			l-5.5,2.2l1.5,0.6l6.5-2.6l4.9-2v-1.9l4.4-1.8l4.9-2v-1.5h2.4v1.3l5.6,2.3h5.3h2.2h7.3l3.2,1.3h4.5h4l4.1,1.7v2.7h3.1v1.5h5.5v2.5
			v1.9l3.6,1.5v1.6h4.4l4.2,1.7l3.8,1.5v1.8l-1.6,0.7v9.3l3.9,1.6v1.7l4,1.6l3.1,1.2v1.3h3.6v2.4l4.1,1.7v2l2.4,1l3.2,1.3v1l1.6,0.6
			l2.1,0.8h2.2v-0.9l-2.8-1.1v-1l-4.5-1.8v-1.4l-4-1.6c0,0,0-1.3,0-1.7c0-0.4,1.9,0,1.9,0v1.7l3.5,1.4l3.5,1.4l2.1,0.8v1h3.8l7.4,3
			v2.8l3.5,1.4h2.5l4.1,1.7h3.2h3.1h5.1l2.4,1h0.5l1.2,1.6l2.2,0.9h3.6l1.8,0.7h5.5l1.6,0.6v1.7h1.9l2.5,1l2.6,1.1h3l3.2,1.3l2.4-1
			v-0.9l1.1-0.4l1.2,0.5v1.4v1.3l1.7,0.7v0.6h-2.4l-2.4,1v1.7l-4,1.6v2.5v1.6l1.9,0.8l5.1,2.1v2.4l1.9,0.8v1.3l4.5,1.8l3.8,1.5h3.9
			l3.4,1.4v4.3h-3.1v2.1v2.7v2.6v2.3v2.7l-3.4,1.4v1.7v3h-2.2v4.1h3.3v1.4l-2.2,0.9l-2,0.8v0.8l-1.8,0.7v4l3,1.2v3l2.5,1l1.9,0.8
			h3.9v1.6h1.2l1.9,0.8h4.4v-1h6.1h2.6v-0.8l-1.6-0.6l-2-0.8h-3.8l-2.8-1.1v-2.1l-1.5-0.6v-1.2h3.3v-0.9l5.3-2.1v-1.7l-1.8-0.7h-2.2
			v-0.9h4.4v-1.6l1.5-0.6l2.9-1.2v-1.5h-2.4v-0.5h3.4l1.7-0.7v-1.5l1.5-0.6h8.4l2.6-1.1v-1.8l-1.6-0.6v-0.8h6.1l2.2-0.9v-0.8l2.4-1
			l5.3-2.2v-2h5.5v-3l6.4-2.6h6.2v-1l5.4-2.2v-2.1l3.4-1.4v-2.9l8.9-3.6v-3.7l-2.6-1.1H-642.9z"/>
		<polygon class="st0" points="-926.7,789.7 -927.9,790.2 -929.6,790.2 -929.6,791.2 -929.6,792 -927.5,791.1 -925.2,792 
			-922.3,790.9 -922.3,790 -923.3,789.6 		"/>
		<polygon class="st0" points="-903.4,795 -905.3,794.2 -905.3,792.9 -909,792.9 -911.1,792 -914.8,792 -914.8,791.3 -919.4,791 
			-921.4,791.8 -921.4,792.7 -918.4,792.7 -916.4,793.6 -914,793.6 -911.9,794.4 -908.2,794.4 -908.2,795.7 -908.2,796.3 
			-908.2,798.2 -905.1,798.2 -902.9,797.3 -899.5,797.3 -898.7,797 -898.7,795.8 -900.7,795 		"/>
		<polygon class="st0" points="-694.2,866.8 -697.9,868.3 -697.9,869.4 -694.7,869.4 -692.8,870.1 -689.5,868.7 -685.5,868.7 
			-685.5,867.6 -687.5,866.8 		"/>
	</g>
	<g>
		<g>
			<circle class="st1" cx="-1092.7" cy="764.7" r="11.6"/>
			<polygon class="st1" points="-1092.9,789.3 -1104.2,765.1 -1081.1,765.1 			"/>
		</g>
		<circle class="st2" cx="-1092.7" cy="764.7" r="6"/>
	</g>
	<g>
		<g>
			<circle class="st1" cx="-1047.4" cy="820.5" r="11.6"/>
			<polygon class="st1" points="-1047.6,845.1 -1059,820.9 -1035.8,820.9 			"/>
		</g>
		<circle class="st2" cx="-1047.4" cy="820.5" r="6"/>
	</g>
	<g>
		<g>
			<circle class="st1" cx="-978.1" cy="830.6" r="11.6"/>
			<polygon class="st1" points="-978.3,855.2 -989.7,831.1 -966.5,831.1 			"/>
		</g>
		<circle class="st2" cx="-978.1" cy="830.6" r="6"/>
	</g>
	<g>
		<g>
			<circle class="st1" cx="-919" cy="766.4" r="11.6"/>
			<polygon class="st1" points="-919.2,791 -930.6,766.8 -907.4,766.8 			"/>
		</g>
		<circle class="st2" cx="-919" cy="766.4" r="6"/>
	</g>
	<g>
		<g>
			<circle class="st1" cx="-1081.1" cy="812.6" r="11.6"/>
			<polygon class="st1" points="-1081.3,837.2 -1092.7,813 -1069.5,813 			"/>
		</g>
		<circle class="st2" cx="-1081.1" cy="812.6" r="6"/>
	</g>
	<g>
		<g>
			<circle class="st1" cx="-808.3" cy="743.3" r="11.6"/>
			<polygon class="st1" points="-808.5,767.9 -819.9,743.8 -796.7,743.8 			"/>
		</g>
		<circle class="st2" cx="-808.3" cy="743.3" r="6"/>
	</g>
	<g>
		<g>
			<circle class="st1" cx="-774.3" cy="758.2" r="11.6"/>
			<polygon class="st1" points="-774.5,782.8 -785.9,758.6 -762.7,758.6 			"/>
		</g>
		<circle class="st2" cx="-774.3" cy="758.2" r="6"/>
	</g>
	<g>
		<g>
			<circle class="st1" cx="-725.1" cy="794.5" r="11.6"/>
			<polygon class="st1" points="-725.3,819.1 -736.7,794.9 -713.5,794.9 			"/>
		</g>
		<circle class="st2" cx="-725.1" cy="794.5" r="6"/>
	</g>
	<g>
		<g>
			<circle class="st1" cx="-678.9" cy="800.5" r="11.6"/>
			<polygon class="st1" points="-679.2,825.1 -690.5,800.9 -667.3,800.9 			"/>
		</g>
		<circle class="st2" cx="-678.9" cy="800.5" r="6"/>
	</g>
	<g>
		<g>
			<circle class="st1" cx="-702.1" cy="827.7" r="11.6"/>
			<polygon class="st1" points="-702.4,852.3 -713.7,828.1 -690.5,828.1 			"/>
		</g>
		<circle class="st2" cx="-702.1" cy="827.7" r="6"/>
	</g>
	<g>
		<g>
			<circle class="st1" cx="-1121.5" cy="743.3" r="11.6"/>
			<polygon class="st1" points="-1121.7,767.9 -1133.1,743.8 -1109.9,743.8 			"/>
		</g>
		<circle class="st2" cx="-1121.5" cy="743.3" r="6"/>
	</g>
	<g>
		<g>
			<circle class="st1" cx="-1144.3" cy="758.8" r="11.6"/>
			<polygon class="st1" points="-1144.5,783.4 -1155.8,759.3 -1132.7,759.3 			"/>
		</g>
		<circle class="st2" cx="-1144.3" cy="758.8" r="6"/>
	</g>
	<g>
		<g>
			<circle class="st1" cx="-1185.8" cy="772.4" r="11.6"/>
			<polygon class="st1" points="-1186,797 -1197.4,772.8 -1174.2,772.8 			"/>
		</g>
		<circle class="st2" cx="-1185.8" cy="772.4" r="6"/>
	</g>
	<g>
		<g>
			<circle class="st1" cx="-1210.2" cy="764.8" r="11.6"/>
			<polygon class="st1" points="-1210.5,789.4 -1221.8,765.3 -1198.6,765.3 			"/>
		</g>
		<circle class="st2" cx="-1210.2" cy="764.8" r="6"/>
	</g>
	<g>
		<g>
			<circle class="st1" cx="-1255.3" cy="770.8" r="11.6"/>
			<polygon class="st1" points="-1255.6,795.5 -1266.9,771.3 -1243.7,771.3 			"/>
		</g>
		<circle class="st2" cx="-1255.3" cy="770.8" r="6"/>
	</g>
	<g>
		<g>
			<circle class="st1" cx="-1050" cy="755.3" r="11.6"/>
			<polygon class="st1" points="-1050.3,779.9 -1061.6,755.8 -1038.4,755.8 			"/>
		</g>
		<circle class="st2" cx="-1050" cy="755.3" r="6"/>
	</g>
	<g>
		<g>
			<circle class="st1" cx="-1040.5" cy="739" r="8"/>
			<polygon class="st1" points="-1040.6,756 -1048.4,739.3 -1032.5,739.3 			"/>
		</g>
		<circle class="st2" cx="-1040.5" cy="739" r="4.1"/>
	</g>
	<g>
		<g>
			<circle class="st1" cx="-1068.3" cy="716.1" r="8"/>
			<polygon class="st1" points="-1068.5,733 -1076.3,716.4 -1060.3,716.4 			"/>
		</g>
		<circle class="st2" cx="-1068.3" cy="716.1" r="4.1"/>
	</g>
	<g>
		<g>
			<circle class="st1" cx="-1006.4" cy="725.1" r="8"/>
			<polygon class="st1" points="-1006.6,742.1 -1014.4,725.4 -998.5,725.4 			"/>
		</g>
		<circle class="st2" cx="-1006.4" cy="725.1" r="4.1"/>
	</g>
	<g>
		<g>
			<circle class="st1" cx="-1095.8" cy="726.1" r="8"/>
			<polygon class="st1" points="-1096,743.1 -1103.8,726.4 -1087.9,726.4 			"/>
		</g>
		<circle class="st2" cx="-1095.8" cy="726.1" r="4.1"/>
	</g>
	<g>
		<g>
			<circle class="st1" cx="-975.4" cy="712.7" r="8"/>
			<polygon class="st1" points="-975.6,729.6 -983.4,713 -967.5,713 			"/>
		</g>
		<circle class="st2" cx="-975.4" cy="712.7" r="4.1"/>
	</g>
	<g>
		<g>
			<circle class="st1" cx="-910.1" cy="722.6" r="8"/>
			<polygon class="st1" points="-910.2,739.6 -918,722.9 -902.1,722.9 			"/>
		</g>
		<circle class="st2" cx="-910.1" cy="722.6" r="4.1"/>
	</g>
	<g>
		<g>
			<circle class="st1" cx="-879.5" cy="720.1" r="8"/>
			<polygon class="st1" points="-879.7,737 -887.5,720.4 -871.5,720.4 			"/>
		</g>
		<circle class="st2" cx="-879.5" cy="720.1" r="4.1"/>
	</g>
	<g>
		<g>
			<circle class="st1" cx="-829.1" cy="715.1" r="8"/>
			<polygon class="st1" points="-829.3,732.1 -837.1,715.4 -821.2,715.4 			"/>
		</g>
		<circle class="st2" cx="-829.1" cy="715.1" r="4.1"/>
	</g>
	<g>
		<g>
			<circle class="st1" cx="-789.7" cy="726.7" r="8"/>
			<polygon class="st1" points="-789.9,743.7 -797.7,727 -781.8,727 			"/>
		</g>
		<circle class="st2" cx="-789.7" cy="726.7" r="4.1"/>
	</g>
	<g>
		<g>
			<circle class="st1" cx="-723.1" cy="740.6" r="8"/>
			<polygon class="st1" points="-723.2,757.6 -731.1,740.9 -715.1,740.9 			"/>
		</g>
		<circle class="st2" cx="-723.1" cy="740.6" r="4.1"/>
	</g>
	<g>
		<g>
			<circle class="st1" cx="-848.7" cy="729.3" r="8"/>
			<polygon class="st1" points="-848.9,746.2 -856.7,729.6 -840.7,729.6 			"/>
		</g>
		<circle class="st2" cx="-848.7" cy="729.3" r="4.1"/>
	</g>
	<g>
		<g>
			<circle class="st1" cx="-1296.1" cy="725.5" r="8"/>
			<polygon class="st1" points="-1296.3,742.5 -1304.1,725.8 -1288.1,725.8 			"/>
		</g>
		<circle class="st2" cx="-1296.1" cy="725.5" r="4.1"/>
	</g>
	<g>
		<g>
			<circle class="st1" cx="-1306.1" cy="754.8" r="8"/>
			<polygon class="st1" points="-1306.3,771.7 -1314.1,755.1 -1298.2,755.1 			"/>
		</g>
		<circle class="st2" cx="-1306.1" cy="754.8" r="4.1"/>
	</g>
	<g>
		<g>
			<circle class="st1" cx="-1256.2" cy="730.7" r="8"/>
			<polygon class="st1" points="-1256.3,747.6 -1264.1,731 -1248.2,731 			"/>
		</g>
		<circle class="st2" cx="-1256.2" cy="730.7" r="4.1"/>
	</g>
	<g>
		<g>
			<circle class="st1" cx="-1232.4" cy="734.8" r="8"/>
			<polygon class="st1" points="-1232.6,751.8 -1240.4,735.1 -1224.4,735.1 			"/>
		</g>
		<circle class="st2" cx="-1232.4" cy="734.8" r="4.1"/>
	</g>
	<g>
		<g>
			<circle class="st1" cx="-1189.9" cy="726.2" r="8"/>
			<polygon class="st1" points="-1190.1,743.2 -1197.9,726.5 -1181.9,726.5 			"/>
		</g>
		<circle class="st2" cx="-1189.9" cy="726.2" r="4.1"/>
	</g>
	<g>
		<g>
			<circle class="st1" cx="-1356.3" cy="750.4" r="8"/>
			<polygon class="st1" points="-1356.5,767.4 -1364.3,750.7 -1348.4,750.7 			"/>
		</g>
		<circle class="st2" cx="-1356.3" cy="750.4" r="4.1"/>
	</g>
	<g>
		<g>
			<circle class="st1" cx="-1331" cy="744.8" r="8"/>
			<polygon class="st1" points="-1331.2,761.8 -1339,745.1 -1323,745.1 			"/>
		</g>
		<circle class="st2" cx="-1331" cy="744.8" r="4.1"/>
	</g>
</g>
<g>
	<text transform="matrix(1 0 0 1 -1390.8851 -368.3727)"><tspan x="0" y="0" class="st2" style="font-family:'CenturyGothic-Bold'; font-size:78px;">38,00</tspan><tspan x="196.6" y="0" class="st2" style="font-family:'CenturyGothic-Bold'; font-size:78px; letter-spacing:3;">0+</tspan><tspan x="294.9" y="0" class="st2" style="font-family:'CenturyGothic-Bold'; font-size:78px;">Free Courses</tspan></text>
</g>
<rect x="-1450.9" y="-206.7" class="st3" width="900" height="678"/>
<g>
	<text transform="matrix(1.1 0 0 1 -891.095 5.2792)" style="font-family:'ArialNarrow-Bold'; font-size:38.549px;">Scored card</text>
</g>
<g>
	<path class="st4" d="M-762-171.1c1.3,0.4,2.2,1.3,3.1,2.2c8.6,8.3,17.3,16.6,25.9,24.8c1.2,1.2,1.8,2.5,1.8,4.1
		c0,30.3,0,60.6,0,90.9c0,2.7-1.7,4.4-4.4,4.4c-29.1,0-58.2,0-87.2,0c-2.8,0-4.4-1.7-4.4-4.5c0-17.3,0-34.6,0-51.8c0-3.5,0-7,0-10.5
		c0-0.3,0-0.6,0-0.8c0.1-0.1,0.2-0.1,0.3-0.2c0.5,0.6,0.9,1.2,1.5,1.7c1.9,1.9,3.8,3.9,5.8,5.7c0.4,0.4,0.6,0.9,0.6,1.5
		c0,16.6,0,33.2,0,49.9c0,0.3,0,0.6,0,1c26.6,0,53.2,0,79.8,0c0-27.9,0-55.8,0-83.8c-0.3,0-0.7,0-1,0c-7.3,0-14.6,0-21.9,0
		c-2.9,0-4.5-1.6-4.5-4.5c0-6.9,0-13.9,0-20.8c0-0.3,0-0.6,0-1c-17.5,0-34.9,0-52.4,0c0,5.3,0,10.5,0,16c-0.3-0.3-0.5-0.4-0.6-0.5
		c-2.4-2.4-4.7-4.7-7.1-7.1c-0.3-0.3-0.4-0.7-0.4-1.1c0-3.4,0-6.9,0-10.3c0-3,0.6-3.9,3.3-5.1C-803.3-171.1-782.7-171.1-762-171.1z
		 M-758.7-144.7c4.4,0,8.7,0,13.2,0c-4.4-4.2-8.7-8.4-13.2-12.6C-758.7-153-758.7-148.9-758.7-144.7z"/>
	<path class="st4" d="M-850-142.1c0.6-0.7,1-1.6,1.7-2.2c3.6-3.6,7.2-7.2,10.8-10.8c1.6-1.6,3.3-1.6,4.9,0c2.2,2.2,4.4,4.4,6.5,6.5
		c0.1,0.1,0.3,0.3,0.4,0.4c-5.4,5.4-10.8,10.8-16.3,16.3c-2.1-2.1-4.2-4.2-6.3-6.4c-0.7-0.7-1.2-1.6-1.8-2.3
		C-850-141.2-850-141.7-850-142.1z"/>
	<path class="st4" d="M-839.8-130.2c5.3-5.3,10.7-10.7,16-16.1c19.4,19.4,38.7,38.8,58.1,58.2c-5.3,5.3-10.7,10.7-16,16.1
		C-801-91.3-820.4-110.7-839.8-130.2z"/>
	<path class="st4" d="M-788.1-115.9c1.4,0,2.7,0,4,0c10.3,0,20.6,0,30.9,0c2.2,0,3.7,1.2,4.2,3.3c0.5,2.4-1.3,4.7-3.8,4.8
		c-2.3,0.1-4.5,0-6.8,0c-6.6,0-13.3,0-19.9,0c-0.3,0-0.7-0.1-0.9-0.3c-2.5-2.4-5-4.9-7.5-7.4C-787.9-115.6-787.9-115.7-788.1-115.9z
		"/>
	<path class="st4" d="M-779.6-69.9c5.4-5.4,10.7-10.7,16.1-16.1c0.6,2,1.1,4.1,1.7,6.2c1.2,4.4,2.4,8.7,3.6,13.1
		c0.5,1.7-0.5,2.6-2.1,2.2c-6.4-1.7-12.7-3.5-19.1-5.2C-779.5-69.8-779.5-69.9-779.6-69.9z"/>
	<path class="st4" d="M-772.8-100.7c0.2,0,0.3,0,0.4,0c6.5,0,12.9,0,19.4,0c1.9,0,3.5,1.3,3.9,3c0.5,1.8-0.3,3.7-2,4.5
		c-0.6,0.3-1.3,0.5-2,0.5c-3.8,0-7.6,0-11.4,0c-0.3,0-0.6-0.1-0.8-0.3c-2.5-2.5-5-4.9-7.4-7.4C-772.7-100.4-772.7-100.5-772.8-100.7
		z"/>
</g>
<g>
	<text transform="matrix(1.1 0 0 1 -1327.7981 220.6899)" style="font-family:'ArialNarrow-Bold'; font-size:38.549px;">Distance to Hazard</text>
</g>
<g>
	<path class="st4" d="M-1235.6-94.6l-1.9,0v0.1c-0.1,19.6,10.9,27.4,20,33.1c9.5,6,22.8,8.7,36.8,8.7c7.4,0,35-2.6,49.9-17.7
		c8.5-8.7,10.2-19.5,10.2-29.1c0-7-0.9-13.5-0.9-18l0-0.7c0.3-10.7,4.3-15.5,5.7-18.6c4.5-10.5,10.6-20.7,10.6-33.3l0-1.9
		c-0.3-7-3.8-12-8.7-15c-4.8-3.1-10.8-4.3-16.7-4.3h0l-0.1,0c-6.2,0.1-18.6,4.5-27.3,13.2c-8.6,8.7-15.1,24.8-18.1,29.3
		c-4.5,7-15.8,12.2-24.1,14.7c-7.6,2.4-16.6,6.1-23.5,10.9c-6.7,4.6-14,10.3-13.9,28.8h3.7c0.2-17.6,5.7-21,12.3-25.7
		c6.4-4.5,15.1-8.1,22.5-10.4c8.6-2.8,20.5-7.8,26-16.2c3.3-5.2,9.7-20.8,17.6-28.7c7.7-7.9,20.1-12.1,24.7-12.1h0.1
		c5.3,0.1,10.7,1.2,14.7,3.8c4,2.6,6.7,6.3,7,12.1l0,1.7c0,11.4-5.6,21.1-10.2,31.9c-0.9,2.1-5.8,8.5-6,20l0,0.8
		c0,5,0.9,11.3,0.9,18c0,9.2-1.6,18.8-9.1,26.5c-13.3,13.8-40.6,16.7-47.3,16.6c-13.6,0-26.3-2.7-34.9-8.1c-9-5.8-18.2-11.9-18.3-30
		v-0.1H-1235.6"/>
	<path class="st4" d="M-1179.7-126.1c-25.5,0-46.1,14.1-46.1,31.5c0,17.4,20.7,31.5,46.1,31.5c25.5,0,46.2-14.1,46.2-31.5
		C-1133.6-112-1154.2-126.1-1179.7-126.1z M-1190.9-97c-5,0-8.9-1.5-8.9-3.6c0-2,4-3.6,8.9-3.6c5,0,9,1.6,9,3.6
		C-1182-98.5-1186-97-1190.9-97z"/>
	<path class="st4" d="M-1125.8-144.1c7.9-11.4,7.3-25.5-1.3-31.4c-8.6-5.9-22-1.5-29.8,10c-7.9,11.4-7.3,25.4,1.3,31.4
		C-1147.1-128.3-1133.7-132.7-1125.8-144.1"/>
	<polygon class="st4" points="-1219.7,-142.2 -1196.7,-142.4 -1196.7,-99.5 -1193.2,-99.5 -1193.2,-163.6 	"/>
	<path class="st4" d="M-1188.3-125.5c0,0,24.2-12,27.2-31.8c2,3.5,29.5,11.7,37.7,9.1c-5,9.9-14.7,29.7-14.1,56.9
		C-1142.6-116.9-1162.5-122.1-1188.3-125.5z"/>
</g>
<g>
	<path class="st5" d="M-159.3-82.4l-1.9,0v0.1c-0.1,19.6,10.9,27.4,20,33.1c9.5,6,22.8,8.7,36.8,8.7c7.4,0,35-2.6,49.9-17.7
		c8.5-8.7,10.2-19.5,10.2-29.1c0-7-0.9-13.5-0.9-18l0-0.7c0.3-10.7,4.3-15.5,5.7-18.6c4.5-10.5,10.6-20.7,10.6-33.3l0-1.9
		c-0.3-7-3.8-12-8.7-15c-4.8-3.1-10.8-4.3-16.7-4.3h0l-0.1,0c-6.2,0.1-18.6,4.5-27.3,13.2c-8.6,8.7-15.1,24.8-18.1,29.3
		c-4.5,7-15.8,12.2-24.1,14.7c-7.6,2.4-16.6,6.1-23.5,10.9c-6.7,4.6-14,10.3-13.9,28.8h3.7c0.2-17.6,5.7-21,12.3-25.7
		c6.4-4.5,15.1-8.1,22.5-10.4c8.6-2.8,20.5-7.8,26-16.2c3.3-5.2,9.7-20.8,17.6-28.7c7.7-7.9,20.1-12.1,24.7-12.1h0.1
		c5.3,0.1,10.7,1.2,14.7,3.8c4,2.6,6.7,6.3,7,12.1l0,1.7c0,11.4-5.6,21.1-10.2,31.9c-0.9,2.1-5.8,8.5-6,20l0,0.8
		c0,5,0.9,11.3,0.9,18c0,9.2-1.6,18.8-9.1,26.5c-13.3,13.8-40.6,16.7-47.3,16.6c-13.6,0-26.3-2.7-34.9-8.1c-9-5.8-18.2-11.9-18.3-30
		v-0.1H-159.3"/>
	<path class="st5" d="M-103.4-113.9c-25.5,0-46.1,14.1-46.1,31.5c0,17.4,20.7,31.5,46.1,31.5c25.5,0,46.2-14.1,46.2-31.5
		C-57.3-99.8-77.9-113.9-103.4-113.9z M-114.6-84.8c-5,0-8.9-1.5-8.9-3.6c0-2,4-3.6,8.9-3.6c5,0,9,1.6,9,3.6
		C-105.7-86.3-109.7-84.8-114.6-84.8z"/>
	<path class="st5" d="M-49.6-132c7.9-11.4,7.3-25.5-1.3-31.4c-8.6-5.9-22-1.5-29.8,10c-7.9,11.4-7.3,25.4,1.3,31.4
		C-70.8-116.1-57.4-120.5-49.6-132"/>
	<polygon class="st5" points="-143.4,-130 -120.4,-130.2 -120.4,-87.3 -116.9,-87.3 -116.9,-151.4 	"/>
	<path class="st5" d="M-112-113.4c0,0,24.2-12,27.2-31.8c2,3.5,29.5,11.7,37.7,9.1c-5,9.9-14.7,29.7-14.1,56.9
		C-66.3-104.7-86.2-109.9-112-113.4z"/>
</g>
<g>
	<text transform="matrix(1.1 0 0 1 -912.3167 417.1537)"><tspan x="0" y="0" style="font-family:'ArialNarrow-Bold'; font-size:38.549px;">Up to 12 hours</tspan><tspan x="12.3" y="37.9" style="font-family:'ArialNarrow-Bold'; font-size:38.549px;">in GPS mode</tspan></text>
</g>
<g>
	<path class="st4" d="M-809.2,270c0.5-3.2,0.5-3.2,3.7-3.2c1.3,0,2.6,0,4.3,0c0-1.6,0.1-3,0-4.4c-0.1-1.6,0.5-2.4,2.3-2.3
		c5.6,0.1,11.2,0.1,16.8,0c1.6,0,2.3,0.5,2.2,2.1c-0.1,1.4,0,2.9,0,4.6c1.6,0,2.9,0,4.3,0c3.8,0.1,3.1-0.2,3.7,3.2
		c2.5,0,5.1,0,7.7,0c3.3,0,4.6,1.3,4.6,4.6c0,33.7,0,67.4,0,101.2c0,3-1.4,4.4-4.3,4.4c-17.7,0-35.4,0-53.1,0c-3,0-4.4-1.4-4.4-4.4
		c0-33.8,0-67.6,0-101.4c0-3,1.4-4.3,4.4-4.4C-814.5,269.9-811.9,270-809.2,270z M-762.8,325.3c0-15.7,0-31.5,0-47.2
		c0-3.5-1.1-4.6-4.5-4.6c-15.5,0-31,0-46.6,0c-3.3,0-4.5,1.1-4.5,4.4c0,31.4,0,62.8,0,94.2c0,3.6,1.1,4.6,4.7,4.6
		c15.2,0,30.5,0,45.7,0c4.2,0,5.1-0.9,5.1-5.1C-762.8,356.1-762.8,340.7-762.8,325.3z"/>
	<path class="st4" d="M-790.8,373c-6.8,0-13.6,0-20.4,0c-3.1,0-4-0.9-4-4c0-4,0-8,0-12c0-2.5,1.3-3.7,3.7-3.7c13.9,0,27.8,0,41.7,0
		c2.7,0,3.8,1.1,3.8,3.8c0,4,0,8,0,12c0,2.9-1.1,3.9-4,3.9C-776.9,373-783.8,373-790.8,373z"/>
	<path class="st4" d="M-790.8,347.5c-6.8,0-13.6,0-20.4,0c-3.1,0-4-0.9-4-4c0-4,0-8,0-12c0-2.5,1.3-3.7,3.7-3.7
		c13.9,0,27.8,0,41.7,0c2.7,0,3.8,1.1,3.8,3.8c0,4,0,8,0,12c0,2.9-1.1,3.9-4,3.9C-776.9,347.6-783.8,347.5-790.8,347.5z"/>
	<path class="st4" d="M-790.8,296.7c-6.8,0-13.6,0-20.4,0c-3.1,0-4-0.9-4-4c0-4,0-8,0-12c0-2.5,1.3-3.7,3.7-3.7
		c13.9,0,27.8,0,41.7,0c2.7,0,3.8,1.1,3.8,3.8c0,4,0,8,0,12c0,2.9-1.1,3.9-4,3.9C-776.9,296.7-783.8,296.7-790.8,296.7z"/>
	<path class="st4" d="M-790.8,322.1c-6.8,0-13.6,0-20.4,0c-3.1,0-4-0.9-4-4c0-4,0-8,0-12c0-2.5,1.3-3.7,3.7-3.7
		c13.9,0,27.8,0,41.7,0c2.7,0,3.8,1.1,3.8,3.8c0,4,0,8,0,12c0,2.9-1.1,3.9-4,3.9C-776.9,322.1-783.8,322.1-790.8,322.1z"/>
</g>
<g>
	<text transform="matrix(1.1 0 0 1 -1319.0808 -13.668)"><tspan x="0" y="0" style="font-family:'ArialNarrow-Bold'; font-size:38.549px;">Distance to Front/</tspan><tspan x="-27.3" y="37.9" style="font-family:'ArialNarrow-Bold'; font-size:38.549px;">Center/Back of Green</tspan></text>
</g>
<g>
	<text transform="matrix(1.1 0 0 1 -1287.2156 436.102)" style="font-family:'ArialNarrow-Bold'; font-size:38.549px;">Shot Distance</text>
</g>
<g>
	<path class="st4" d="M-1189.9,379.4c0,11.3-9.1,20.4-20.4,20.4c-11.3,0-20.4-9.1-20.4-20.4c0-11.3,9.1-20.4,20.4-20.4
		C-1199.1,359-1189.9,368.1-1189.9,379.4z"/>
	<polygon class="st4" points="-1184,346.1 -1171.8,353.7 -1122.1,310.1 -1126.5,308 -1114.5,305.1 -1111.9,314.7 -1116,313.1 
		-1154,363.9 -1137.9,372.8 -1189.9,382.8 	"/>
	<path class="st4" d="M-1196.7,367c0,0-20.7-44.6,18.7-64.9c0,0,29.4-15.4,61.7,1.7c0,0-30.6-26.4-77.6-2.9c0,0-37.5,17.6-35.6,71
		l7.9-3c0,0-7.4-47.5,42.7-70.4c0,0,14.6-7.5,39-3.6c0,0-57.8-5.6-66.3,39.4c0,0-4.2,19.8,3,35.5L-1196.7,367z"/>
</g>
<g>
	<polygon class="st2" points="-747.1,1362.6 -762,1387.1 -762,1406.4 -729.4,1410.8 -714.8,1404.2 -720.6,1374.6 	"/>
	<polygon class="st6" points="-738.2,1372.7 -730.7,1382.1 -731.6,1395.6 -744.4,1404.9 -729.2,1405.8 -720.6,1397.8 -724.8,1380.7 
			"/>
	<polygon class="st2" points="-796.7,1358.9 -807.2,1369.4 -799.3,1379.7 -780.5,1380.5 -775.2,1374.9 -784.2,1355 	"/>
	<polygon class="st2" points="-761.2,1318.4 -749.7,1306.4 -752.4,1304.7 -779.5,1308.8 -798.8,1302.8 -808.8,1319.9 -810.5,1329.9 
		-801.5,1327 -798.3,1328.9 -788.3,1349.6 -783.5,1348.4 -780.1,1349.6 -778.6,1352.6 -772.5,1331.4 -772.5,1319.4 -786.1,1320.3 
		-795.9,1311.3 -785.1,1316 -770,1313.3 	"/>
	<polygon class="st2" points="-803.8,1333.8 -824.8,1340.9 -830.4,1367.7 -815,1369 -800.3,1354.1 	"/>
	<polygon class="st2" points="-828.6,1406.8 -808.7,1416.7 -785.9,1401.7 -795.8,1389.9 -816.8,1390 	"/>
	<polygon class="st2" points="-684.5,1353.8 -694.7,1318.6 -733.9,1298.9 -765.9,1331.6 -775.2,1360.6 -769,1372.9 -762,1376.1 
		-751,1357.7 -747.5,1356.5 -726,1365.5 -720.1,1361.4 -718.4,1346.3 -714.3,1364.5 -717.9,1368.9 -715.3,1371.4 -712.4,1382.9 
		-692.5,1378.7 -681.5,1370.5 	"/>
	<polygon class="st6" points="-715.4,1315.1 -729.1,1318 -707.2,1338.2 -698.9,1358 -699.6,1337.1 	"/>
</g>
<g>
	<ellipse class="st2" cx="-756.3" cy="1570" rx="74.2" ry="27.1"/>
	<g>
		<g>
			<g>
				<g>
					<path class="st6" d="M-755.1,1532.3c0,23.4-15.8,42.5-35.2,42.5c-19.5,0-35.2-19-35.2-42.5c0-23.4,35.2-59.8,35.2-59.8
						S-755.1,1508.8-755.1,1532.3z"/>
				</g>
			</g>
			<g>
				<g>
					<path class="st6" d="M-794,1561.5c-2.9,0.4-5.8-0.1-8.6-1.1c-2.8-1-5.5-2.6-7.9-4.9c-2.3-2.3-4.3-5.4-5.2-9
						c-1-3.5-0.9-7.3,0.1-10.6c0.5,3.4,1.3,6.6,2.5,9.3c1.3,2.7,2.9,5,4.9,6.9C-804.2,1556-799.2,1558.7-794,1561.5z"/>
				</g>
			</g>
		</g>
		<g>
			<g>
				<g>
					<path class="st2" d="M-764.3,1533.2c0,17.3-11.6,31.4-26,31.4c-14.4,0-26-14-26-31.4c0-17.3,26-44.2,26-44.2
						S-764.3,1515.9-764.3,1533.2z"/>
				</g>
			</g>
			<g>
				<g>
					<path class="st6" d="M-793,1554.8c-2.1,0.3-4.3-0.1-6.4-0.8c-2.1-0.7-4.1-1.9-5.8-3.6c-1.7-1.7-3.2-4-3.9-6.6
						c-0.7-2.6-0.7-5.4,0.1-7.8c0.4,2.5,0.9,4.8,1.9,6.8c0.9,2,2.2,3.7,3.7,5.1C-800.5,1550.8-796.9,1552.7-793,1554.8z"/>
				</g>
			</g>
		</g>
	</g>
</g>
<g>
	<g>
		<path class="st2" d="M-755.9,1212.2c25.3,0,50.5,0,75.8,0c-6.2-11-12.3-22-18.5-33c-2.7-4.7-5.4-9.3-8-14.2
			c-2.8-5.2-5.6-11.9-10-12.8c-4.6-1-8.7,4.2-11.7,9.7C-740.1,1184.1-755.9,1212.2-755.9,1212.2z"/>
		<path class="st6" d="M-807.3,1212.2c33.6,0,67.3,0,100.9,0c-8.2-14.6-16.4-29.3-24.6-44c-3.5-6.3-7.2-12.4-10.6-18.9
			c-3.7-6.9-7.4-15.8-13.3-17c-6.2-1.3-11.6,5.5-15.6,12.9C-786.3,1174.7-807.3,1212.2-807.3,1212.2z"/>
		<path class="st2" d="M-814.8,1212.2c33.6,0,67.3,0,100.9,0c-8.2-14.6-16.4-29.3-24.6-44c-3.5-6.3-7.2-12.4-10.6-18.9
			c-3.7-6.9-7.4-15.8-13.3-17c-6.2-1.3-11.6,5.5-15.6,12.9C-793.8,1174.7-814.8,1212.2-814.8,1212.2z"/>
	</g>
	<path class="st2" d="M-834.3,1212.2c19,0,38,0,57,0c-4.6-8.3-9.3-16.6-13.9-25c-2-3.6-4.1-7-6-10.7c-2.1-3.9-4.2-9-7.5-9.7
		c-3.5-0.7-6.6,3.1-8.8,7.3C-822.4,1190.9-834.3,1212.2-834.3,1212.2z"/>
</g>
<g>
	<path class="st4" d="M-1051.8,103.6c-10.4-9.8-26.6-12.9-33.8-9.3c-8.3,4.1-14.5,12.8-23.2,12.7c0,0-19.8-1.6-29.3,0.2
		c-12.4,2.2-22.9,6.3-22.5,29.9c0,14.4,10.9,19.9,23.7,25.1c9.4,3.8,14.8,8,38.2,9.4c23.4,1.5,42.5-8.8,52.1-26
		C-1042.4,137.6-1040.7,114.2-1051.8,103.6z M-1056.9,117.8v4.2h-2.6v2.7h-4.1V122h-2.6v-4.2h2.6v-2.7h4.1v2.7H-1056.9z
		 M-1066.4,136.6v-4.2h2.6v-2.7h4.1v2.7h2.6v4.2h-2.6v2.7h-4.1v-2.7H-1066.4z M-1070.2,101.6h2.6v-2.7h4.1v2.7h2.6v4.2h-2.6v2.7
		h-4.1v-2.7h-2.6V101.6z M-1076.8,143.9v-4.2h2.6v-2.7h4.1v2.7h2.6v4.2h-2.6v2.7h-4.1v-2.7H-1076.8z M-1068.5,125.4v4.2h-2.6v2.7
		h-4.1v-2.7h-2.6v-4.2h2.6v-2.7h4.1v2.7H-1068.5z M-1078.9,112.1h2.6v-2.7h4.1v2.7h2.6v4.2h-2.6v2.7h-4.1v-2.7h-2.6V112.1z
		 M-1080.1,120.4v4.2h-2.6v2.7h-4.1v-2.7h-2.6v-4.2h2.6v-2.7h4.1v2.7H-1080.1z M-1089.9,138.4v-4.2h2.6v-2.7h4.1v2.7h2.6v4.2h-2.6
		v2.7h-4.1v-2.7H-1089.9z M-1092.2,106.4h2.6v-2.7h4.1v2.7h2.6v4.2h-2.6v2.7h-4.1v-2.7h-2.6V106.4z M-1101.3,116.3h2.6v-2.7h4.1v2.7
		h2.6v4.2h-2.6v2.7h-4.1v-2.7h-2.6V116.3z M-1102.1,128.9h2.6v-2.7h4.1v2.7h2.6v4.2h-2.6v2.7h-4.1v-2.7h-2.6V128.9z M-1113.6,140.6
		v-4.2h2.6v-2.7h4.1v2.7h2.6v4.2h-2.6v2.7h-4.1v-2.7H-1113.6z M-1114.2,122.4h2.6v-2.7h4.1v2.7h2.6v4.2h-2.6v2.7h-4.1v-2.7h-2.6
		V122.4z M-1114.6,132v4.2h-2.6v2.7h-4.1v-2.7h-2.6V132h2.6v-2.7h4.1v2.7H-1114.6z M-1126.9,118.4h2.6v-2.7h4.1v2.7h2.6v4.2h-2.6
		v2.7h-4.1v-2.7h-2.6V118.4z M-1125.6,127.8v4.2h-2.6v2.7h-4.1V132h-2.6v-4.2h2.6v-2.7h4.1v2.7H-1125.6z M-1137.9,113.2h2.6v-2.7
		h4.1v2.7h2.6v4.2h-2.6v2.7h-4.1v-2.7h-2.6V113.2z M-1146,122.8h2.6v-2.7h4.1v2.7h2.6v4.2h-2.6v2.7h-4.1V127h-2.6V122.8z
		 M-1144.9,135.8h-2.6v2.7h-4.1v-2.7h-2.6v-4.2h2.6v-2.7h4.1v2.7h2.6V135.8z M-1144.3,137h2.6v-2.7h4.1v2.7h2.6v4.2h-2.6v2.7h-4.1
		v-2.7h-2.6V137z M-1132.8,154.4h-2.6v2.7h-4.1v-2.7h-2.6v-4.2h2.6v-2.7h4.1v2.7h2.6V154.4z M-1132.6,144.9v-4.2h2.6V138h4.1v2.7
		h2.6v4.2h-2.6v2.7h-4.1v-2.7H-1132.6z M-1120.4,158.9h-2.6v2.7h-4.1v-2.7h-2.6v-4.2h2.6V152h4.1v2.7h2.6V158.9z M-1121.6,150v-4.2
		h2.6v-2.7h4.1v2.7h2.6v4.2h-2.6v2.7h-4.1V150H-1121.6z M-1106.6,161.6h-2.6v2.7h-4.1v-2.7h-2.6v-4.2h2.6v-2.7h4.1v2.7h2.6V161.6z
		 M-1099,153.5h-2.6v2.7h-4.1v-2.7h-2.6v-4.2h2.6v-2.7h4.1v2.7h2.6V153.5z M-1099.8,145.4v-4.2h2.6v-2.7h4.1v2.7h2.6v4.2h-2.6v2.7
		h-4.1v-2.7H-1099.8z M-1088.2,160.5h-2.6v2.7h-4.1v-2.7h-2.6v-4.2h2.6v-2.7h4.1v2.7h2.6V160.5z M-1088.4,151.7v-4.2h2.6v-2.7h4.1
		v2.7h2.6v4.2h-2.6v2.7h-4.1v-2.7H-1088.4z M-1075.7,162.7h-2.6v2.7h-4.1v-2.7h-2.6v-4.2h2.6v-2.7h4.1v2.7h2.6V162.7z M-1065.5,157
		h-2.6v2.7h-4.1V157h-2.6v-4.2h2.6v-2.7h4.1v2.7h2.6V157z M-1055.6,151.1h-2.6v2.7h-4.1v-2.7h-2.6v-4.2h2.6v-2.7h4.1v2.7h2.6V151.1z
		"/>
	<g>
		<defs>
			<rect id="SVGID_3_" x="-1284" y="96.7" width="103.8" height="71.1"/>
		</defs>
		<clipPath id="SVGID_4_">
			<use xlink:href="#SVGID_3_"  style="overflow:visible;"/>
		</clipPath>
		<g class="st7">
			<path class="st8" d="M-1304.3,106.2c0,0,14,18.9,35.8-0.9v0c0,0,14.5,21.3,35,0.4c0,0,16.2,19.6,35.8-0.5v0v0
				c0,0,16.1,20.5,35.8,2.3"/>
			<path class="st8" d="M-1304.3,127.9c0,0,14,18.9,35.8-0.9v0c0,0,14.5,21.3,35,0.4c0,0,16.2,19.6,35.8-0.5v0v0
				c0,0,16.1,20.5,35.8,2.3"/>
			<path class="st8" d="M-1304.3,149.6c0,0,14,18.9,35.8-0.9v0c0,0,14.5,21.3,35,0.4c0,0,16.2,19.6,35.8-0.5v0v0
				c0,0,16.1,20.5,35.8,2.3"/>
		</g>
	</g>
</g>
<g>
	<text transform="matrix(1.1 0 0 1 -872.6877 220.6908)" style="font-family:'ArialNarrow-Bold'; font-size:38.549px;">Auto Hole</text>
</g>
<g>
	<path class="st4" d="M-860.4,150.9c-0.2,0-0.3,0-0.4,0V122l53.8-24.6l-53.8-21.1v-2.9h-7.5v52v26.3c-9.7,1.8-16.7,6.6-16.7,12.4
		c0,7.3,11,13.2,24.7,13.2c13.6,0,24.7-5.9,24.7-13.2C-835.7,156.8-846.8,150.9-860.4,150.9z M-857.3,86.4h5.3h5v23.9h-5V91h-5.3
		V86.4z"/>
	<path class="st4" d="M-749.5,154.1c-0.2,0-0.3,0-0.4,0v-28.9l53.8-24.6L-750,79.6v-2.9h-7.5v52v26.3c-9.7,1.8-16.7,6.6-16.7,12.4
		c0,7.3,11,13.2,24.7,13.2c13.6,0,24.7-5.9,24.7-13.2C-724.9,160-735.9,154.1-749.5,154.1z M-752.6,109.1c0-4.7,3.2-7.7,9.7-8.9
		c5.3-1,8-2.2,8-3.6c0-0.2,0-0.4,0-0.5c0-1.2-0.6-1.9-1.9-1.9c-2.1,0-3.5,0-4.3,0c-0.9,0-2.3,0-4.4,0c-1.2,0-1.9,1.1-1.9,3.2
		c0,0.3,0,0.5,0,0.8h-4.9c0-0.6,0-1.2,0-1.7c0-4.6,2.2-6.9,6.7-6.9c1.5,0,3,0,4.5,0c1.5,0,2.9,0,4.4,0c4.5,0,6.7,1.8,6.7,5.5
		c0,0.5,0,0.9,0,1.4c0,3.7-3.2,6.2-9.6,7.5c-5.4,1.1-8,2.7-8,5h17.9v4.5h-22.8V109.1z"/>
	<g>
		<rect x="-803.4" y="106.4" class="st4" width="15.8" height="24.9"/>
		<polygon class="st4" points="-771.1,118.9 -791.7,144.9 -791.7,92.8 		"/>
	</g>
</g>
<rect x="-1393" y="-343.8" style="fill:none;" width="794.2" height="118"/>
<text transform="matrix(1.0098 0 0 1 -1392.9723 -317.0733)"><tspan x="0" y="0" class="st2" style="font-family:'Calibri'; font-size:34px;">Support more than 38000 courses around the world. </tspan><tspan x="0" y="40.8" class="st2" style="font-family:'Calibri'; font-size:34px;">Quickly gets your location by high sensitivity GPS,  to </tspan><tspan x="0" y="81.6" class="st2" style="font-family:'Calibri'; font-size:34px;">recognize Golf course nearby.</tspan></text>
<g>
	<path class="st5" d="M103.6-173.1c1.3,0.4,2.2,1.3,3.1,2.2c8.6,8.3,17.3,16.6,25.9,24.8c1.2,1.2,1.8,2.5,1.8,4.1
		c0,30.3,0,60.6,0,90.9c0,2.7-1.7,4.4-4.4,4.4c-29.1,0-58.2,0-87.2,0c-2.8,0-4.4-1.7-4.4-4.5c0-17.3,0-34.6,0-51.8c0-3.5,0-7,0-10.5
		c0-0.3,0-0.6,0-0.8c0.1-0.1,0.2-0.1,0.3-0.2c0.5,0.6,0.9,1.2,1.5,1.7c1.9,1.9,3.8,3.9,5.8,5.7c0.4,0.4,0.6,0.9,0.6,1.5
		c0,16.6,0,33.2,0,49.9c0,0.3,0,0.6,0,1c26.6,0,53.2,0,79.8,0c0-27.9,0-55.8,0-83.8c-0.3,0-0.7,0-1,0c-7.3,0-14.6,0-21.9,0
		c-2.9,0-4.5-1.6-4.5-4.5c0-6.9,0-13.9,0-20.8c0-0.3,0-0.6,0-1c-17.5,0-34.9,0-52.4,0c0,5.3,0,10.5,0,16c-0.3-0.3-0.5-0.4-0.6-0.5
		c-2.4-2.4-4.7-4.7-7.1-7.1c-0.3-0.3-0.4-0.7-0.4-1.1c0-3.4,0-6.9,0-10.3c0-3,0.6-3.9,3.3-5.1C62.3-173.1,83-173.1,103.6-173.1z
		 M106.9-146.8c4.4,0,8.7,0,13.2,0c-4.4-4.2-8.7-8.4-13.2-12.6C106.9-155.1,106.9-151,106.9-146.8z"/>
	<path class="st5" d="M15.6-144.2c0.6-0.7,1-1.6,1.7-2.2c3.6-3.6,7.2-7.2,10.8-10.8c1.6-1.6,3.3-1.6,4.9,0c2.2,2.2,4.4,4.4,6.5,6.5
		c0.1,0.1,0.3,0.3,0.4,0.4c-5.4,5.4-10.8,10.8-16.3,16.3c-2.1-2.1-4.2-4.2-6.3-6.4c-0.7-0.7-1.2-1.6-1.8-2.3
		C15.6-143.2,15.6-143.7,15.6-144.2z"/>
	<path class="st5" d="M25.8-132.2c5.3-5.3,10.7-10.7,16-16.1c19.4,19.4,38.7,38.8,58.1,58.2c-5.3,5.3-10.7,10.7-16,16.1
		C64.6-93.4,45.2-112.8,25.8-132.2z"/>
	<path class="st5" d="M77.5-117.9c1.4,0,2.7,0,4,0c10.3,0,20.6,0,30.9,0c2.2,0,3.7,1.2,4.2,3.3c0.5,2.4-1.3,4.7-3.8,4.8
		c-2.3,0.1-4.5,0-6.8,0c-6.6,0-13.3,0-19.9,0c-0.3,0-0.7-0.1-0.9-0.3c-2.5-2.4-5-4.9-7.5-7.4C77.7-117.6,77.7-117.7,77.5-117.9z"/>
	<path class="st5" d="M86-71.9c5.4-5.4,10.7-10.7,16.1-16.1c0.6,2,1.1,4.1,1.7,6.2c1.2,4.4,2.4,8.7,3.6,13.1
		c0.5,1.7-0.5,2.6-2.1,2.2c-6.4-1.7-12.7-3.5-19.1-5.2C86.1-71.9,86.1-71.9,86-71.9z"/>
	<path class="st5" d="M92.8-102.7c0.2,0,0.3,0,0.4,0c6.5,0,12.9,0,19.4,0c1.9,0,3.5,1.3,3.9,3c0.5,1.8-0.3,3.7-2,4.5
		c-0.6,0.3-1.3,0.5-2,0.5c-3.8,0-7.6,0-11.4,0c-0.3,0-0.6-0.1-0.8-0.3c-2.5-2.5-5-4.9-7.4-7.4C92.9-102.5,92.9-102.6,92.8-102.7z"/>
</g>
<g>
	<path class="st5" d="M302.4-112.4c-10.4-9.8-26.6-12.9-33.8-9.3c-8.3,4.1-14.5,12.8-23.2,12.7c0,0-19.8-1.6-29.3,0.2
		c-12.4,2.2-22.9,6.3-22.5,29.9c0,14.4,10.9,19.9,23.7,25.1c9.4,3.8,14.8,8,38.2,9.4c23.4,1.5,42.5-8.8,52.1-26
		C311.9-78.5,313.6-101.9,302.4-112.4z M297.4-98.3v4.2h-2.6v2.7h-4.1v-2.7h-2.6v-4.2h2.6v-2.7h4.1v2.7H297.4z M287.8-79.4v-4.2h2.6
		v-2.7h4.1v2.7h2.6v4.2h-2.6v2.7h-4.1v-2.7H287.8z M284-114.5h2.6v-2.7h4.1v2.7h2.6v4.2h-2.6v2.7h-4.1v-2.7H284V-114.5z M277.5-72.2
		v-4.2h2.6v-2.7h4.1v2.7h2.6v4.2h-2.6v2.7h-4.1v-2.7H277.5z M285.7-90.6v4.2h-2.6v2.7H279v-2.7h-2.6v-4.2h2.6v-2.7h4.1v2.7H285.7z
		 M275.4-104h2.6v-2.7h4.1v2.7h2.6v4.2H282v2.7H278v-2.7h-2.6V-104z M274.1-95.7v4.2h-2.6v2.7h-4.1v-2.7h-2.6v-4.2h2.6v-2.7h4.1v2.7
		H274.1z M264.4-77.7v-4.2h2.6v-2.7h4.1v2.7h2.6v4.2H271v2.7H267v-2.7H264.4z M262-109.7h2.6v-2.7h4.1v2.7h2.6v4.2h-2.6v2.7h-4.1
		v-2.7H262V-109.7z M252.9-99.8h2.6v-2.7h4.1v2.7h2.6v4.2h-2.6v2.7h-4.1v-2.7h-2.6V-99.8z M252.1-87.1h2.6v-2.7h4.1v2.7h2.6v4.2
		h-2.6v2.7h-4.1v-2.7h-2.6V-87.1z M240.7-75.5v-4.2h2.6v-2.7h4.1v2.7h2.6v4.2h-2.6v2.7h-4.1v-2.7H240.7z M240-93.7h2.6v-2.7h4.1v2.7
		h2.6v4.2h-2.6v2.7h-4.1v-2.7H240V-93.7z M239.6-84.1v4.2H237v2.7h-4.1v-2.7h-2.6v-4.2h2.6v-2.7h4.1v2.7H239.6z M227.3-97.6h2.6
		v-2.7h4.1v2.7h2.6v4.2H234v2.7h-4.1v-2.7h-2.6V-97.6z M228.6-88.2v4.2H226v2.7h-4.1V-84h-2.6v-4.2h2.6v-2.7h4.1v2.7H228.6z
		 M216.3-102.9h2.6v-2.7h4.1v2.7h2.6v4.2H223v2.7h-4.1v-2.7h-2.6V-102.9z M208.3-93.2h2.6V-96h4.1v2.7h2.6v4.2h-2.6v2.7h-4.1v-2.7
		h-2.6V-93.2z M209.3-80.3h-2.6v2.7h-4.1v-2.7H200v-4.2h2.6v-2.7h4.1v2.7h2.6V-80.3z M209.9-79h2.6v-2.7h4.1v2.7h2.6v4.2h-2.6v2.7
		h-4.1v-2.7h-2.6V-79z M221.4-61.7h-2.6v2.7h-4.1v-2.7h-2.6v-4.2h2.6v-2.7h4.1v2.7h2.6V-61.7z M221.6-71.1v-4.2h2.6V-78h4.1v2.7h2.6
		v4.2h-2.6v2.7h-4.1v-2.7H221.6z M233.9-57.1h-2.6v2.7h-4.1v-2.7h-2.6v-4.2h2.6V-64h4.1v2.7h2.6V-57.1z M232.6-66.1v-4.2h2.6V-73
		h4.1v2.7h2.6v4.2h-2.6v2.7h-4.1v-2.7H232.6z M247.6-54.5H245v2.7H241v-2.7h-2.6v-4.2h2.6v-2.7h4.1v2.7h2.6V-54.5z M255.3-62.6h-2.6
		v2.7h-4.1v-2.7h-2.6v-4.2h2.6v-2.7h4.1v2.7h2.6V-62.6z M254.4-70.7v-4.2h2.6v-2.7h4.1v2.7h2.6v4.2h-2.6v2.7H257v-2.7H254.4z
		 M266-55.6h-2.6v2.7h-4.1v-2.7h-2.6v-4.2h2.6v-2.7h4.1v2.7h2.6V-55.6z M265.8-64.3v-4.2h2.6v-2.7h4.1v2.7h2.6v4.2h-2.6v2.7h-4.1
		v-2.7H265.8z M278.5-53.4h-2.6v2.7h-4.1v-2.7h-2.6v-4.2h2.6v-2.7h4.1v2.7h2.6V-53.4z M288.7-59.1h-2.6v2.7H282v-2.7h-2.6v-4.2h2.6
		V-66h4.1v2.7h2.6V-59.1z M298.6-65H296v2.7H292V-65h-2.6v-4.2h2.6v-2.7h4.1v2.7h2.6V-65z"/>
	<g>
		<defs>
			<rect id="SVGID_5_" x="185.1" y="-172.5" width="74" height="50.7"/>
		</defs>
		<clipPath id="SVGID_6_">
			<use xlink:href="#SVGID_5_"  style="overflow:visible;"/>
		</clipPath>
		<g class="st9">
			<path class="st10" d="M170.6-165.8c0,0,10,13.5,25.5-0.6v0c0,0,10.3,15.2,24.9,0.3c0,0,11.6,14,25.5-0.4v0v0
				c0,0,11.4,14.6,25.6,1.6"/>
			<path class="st10" d="M170.6-150.3c0,0,10,13.5,25.5-0.6v0c0,0,10.3,15.2,24.9,0.3c0,0,11.6,14,25.5-0.4v0v0
				c0,0,11.4,14.6,25.6,1.6"/>
			<path class="st10" d="M170.6-134.8c0,0,10,13.5,25.5-0.6v0c0,0,10.3,15.2,24.9,0.3c0,0,11.6,14,25.5-0.4v0v0
				c0,0,11.4,14.6,25.6,1.6"/>
		</g>
	</g>
</g>
<g>
	<path class="st5" d="M-143.9,104.4c-0.1,0-0.3,0-0.4,0V74.2l40-25.9l-40-21.8v-3.1h-7.2v54.3v27.4c-9.3,1.9-16,6.9-16,13
		c0,7.6,10.6,13.8,23.6,13.8c13,0,23.6-6.2,23.6-13.8C-120.3,110.5-130.9,104.4-143.9,104.4z M-140.9,39h5h4.8v22.9h-4.8V43.4h-5V39
		z"/>
	<path class="st5" d="M-62.1,104.4c-0.1,0-0.3,0-0.4,0V74.2l40-25.9l-40-21.8v-3.1h-7.2v54.3v27.4c-9.3,1.9-16,6.9-16,13
		c0,7.6,10.6,13.8,23.6,13.8s23.6-6.2,23.6-13.8C-38.5,110.5-49,104.4-62.1,104.4z M-62.7,56.6c0-4.5,2.3-7.4,6.9-8.5
		c3.8-0.9,5.7-2.1,5.7-3.4c0-0.2,0-0.3,0-0.5c0-1.2-0.4-1.8-1.3-1.8c-1.5,0-2.5,0-3.1,0c-0.6,0-1.7,0-3.1,0c-0.9,0-1.3,1.1-1.3,3.1
		c0,0.3,0,0.5,0,0.8h-3.5c0-0.6,0-1.1,0-1.7c0-4.4,1.6-6.6,4.8-6.6c1.1,0,2.1,0,3.2,0c1,0,2.1,0,3.2,0c3.2,0,4.8,1.8,4.8,5.3
		c0,0.4,0,0.9,0,1.3c0,3.6-2.3,6-6.9,7.2c-3.8,1-5.7,2.6-5.7,4.8h12.8V61h-16.3V56.6z"/>
	<g>
		<rect x="-112" y="75.9" class="st5" width="15.1" height="13.7"/>
		<polygon class="st5" points="-81.1,82.8 -100.8,97.1 -100.8,68.4 		"/>
	</g>
</g>
<g>
	<path class="st5" d="M55.6,110.3c0,11.7-9.5,21.2-21.2,21.2c-11.7,0-21.2-9.5-21.2-21.2c0-11.7,9.5-21.2,21.2-21.2
		C46.1,89.1,55.6,98.6,55.6,110.3z"/>
	<polygon class="st5" points="61.8,75.6 74.5,83.5 126.1,38.2 121.6,36 134.1,33 136.8,43 132.4,41.3 92.9,94.2 109.7,103.4 
		55.6,113.8 	"/>
	<path class="st5" d="M48.5,97.4c0,0-21.5-46.4,19.5-67.5c0,0,30.6-16,64.2,1.7c0,0-31.8-27.4-80.7-3c0,0-38.9,18.3-37,73.9l8.2-3.2
		c0,0-7.7-49.4,44.4-73.2c0,0,15.1-7.8,40.5-3.8c0,0-60.1-5.8-68.9,40.9c0,0-4.3,20.6,3.1,36.9L48.5,97.4z"/>
</g>
<g>
	<path class="st5" d="M226.1,25c0.6-3.3,0.6-3.3,3.8-3.3c1.3,0,2.6,0,4.4,0c0-1.6,0.1-3,0-4.4c-0.1-1.7,0.5-2.4,2.3-2.4
		c5.7,0.1,11.3,0.1,17,0c1.6,0,2.3,0.5,2.2,2.2c-0.1,1.5,0,2.9,0,4.6c1.6,0,3,0,4.4,0c3.9,0.1,3.2-0.2,3.7,3.3c2.6,0,5.2,0,7.8,0
		c3.3,0,4.7,1.4,4.7,4.7c0,34.2,0,68.5,0,102.7c0,3-1.4,4.5-4.4,4.5c-18,0-35.9,0-53.9,0c-3.1,0-4.4-1.4-4.4-4.5
		c0-34.3,0-68.6,0-103c0-3,1.4-4.4,4.4-4.4C220.7,25,223.4,25,226.1,25z M273.2,81.2c0-16,0-32,0-47.9c0-3.5-1.1-4.7-4.6-4.7
		c-15.8,0-31.5,0-47.3,0c-3.4,0-4.5,1.2-4.5,4.5c0,31.9,0,63.8,0,95.7c0,3.6,1.1,4.7,4.8,4.7c15.5,0,30.9,0,46.4,0
		c4.3,0,5.2-0.9,5.2-5.1C273.2,112.5,273.2,96.9,273.2,81.2z"/>
	<path class="st5" d="M244.8,129.6c-6.9,0-13.8,0-20.8,0c-3.1,0-4.1-0.9-4.1-4.1c0-4,0-8.1,0-12.1c0-2.5,1.3-3.7,3.8-3.7
		c14.1,0,28.3,0,42.4,0c2.8,0,3.9,1.1,3.9,3.9c0,4,0,8.1,0,12.1c0,2.9-1.1,3.9-4,4C258.9,129.6,251.9,129.6,244.8,129.6z"/>
	<path class="st5" d="M244.8,103.8c-6.9,0-13.8,0-20.8,0c-3.1,0-4.1-0.9-4.1-4.1c0-4,0-8.1,0-12.1c0-2.5,1.3-3.7,3.8-3.7
		c14.1,0,28.3,0,42.4,0c2.8,0,3.9,1.1,3.9,3.9c0,4,0,8.1,0,12.1c0,2.9-1.1,3.9-4,4C258.9,103.8,251.9,103.8,244.8,103.8z"/>
	<path class="st5" d="M244.8,52.2c-6.9,0-13.8,0-20.8,0c-3.1,0-4.1-0.9-4.1-4.1c0-4,0-8.1,0-12.1c0-2.5,1.3-3.7,3.8-3.7
		c14.1,0,28.3,0,42.4,0c2.8,0,3.9,1.1,3.9,3.9c0,4,0,8.1,0,12.1c0,2.9-1.1,3.9-4,4C258.9,52.2,251.9,52.2,244.8,52.2z"/>
	<path class="st5" d="M244.8,78c-6.9,0-13.8,0-20.8,0c-3.1,0-4.1-0.9-4.1-4.1c0-4,0-8.1,0-12.1c0-2.5,1.3-3.7,3.8-3.7
		c14.1,0,28.3,0,42.4,0c2.8,0,3.9,1.1,3.9,3.9c0,4,0,8.1,0,12.1c0,2.9-1.1,3.9-4,4C258.9,78,251.9,78,244.8,78z"/>
</g>
</svg>
