<?xml version="1.0" encoding="utf-8"?>
<!-- Generator: Adobe Illustrator 25.2.3, SVG Export Plug-In . SVG Version: 6.00 Build 0)  -->
<svg version="1.1" id="圖層_1" xmlns="http://www.w3.org/2000/svg" xmlns:xlink="http://www.w3.org/1999/xlink" x="0px" y="0px"
	 viewBox="0 0 150 150" style="enable-background:new 0 0 150 150;" xml:space="preserve">
<style type="text/css">
	.st0{fill:#89B829;}
	.st1{fill:#DD5519;}
	.st2{fill:#FFFFFF;}
	.st3{opacity:0.78;fill:#FFF000;}
	.st4{fill:#004212;}
	.st5{fill:#111111;}
	.st6{fill:#060001;}
	.st7{clip-path:url(#SVGID_4_);}
	.st8{fill:none;stroke:#004212;stroke-width:7.1711;stroke-linecap:round;stroke-linejoin:round;stroke-miterlimit:10;}
	.st9{fill:#282828;}
	.st10{clip-path:url(#SVGID_6_);}
	.st11{fill:none;stroke:#000000;stroke-width:5;stroke-linecap:round;stroke-linejoin:round;stroke-miterlimit:10;}
</style>
<g>
	<defs>
		<rect id="SVGID_1_" x="-1330.9" y="-296.8" width="1000" height="1000"/>
	</defs>
	<clipPath id="SVGID_2_">
		<use xlink:href="#SVGID_1_"  style="overflow:visible;"/>
	</clipPath>
	<g style="clip-path:url(#SVGID_2_);">
		
			<image style="overflow:visible;" width="3264" height="2448" xlink:href="A46515B.jpg"  transform="matrix(0.8271 0 0 0.8271 -1333.5422 -847.8148)">
		</image>
	</g>
</g>
<g>
	<g>
		<polygon class="st0" points="-1209.5,945.3 -1207,944.2 -1205.7,944.2 -1204.1,943.6 -1204.1,942 -1203.1,941.6 -1204.7,940.9 
			-1205.8,940.5 -1205.8,939.4 -1210,937.7 -1210.1,937.7 -1212.1,938.5 -1212.1,939.8 -1215.5,939.8 -1215.5,941.4 -1214.4,941.8 
			-1214.4,942.6 -1216,943.2 -1216,944.1 -1213.2,945.3 		"/>
		<polygon class="st0" points="-1206.6,935.7 -1206.6,937 -1205.3,937 -1205.3,938 -1206.3,938 -1206.6,938.3 -1204.4,939.1 
			-1204.4,940.3 -1202.1,940.3 -1200.9,940.8 -1200.9,941.5 -1202.5,942.2 -1202.5,943.3 -1203.8,943.8 -1204.8,944.2 
			-1204.2,944.2 -1204.2,945.3 -1206.5,945.3 -1206.5,946.1 -1205.2,946.7 -1201.5,946.7 -1200.6,946.3 -1198.8,946.3 
			-1198.8,945.8 -1197,945.8 -1195.6,945.2 -1193.2,945.2 -1191.1,944.4 -1191.1,943.7 -1188.6,943.7 -1188.6,942.9 -1186.3,941.9 
			-1187.7,941.4 -1189.6,941.4 -1189.6,940.5 -1191.2,939.8 -1192.9,939.1 -1192.9,938.3 -1194.3,937.7 -1195.3,937.3 
			-1195.3,936.4 -1194.5,936 -1194.5,934.3 -1195.5,933.8 -1197.5,933.8 -1196.7,933.5 -1195.1,932.9 -1195.1,932 -1196.6,931.4 
			-1199.5,931.4 -1199.5,932.3 -1202.1,932.3 -1203.8,933 -1205.2,932.5 -1207.4,932.5 -1209.9,933.5 -1209.9,934.4 -1208.2,935.1 
					"/>
		<polygon class="st0" points="-847.9,1021.6 -850.6,1020.5 -852.6,1019.7 -852.6,1018.5 -854.7,1017.7 -856.3,1017.7 
			-857.5,1017.2 -861.1,1015.7 -862.9,1015 -862.9,1013.4 -864.7,1012.7 -864.7,1011.6 -866.7,1010.7 -869.7,1009.6 -869.7,1008.8 
			-870.7,1008.4 -870.7,1007.3 -872.6,1007.3 -874.9,1008.2 -874.9,1010.4 -876.8,1010.4 -876.8,1014.1 -878.3,1014.1 
			-880.6,1013.1 -882.4,1013.1 -883.5,1012.7 -884.5,1012.3 -885.9,1011.7 -885.9,1010.1 -884.4,1009.5 -884.4,1008.6 
			-890.6,1008.6 -891.3,1008.3 -894.4,1008.3 -895.6,1007.8 -897.2,1007.8 -899.3,1008.7 -900.5,1009.2 -900.5,1010.2 
			-903.2,1010.9 -906.1,1009.7 -911.2,1011.8 -913.3,1011.8 -914.2,1012.1 -917.7,1012.1 -919.6,1012.9 -919.6,1014.1 
			-921.6,1014.9 -921.6,1015.8 -925,1015.8 -926.6,1016.4 -930.6,1016.4 -934.4,1018 -938.1,1018 -938.1,1019.9 -939.9,1020.6 
			-939.9,1021.9 -939.9,1023.5 -937.8,1024.4 -937.8,1025.2 -934.2,1026.6 -934.2,1027.7 -934.2,1029.5 -935.4,1030 -935.4,1031.5 
			-933.7,1032.1 -925.7,1032.1 -923.8,1031.4 -915.8,1031.4 -911.7,1029.7 -904.9,1029.7 -902.7,1028.8 -897.8,1028.8 
			-896.4,1029.4 -892,1029.4 -890.6,1030 -890.6,1031.6 -887.8,1032.7 -885.2,1033.7 -883,1033.7 -883,1033.1 -879.4,1033.1 
			-879.4,1034.6 -877.1,1035.5 -874.2,1036.7 -871.3,1036.7 -869,1035.8 -867,1035.8 -867,1036.6 -863.5,1036.6 -861.1,1035.6 
			-856.3,1035.6 -854.8,1035 -854.8,1032.7 -851.5,1031.3 -851.5,1030.2 -849.5,1029.4 -849.5,1028.3 -846.8,1027.2 -846.8,1023.1 
			-847.9,1022.6 		"/>
		<polygon class="st0" points="-861,1036.7 -862.4,1037.3 -860.3,1038.1 -862,1038.8 -864.1,1038.8 -866.2,1038 -867.9,1038 
			-868.9,1038.4 -868.9,1040.4 -867.5,1041 -865.9,1041.6 -865.9,1042.5 -862.3,1042.5 -861,1042 -858.8,1041.1 -858.8,1040.3 
			-857,1040.3 -857,1039.2 -858.1,1038.7 -856.7,1038.2 -856.7,1037.6 -859.4,1036.5 		"/>
		<polygon class="st0" points="-793.7,1034.8 -797.9,1034.8 -797.9,1033.9 -799.4,1033.3 -799.4,1031.7 -800.6,1031.7 
			-802.5,1030.9 -805.4,1030.9 -806.8,1031.5 -805.5,1032 -805.5,1032.9 -804.1,1032.9 -804.1,1034 -802.2,1034.7 -802.2,1035.5 
			-803.3,1036 -803.3,1037.4 -804.6,1037.4 -806.3,1038.1 -807.9,1038.1 -807.9,1039.1 -809.4,1039.1 -809.4,1039.8 -810.8,1040.4 
			-813.4,1041.5 -815.2,1041.5 -815.2,1042.2 -817.9,1043.3 -818.8,1043.6 -820.3,1044.2 -820.3,1045 -818.8,1045.6 -816.4,1045.6 
			-816.4,1046.1 -811,1046.1 -807.4,1044.7 -807.4,1043.8 -805.5,1043.1 -803,1043.1 -803,1041.4 -802,1041 -802,1040 -798.1,1040 
			-795.3,1038.9 -795.3,1038.1 -794.6,1038.1 -794.6,1037.3 -792.1,1036.2 -790.6,1036.2 -790.6,1034.8 -790.6,1034 -792.8,1034 		
			"/>
		<polygon class="st0" points="-943.6,1001.8 -935.8,1001.8 -934.7,1002.2 -931.8,1002.2 -929.3,1001.2 -929.3,999.9 -927.3,999.9 
			-927.3,998.5 -926.2,998.1 -924.9,997.6 -926.6,996.9 -926.6,995 -922.9,993.5 -925.2,992.6 -927.6,992.6 -928.6,992.1 
			-930.5,992.1 -935.2,994 -938.2,994 -940.1,994.8 -941.2,995.3 -943.6,996.2 -946.7,996.2 -948.6,997 -948.6,998.4 -946.3,999.4 
			-946.3,1000.9 		"/>
		<polygon class="st0" points="-925.8,987.8 -929.8,989.4 -929.8,990.6 -929.8,991.5 -927.8,991.5 -927.8,990.7 -923.8,989.1 
			-921.1,990.2 -918.9,990.2 -921.2,991.1 -921.2,992.4 -922.3,992.8 -920.4,993.6 -918.2,993.6 -918.2,992.3 -915.3,991.1 
			-913.2,991.1 -913.2,992.3 -911.7,992.9 -908,992.9 -905.3,991.8 -907.4,990.9 -907.4,990.3 -909.5,989.5 -910.7,989 -910.7,987 
			-912.4,986.3 -915.2,986.3 -915.2,985.5 -918.7,984.1 -918.7,982.9 -920.9,982 -924.3,982 -927.3,983.3 -925,984.2 -926.6,984.2 
			-926.6,985.1 -924,986.1 -924,987 		"/>
		<polygon class="st0" points="-909.3,1002.4 -907,1002.4 -906,1002 -901,1002 -898.8,1002.8 -896.3,1001.8 -896.3,1000.8 
			-894.7,1001.5 -894.7,1002.2 -889.9,1002.2 -889.9,1003.3 -892.1,1003.3 -892.1,1004.4 -893,1004.4 -893,1005.2 -891,1006 
			-889,1005.2 -889,1004.2 -887.1,1003.5 -885.7,1003.5 -882.6,1003.5 -882.6,1004.7 -883.6,1005.1 -883.6,1006.6 -882.2,1007.2 
			-880.6,1006.6 -877.5,1006.6 -875.9,1006.6 -873.5,1006.6 -870.4,1005.3 -867.5,1005.3 -865.2,1006.2 -862,1007.5 -859.7,1007.5 
			-858,1008.2 -853.5,1008.2 -852.5,1007.8 -854.7,1006.9 -856.1,1006.4 -860.5,1004.6 -858.6,1003.8 -857,1004.4 -852.3,1004.4 
			-849.4,1003.3 -849.4,1002.2 -847.9,1002.2 -847.9,1001.3 -848.7,1001 -851.4,1001 -852.7,1001.5 -854.2,1002.1 -858.3,1002.1 
			-859.6,1002.7 -862.4,1002.7 -865.4,1001.5 -868.6,1001.5 -871.6,1000.3 -873.3,1000.3 -878.1,1000.3 -880,999.5 -881.4,998.9 
			-883.2,999.7 -889,999.7 -891.7,998.6 -894.8,998.6 -898.3,998.6 -900.2,999.3 -902.8,999.3 -902.8,998.7 -901.3,998.1 
			-903.1,997.4 -903.1,996.1 -903.1,995.4 -906.3,995.4 -906.3,996.1 -907.9,996.7 -907.9,1000.4 -909.2,1000.4 -911.1,999.6 
			-912.4,999.6 -912.4,998.6 -909.4,997.4 -909.4,996.7 -913.3,996.7 -914.6,997.2 -918.1,997.2 -918.8,996.9 -922.4,996.9 
			-924.8,997.8 -924.8,999.7 -926.3,1000.3 -926.3,1001.6 -925.5,1001.9 -925.5,1003.9 -921.5,1003.9 -921.5,1002.9 -919.7,1002.9 
			-919.7,1003.8 -916.3,1003.8 -914.8,1003.2 -914.8,1002.2 -916.6,1001.5 -916.6,1000.4 -914.6,1000.4 -912.4,1000.4 
			-910.6,1001.1 -910.6,1001.9 		"/>
		<polygon class="st0" points="-931,987.4 -933.7,986.4 -935.3,987 -935.3,988 -936.7,988.6 -936.7,989.1 -935.2,989.1 		"/>
		<polygon class="st0" points="-983.6,989.3 -983.6,988.3 -985.2,988.3 -985.2,986.2 -987,985.7 -989.4,986.7 -989.4,988.4 
			-988.4,988.9 -986.8,989.5 -986.8,990.6 -984.1,990.6 -982.3,989.8 		"/>
		<polygon class="st0" points="-899.5,1005 -899.5,1006.3 -898.4,1006.7 -894.9,1005.3 -897.5,1004.1 		"/>
		<polygon class="st0" points="-820.4,1009.2 -819,1008.6 -821.4,1007.6 -824.4,1006.4 -824.4,1005.6 -826.6,1005.6 -828.2,1006.2 
			-830.7,1005.2 -831.9,1004.7 -836.4,1004.7 -836.4,1004.1 -838.4,1003.4 -840.2,1004.1 -844.4,1002.2 -845.2,1003.4 -845.2,1005 
			-841.2,1005 -841.2,1006.4 -837.2,1006.4 -834.1,1007.6 -830.1,1007.6 -828.1,1008.4 -825,1008.4 -823,1009.2 		"/>
		<polygon class="st0" points="-804.5,1008.6 -805.6,1008.2 -808.3,1008.2 -812.1,1006.6 -814.6,1007.2 -812.4,1008.1 -814,1008.7 
			-817.4,1008.7 -817.4,1009.1 -815.8,1009.8 -809.9,1009.8 -807.9,1008.9 -806.1,1008.9 -803.6,1010 -802.4,1009.5 		"/>
		<polygon class="st0" points="-791,1010.7 -791,1009.5 -792.5,1008.9 -795.9,1008.9 -798.4,1008.4 -800.2,1009.1 -798.4,1009.8 
			-798.4,1010.9 -796.8,1010.9 -796.8,1010.2 -793.2,1010.2 -793.2,1010.7 		"/>
		<polygon class="st0" points="-774.6,1009.2 -773.1,1008.6 -773.1,1008 -776.6,1008 -778.1,1008.6 -778.1,1007.4 -779.9,1007.4 
			-781.2,1007.4 -783.5,1007.4 -786.4,1007.4 -786.4,1006.4 -785.3,1005.9 -785.3,1005.3 -788.3,1005.3 -792.4,1004.1 
			-795.7,1005.5 -792,1007 -789.9,1006.1 -788.4,1006.8 -790.4,1007.6 -789,1008.1 -786.3,1008.1 -784.6,1008.1 -782.3,1009.1 
			-780.5,1009.8 -780.5,1010.6 -778.9,1011.3 -777.1,1010.5 -774.6,1010.5 		"/>
		<polygon class="st0" points="-768.1,1006.3 -770.4,1005.1 -772.3,1005.8 -772.3,1006.7 -769.2,1006.7 		"/>
		<polygon class="st0" points="-754.4,1008.3 -752.9,1007.7 -752.9,1007.2 -754.8,1006.4 -757.9,1006.8 -759.5,1007.5 
			-757.4,1008.3 		"/>
		<polygon class="st0" points="-750.6,1013.5 -749,1012.8 -751.4,1012.8 -754.4,1012.8 -755.7,1012.3 -758.6,1012.3 -760.2,1011.7 
			-761.7,1011 -763,1011.3 -764.6,1012 -761.5,1013.3 -758.3,1013.3 -758.3,1013.8 -754.4,1013.8 -753.5,1013.5 		"/>
		<polygon class="st0" points="-747.7,1016.1 -749.9,1016.2 -751.3,1016.7 -753.5,1016.7 -753.5,1017.3 -752.4,1017.7 
			-750.7,1018.4 -750.7,1019 -751.9,1019.4 -753.4,1020.1 -752.2,1020.6 -748.1,1018.9 -748.1,1017.8 -745.8,1016.9 		"/>
		<polygon class="st0" points="-771.1,1015.6 -769.5,1016.3 -772.4,1017.4 -772.4,1018.4 -773.3,1018.8 -771.4,1019.6 
			-769.6,1018.9 -767.1,1017.8 -767.1,1017.3 -767.1,1015.2 -769.4,1014.9 		"/>
		<polygon class="st0" points="-770.4,1012.5 -769,1013.1 -767.4,1012.5 -768.8,1011.9 		"/>
		<polygon class="st0" points="-780.3,1017.9 -781.3,1018.3 -782.7,1018.9 -781.7,1019.3 -779.2,1019.3 -777.8,1018.7 
			-779.2,1017.4 		"/>
		<polygon class="st0" points="-776.4,1020.5 -774.4,1021.3 -772.5,1020.6 -774.6,1019.8 		"/>
		<polygon class="st0" points="-785.4,1022.6 -783.8,1023.3 -780.9,1022.1 -783.4,1021.8 		"/>
		<polygon class="st0" points="-791.2,1014.2 -791.2,1015.1 -795.2,1015.1 -795.2,1015.9 -793.1,1016.7 -790.1,1015.5 
			-788.6,1014.9 -787.4,1014.9 -787.4,1014.3 -785.7,1014.3 -785.7,1013.3 -788.6,1013.2 		"/>
		<polygon class="st0" points="-805,1018.4 -803.9,1017.9 -803.9,1016.3 -802.4,1015.7 -802.4,1014.5 -804.7,1013.6 -804.7,1012.7 
			-807.2,1012.2 -808.4,1012.7 -811.5,1012.7 -811.5,1013.8 -809.4,1014.7 -809.4,1015.7 -810.6,1015.7 -807.6,1017 -807.6,1018.4 
					"/>
		<polygon class="st0" points="-819.4,1019.9 -816.4,1019.9 -816.4,1020.9 -814.1,1020.9 -812.2,1020.1 -810.3,1020.9 
			-808.1,1020.9 -808.1,1019.9 -810.4,1018.9 -812.1,1018.2 -814.3,1018.2 -817,1018.2 -821.2,1016.6 -823.4,1017.5 -821.3,1018.4 
			-819.4,1019.1 		"/>
		<polygon class="st0" points="-831.2,1015.6 -833.4,1015.5 -836.4,1016.7 -836.4,1019.2 -834.3,1020.1 -831,1020.1 -828.9,1019.2 
			-828.9,1017.6 -831.2,1017.6 		"/>
		<polygon class="st0" points="-782.6,1017.7 -782.6,1016.3 -781,1016.3 -781,1014.6 -782.8,1014.2 -784.3,1014.8 -784.3,1015.7 
			-785.5,1016.3 -785.5,1017.1 -784.2,1017.7 		"/>
		<polygon class="st0" points="-879.2,960.1 -880.7,960.7 -880.7,961.5 -884.7,961.5 -886.7,962.3 -887.3,962.5 -887.4,963.3 
			-893.2,963.3 -895.2,964.1 -898.4,965.4 -901.2,966.6 -902.4,967.1 -902.4,968 -900.9,968.7 -900.9,969.7 -897.3,969.7 
			-897.3,968.3 -894.9,967.3 -891.3,967.3 -889.6,966.7 -886.4,966.7 -884.5,965.9 -880.4,965.9 -880.4,964.3 -878.3,965.1 
			-876.4,964.4 -876.4,962.2 -874.4,961.4 -871.6,960.2 -871.6,958.8 -873.8,958.8 -873.8,957.4 -874.4,957.1 -871.4,957.1 
			-871.4,957.8 -867.2,956 -863.4,956 -863.4,954.7 -861.4,953.9 -858,952.5 -855.2,952.5 -852.3,951.4 -852.3,950.9 -857.3,950.9 
			-858.8,951.5 -861.5,951.5 -861.5,953.3 -864.1,953.3 -865.7,953.9 -868.7,953.9 -870.7,953.1 -870.7,952.2 -875.3,952.2 
			-875.3,954 -876.6,954.6 -878.2,955.2 -878.2,956 -880.6,956 -880.6,956.7 -879.2,956.7 -879.2,959.3 		"/>
		<path class="st0" d="M-845.3,946.3l2.1,0.8l6.5-2.6l1.5-0.6v-1.4h3.6V940h4.1v-2.4l2.1-0.9v-2.3l-1.1-0.4v-1.3l1.7-0.7l1.3-0.5
			l2.1-0.8l1.6,0.6l3.3-1.3h4.4v1h3.4v-1.3h1.3l3.8-1.5h1.8l4.7-1.9h2.4l1.9,0.8h2.9l2-0.8v-0.9l-1.4-0.6v-1.4l-1.2-0.5v-0.8l3-1.2
			v-10.1l-1.2-0.5l-1.8-0.7h-1.4l-2-0.8h-2.3l-1.6-0.6h-13.2v2.1l1.9,0.8l-1.7,0.7l-1.6-0.6h-2.2v-2.5h-1.6l-1.1,0.4h-3.1l-1.7-0.7
			h-3.4v0.8h-3v0.5l-1.3-0.5h-3.1V906l-1.5-0.6h-1.3l-1.3-0.5h-9v1.4l-1.1-0.4l-3.8-1.5h-2.1v-1.1l-2.2-0.9h-3.3l-2.1-0.8h-5.8
			l-2-0.8h-3.1l-2.5-1h-2.1l-2.1,0.8v2.3h-3.2v1.2l-2.8,1.2c0,0-1.8-1.2-2.9-1.2c-1.1,0-5.1,0-5.1,0l-1.5-0.6l-2.2,0.9v2.3h-1.8
			l-2.2-0.9v-1.2h-1.8v-0.6l1.1-0.4v-4.1h-1.9v-0.7l-1.7-0.7h-5.6l-2.7-1.1h-2.9l-2.2,0.9v1.4h-5.7l-1.3-0.5l-2.8-1.1h-9.2l-2.4-1
			h-4.8l0.9-0.4l7.4-3v-3.6l-7.5-3h-6l-2-0.8h-2.2v-2.1l-2.5-1h-5.5l-0.7,0.1v1.5v1.2l-3.1,1.2v1.8h-2.2v2.4h-2.4V890h-3.3v1.2h-5.6
			v-0.9h-3l-2.3,0.9h-3.7l-2.3,0.9h-3.2l-5.7,2.3v1.5l2.7,1.1l-2.7,1.1h-5.1l-1.5,0.6h-5.4v2.6l7,2.8v5h-2.1l-2.7-1.1v-2.4l2-0.8
			l-1.7-0.7h-3.1l-4.7-1.9v4.1h-2.5l-2.2-0.9h-3.1v-2.3l-1.8,0.7v1c0,0,0,1.1,0,1.3c0,0.2,0,1.3,0,1.3l1.6,0.7v2.8h5.4l2.8,1.1v1.5
			h-1.5v0.7h2.7v1.3h-4.5l-1.8-0.7v-2.9h-3.4v1l1.1,0.5v1.2l-1.4,0.5l-1.7,0.7l-3.2,1.3v1.2h-2.8l-1.4-0.6l-1.8-0.7v-0.8h3.9
			l0.8-0.3V915l2.2-0.9v-1.7v-1.8V908v-1.8l-2.5-1v-1l3.7-1.5v-1.4l-1.5-0.6h-1.8l-2.4-1h-4v1l-3,1.2v1.4l-4.5,1.8v0.9l2,0.8v2.9
			l4.6,1.9l-1.8,0.7l-2.1-0.8l-3.5-1.4l-1.9-0.8h-4v-0.8h-5.4l-2.1,0.9v0.7l1.5,0.6l-1.9,0.8h-3.1l-2,0.8h-4.6v-0.8l-1.1-0.4
			l-1.2,0.5h-2.9v0.8h-2.9v1.2h-4.9v0.8h-1.9l-1.7,0.7v1.2h-3v-1l2.1-0.9v-1.7l-1.2-0.5h-2.7v-0.7h-6.2v0.6l2.5,1v1.3l-0.9,0.4v0.8
			l1.1,0.4v1.1h-1.5v0.7h-1.6h-1.8l-4.4,1.8h1.9v1.1l1.5,0.6v0.8h-3.1l-3.8-1.5h-1.4l-0.8,0.3l3.6,1.5v1.1h-4.9V923l-3.5-1.4v-0.9
			h-0.9v-1.2v-1l-5.3-2.1v-0.8h2.8l4.8,1.9l0.2,0.1h0.7l2.4,1h2.7v0.5h2.9l2.1-0.8l2.7-1.1v-1v-1.8l-2.9-1.2h-2.3l-6.5-2.6l-1.1-0.5
			h-4.4l-1.7-0.7l-1.4-0.6l-1.3-0.5v-1.2l-2.6-1h-3.4l-1.5-0.6h-2.9l-0.8,0.3h-5.7l-1.5,0.6v1.2h-1.5l-1.3-0.5h-2.7l-2.5,1v0.8h-2.7
			l-1.7,0.7l-3.7,1.5v0.9l-3.9,1.6v1.2l-4,1.6v0.8l-1.8,0.7l-1.4,0.6v0.9v1.2l-2.8,1.1l-5.9,2.4h-3.1v1.8h-2.9l-1.6,0.7v3l0.9,0.4
			v0.9v2.3l0.7,0.3l2.4,1h5.8v0.9l-1.5,0.6v1.5v1h2.5l2.9-1.2v-1h1.3v1h1.8l2.1-0.8h1v1.5h2l1.7-0.7l1.4-0.6v-3.4l2.4-1l1.3-0.5
			l-2.3-0.9v-0.8h3.4V926l8.6-3.5v-2.2l2.9-1.2h4v1.8l-10.6,4.3v1.7l2.3,0.9v1.9l2.1,0.8h2.3v1.3l-2.1,0.8v1.7l-2.5,1l-1.1,0.4v2.3
			l-2.1,0.8l-1.2-0.5h-4.5l-4.1,1.7l-1.5-0.6v-1h-3.3v1.6h-3.1l-2.5-1h-2.6v0.9h-2.4v0.4h-2.9v0.8h-2.8l-2.7,1.1l-1.3,0.5v0.8
			l-1,0.4h-1.1v-0.4h-1.6l-1.5,0.6l-2,0.8l-1.5,0.6h-2.4l-2.2,0.9v0.4l-2,0.8h-5.3v1.1l2.9,1.2h2.9l2.9,1.2v2.1l-1.9,0.8h-4.1
			l-1-0.4h-2.5h-5.2l-2.3,0.9v1.3l-2,0.8v2v1.4l2.1,0.8v2.3h5.3v0.1l5.9-0.9h4.9l2-0.8v-1.5h3.8l1.2,0.5h1.7v-0.5h2.7l1.8-0.7h2v-1
			h-4.9l-2.2,0.9h-1.8v-0.6l2.1-0.8h2.3v-0.6h2.4v-2.3h2.5l1.7,0.7h1.9l2.1-0.9h2.2v0.5l-0.9,0.4v1.2l-1.5,0.6v1.2l1.1,0.4v0.7
			l1.4,0.6h3.9v-2.3l-1.4-0.5l1.6-0.7v-0.7l4.5,1.8h2.5v0.8h2.5l2.6,1.1v0.8h-7.2l-1.3,0.5v1.1l1.4,0.5h3.2v0.3h2.4l2.5-1v-0.9h2.5
			v-0.7h1.1l2.4-1h1.5v0.7l1.5,0.6v1.2l2.1,0.8l1.2,0.5h2.4v1.2l2,0.8h1.5v0.6h3.3l1.7-0.7v-0.8V964h-4.5v-0.7h-2v-0.8h2.5h2v-0.8h2
			v1.3l2.4,1h5.5l1.3-0.5h3.3v0.7l-1,0.4v0.9l1.8,0.7h2.3v-0.8h2.9v1l-1.5,0.6v1h-3.3l-1-0.4h-3.9l-1.6,0.6h-5.7l-1-0.4h-4.3
			l-1.2-0.5h-2.2l-1.5-0.6h-3.6l-2.1,0.8h-1.6v1.1v0.7h-1.6l-1-0.4l-1.9-0.8h-3.3v-0.9l-1.5-0.6h-8.2l-1.9-0.8l2.4-1v-0.9l-1.4-0.6
			l1.3-0.5v-0.6l-1.9-0.8h-4.3l-0.8,0.3h-13l-2,0.8h-4l-2,0.8h-2.2h-5.8l-5.8,0.9v0.2l-6.4,2.6l-2.7,1.1v1.9l-2.5,1h-2.9l-2.1,0.9
			v1.3l-2.8,1.1v1.7l-3.8,1.6v1v1.1v2.4l-1.9,0.8v1.7l1.7,0.7v1.8l7.9,3.2v0.6l1.9,0.8l3.7,1.5l5.2,2.1h5.4l2.8-1.1h4.9v0.7h2.9h4.4
			l3.5-1.4h7.5v0.9l2.4,1l1.5-0.6h3l1.8,0.7v2.6l-2.1,0.9v1.5l4.1,1.7l5.1,2.1v1.7l1.5,0.6v1.2v2l-2.5,1l-3.3,1.3v1v1.6l3.2,1.3v1
			v1.5l3.5,1.4v3.9l6.1,2.5v1.5l3.5,1.4v3.1l1.8,0.7h14.4l5.6-2.3l13.3-5.4v-0.7l1.8-0.7v-1.5h1.5l1.7-0.7l2.5-1v-1.3l-2.3-0.9v-1.6
			l3.6-1.5l1.7-0.7h2.5l1.3-0.5h2.1l2.7-1.1v-5.5l-3.2-1.3v-3.2l1.3-0.5v-1.2l1.6-0.7l4.8-1.9h2.5l9.2-3.7l1.5-0.6v-2l2.2-0.9v-1.1
			l2.6-1V988l-1.4-0.6v-0.7h-2.5v0.7h-4.4v0.7h-5.6h-3.2l-0.1,0h-2.8l-0.7-0.3l-2.2-0.9v-1.4l-2.6-1.1l-2-0.8v-1.2l-3-1.2v-1.8h-1.2
			v-1.2l-1.4-0.6V977l-1.4-0.5v-1.5l1.1-0.4l4.5,1.8l2.1,0.8v2l2,0.8v1.6l4.3,1.7v1.2l3,1.2v1l2.2,0.8l0,0h3.8v-0.5h3.1v-0.5h3
			l1.9-0.8l1.1-0.4h2.2l3.5-1.4h5.3v-0.7h1.7l4.4-1.8l2.4-1v-0.8l2.4-1v-1.1l-0.5-0.2h-3.8l-5.2-2.1h-3.1l-1.1,0.4h-4.9v-0.8
			l-3.5-1.4l-1.4-0.6v-0.8l-2.3-0.9l1.8-0.7l2.5,1v1.1l2.3,0.9h1.8l1.9,0.8h3l1.5-0.6h3.1v0.9h2.6l3.9,1.6h14.4l2.7,1.1h1.9v1.4
			l3.6,1.4h2.9l1.8,0.7v1.8l2.9,1.2v1l4.1,1.7v1.6l1.9,0.8v1.8l3,1.2l2.8-1.1h1.5v2.1l3.5,1.4l4-1.6v-1.8l-4.4-1.8v-1.2l1.6-0.7
			v-2.8h1.7l7.5-3h2v-0.5h1.3l2.8-1.1V979h6.6v-0.8l2.2,0.9v1l4.2,1.7v1.5h-1.2v0.7l1.7,0.7h3.1l1.7-0.7h1.6v2l3.3,1.3v1.2l-1.9,0.8
			v1.7l4.9,2v2.1l-6.1-2.5h-4.2l-2.4-1l-1.7,0.7l3,1.2v1.1l8.3,3.3v1.5l8.2,3.3h2l7.7,3.1h6.9l1.8,0.7h4.8h1.9h5.3l1.7,0.7h4.6v0.5
			h1.8l1.8,0.7h2.7v-1.9h4.2v0.6l-2.3,0.9l1.5,0.6l1.2-0.5h4.4l1.5-0.6v-0.7h3.7v-1.7l-1.3-0.5h-3.5l-1.1,0.4h-23.5v-0.9h-4.1
			l-1.2-0.5h-8v-0.6h-3.4v-1.5h2.7v-1.1l-1.8-0.7l-1.5-0.6l-1.3-0.5h-1.2l-0.7,0.3l-1.3-0.5l-1.9-0.8l1.4-0.6v-1l-1.6-0.6v-2
			l-5.6-2.2l-1.5-0.6v-1.1h-2.1V989l1.8-0.7l1.5-0.6h2.3v1.1l2.1,0.8h2.5v1.8h3.1l2.8-1.1l0.4-0.2h2.4l3.5-1.4v-1.1v-1.9l-1.2-0.5
			v-0.9l-6.4-2.6v-0.7l4.3-1.7l1.1-0.5v1.1l-2.4,1l0.4,0.2v0.8l1.2,0.5h3.5l3.5-1.4v-1.7h2.9v-0.8h4.4v-0.8h2.7l4.5-1.8h2.7v2h1.8
			v0.6h4v-0.9l0.7-0.3v-2.5l-0.8-0.3h-2.7v0.4h-1.3v-0.4v-0.4l1.5-0.6h2V973l1.5-0.6l1.5-0.6v-1.6h-1.5v-2.3h-1.7v-1.1l-2.3-0.9
			l-1.2-0.5l2.6-1.1v-0.4h2.3l2.5-1v-0.8l-1.2-0.5h-2.7v-0.7h-3.5v0.7h-1.2l-1.1-0.5l2.4-1l3-1.2h1.5v1.2v0.4l0.8,0.3l0.8-0.3h1.3
			l3-1.2v0.6h-0.5v0.7l-0.9,0.4v0.8l1,0.4h2.2v0.3l-1.3,0.5v0.6h1.2v2.1l1.2,0.5h4.3l1.8-0.7h1.2l1.6-0.7l0.6-0.2v-2.3l-1.3-0.5
			h-1.1v-0.6l-1.3-0.5l-1-0.4v-0.6h1.9l4.1-1.7v-1h7.6l4.5-1.8v-0.5l1.4-0.6v-0.5l2.3-0.9l1.1-0.4l2.1-0.9v-0.6l1.5-0.6l2.1-0.8
			v-2.1h0.2v-7.3l-1.4-0.6h-4.5l-1.2,0.5l-2.1-0.8h-3.2l2.2-0.9h4v-1l5.7-2.3v-1l3.6-1.5h14.5v-0.4h4.4v0.9h6.7l0.8-0.3h2.9v-1.1h-1
			v-0.7l2.7-1.1l2.9-1.2v-1.1h3.2v1.9h1.7v1.1l6.1-2.4l0.8,0.3l-9.3,3.8h-1.9v1.9h-1.5l-6.2,2.5v3.3l1.5,0.6v1.9l2.1,0.8v1.9
			L-845.3,946.3z M-1100.6,957.1h-8.2l-2.9-0.8h-6.3l-2.2,0.9h-3.9h-1.9l-2.1-0.8v-1.2l1.8-0.7l3-1.2v-1.1l1.4-0.6h1.4v1l2.2,0.9
			l1.6,0.6l1.8,0.7l1.1-0.4l1.6-0.6h2.9l1.6,0.6h2.1l1.5,0.6l2.5,1l1,0.4V957.1z M-1072.9,956.8l-2,0.8v1.8l3.3,1.3v1.8h-4l-2.1-0.8
			h-4.6v-1l2.7-1.1v-1.3h-2.4v-1.7l-2.4-1v-1v-1l-1.2-0.5l5.8-2.3l1-0.7h6.5l2.9,1.2l-2.4,1h-4.8v1.4v1.5L-1072.9,956.8z"/>
		<polygon class="st0" points="-870.2,938.5 -871.7,938.5 -873.6,939.3 -873.6,941 -874.4,941 -874.4,947.2 -874.3,947.2 
			-874.3,949.1 -874.3,950.9 -873.3,950.9 -873.3,951.7 -868.1,951.7 -868.1,950.3 -869.2,949.8 -869.2,948 -867.9,948 
			-866.8,948.5 -864.6,947.6 -864.6,947 -866.1,946.4 -866.1,945.2 -867.8,944.5 -867.8,941.2 -868.7,940.8 -868.7,939.1 		"/>
		<polygon class="st0" points="-1072.6,907.6 -1072.6,909.2 -1067.8,909.2 -1065.1,910.3 -1062.4,910.3 -1062.4,908.1 -1065,907.1 
			-1065,905.8 -1066.5,905.2 -1066.5,904.1 -1063.3,902.8 -1063.3,901.7 -1066.3,900.6 -1072.1,900.6 -1075.4,901.9 -1075.4,903.5 
			-1078,904.6 -1078,906.5 -1075.2,907.6 		"/>
		<polygon class="st0" points="-1081.3,912.8 -1078.3,911.6 -1078.3,910.7 -1082.3,909.4 -1085.8,910.8 -1085.8,912 -1083.9,912.8 
					"/>
		<polygon class="st0" points="-1086.7,1012.7 -1091,1012.7 -1091,1015.2 -1091,1016.6 -1093.6,1017.6 -1093.6,1018.7 
			-1093.6,1021.1 -1091.8,1021.8 -1087.9,1021.8 -1085.1,1020.7 -1085.1,1018.2 -1082.5,1017.2 -1082.5,1015.3 -1080.6,1014.5 
			-1080.6,1011.9 -1079.9,1011.6 -1079.9,1010.6 -1081.3,1010.5 		"/>
		<polygon class="st0" points="-1025.4,993.5 -1028.5,992.2 -1028.5,991.3 -1030.9,990.3 -1034.3,991.6 -1030.7,993.1 
			-1030.7,995.6 -1030.7,997.5 -1030.7,1000.2 -1028.7,1000.2 -1026.1,1000.2 -1026.1,998.2 -1023.3,997.1 -1023.3,995.6 
			-1025.4,994.8 		"/>
		<polygon class="st0" points="-1056,1002.3 -1057.6,1001.7 -1059,1001.7 -1059,1002.6 -1061.2,1002.1 -1062.5,1002.6 
			-1062.5,1004.2 -1059.7,1004.2 -1057.5,1004.2 -1056,1003.6 		"/>
		<polygon class="st0" points="-1066.3,1003.2 -1066.8,1002.5 -1069.3,1003.5 -1069.3,1004.4 -1072.3,1005.6 -1070.6,1006.3 
			-1067.7,1005.1 -1066.3,1004.6 		"/>
		<polygon class="st0" points="-1067.3,1017.3 -1067.3,1018.1 -1065.3,1018.1 -1064,1017.5 -1064,1016.6 -1065.5,1016.6 		"/>
		<polygon class="st0" points="-1056.4,1017.2 -1054.6,1017.9 -1051.8,1016.8 -1053.7,1016.1 		"/>
		<polygon class="st0" points="-1075.8,1018.4 -1074,1019.1 -1071,1019.1 -1071,1018 -1074.2,1017.7 		"/>
		<polygon class="st0" points="-1079,1007.7 -1079,1008.8 -1076.8,1008 -1076.8,1006.6 -1079,1006.2 		"/>
		<polygon class="st0" points="-1081.3,1007.3 -1084.6,1006.8 -1086.2,1007.4 -1083.9,1008.3 		"/>
		<polygon class="st0" points="-1095.5,1007.7 -1097.2,1008.4 -1097.2,1009.6 -1093.2,1009.6 -1093.2,1010.8 -1091.2,1011.6 
			-1089.1,1010.7 -1087.5,1011.3 -1085.3,1010.5 -1086.9,1009.8 -1088.3,1009.2 -1090.1,1009.9 -1091.9,1009.2 -1091.9,1008 		"/>
		<polygon class="st0" points="-1033.8,985.8 -1036,986.7 -1036,987.3 -1031.9,989 -1030.6,988.4 -1033.9,987.1 -1032.3,986.4 		"/>
		<polygon class="st0" points="-1241.5,915.8 -1245.5,915.8 -1245.5,914.9 -1247.3,914.2 -1250.3,914.2 -1251.7,913.6 
			-1255.6,913.6 -1256.1,914 -1259.3,915.3 -1256.4,916.5 -1256.4,917.5 -1255.2,918 -1252.7,918 -1252.7,919 -1249.6,919 
			-1247.6,918.2 -1245.3,919.1 -1243,920.1 -1239.9,918.8 -1239.9,917.5 -1241.5,916.9 		"/>
		<polygon class="st0" points="-1229.7,925 -1229.8,926 -1229.2,926.3 -1227.6,926.3 -1227.6,927 -1226.7,927 -1225.5,927 
			-1225.5,926.1 -1223.5,925.3 -1225.5,924.5 -1228.4,924.5 		"/>
		<polygon class="st0" points="-427.2,879.4 -422.9,877.7 -422.9,877.1 -426,877.1 -428.3,876.2 -430.4,876.2 -432.7,877.1 
			-432.7,878.2 -434.5,878.9 -439.8,878.9 -441.8,878.9 -449.3,881.9 -450.7,881.3 -442.9,878.1 -442.9,876.3 -448.5,876.3 
			-448.5,877.4 -449.8,877.9 -451.8,878.7 -457.8,878.7 -457.8,877.7 -454.7,876.5 -453.4,875.9 -460.4,875.9 -462.5,876.8 
			-465.8,876.8 -465.8,877.4 -469.6,877.4 -471,876.9 -467.9,875.6 -461.9,875.6 -460.3,875 -450,875 -445.9,875 -443.5,874 
			-443.5,872.5 -448.3,872.5 -451,872.5 -454,873.7 -454.9,873.4 -454.9,872.7 -451.7,871.4 -451.7,870.7 -455.8,870.7 
			-457.8,871.5 -462.6,871.5 -465.8,871.5 -467.7,872.3 -471.3,872.3 -472.3,872.7 -475.9,872.7 -475.9,871.7 -470.1,871.7 
			-470.1,870.5 -463.6,870.5 -459.2,870.5 -456.1,870.5 -456.1,869.8 -459.9,869.8 -462.1,868.9 -467,868.9 -471.8,868.9 
			-471.8,869.8 -474,868.9 -478.6,868.9 -482,870.3 -478.6,870.3 -478.6,871.1 -483,871.1 -483,873 -486,871.8 -490,871.8 
			-490,870.7 -495.3,870.7 -495.3,871.8 -490.7,871.8 -487.9,872.9 -485.2,874.1 -487.6,874.1 -490.2,874.1 -492.1,873.3 
			-494.1,873.3 -494.1,874.4 -494.1,876.2 -496.3,877.1 -504.7,873.7 -507.7,875 -505.4,875.9 -508.1,877 -512.5,877 -512.5,877.8 
			-516.4,877.8 -516.4,875.4 -518.8,875.4 -524.4,875.4 -526.1,876.1 -524.3,876.9 -522.8,877.4 -522.8,878.9 -523.8,878.5 
			-527,877.2 -529.3,877.2 -531.5,877.2 -531.5,878.2 -531.5,879.4 -531.5,879.8 -534.6,879.8 -536.4,879.1 -544.4,882.3 
			-542.6,883.1 -539,881.6 -536.7,882.5 -536.7,883.4 -538.5,884.1 -538.5,885 -540.7,885.9 -540.7,886.7 -540.7,886.9 
			-546.7,886.8 -551.5,888.8 -555.1,888.8 -555.1,889.9 -552.2,889.9 -548.4,891.5 -544.7,890 -540.5,890 -540.5,891.4 
			-543.8,892.7 -548.5,892.7 -548.5,894.6 -544.5,894.6 -540.5,893 -533.3,893 -527.8,895.2 -524.5,895.2 -524.5,897.4 
			-521.3,897.4 -516.4,899.4 -516.4,901.4 -516.4,904.3 -514.2,904.3 -514.2,903.5 -509.4,903.5 -506.7,904.6 -506.7,906.4 
			-504.9,907.1 -504.9,909 -506.9,909.8 -506.9,910.7 -511.3,910.7 -511.3,912.3 -511.3,913.9 -508.9,914.9 -506.2,914.9 
			-506.2,916.2 -507.7,916.2 -507.7,917.4 -505.8,918.2 -501.9,919.8 -497.5,919.8 -494.6,919.8 -494.6,920.8 -491.2,920.8 
			-488.2,919.5 -488.2,918.4 -489.3,917.9 -489.3,916.9 -487.6,916.9 -487.6,914.3 -481.6,911.9 -477.4,911.9 -477.4,912.9 
			-473.8,912.9 -468.3,910.7 -468.3,909 -463.8,909 -463.8,909.8 -459,909.8 -456.5,908.8 -451.9,908.8 -450,908 -447.9,907.2 
			-453.9,907.2 -459.2,907.2 -459.2,906.3 -457.3,905.5 -457.3,904 -455.2,903.2 -453.3,904 -450.5,905.1 -447.1,905.1 
			-447.1,906.5 -444.7,906.5 -444.7,903.7 -449.8,903.7 -453.2,902.4 -455.8,902.4 -455.8,901.1 -449.3,901.1 -449.3,899.6 
			-446.9,899.6 -444.1,900.7 -441,900.7 -441,899.7 -443.1,898.9 -443.1,897.9 -440.3,897.9 -440.3,896.9 -443.5,895.6 
			-442.9,895.4 -440.4,896.3 -438,895.4 -443.2,893.3 -440.5,892.2 -436.9,892.2 -438.6,891.5 -440.7,890.7 -444.2,890.7 
			-444.2,889.4 -441.8,889.4 -441.8,887.3 -437.9,887.3 -437.9,885.4 -440.4,884.4 -440.4,883.2 -438.7,882.5 -441.6,881.3 
			-440.8,880.9 -435,880.9 -432.7,880 -428.7,880 		"/>
		<polygon class="st0" points="-559,901.5 -562.9,901.5 -562.9,902.5 -565.6,902.5 -568.3,903.5 -570.4,903.5 -570.4,901.9 
			-568.8,901.3 -570.2,900.7 -570.2,899 -574.7,899 -574.7,899.6 -579.3,899.6 -579.3,901.7 -577.5,902.4 -577.5,903.6 
			-580.4,903.6 -580.4,901.5 -580.7,899.1 -580.9,898.1 -585,898.1 -590.7,900.5 -590.7,903.1 -587.6,904.4 -587.6,905.7 
			-584.5,905.7 -581.6,905.7 -581.6,904.9 -578.7,904.9 -578.7,906.6 -585.3,906.6 -585.3,907.8 -582.7,908.9 -579.5,908.9 
			-573.4,908.9 -571.1,908 -569.3,908 -567,908.9 -565.1,908.1 -561,909.8 -557.2,911.4 -559.2,912.2 -561.6,913.2 -561.6,915.2 
			-555.9,915.2 -555.9,913.8 -553.6,912.9 -551.8,913.6 -551.8,915.3 -554.5,916.4 -554.5,918.6 -556.9,919.6 -562.5,919.6 
			-562.5,921.2 -562.5,922.7 -556.7,922.7 -556.7,921.5 -553.4,922.9 -549.5,924.4 -545.3,924.4 -544.5,924.7 -537.7,927.5 
			-535.5,926.6 -542.7,923.6 -540.9,923.6 -536.2,925.5 -531.8,923.8 -531.8,922.2 -535.5,922.2 -535.5,921.1 -538.4,921.1 
			-540.2,920.3 -541.4,919.8 -541.4,917.7 -538.8,916.7 -536.6,917.6 -536.6,918.6 -532.5,920.2 -529.3,918.9 -526.8,917.9 
			-529,917.1 -534.5,914.8 -536.2,914.2 -537.8,914.2 -539,913.7 -541.5,912.7 -541.5,910.2 -544.4,909 -552.8,905.6 -554.5,905.6 
			-554.5,903.3 		"/>
		<polygon class="st0" points="-664,905.6 -661.3,904.5 -658.2,903.2 -658.2,902.2 -655.4,901 -653.1,900.1 -647.6,898.1 
			-651.7,896.8 -653.9,897.7 -657.5,897.7 -657.5,896.2 -661.9,896.2 -666.2,896.2 -666.2,897.2 -666.2,898.2 -666.2,899.4 
			-667.4,900.4 -670.7,901.7 -670.7,902.8 -667.4,904.2 		"/>
		<polygon class="st0" points="-620.9,911 -618.4,912 -615.9,912 -615.9,909.4 -617.3,908.8 -619.6,907.9 -623.8,906.2 
			-623.8,904.4 -622.5,903.9 -622.5,900.4 -626.1,898.9 -627.2,898.4 -629.5,899.4 -629.5,901.3 -629.5,903.4 -632.4,903.4 
			-632.4,902 -634.5,901.1 -636.8,902 -639.6,902 -639.6,900.7 -642.5,900.7 -644.2,901.4 -646,900.7 -643,899.5 -645,898.6 
			-647.1,899.2 -654.7,902.3 -654.7,903.2 -652.7,904 -650.1,905.1 -647.6,905.1 -647.6,905.5 -648.8,906 -652.7,906 -652.7,907 
			-649.9,908.1 -643.4,908.1 -643.4,906.9 -641.6,907.6 -640.1,908.2 -640.1,908.7 -650.1,908.7 -650.1,909.8 -647.9,910.7 
			-642.6,910.7 -642.6,911.6 -632.9,911.6 -631.6,911 -628.9,911 -628.9,909.7 -626.1,909.7 -626.1,911 		"/>
		<polygon class="st0" points="-597.8,883.5 -597.8,884.4 -597.8,885.4 -594,885.4 -594,886.3 -591.5,886.3 -588,884.9 -588,883.8 
			-584.9,883.8 -582.8,882.9 -586.3,881.5 -587.4,881.1 -589.9,880.1 -592.8,878.9 -597.1,876.3 -601.5,878 -598.6,879.2 
			-601.5,880.3 -601.5,881.2 -603,881.8 -603,882.8 -597.8,882.8 		"/>
		<path class="st0" d="M-586.4,875.4l-1.9,0.8l-2.3,0.9h3h6.2v1.2h-4.7l2.7,1.1h5.1v-1.6h4.4l0.7,0.3h1.8v-1.5l5.2-2.1l2.2,0.9
			l-4,1.6v1.4h5.7v0.2v0.7h-6.4h-3.8l-1.3,0.5h-2v0.8h2.9v0.9l1.6,0.7h2.2l-1.1,0.4h-3.1h-1.8l-4.4-1.8l-0.8-0.3h-1.5l-1-0.4h-2v0.9
			l2.4,1l3.8,1.5l1.8,0.7h3.8v0.8l-2.1,0.8l-2.4-1h-1.7h-3.8l-2,0.8l1.2,0.5h3.2v0.6v1.1h2.4l1.9-0.8h1v0.8l-2.8,1.1h-5.5v-0.8
			l-2-0.8l-2.3,0.9l2.1,0.8l-1.6,0.7l-1.4,0.6v0.5h3.9v0.5c0,0,4.5,0.2,4.5,0c0-0.2,0-1.2,0-1.2h5.6v1.1h3.8l2.4-1l-1.7-0.7h-3
			l-1.4-0.6l1.8-0.7h2h2.7l3-1.2h3.4V886v-1h1.6v-0.6h-4.2v-1.4l1.8-0.7h3.5h4.5v-1l2.2,0.9l3.5-1.4v-1.3h3.9l8-3.2l-2.8-1.1
			l-4.1,1.7h-2.7l-1.9-0.8h2.1v-1.4h3.5h5.5l1.6-0.7l5.8-2.3l-1.3-0.5h-1.5l-1.5-0.6l-1.8-0.7h-2.5v0.8h-5.5h-2.7l2.4-1h-2l-1.3-0.5
			h-6.4l-1.8,0.7v0.7l-1.2-0.5l-2.9-1.2h-4.5l5,2l-2.1,0.9l-2.4-1l-2.2-0.9h-4.2l-1.9,0.8l-2.2,0.9v0.4l0.9,0.3l1.5,0.6h-4.9h-1.8
			l-1.6,0.7v-1.2l-2.1-0.8v1v0.9l-0.8,0.3h-2.4l-1.7-0.7l-1.6,0.5l-2.5,1l2.1,0.8H-586.4z"/>
		<polygon class="st0" points="-657,890.9 -655.3,890.2 -654,890.2 -654,891.6 -654,892.7 -650,892.7 -650,893.4 -644.4,893.4 
			-642.7,894 -642.7,894.9 -638.2,894.9 -636.2,894.1 -631.4,894.1 -628.6,893 -628.6,894.6 -624.4,892.8 -627.3,891.7 
			-629.2,890.9 -631.3,891.8 -633,891.1 -633,890 -636.5,890 -636.5,891.5 -636.5,892.9 -641.4,892.9 -641.4,891.3 -643.8,891.3 
			-647.1,891.3 -651.3,891.3 -651.3,889.7 -648.4,889.7 -648.4,888.2 -652,888.2 -654.2,888.2 -654.4,888.8 -658.4,889.1 
			-661.2,890.3 -661.2,892.1 -659.8,892.1 		"/>
		<polygon class="st0" points="-639.6,887.6 -639.6,886.5 -638.3,885.9 -638.3,885 -641.4,885 -642.5,885 -642.2,885.6 
			-644.5,886.6 -644.5,888.2 -641.1,888.2 		"/>
		<polygon class="st0" points="-616.7,890.8 -619.9,892.1 -616.5,893.5 -616.5,894.6 -613.3,894.6 -613.3,892.5 -609.6,892.5 
			-607.5,891.7 -612.4,890.8 		"/>
		<polygon class="st0" points="-607.9,893.7 -603.4,895.5 -599.4,893.9 -596.6,895 -596.6,892.7 -600.2,892.7 -600.2,891 
			-602,890.1 -606.9,890.1 -602.9,891.7 -605.9,892.9 		"/>
		<polygon class="st0" points="-585.6,895.2 -587.3,895.9 -581.3,895.9 -581.3,894.4 -576.7,894.4 -576.7,895.1 -574.3,896.1 
			-570.4,894.6 -573,893.5 -575.2,892.6 -581.5,892.6 -584.7,893.9 -587.8,893.9 -590.5,892.8 -590.5,891.3 -593.6,891.3 
			-593.6,893 -593.6,895.2 -589.6,895.2 		"/>
		<polygon class="st0" points="-610.2,885.2 -610.2,887.1 -607.5,887.1 -604.4,888.4 -600.2,888.4 -598.4,887.7 -599.6,886.9 
			-601.3,886.2 -604.5,886.2 -606.1,885.6 -608.5,884.6 		"/>
		<polygon class="st0" points="-624.7,885.8 -622.5,886.7 -618.2,886.7 -614.3,888.3 -612.9,887.7 -614.4,887.1 -614.4,885.2 
			-616.9,885.2 -622.2,885.2 -622.2,883.6 -624.7,883.6 -627.7,883.6 -624.7,884.8 		"/>
		<polygon class="st0" points="-611.1,903.6 -611.1,905 -608.8,905.9 -605.4,904.5 -605.4,902.5 -608.2,901.3 -610.5,901.3 
			-610.5,899.8 -607.1,899.8 -607.1,897.9 -609.4,898.1 -612.4,898.1 -612.4,899.8 -612.4,901.1 -613.7,901.6 -616,901.6 
			-613.8,902.5 		"/>
		<polygon class="st0" points="-598,903.2 -594.8,901.9 -593.5,901.4 -593.5,899 -590.9,899 -590.9,897 -594.4,897 -596.3,897.7 
			-597.7,897.2 -600.2,897.2 -603.7,898.6 -603.7,900.3 -600.1,901.7 -600.1,902.3 		"/>
		<polygon class="st0" points="-602.7,912.4 -602.7,911 -608.2,909.5 -611.8,910.9 -608.2,912.4 		"/>
		<polygon class="st0" points="-563.5,900 -561.5,900.8 -559.1,899.8 -562.4,898.2 -569.3,898.2 -569.3,900.4 -566.8,901.3 		"/>
		<polygon class="st0" points="-607.1,881.7 -611,880.1 -613.5,880.6 -615.4,881.4 -610.8,883.2 		"/>
		<polygon class="st0" points="-623.5,889.9 -623.5,887.9 -626.3,886.8 -628.4,887.1 -628.4,887.9 -625.5,889.1 		"/>
		<polygon class="st0" points="-570.2,926.8 -570.2,927.6 -567.9,928.5 -565,927.4 -565,926.2 -568.1,925.9 		"/>
		<polygon class="st0" points="-561.1,980.8 -558.7,979.8 -554.4,979.8 -554.4,979.1 -558.7,979.1 -562.5,977.6 -562.5,976.8 
			-565.8,976.8 -570,976.8 -570,976 -573.1,976 -575.9,977.2 -573.1,978.3 -571.5,978.3 -566.9,978.3 -563.5,979.7 -566.1,980.8 		
			"/>
		<polygon class="st0" points="-524.8,986.8 -522,986.8 -520.5,986.2 -524.7,984.5 -524.7,983.2 -527.2,982.2 -529.3,982.2 
			-530.9,981.5 -532.6,980.8 -538.7,980.8 -541.8,980.8 -541.8,979.9 -546.9,979.9 -549.4,978.9 -548.4,978.5 -551.6,977.1 
			-555.3,977.1 -555.3,976 -557.4,975.2 -559.9,974.2 -559.9,973 -562.7,971.8 -564.9,972.7 -566.9,972.5 -566.9,974 -563.5,974 
			-561.3,974 -561.3,974.9 -563.1,975.6 -563.9,975.9 -562.5,976.5 -559.3,976.5 -559.3,977.4 -557.9,977.9 -554.4,977.9 
			-554.4,978.9 -552.8,979.5 -552.8,980.6 -556.7,980.6 -556.7,982.1 -553.6,982.1 -548.9,982.1 -546.2,982.1 -544.2,982.1 
			-542.5,981.4 -540.2,982.3 -532.9,982.3 -529.9,983.6 -525.7,985.2 -525.7,986.5 		"/>
		<polygon class="st0" points="-571.2,981.6 -568.1,980.3 -570.9,979.8 -573.3,980.7 		"/>
		<polygon class="st0" points="-578.5,976.9 -580.2,977.4 -580.2,978.5 -574.7,978.5 -577.1,977.6 -577.1,976.7 		"/>
		<polygon class="st0" points="-590,998.7 -590,997.3 -590.5,997.5 -595.8,998.5 -595.8,999.5 -593.7,1000.4 -590,1000.4 
			-587.2,999.2 -588.5,998.7 		"/>
		<polygon class="st0" points="-569.1,1022.6 -566.6,1023.6 -564.9,1022.9 -564.9,1021.7 -567.5,1021.9 		"/>
		<path class="st0" d="M-472.9,1002.3l-1.5-0.6l-2.8-1.1h-8.2l-1.7-0.7h-3.2l-5.3-2.2l-3.8-1.5l-2.5-1v-1.8h-3.5l-3-1.2h-7.8
			l-3.6-1.5h-2.9l-2.2-0.9l1.9-0.8v-1.5h-3.3l-2.5,1v-0.8h-6.1v0.7h-1.9h-2.8l-1.8-0.7v-1.2h-1.9l-1.2,0.5h-3.6v-0.9h-2.7l-2.4,1
			l-1.7,0.7l-2.2,0.9l-3.6,1.5h-3.9l2.2-0.9h-3.4h-2.4l-2.2,0.9l-2.5-1l-2.6-1.1v-2.4l2.2-0.9l-1.7-0.7l-3-1.2h-3.6l-1.8,0.7l-2-0.8
			l1.5-0.6l2-0.8v-2.1v-1l-1.5-0.6h-6.5l-2.6,1.1v1l-1.3,0.5v0.8h-0.2l-1.6,0.7h-3.2l-3.8-1.5l-2.7-1.1l-1.7-0.7v-3.5h1.1v-2.3
			l4.8-2l2.1-0.8h7.4l3,1.2v-1.5h6.2h5.1l3.6,1.5v2.1l3.4,1.4h2.2v-2.3l-3.9-1.6v-2.3l8.7-3.5l2.8-1.1v-1.1l2.1-0.9l3.3-1.3v-2.2
			l4.9-2h4.4v-1l3-1.2h2.3h3.4v0.6l2.5,1l2.3-0.9l2.5-1h5.1l2.7-1.1v-2.1h-2h-3.5h-3.1h-4.2v-1.3h-5.1l-2.4,1v1.7l-3.2,1.3h-10.2
			l-5.3,2.2l-1.5,0.6h-8l-2.7-1.1v-2h-4.4v-2.2h-2.7l-1.9,0.8l-2.5-1l1.5-0.6h-5.9v-0.7h3.6h3.8v1.3h4.2l1.5,0.6h2.8h3.5v1.2
			l1.9,0.8v0.6h-2.3v1.5h2.7h3.8l2.3-0.9l3.4-1.4v-0.4h10.5l1.8-0.7v-1l-1.2-0.5v-0.8l4.3-1.7h3.4l1.7,0.7h3.2l1.8-0.7l1.9,0.8
			l1.4-0.5h3.5l3.5-1.4l2.2-0.9l1.4,0.6v0.8l-1.7,0.7l-2.1,0.8l2,0.8h7.6l2.3-0.9v-0.8h-3.9V946l2.2-0.9V942l-4-1.6l-3.5,1.4h-4
			v-1.2h1.8l2.3-0.9l-2.3-0.9l-2.7-1.1l-3-1.2h-2.1v-2.1l-2.1-0.8l-2.9-1.2v0.6v0.9h-3.9l-1.1,0.4h-1.5v-1.4h-3.1h-2.5l1.7-0.7v-1.6
			v-1.4l-3.3-1.3h-4.2v-1.1h-4.4h-1.5l-2.2-0.9l-2.6,1.1l2.5,1v2.2v1.2l-2.9,1.2v0.5l1.8,0.7l2,0.8v1.5l1.7,0.7v1.1h-3.9l-3.6,1.5
			l3.5,1.4v1.8v1.7l-2.5,1h-3.5h-1.8V944l-2-0.8l-1.8-0.7v-3.2l-2.3-0.9h-2.1l-2.7,1.1V938h-3.1l-3.6-1.5h-2.7V936h-1.8h-2.2h-1.8
			v-1.7l-1.7-0.7l-1.9-0.8h-1.3v-3.6l3-1.2v-0.8l2.1-0.9v-1.1h3l2-0.8v-0.6h-3.8h-1.6l-1.8-0.7l1.2-0.5h1.5l1.3,0.5h3.4h2l1.6-0.7
			h2.9v1.8l1.3,0.5h2.7l1.3,0.5l4.9-2l1.2,0.5l-4.5,1.8v1l1.8,0.7l1.8-0.7h2v-1.3v-0.7l1.6-0.7l2.1-0.8l-6.1-2.5v-1h-2.2l-2.4-1h2.9
			l5.1-2.1v-2.1l-1.2-0.5l-2.5-0.8v-1l3.1-1.2l-3.6-1.5h-3.1v1.7l-2.9,1.2v1.8l-2.9,1.2l-2.7-1.1v-2.3l-2.8-1.1v1.9l-2.3,0.9v-2
			l-4.2-1.7v-1.2v-1.6v-1.2l-3-1.2h-3v1.4v2.3l3.8,1.5v2v1.2l-2.8,1.1v1.8h-3.5v-1.5h-13.8l-2.7-1.1h-3.8l-1.5,0.6v2.1h-5.7
			l-3.5-1.4h-11.1v-1.5l2.7-1.1v-1.2h-10.4l-4.9-2l-3.5,1.4h-9.1l-3.3-1.3l-4.4,1.8h-5.1l-2.7,1.1h-5.6h-7.6v-1.7h-5.8l-2-0.8h-5.6
			l-4.3-1.7h-5.9h-8l-3-1.2h-5l-4.7,1.9h-4.8l-5.4,2.2v1.5h-5.5v1l4,1.6l4,1.6h6.2v1.2l-1.3,0.5l-2.9,1.2h-4.9l-3.2-1.3l-3.2,1.3
			v1.7h7.8h3.6l1.8-0.7v3.4l-3.1,1.2l-5.3,2.1v1.8l2.4,1l-2.4,1l2.5,1l4.4-1.8v1.3l2.9,1.2h7.6v0.7l-4,1.6l1.6,0.7l-5.5,2.2l1.5,0.6
			l6.5-2.6l4.9-2v-1.9l4.4-1.8l4.9-2v-1.5h2.4v1.3l5.6,2.3h5.3h2.2h7.3l3.2,1.3h4.5h4l4.1,1.7v2.7h3.1v1.5h5.5v2.5v1.9l3.6,1.5v1.6
			h4.4l4.2,1.7l3.8,1.5v1.8l-1.6,0.7v9.3l3.9,1.6v1.7l4,1.6l3.1,1.2v1.3h3.6v2.4l4.1,1.7v2l2.4,1l3.2,1.3v1l1.6,0.6l2.1,0.8h2.2
			v-0.9l-2.8-1.1v-1l-4.5-1.8v-1.4l-4-1.6c0,0,0-1.3,0-1.7c0-0.4,1.9,0,1.9,0v1.7l3.5,1.4l3.5,1.4l2.1,0.8v1h3.8l7.4,3v2.8l3.5,1.4
			h2.5l4.1,1.7h3.2h3.1h5.1l2.4,1h0.5l1.2,1.6l2.2,0.9h3.6l1.8,0.7h5.5l1.6,0.6v1.7h1.9l2.5,1l2.6,1.1h3l3.2,1.3l2.4-1v-0.9l1.1-0.4
			l1.2,0.5v1.4v1.3l1.7,0.7v0.6h-2.4l-2.4,1v1.7l-4,1.6v2.5v1.6l1.9,0.8l5.1,2.1v2.4l1.9,0.8v1.3l4.5,1.8l3.8,1.5h3.9l3.4,1.4v4.3
			h-3.1v2.1v2.7v2.6v2.3v2.7l-3.4,1.4v1.7v3h-2.2v4.1h3.3v1.4l-2.2,0.9l-2,0.8v0.8l-1.8,0.7v4l3,1.2v3l2.5,1l1.9,0.8h3.9v1.6h1.2
			l1.9,0.8h4.4v-1h6.1h2.6v-0.8l-1.6-0.6l-2-0.8h-3.8l-2.8-1.1v-2.1l-1.5-0.6v-1.2h3.3v-0.9l5.3-2.1v-1.7l-1.8-0.7h-2.2v-0.9h4.4
			v-1.6l1.5-0.6l2.9-1.2v-1.5h-2.4v-0.5h3.4l1.7-0.7v-1.5l1.5-0.6h8.4l2.6-1.1v-1.8l-1.6-0.6v-0.8h6.1l2.2-0.9v-0.8l2.4-1l5.3-2.2
			v-2h5.5v-3l6.4-2.6h6.2v-1l5.4-2.2v-2.1l3.4-1.4v-2.9l8.9-3.6v-3.7l-2.6-1.1H-472.9z"/>
		<polygon class="st0" points="-756.7,974.6 -757.9,975.1 -759.6,975.1 -759.6,976.1 -759.6,976.8 -757.5,976 -755.2,976.9 
			-752.3,975.8 -752.3,974.9 -753.3,974.5 		"/>
		<polygon class="st0" points="-733.4,979.9 -735.3,979.1 -735.3,977.8 -739,977.8 -741.1,976.9 -744.8,976.9 -744.8,976.2 
			-749.4,975.9 -751.4,976.7 -751.4,977.6 -748.4,977.6 -746.4,978.5 -744,978.5 -741.9,979.3 -738.2,979.3 -738.2,980.6 
			-738.2,981.1 -738.2,983.1 -735.1,983.1 -732.9,982.2 -729.5,982.2 -728.7,981.9 -728.7,980.7 -730.7,979.9 		"/>
		<polygon class="st0" points="-524.2,1051.7 -527.9,1053.2 -527.9,1054.3 -524.7,1054.3 -522.8,1055 -519.5,1053.6 -515.5,1053.6 
			-515.5,1052.5 -517.5,1051.7 		"/>
	</g>
	<g>
		<g>
			<circle class="st1" cx="-922.7" cy="949.6" r="11.6"/>
			<polygon class="st1" points="-922.9,974.2 -934.2,950 -911.1,950 			"/>
		</g>
		<circle class="st2" cx="-922.7" cy="949.6" r="6"/>
	</g>
	<g>
		<g>
			<circle class="st1" cx="-877.4" cy="1005.4" r="11.6"/>
			<polygon class="st1" points="-877.6,1030 -889,1005.8 -865.8,1005.8 			"/>
		</g>
		<circle class="st2" cx="-877.4" cy="1005.4" r="6"/>
	</g>
	<g>
		<g>
			<circle class="st1" cx="-808.1" cy="1015.5" r="11.6"/>
			<polygon class="st1" points="-808.3,1040.1 -819.7,1016 -796.5,1016 			"/>
		</g>
		<circle class="st2" cx="-808.1" cy="1015.5" r="6"/>
	</g>
	<g>
		<g>
			<circle class="st1" cx="-749" cy="951.3" r="11.6"/>
			<polygon class="st1" points="-749.2,975.9 -760.6,951.7 -737.4,951.7 			"/>
		</g>
		<circle class="st2" cx="-749" cy="951.3" r="6"/>
	</g>
	<g>
		<g>
			<circle class="st1" cx="-911.1" cy="997.4" r="11.6"/>
			<polygon class="st1" points="-911.3,1022 -922.7,997.9 -899.5,997.9 			"/>
		</g>
		<circle class="st2" cx="-911.1" cy="997.4" r="6"/>
	</g>
	<g>
		<g>
			<circle class="st1" cx="-638.3" cy="928.2" r="11.6"/>
			<polygon class="st1" points="-638.5,952.8 -649.9,928.7 -626.7,928.7 			"/>
		</g>
		<circle class="st2" cx="-638.3" cy="928.2" r="6"/>
	</g>
	<g>
		<g>
			<circle class="st1" cx="-604.3" cy="943.1" r="11.6"/>
			<polygon class="st1" points="-604.5,967.7 -615.9,943.5 -592.7,943.5 			"/>
		</g>
		<circle class="st2" cx="-604.3" cy="943.1" r="6"/>
	</g>
	<g>
		<g>
			<circle class="st1" cx="-555.1" cy="979.3" r="11.6"/>
			<polygon class="st1" points="-555.3,1003.9 -566.7,979.8 -543.5,979.8 			"/>
		</g>
		<circle class="st2" cx="-555.1" cy="979.3" r="6"/>
	</g>
	<g>
		<g>
			<circle class="st1" cx="-508.9" cy="985.4" r="11.6"/>
			<polygon class="st1" points="-509.2,1010 -520.5,985.8 -497.3,985.8 			"/>
		</g>
		<circle class="st2" cx="-508.9" cy="985.4" r="6"/>
	</g>
	<g>
		<g>
			<circle class="st1" cx="-532.1" cy="1012.6" r="11.6"/>
			<polygon class="st1" points="-532.4,1037.2 -543.7,1013 -520.5,1013 			"/>
		</g>
		<circle class="st2" cx="-532.1" cy="1012.6" r="6"/>
	</g>
	<g>
		<g>
			<circle class="st1" cx="-951.5" cy="928.2" r="11.6"/>
			<polygon class="st1" points="-951.7,952.8 -963.1,928.7 -939.9,928.7 			"/>
		</g>
		<circle class="st2" cx="-951.5" cy="928.2" r="6"/>
	</g>
	<g>
		<g>
			<circle class="st1" cx="-974.3" cy="943.7" r="11.6"/>
			<polygon class="st1" points="-974.5,968.3 -985.8,944.1 -962.7,944.1 			"/>
		</g>
		<circle class="st2" cx="-974.3" cy="943.7" r="6"/>
	</g>
	<g>
		<g>
			<circle class="st1" cx="-1015.8" cy="957.3" r="11.6"/>
			<polygon class="st1" points="-1016,981.9 -1027.4,957.7 -1004.2,957.7 			"/>
		</g>
		<circle class="st2" cx="-1015.8" cy="957.3" r="6"/>
	</g>
	<g>
		<g>
			<circle class="st1" cx="-1040.2" cy="949.7" r="11.6"/>
			<polygon class="st1" points="-1040.5,974.3 -1051.8,950.2 -1028.6,950.2 			"/>
		</g>
		<circle class="st2" cx="-1040.2" cy="949.7" r="6"/>
	</g>
	<g>
		<g>
			<circle class="st1" cx="-1085.3" cy="955.7" r="11.6"/>
			<polygon class="st1" points="-1085.6,980.3 -1096.9,956.2 -1073.7,956.2 			"/>
		</g>
		<circle class="st2" cx="-1085.3" cy="955.7" r="6"/>
	</g>
	<g>
		<g>
			<circle class="st1" cx="-880" cy="940.2" r="11.6"/>
			<polygon class="st1" points="-880.3,964.8 -891.6,940.7 -868.4,940.7 			"/>
		</g>
		<circle class="st2" cx="-880" cy="940.2" r="6"/>
	</g>
	<g>
		<g>
			<circle class="st1" cx="-870.5" cy="923.9" r="8"/>
			<polygon class="st1" points="-870.6,940.8 -878.4,924.2 -862.5,924.2 			"/>
		</g>
		<circle class="st2" cx="-870.5" cy="923.9" r="4.1"/>
	</g>
	<g>
		<g>
			<circle class="st1" cx="-898.3" cy="901" r="8"/>
			<polygon class="st1" points="-898.5,917.9 -906.3,901.3 -890.3,901.3 			"/>
		</g>
		<circle class="st2" cx="-898.3" cy="901" r="4.1"/>
	</g>
	<g>
		<g>
			<circle class="st1" cx="-836.4" cy="910" r="8"/>
			<polygon class="st1" points="-836.6,927 -844.4,910.3 -828.5,910.3 			"/>
		</g>
		<circle class="st2" cx="-836.4" cy="910" r="4.1"/>
	</g>
	<g>
		<g>
			<circle class="st1" cx="-925.8" cy="911" r="8"/>
			<polygon class="st1" points="-926,927.9 -933.8,911.3 -917.9,911.3 			"/>
		</g>
		<circle class="st2" cx="-925.8" cy="911" r="4.1"/>
	</g>
	<g>
		<g>
			<circle class="st1" cx="-805.4" cy="897.6" r="8"/>
			<polygon class="st1" points="-805.6,914.5 -813.4,897.9 -797.5,897.9 			"/>
		</g>
		<circle class="st2" cx="-805.4" cy="897.6" r="4.1"/>
	</g>
	<g>
		<g>
			<circle class="st1" cx="-740.1" cy="907.5" r="8"/>
			<polygon class="st1" points="-740.2,924.4 -748,907.8 -732.1,907.8 			"/>
		</g>
		<circle class="st2" cx="-740.1" cy="907.5" r="4.1"/>
	</g>
	<g>
		<g>
			<circle class="st1" cx="-709.5" cy="905" r="8"/>
			<polygon class="st1" points="-709.7,921.9 -717.5,905.3 -701.5,905.3 			"/>
		</g>
		<circle class="st2" cx="-709.5" cy="905" r="4.1"/>
	</g>
	<g>
		<g>
			<circle class="st1" cx="-659.1" cy="900" r="8"/>
			<polygon class="st1" points="-659.3,916.9 -667.1,900.3 -651.2,900.3 			"/>
		</g>
		<circle class="st2" cx="-659.1" cy="900" r="4.1"/>
	</g>
	<g>
		<g>
			<circle class="st1" cx="-619.7" cy="911.6" r="8"/>
			<polygon class="st1" points="-619.9,928.6 -627.7,911.9 -611.8,911.9 			"/>
		</g>
		<circle class="st2" cx="-619.7" cy="911.6" r="4.1"/>
	</g>
	<g>
		<g>
			<circle class="st1" cx="-553.1" cy="925.5" r="8"/>
			<polygon class="st1" points="-553.2,942.5 -561.1,925.8 -545.1,925.8 			"/>
		</g>
		<circle class="st2" cx="-553.1" cy="925.5" r="4.1"/>
	</g>
	<g>
		<g>
			<circle class="st1" cx="-678.7" cy="914.2" r="8"/>
			<polygon class="st1" points="-678.9,931.1 -686.7,914.5 -670.7,914.5 			"/>
		</g>
		<circle class="st2" cx="-678.7" cy="914.2" r="4.1"/>
	</g>
	<g>
		<g>
			<circle class="st1" cx="-1126.1" cy="910.4" r="8"/>
			<polygon class="st1" points="-1126.3,927.3 -1134.1,910.7 -1118.1,910.7 			"/>
		</g>
		<circle class="st2" cx="-1126.1" cy="910.4" r="4.1"/>
	</g>
	<g>
		<g>
			<circle class="st1" cx="-1136.1" cy="939.7" r="8"/>
			<polygon class="st1" points="-1136.3,956.6 -1144.1,940 -1128.2,940 			"/>
		</g>
		<circle class="st2" cx="-1136.1" cy="939.7" r="4.1"/>
	</g>
	<g>
		<g>
			<circle class="st1" cx="-1086.2" cy="915.6" r="8"/>
			<polygon class="st1" points="-1086.3,932.5 -1094.1,915.9 -1078.2,915.9 			"/>
		</g>
		<circle class="st2" cx="-1086.2" cy="915.6" r="4.1"/>
	</g>
	<g>
		<g>
			<circle class="st1" cx="-1062.4" cy="919.7" r="8"/>
			<polygon class="st1" points="-1062.6,936.7 -1070.4,920 -1054.4,920 			"/>
		</g>
		<circle class="st2" cx="-1062.4" cy="919.7" r="4.1"/>
	</g>
	<g>
		<g>
			<circle class="st1" cx="-1019.9" cy="911.1" r="8"/>
			<polygon class="st1" points="-1020.1,928.1 -1027.9,911.4 -1011.9,911.4 			"/>
		</g>
		<circle class="st2" cx="-1019.9" cy="911.1" r="4.1"/>
	</g>
	<g>
		<g>
			<circle class="st1" cx="-1186.3" cy="935.3" r="8"/>
			<polygon class="st1" points="-1186.5,952.3 -1194.3,935.6 -1178.4,935.6 			"/>
		</g>
		<circle class="st2" cx="-1186.3" cy="935.3" r="4.1"/>
	</g>
	<g>
		<g>
			<circle class="st1" cx="-1161" cy="929.7" r="8"/>
			<polygon class="st1" points="-1161.2,946.7 -1169,930 -1153,930 			"/>
		</g>
		<circle class="st2" cx="-1161" cy="929.7" r="4.1"/>
	</g>
</g>
<g>
	<text transform="matrix(1 0 0 1 -1220.8851 -183.4838)"><tspan x="0" y="0" class="st2" style="font-family:'CenturyGothic-Bold'; font-size:78px;">38,00</tspan><tspan x="196.6" y="0" class="st2" style="font-family:'CenturyGothic-Bold'; font-size:78px; letter-spacing:3;">0+</tspan><tspan x="294.9" y="0" class="st2" style="font-family:'CenturyGothic-Bold'; font-size:78px;">Free Courses</tspan></text>
</g>
<rect x="-1280.9" y="-21.8" class="st3" width="900" height="678"/>
<g>
	<text transform="matrix(1.1 0 0 1 -721.095 190.1681)" style="font-family:'ArialNarrow-Bold'; font-size:38.549px;">Scored card</text>
</g>
<g>
	<path class="st4" d="M-592,13.8c1.3,0.4,2.2,1.3,3.1,2.2c8.6,8.3,17.3,16.6,25.9,24.8c1.2,1.2,1.8,2.5,1.8,4.1
		c0,30.3,0,60.6,0,90.9c0,2.7-1.7,4.4-4.4,4.4c-29.1,0-58.2,0-87.2,0c-2.8,0-4.4-1.7-4.4-4.5c0-17.3,0-34.6,0-51.8c0-3.5,0-7,0-10.5
		c0-0.3,0-0.6,0-0.8c0.1-0.1,0.2-0.1,0.3-0.2c0.5,0.6,0.9,1.2,1.5,1.7c1.9,1.9,3.8,3.9,5.8,5.7c0.4,0.4,0.6,0.9,0.6,1.5
		c0,16.6,0,33.2,0,49.9c0,0.3,0,0.6,0,1c26.6,0,53.2,0,79.8,0c0-27.9,0-55.8,0-83.8c-0.3,0-0.7,0-1,0c-7.3,0-14.6,0-21.9,0
		c-2.9,0-4.5-1.6-4.5-4.5c0-6.9,0-13.9,0-20.8c0-0.3,0-0.6,0-1c-17.5,0-34.9,0-52.4,0c0,5.3,0,10.5,0,16c-0.3-0.3-0.5-0.4-0.6-0.5
		c-2.4-2.4-4.7-4.7-7.1-7.1c-0.3-0.3-0.4-0.7-0.4-1.1c0-3.4,0-6.9,0-10.3c0-3,0.6-3.9,3.3-5.1C-633.3,13.8-612.7,13.8-592,13.8z
		 M-588.7,40.2c4.4,0,8.7,0,13.2,0c-4.4-4.2-8.7-8.4-13.2-12.6C-588.7,31.8-588.7,36-588.7,40.2z"/>
	<path class="st4" d="M-680,42.7c0.6-0.7,1-1.6,1.7-2.2c3.6-3.6,7.2-7.2,10.8-10.8c1.6-1.6,3.3-1.6,4.9,0c2.2,2.2,4.4,4.4,6.5,6.5
		c0.1,0.1,0.3,0.3,0.4,0.4c-5.4,5.4-10.8,10.8-16.3,16.3c-2.1-2.1-4.2-4.2-6.3-6.4c-0.7-0.7-1.2-1.6-1.8-2.3
		C-680,43.7-680,43.2-680,42.7z"/>
	<path class="st4" d="M-669.8,54.7c5.3-5.3,10.7-10.7,16-16.1c19.4,19.4,38.7,38.8,58.1,58.2c-5.3,5.3-10.7,10.7-16,16.1
		C-631,93.6-650.4,74.1-669.8,54.7z"/>
	<path class="st4" d="M-618.1,69c1.4,0,2.7,0,4,0c10.3,0,20.6,0,30.9,0c2.2,0,3.7,1.2,4.2,3.3c0.5,2.4-1.3,4.7-3.8,4.8
		c-2.3,0.1-4.5,0-6.8,0c-6.6,0-13.3,0-19.9,0c-0.3,0-0.7-0.1-0.9-0.3c-2.5-2.4-5-4.9-7.5-7.4C-617.9,69.3-617.9,69.2-618.1,69z"/>
	<path class="st4" d="M-609.6,115c5.4-5.4,10.7-10.7,16.1-16.1c0.6,2,1.1,4.1,1.7,6.2c1.2,4.4,2.4,8.7,3.6,13.1
		c0.5,1.7-0.5,2.6-2.1,2.2c-6.4-1.7-12.7-3.5-19.1-5.2C-609.5,115-609.5,115-609.6,115z"/>
	<path class="st4" d="M-602.8,84.2c0.2,0,0.3,0,0.4,0c6.5,0,12.9,0,19.4,0c1.9,0,3.5,1.3,3.9,3c0.5,1.8-0.3,3.7-2,4.5
		c-0.6,0.3-1.3,0.5-2,0.5c-3.8,0-7.6,0-11.4,0c-0.3,0-0.6-0.1-0.8-0.3c-2.5-2.5-5-4.9-7.4-7.4C-602.7,84.5-602.7,84.4-602.8,84.2z"
		/>
</g>
<g>
	<text transform="matrix(1.1 0 0 1 -1157.7981 405.5787)" style="font-family:'ArialNarrow-Bold'; font-size:38.549px;">Distance to Hazard</text>
</g>
<g>
	<path class="st4" d="M-1065.6,90.3l-1.9,0v0.1c-0.1,19.6,10.9,27.4,20,33.1c9.5,6,22.8,8.7,36.8,8.7c7.4,0,35-2.6,49.9-17.7
		c8.5-8.7,10.2-19.5,10.2-29.1c0-7-0.9-13.5-0.9-18l0-0.7c0.3-10.7,4.3-15.5,5.7-18.6c4.5-10.5,10.6-20.7,10.6-33.3l0-1.9
		c-0.3-7-3.8-12-8.7-15c-4.8-3.1-10.8-4.3-16.7-4.3h0l-0.1,0c-6.2,0.1-18.6,4.5-27.3,13.2c-8.6,8.7-15.1,24.8-18.1,29.3
		c-4.5,7-15.8,12.2-24.1,14.7c-7.6,2.4-16.6,6.1-23.5,10.9c-6.7,4.6-14,10.3-13.9,28.8h3.7c0.2-17.6,5.7-21,12.3-25.7
		c6.4-4.5,15.1-8.1,22.5-10.4c8.6-2.8,20.5-7.8,26-16.2c3.3-5.2,9.7-20.8,17.6-28.7c7.7-7.9,20.1-12.1,24.7-12.1h0.1
		c5.3,0.1,10.7,1.2,14.7,3.8c4,2.6,6.7,6.3,7,12.1l0,1.7c0,11.4-5.6,21.1-10.2,31.9c-0.9,2.1-5.8,8.5-6,20l0,0.8
		c0,5,0.9,11.3,0.9,18c0,9.2-1.6,18.8-9.1,26.5c-13.3,13.8-40.6,16.7-47.3,16.6c-13.6,0-26.3-2.7-34.9-8.1c-9-5.8-18.2-11.9-18.3-30
		v-0.1H-1065.6"/>
	<path class="st4" d="M-1009.7,58.8c-25.5,0-46.1,14.1-46.1,31.5c0,17.4,20.7,31.5,46.1,31.5c25.5,0,46.2-14.1,46.2-31.5
		C-963.6,72.9-984.2,58.8-1009.7,58.8z M-1020.9,87.9c-5,0-8.9-1.5-8.9-3.6c0-2,4-3.6,8.9-3.6c5,0,9,1.6,9,3.6
		C-1012,86.4-1016,87.9-1020.9,87.9z"/>
	<path class="st4" d="M-955.8,40.7c7.9-11.4,7.3-25.5-1.3-31.4c-8.6-5.9-22-1.5-29.8,10c-7.9,11.4-7.3,25.4,1.3,31.4
		C-977.1,56.6-963.7,52.2-955.8,40.7"/>
	<polygon class="st4" points="-1049.7,42.7 -1026.7,42.5 -1026.7,85.4 -1023.2,85.4 -1023.2,21.3 	"/>
	<path class="st4" d="M-1018.3,59.3c0,0,24.2-12,27.2-31.8c2,3.5,29.5,11.7,37.7,9.1c-5,9.9-14.7,29.7-14.1,56.9
		C-972.6,68-992.5,62.8-1018.3,59.3z"/>
</g>
<g>
	<path class="st5" d="M10.7,102.5l-1.9,0v0.1c-0.1,19.6,10.9,27.4,20,33.1c9.5,6,22.8,8.7,36.8,8.7c7.4,0,35-2.6,49.9-17.7
		c8.5-8.7,10.2-19.5,10.2-29.1c0-7-0.9-13.5-0.9-18l0-0.7c0.3-10.7,4.3-15.5,5.7-18.6c4.5-10.5,10.6-20.7,10.6-33.3l0-1.9
		c-0.3-7-3.8-12-8.7-15c-4.8-3.1-10.8-4.3-16.7-4.3h0l-0.1,0c-6.2,0.1-18.6,4.5-27.3,13.2c-8.6,8.7-15.1,24.8-18.1,29.3
		c-4.5,7-15.8,12.2-24.1,14.7c-7.6,2.4-16.6,6.1-23.5,10.9C16,78.3,8.7,84,8.8,102.5h3.7c0.2-17.6,5.7-21,12.3-25.7
		c6.4-4.5,15.1-8.1,22.5-10.4c8.6-2.8,20.5-7.8,26-16.2c3.3-5.2,9.7-20.8,17.6-28.7c7.7-7.9,20.1-12.1,24.7-12.1h0.1
		c5.3,0.1,10.7,1.2,14.7,3.8c4,2.6,6.7,6.3,7,12.1l0,1.7c0,11.4-5.6,21.1-10.2,31.9c-0.9,2.1-5.8,8.5-6,20l0,0.8
		c0,5,0.9,11.3,0.9,18c0,9.2-1.6,18.8-9.1,26.5c-13.3,13.8-40.6,16.7-47.3,16.6c-13.6,0-26.3-2.7-34.9-8.1c-9-5.8-18.2-11.9-18.3-30
		v-0.1H10.7"/>
	<path class="st5" d="M66.6,71c-25.5,0-46.1,14.1-46.1,31.5c0,17.4,20.7,31.5,46.1,31.5c25.5,0,46.2-14.1,46.2-31.5
		C112.7,85.1,92.1,71,66.6,71z M55.4,100.1c-5,0-8.9-1.5-8.9-3.6c0-2,4-3.6,8.9-3.6c5,0,9,1.6,9,3.6
		C64.3,98.6,60.3,100.1,55.4,100.1z"/>
	<path class="st5" d="M120.4,52.9c7.9-11.4,7.3-25.5-1.3-31.4c-8.6-5.9-22-1.5-29.8,10C81.4,42.9,82,57,90.7,62.9
		C99.2,68.8,112.6,64.3,120.4,52.9"/>
	<polygon class="st5" points="26.6,54.9 49.6,54.7 49.6,97.6 53.1,97.6 53.1,33.5 	"/>
	<path class="st5" d="M58,71.5c0,0,24.2-12,27.2-31.8c2,3.5,29.5,11.7,37.7,9.1c-5,9.9-14.7,29.7-14.1,56.9
		C103.7,80.2,83.8,75,58,71.5z"/>
</g>
<g>
	<text transform="matrix(1.1 0 0 1 -742.3167 602.0426)"><tspan x="0" y="0" style="font-family:'ArialNarrow-Bold'; font-size:38.549px;">Up to 12 hours</tspan><tspan x="12.3" y="37.9" style="font-family:'ArialNarrow-Bold'; font-size:38.549px;">in GPS mode</tspan></text>
</g>
<g>
	<path class="st4" d="M-639.2,454.8c0.5-3.2,0.5-3.2,3.7-3.2c1.3,0,2.6,0,4.3,0c0-1.6,0.1-3,0-4.4c-0.1-1.6,0.5-2.4,2.3-2.3
		c5.6,0.1,11.2,0.1,16.8,0c1.6,0,2.3,0.5,2.2,2.1c-0.1,1.4,0,2.9,0,4.6c1.6,0,2.9,0,4.3,0c3.8,0.1,3.1-0.2,3.7,3.2
		c2.5,0,5.1,0,7.7,0c3.3,0,4.6,1.3,4.6,4.6c0,33.7,0,67.4,0,101.2c0,3-1.4,4.4-4.3,4.4c-17.7,0-35.4,0-53.1,0c-3,0-4.4-1.4-4.4-4.4
		c0-33.8,0-67.6,0-101.4c0-3,1.4-4.3,4.4-4.4C-644.5,454.8-641.9,454.8-639.2,454.8z M-592.8,510.1c0-15.7,0-31.5,0-47.2
		c0-3.5-1.1-4.6-4.5-4.6c-15.5,0-31,0-46.6,0c-3.3,0-4.5,1.1-4.5,4.4c0,31.4,0,62.8,0,94.2c0,3.6,1.1,4.6,4.7,4.6
		c15.2,0,30.5,0,45.7,0c4.2,0,5.1-0.9,5.1-5.1C-592.8,541-592.8,525.6-592.8,510.1z"/>
	<path class="st4" d="M-620.8,557.8c-6.8,0-13.6,0-20.4,0c-3.1,0-4-0.9-4-4c0-4,0-8,0-12c0-2.5,1.3-3.7,3.7-3.7
		c13.9,0,27.8,0,41.7,0c2.7,0,3.8,1.1,3.8,3.8c0,4,0,8,0,12c0,2.9-1.1,3.9-4,3.9C-606.9,557.9-613.8,557.8-620.8,557.8z"/>
	<path class="st4" d="M-620.8,532.4c-6.8,0-13.6,0-20.4,0c-3.1,0-4-0.9-4-4c0-4,0-8,0-12c0-2.5,1.3-3.7,3.7-3.7
		c13.9,0,27.8,0,41.7,0c2.7,0,3.8,1.1,3.8,3.8c0,4,0,8,0,12c0,2.9-1.1,3.9-4,3.9C-606.9,532.4-613.8,532.4-620.8,532.4z"/>
	<path class="st4" d="M-620.8,481.6c-6.8,0-13.6,0-20.4,0c-3.1,0-4-0.9-4-4c0-4,0-8,0-12c0-2.5,1.3-3.7,3.7-3.7
		c13.9,0,27.8,0,41.7,0c2.7,0,3.8,1.1,3.8,3.8c0,4,0,8,0,12c0,2.9-1.1,3.9-4,3.9C-606.9,481.6-613.8,481.6-620.8,481.6z"/>
	<path class="st4" d="M-620.8,507c-6.8,0-13.6,0-20.4,0c-3.1,0-4-0.9-4-4c0-4,0-8,0-12c0-2.5,1.3-3.7,3.7-3.7c13.9,0,27.8,0,41.7,0
		c2.7,0,3.8,1.1,3.8,3.8c0,4,0,8,0,12c0,2.9-1.1,3.9-4,3.9C-606.9,507-613.8,507-620.8,507z"/>
</g>
<g>
	<text transform="matrix(1.1 0 0 1 -1149.0808 171.2208)"><tspan x="0" y="0" style="font-family:'ArialNarrow-Bold'; font-size:38.549px;">Distance to Front/</tspan><tspan x="-27.3" y="37.9" style="font-family:'ArialNarrow-Bold'; font-size:38.549px;">Center/Back of Green</tspan></text>
</g>
<g>
	<text transform="matrix(1.1 0 0 1 -1117.2156 620.9908)" style="font-family:'ArialNarrow-Bold'; font-size:38.549px;">Shot Distance</text>
</g>
<g>
	<path class="st4" d="M-1019.9,564.3c0,11.3-9.1,20.4-20.4,20.4c-11.3,0-20.4-9.1-20.4-20.4c0-11.3,9.1-20.4,20.4-20.4
		C-1029.1,543.9-1019.9,553-1019.9,564.3z"/>
	<polygon class="st4" points="-1014,531 -1001.8,538.5 -952.1,495 -956.5,492.9 -944.5,490 -941.9,499.5 -946,498 -984,548.8 
		-967.9,557.7 -1019.9,567.7 	"/>
	<path class="st4" d="M-1026.7,551.9c0,0-20.7-44.6,18.7-64.9c0,0,29.4-15.4,61.7,1.7c0,0-30.6-26.4-77.6-2.9c0,0-37.5,17.6-35.6,71
		l7.9-3c0,0-7.4-47.5,42.7-70.4c0,0,14.6-7.5,39-3.6c0,0-57.8-5.6-66.3,39.4c0,0-4.2,19.8,3,35.5L-1026.7,551.9z"/>
</g>
<g>
	<polygon class="st2" points="-577.1,1547.5 -592,1572 -592,1591.3 -559.4,1595.7 -544.8,1589.1 -550.6,1559.5 	"/>
	<polygon class="st6" points="-568.2,1557.6 -560.7,1566.9 -561.6,1580.5 -574.4,1589.8 -559.2,1590.6 -550.6,1582.7 -554.8,1565.6 
			"/>
	<polygon class="st2" points="-626.7,1543.8 -637.2,1554.2 -629.3,1564.6 -610.5,1565.4 -605.2,1559.8 -614.2,1539.9 	"/>
	<polygon class="st2" points="-591.2,1503.3 -579.7,1491.3 -582.4,1489.6 -609.5,1493.6 -628.8,1487.7 -638.8,1504.8 -640.5,1514.8 
		-631.5,1511.9 -628.3,1513.8 -618.3,1534.4 -613.5,1533.3 -610.1,1534.4 -608.6,1537.5 -602.5,1516.3 -602.5,1504.3 -616.1,1505.2 
		-625.9,1496.2 -615.1,1500.9 -600,1498.2 	"/>
	<polygon class="st2" points="-633.8,1518.7 -654.8,1525.8 -660.4,1552.6 -645,1553.9 -630.3,1539 	"/>
	<polygon class="st2" points="-658.6,1591.7 -638.7,1601.6 -615.9,1586.6 -625.8,1574.7 -646.8,1574.9 	"/>
	<polygon class="st2" points="-514.5,1538.7 -524.7,1503.5 -563.9,1483.8 -595.9,1516.5 -605.2,1545.4 -599,1557.8 -592,1561 
		-581,1542.6 -577.5,1541.4 -556,1550.4 -550.1,1546.3 -548.4,1531.2 -544.3,1549.3 -547.9,1553.7 -545.3,1556.3 -542.4,1567.8 
		-522.5,1563.6 -511.5,1555.4 	"/>
	<polygon class="st6" points="-545.4,1500 -559.1,1502.9 -537.2,1523.1 -528.9,1542.9 -529.6,1522 	"/>
</g>
<g>
	<ellipse class="st2" cx="-586.3" cy="1754.9" rx="74.2" ry="27.1"/>
	<g>
		<g>
			<g>
				<g>
					<path class="st6" d="M-585.1,1717.1c0,23.4-15.8,42.5-35.2,42.5c-19.5,0-35.2-19-35.2-42.5c0-23.4,35.2-59.8,35.2-59.8
						S-585.1,1693.7-585.1,1717.1z"/>
				</g>
			</g>
			<g>
				<g>
					<path class="st6" d="M-624,1746.3c-2.9,0.4-5.8-0.1-8.6-1.1c-2.8-1-5.5-2.6-7.9-4.9c-2.3-2.3-4.3-5.4-5.2-9
						c-1-3.5-0.9-7.3,0.1-10.6c0.5,3.4,1.3,6.6,2.5,9.3c1.3,2.7,2.9,5,4.9,6.9C-634.2,1740.9-629.2,1743.5-624,1746.3z"/>
				</g>
			</g>
		</g>
		<g>
			<g>
				<g>
					<path class="st2" d="M-594.3,1718.1c0,17.3-11.6,31.4-26,31.4c-14.4,0-26-14-26-31.4c0-17.3,26-44.2,26-44.2
						S-594.3,1700.8-594.3,1718.1z"/>
				</g>
			</g>
			<g>
				<g>
					<path class="st6" d="M-623,1739.7c-2.1,0.3-4.3-0.1-6.4-0.8c-2.1-0.7-4.1-1.9-5.8-3.6c-1.7-1.7-3.2-4-3.9-6.6
						c-0.7-2.6-0.7-5.4,0.1-7.8c0.4,2.5,0.9,4.8,1.9,6.8c0.9,2,2.2,3.7,3.7,5.1C-630.5,1735.7-626.9,1737.6-623,1739.7z"/>
				</g>
			</g>
		</g>
	</g>
</g>
<g>
	<g>
		<path class="st2" d="M-585.9,1397.1c25.3,0,50.5,0,75.8,0c-6.2-11-12.3-22-18.5-33c-2.7-4.7-5.4-9.3-8-14.2
			c-2.8-5.2-5.6-11.9-10-12.8c-4.6-1-8.7,4.2-11.7,9.7C-570.1,1369-585.9,1397.1-585.9,1397.1z"/>
		<path class="st6" d="M-637.3,1397.1c33.6,0,67.3,0,100.9,0c-8.2-14.6-16.4-29.3-24.6-44c-3.5-6.3-7.2-12.4-10.6-18.9
			c-3.7-6.9-7.4-15.8-13.3-17c-6.2-1.3-11.6,5.5-15.6,12.9C-616.3,1359.6-637.3,1397.1-637.3,1397.1z"/>
		<path class="st2" d="M-644.8,1397.1c33.6,0,67.3,0,100.9,0c-8.2-14.6-16.4-29.3-24.6-44c-3.5-6.3-7.2-12.4-10.6-18.9
			c-3.7-6.9-7.4-15.8-13.3-17c-6.2-1.3-11.6,5.5-15.6,12.9C-623.8,1359.6-644.8,1397.1-644.8,1397.1z"/>
	</g>
	<path class="st2" d="M-664.3,1397.1c19,0,38,0,57,0c-4.6-8.3-9.3-16.6-13.9-25c-2-3.6-4.1-7-6-10.7c-2.1-3.9-4.2-9-7.5-9.7
		c-3.5-0.7-6.6,3.1-8.8,7.3C-652.4,1375.8-664.3,1397.1-664.3,1397.1z"/>
</g>
<g>
	<path class="st4" d="M-881.8,288.5c-10.4-9.8-26.6-12.9-33.8-9.3c-8.3,4.1-14.5,12.8-23.2,12.7c0,0-19.8-1.6-29.3,0.2
		c-12.4,2.2-22.9,6.3-22.5,29.9c0,14.4,10.9,19.9,23.7,25.1c9.4,3.8,14.8,8,38.2,9.4c23.4,1.5,42.5-8.8,52.1-26
		C-872.4,322.5-870.7,299.1-881.8,288.5z M-886.9,302.7v4.2h-2.6v2.7h-4.1v-2.7h-2.6v-4.2h2.6V300h4.1v2.7H-886.9z M-896.4,321.5
		v-4.2h2.6v-2.7h4.1v2.7h2.6v4.2h-2.6v2.7h-4.1v-2.7H-896.4z M-900.2,286.5h2.6v-2.7h4.1v2.7h2.6v4.2h-2.6v2.7h-4.1v-2.7h-2.6V286.5
		z M-906.8,328.7v-4.2h2.6v-2.7h4.1v2.7h2.6v4.2h-2.6v2.7h-4.1v-2.7H-906.8z M-898.5,310.3v4.2h-2.6v2.7h-4.1v-2.7h-2.6v-4.2h2.6
		v-2.7h4.1v2.7H-898.5z M-908.9,297h2.6v-2.7h4.1v2.7h2.6v4.2h-2.6v2.7h-4.1v-2.7h-2.6V297z M-910.1,305.3v4.2h-2.6v2.7h-4.1v-2.7
		h-2.6v-4.2h2.6v-2.7h4.1v2.7H-910.1z M-919.9,323.3v-4.2h2.6v-2.7h4.1v2.7h2.6v4.2h-2.6v2.7h-4.1v-2.7H-919.9z M-922.2,291.3h2.6
		v-2.7h4.1v2.7h2.6v4.2h-2.6v2.7h-4.1v-2.7h-2.6V291.3z M-931.3,301.1h2.6v-2.7h4.1v2.7h2.6v4.2h-2.6v2.7h-4.1v-2.7h-2.6V301.1z
		 M-932.1,313.8h2.6v-2.7h4.1v2.7h2.6v4.2h-2.6v2.7h-4.1V318h-2.6V313.8z M-943.6,325.5v-4.2h2.6v-2.7h4.1v2.7h2.6v4.2h-2.6v2.7
		h-4.1v-2.7H-943.6z M-944.2,307.3h2.6v-2.7h4.1v2.7h2.6v4.2h-2.6v2.7h-4.1v-2.7h-2.6V307.3z M-944.6,316.9v4.2h-2.6v2.7h-4.1v-2.7
		h-2.6v-4.2h2.6v-2.7h4.1v2.7H-944.6z M-956.9,303.3h2.6v-2.7h4.1v2.7h2.6v4.2h-2.6v2.7h-4.1v-2.7h-2.6V303.3z M-955.6,312.7v4.2
		h-2.6v2.7h-4.1v-2.7h-2.6v-4.2h2.6V310h4.1v2.7H-955.6z M-967.9,298.1h2.6v-2.7h4.1v2.7h2.6v4.2h-2.6v2.7h-4.1v-2.7h-2.6V298.1z
		 M-976,307.7h2.6V305h4.1v2.7h2.6v4.2h-2.6v2.7h-4.1v-2.7h-2.6V307.7z M-974.9,320.6h-2.6v2.7h-4.1v-2.7h-2.6v-4.2h2.6v-2.7h4.1
		v2.7h2.6V320.6z M-974.3,321.9h2.6v-2.7h4.1v2.7h2.6v4.2h-2.6v2.7h-4.1v-2.7h-2.6V321.9z M-962.8,339.2h-2.6v2.7h-4.1v-2.7h-2.6
		V335h2.6v-2.7h4.1v2.7h2.6V339.2z M-962.6,329.8v-4.2h2.6v-2.7h4.1v2.7h2.6v4.2h-2.6v2.7h-4.1v-2.7H-962.6z M-950.4,343.8h-2.6v2.7
		h-4.1v-2.7h-2.6v-4.2h2.6v-2.7h4.1v2.7h2.6V343.8z M-951.6,334.9v-4.2h2.6V328h4.1v2.7h2.6v4.2h-2.6v2.7h-4.1v-2.7H-951.6z
		 M-936.6,346.5h-2.6v2.7h-4.1v-2.7h-2.6v-4.2h2.6v-2.7h4.1v2.7h2.6V346.5z M-929,338.4h-2.6v2.7h-4.1v-2.7h-2.6v-4.2h2.6v-2.7h4.1
		v2.7h2.6V338.4z M-929.8,330.3v-4.2h2.6v-2.7h4.1v2.7h2.6v4.2h-2.6v2.7h-4.1v-2.7H-929.8z M-918.2,345.4h-2.6v2.7h-4.1v-2.7h-2.6
		v-4.2h2.6v-2.7h4.1v2.7h2.6V345.4z M-918.4,336.6v-4.2h2.6v-2.7h4.1v2.7h2.6v4.2h-2.6v2.7h-4.1v-2.7H-918.4z M-905.7,347.6h-2.6
		v2.7h-4.1v-2.7h-2.6v-4.2h2.6v-2.7h4.1v2.7h2.6V347.6z M-895.5,341.9h-2.6v2.7h-4.1v-2.7h-2.6v-4.2h2.6V335h4.1v2.7h2.6V341.9z
		 M-885.6,336h-2.6v2.7h-4.1V336h-2.6v-4.2h2.6v-2.7h4.1v2.7h2.6V336z"/>
	<g>
		<defs>
			<rect id="SVGID_3_" x="-1114" y="281.6" width="103.8" height="71.1"/>
		</defs>
		<clipPath id="SVGID_4_">
			<use xlink:href="#SVGID_3_"  style="overflow:visible;"/>
		</clipPath>
		<g class="st7">
			<path class="st8" d="M-1134.3,291c0,0,14,18.9,35.8-0.9v0c0,0,14.5,21.3,35,0.4c0,0,16.2,19.6,35.8-0.5v0v0
				c0,0,16.1,20.5,35.8,2.3"/>
			<path class="st8" d="M-1134.3,312.8c0,0,14,18.9,35.8-0.9v0c0,0,14.5,21.3,35,0.4c0,0,16.2,19.6,35.8-0.5v0v0
				c0,0,16.1,20.5,35.8,2.3"/>
			<path class="st8" d="M-1134.3,334.5c0,0,14,18.9,35.8-0.9v0c0,0,14.5,21.3,35,0.4c0,0,16.2,19.6,35.8-0.5v0v0
				c0,0,16.1,20.5,35.8,2.3"/>
		</g>
	</g>
</g>
<g>
	<text transform="matrix(1.1 0 0 1 -702.6877 405.5797)" style="font-family:'ArialNarrow-Bold'; font-size:38.549px;">Auto Hole</text>
</g>
<g>
	<path class="st4" d="M-690.4,335.8c-0.2,0-0.3,0-0.4,0v-28.9l53.8-24.6l-53.8-21.1v-2.9h-7.5v52v26.3c-9.7,1.8-16.7,6.6-16.7,12.4
		c0,7.3,11,13.2,24.7,13.2c13.6,0,24.7-5.9,24.7-13.2C-665.7,341.7-676.8,335.8-690.4,335.8z M-687.3,271.3h5.3h5v23.9h-5v-19.4
		h-5.3V271.3z"/>
	<path class="st4" d="M-579.5,339c-0.2,0-0.3,0-0.4,0v-28.9l53.8-24.6l-53.8-21.1v-2.9h-7.5v52v26.3c-9.7,1.8-16.7,6.6-16.7,12.4
		c0,7.3,11,13.2,24.7,13.2c13.6,0,24.7-5.9,24.7-13.2C-554.9,344.9-565.9,339-579.5,339z M-582.6,293.9c0-4.7,3.2-7.7,9.7-8.9
		c5.3-1,8-2.2,8-3.6c0-0.2,0-0.4,0-0.5c0-1.2-0.6-1.9-1.9-1.9c-2.1,0-3.5,0-4.3,0c-0.9,0-2.3,0-4.4,0c-1.2,0-1.9,1.1-1.9,3.2
		c0,0.3,0,0.5,0,0.8h-4.9c0-0.6,0-1.2,0-1.7c0-4.6,2.2-6.9,6.7-6.9c1.5,0,3,0,4.5,0c1.5,0,2.9,0,4.4,0c4.5,0,6.7,1.8,6.7,5.5
		c0,0.5,0,0.9,0,1.4c0,3.7-3.2,6.2-9.6,7.5c-5.4,1.1-8,2.7-8,5h17.9v4.5h-22.8V293.9z"/>
	<g>
		<rect x="-633.4" y="291.3" class="st4" width="15.8" height="24.9"/>
		<polygon class="st4" points="-601.1,303.7 -621.7,329.8 -621.7,277.7 		"/>
	</g>
</g>
<rect x="-1223" y="-158.9" style="fill:none;" width="794.2" height="118"/>
<text transform="matrix(1.0098 0 0 1 -1222.9723 -132.1844)"><tspan x="0" y="0" class="st2" style="font-family:'Calibri'; font-size:34px;">Support more than 38000 courses around the world. </tspan><tspan x="0" y="40.8" class="st2" style="font-family:'Calibri'; font-size:34px;">Quickly gets your location by high sensitivity GPS,  to </tspan><tspan x="0" y="81.6" class="st2" style="font-family:'Calibri'; font-size:34px;">recognize Golf course nearby.</tspan></text>
<g>
	<path class="st9" d="M273.6,11.8c1.3,0.4,2.2,1.3,3.1,2.2c8.6,8.3,17.3,16.6,25.9,24.8c1.2,1.2,1.8,2.5,1.8,4.1
		c0,30.3,0,60.6,0,90.9c0,2.7-1.7,4.4-4.4,4.4c-29.1,0-58.2,0-87.2,0c-2.8,0-4.4-1.7-4.4-4.5c0-17.3,0-34.6,0-51.8c0-3.5,0-7,0-10.5
		c0-0.3,0-0.6,0-0.8c0.1-0.1,0.2-0.1,0.3-0.2c0.5,0.6,0.9,1.2,1.5,1.7c1.9,1.9,3.8,3.9,5.8,5.7c0.4,0.4,0.6,0.9,0.6,1.5
		c0,16.6,0,33.2,0,49.9c0,0.3,0,0.6,0,1c26.6,0,53.2,0,79.8,0c0-27.9,0-55.8,0-83.8c-0.3,0-0.7,0-1,0c-7.3,0-14.6,0-21.9,0
		c-2.9,0-4.5-1.6-4.5-4.5c0-6.9,0-13.9,0-20.8c0-0.3,0-0.6,0-1c-17.5,0-34.9,0-52.4,0c0,5.3,0,10.5,0,16c-0.3-0.3-0.5-0.4-0.6-0.5
		c-2.4-2.4-4.7-4.7-7.1-7.1c-0.3-0.3-0.4-0.7-0.4-1.1c0-3.4,0-6.9,0-10.3c0-3,0.6-3.9,3.3-5.1C232.3,11.8,253,11.8,273.6,11.8z
		 M276.9,38.1c4.4,0,8.7,0,13.2,0c-4.4-4.2-8.7-8.4-13.2-12.6C276.9,29.8,276.9,33.9,276.9,38.1z"/>
	<path class="st9" d="M185.6,40.7c0.6-0.7,1-1.6,1.7-2.2c3.6-3.6,7.2-7.2,10.8-10.8c1.6-1.6,3.3-1.6,4.9,0c2.2,2.2,4.4,4.4,6.5,6.5
		c0.1,0.1,0.3,0.3,0.4,0.4c-5.4,5.4-10.8,10.8-16.3,16.3c-2.1-2.1-4.2-4.2-6.3-6.4c-0.7-0.7-1.2-1.6-1.8-2.3
		C185.6,41.7,185.6,41.2,185.6,40.7z"/>
	<path class="st9" d="M195.8,52.7c5.3-5.3,10.7-10.7,16-16.1c19.4,19.4,38.7,38.8,58.1,58.2c-5.3,5.3-10.7,10.7-16,16.1
		C234.6,91.5,215.2,72.1,195.8,52.7z"/>
	<path class="st9" d="M247.5,67c1.4,0,2.7,0,4,0c10.3,0,20.6,0,30.9,0c2.2,0,3.7,1.2,4.2,3.3c0.5,2.4-1.3,4.7-3.8,4.8
		c-2.3,0.1-4.5,0-6.8,0c-6.6,0-13.3,0-19.9,0c-0.3,0-0.7-0.1-0.9-0.3c-2.5-2.4-5-4.9-7.5-7.4C247.7,67.2,247.7,67.2,247.5,67z"/>
	<path class="st9" d="M256,112.9c5.4-5.4,10.7-10.7,16.1-16.1c0.6,2,1.1,4.1,1.7,6.2c1.2,4.4,2.4,8.7,3.6,13.1
		c0.5,1.7-0.5,2.6-2.1,2.2c-6.4-1.7-12.7-3.5-19.1-5.2C256.1,113,256.1,113,256,112.9z"/>
	<path class="st9" d="M262.8,82.2c0.2,0,0.3,0,0.4,0c6.5,0,12.9,0,19.4,0c1.9,0,3.5,1.3,3.9,3c0.5,1.8-0.3,3.7-2,4.5
		c-0.6,0.3-1.3,0.5-2,0.5c-3.8,0-7.6,0-11.4,0c-0.3,0-0.6-0.1-0.8-0.3c-2.5-2.5-5-4.9-7.4-7.4C262.9,82.4,262.9,82.3,262.8,82.2z"/>
</g>
<g>
	<path d="M472.4,72.5c-10.4-9.8-26.6-12.9-33.8-9.3c-8.3,4.1-14.5,12.8-23.2,12.7c0,0-19.8-1.6-29.3,0.2
		c-12.4,2.2-22.9,6.3-22.5,29.9c0,14.4,10.9,19.9,23.7,25.1c9.4,3.8,14.8,8,38.2,9.4c23.4,1.5,42.5-8.8,52.1-26
		C481.9,106.4,483.6,83,472.4,72.5z M467.4,86.6v4.2h-2.6v2.7h-4.1v-2.7h-2.6v-4.2h2.6v-2.7h4.1v2.7H467.4z M457.8,105.5v-4.2h2.6
		v-2.7h4.1v2.7h2.6v4.2h-2.6v2.7h-4.1v-2.7H457.8z M454,70.4h2.6v-2.7h4.1v2.7h2.6v4.2h-2.6v2.7h-4.1v-2.7H454V70.4z M447.5,112.7
		v-4.2h2.6v-2.7h4.1v2.7h2.6v4.2h-2.6v2.7h-4.1v-2.7H447.5z M455.7,94.3v4.2h-2.6v2.7H449v-2.7h-2.6v-4.2h2.6v-2.7h4.1v2.7H455.7z
		 M445.4,80.9h2.6v-2.7h4.1v2.7h2.6v4.2H452v2.7H448v-2.7h-2.6V80.9z M444.1,89.2v4.2h-2.6v2.7h-4.1v-2.7h-2.6v-4.2h2.6v-2.7h4.1
		v2.7H444.1z M434.4,107.2V103h2.6v-2.7h4.1v2.7h2.6v4.2H441v2.7H437v-2.7H434.4z M432,75.2h2.6v-2.7h4.1v2.7h2.6v4.2h-2.6v2.7h-4.1
		v-2.7H432V75.2z M422.9,85.1h2.6v-2.7h4.1v2.7h2.6v4.2h-2.6V92h-4.1v-2.7h-2.6V85.1z M422.1,97.8h2.6v-2.7h4.1v2.7h2.6v4.2h-2.6
		v2.7h-4.1V102h-2.6V97.8z M410.7,109.4v-4.2h2.6v-2.7h4.1v2.7h2.6v4.2h-2.6v2.7h-4.1v-2.7H410.7z M410,91.2h2.6v-2.7h4.1v2.7h2.6
		v4.2h-2.6v2.7h-4.1v-2.7H410V91.2z M409.6,100.8v4.2H407v2.7h-4.1V105h-2.6v-4.2h2.6v-2.7h4.1v2.7H409.6z M397.3,87.3h2.6v-2.7h4.1
		v2.7h2.6v4.2H404v2.7h-4.1v-2.7h-2.6V87.3z M398.6,96.7v4.2H396v2.7h-4.1v-2.7h-2.6v-4.2h2.6V94h4.1v2.7H398.6z M386.3,82h2.6v-2.7
		h4.1V82h2.6v4.2H393v2.7h-4.1v-2.7h-2.6V82z M378.3,91.6h2.6v-2.7h4.1v2.7h2.6v4.2h-2.6v2.7h-4.1v-2.7h-2.6V91.6z M379.3,104.6
		h-2.6v2.7h-4.1v-2.7H370v-4.2h2.6v-2.7h4.1v2.7h2.6V104.6z M379.9,105.9h2.6v-2.7h4.1v2.7h2.6v4.2h-2.6v2.7h-4.1v-2.7h-2.6V105.9z
		 M391.4,123.2h-2.6v2.7h-4.1v-2.7h-2.6V119h2.6v-2.7h4.1v2.7h2.6V123.2z M391.6,113.8v-4.2h2.6v-2.7h4.1v2.7h2.6v4.2h-2.6v2.7h-4.1
		v-2.7H391.6z M403.9,127.8h-2.6v2.7h-4.1v-2.7h-2.6v-4.2h2.6v-2.7h4.1v2.7h2.6V127.8z M402.6,118.8v-4.2h2.6v-2.7h4.1v2.7h2.6v4.2
		h-2.6v2.7h-4.1v-2.7H402.6z M417.6,130.4H415v2.7H411v-2.7h-2.6v-4.2h2.6v-2.7h4.1v2.7h2.6V130.4z M425.3,122.3h-2.6v2.7h-4.1v-2.7
		h-2.6v-4.2h2.6v-2.7h4.1v2.7h2.6V122.3z M424.4,114.2V110h2.6v-2.7h4.1v2.7h2.6v4.2h-2.6v2.7H427v-2.7H424.4z M436,129.3h-2.6v2.7
		h-4.1v-2.7h-2.6v-4.2h2.6v-2.7h4.1v2.7h2.6V129.3z M435.8,120.6v-4.2h2.6v-2.7h4.1v2.7h2.6v4.2h-2.6v2.7h-4.1v-2.7H435.8z
		 M448.5,131.5h-2.6v2.7h-4.1v-2.7h-2.6v-4.2h2.6v-2.7h4.1v2.7h2.6V131.5z M458.7,125.8h-2.6v2.7H452v-2.7h-2.6v-4.2h2.6v-2.7h4.1
		v2.7h2.6V125.8z M468.6,119.9H466v2.7H462v-2.7h-2.6v-4.2h2.6V113h4.1v2.7h2.6V119.9z"/>
	<g>
		<defs>
			<rect id="SVGID_5_" x="355.1" y="12.4" width="74" height="50.7"/>
		</defs>
		<clipPath id="SVGID_6_">
			<use xlink:href="#SVGID_5_"  style="overflow:visible;"/>
		</clipPath>
		<g class="st10">
			<path class="st11" d="M340.6,19.1c0,0,10,13.5,25.5-0.6v0c0,0,10.3,15.2,24.9,0.3c0,0,11.6,14,25.5-0.4v0v0
				c0,0,11.4,14.6,25.6,1.6"/>
			<path class="st11" d="M340.6,34.6c0,0,10,13.5,25.5-0.6v0c0,0,10.3,15.2,24.9,0.3c0,0,11.6,14,25.5-0.4v0v0
				c0,0,11.4,14.6,25.6,1.6"/>
			<path class="st11" d="M340.6,50c0,0,10,13.5,25.5-0.6v0c0,0,10.3,15.2,24.9,0.3c0,0,11.6,14,25.5-0.4v0v0c0,0,11.4,14.6,25.6,1.6
				"/>
		</g>
	</g>
</g>
<g>
	<path class="st9" d="M26.1,289.3c-0.1,0-0.3,0-0.4,0V259l40-25.9l-40-21.8v-3.1h-7.2v54.3V290c-9.3,1.9-16,6.9-16,13
		c0,7.6,10.6,13.8,23.6,13.8s23.6-6.2,23.6-13.8C49.7,295.4,39.1,289.3,26.1,289.3z M29.1,223.9h5h4.8v22.9h-4.8v-18.6h-5V223.9z"/>
	<path class="st9" d="M107.9,289.3c-0.1,0-0.3,0-0.4,0V259l40-25.9l-40-21.8v-3.1h-7.2v54.3V290c-9.3,1.9-16,6.9-16,13
		c0,7.6,10.6,13.8,23.6,13.8s23.6-6.2,23.6-13.8C131.5,295.4,121,289.3,107.9,289.3z M107.3,241.5c0-4.5,2.3-7.4,6.9-8.5
		c3.8-0.9,5.7-2.1,5.7-3.4c0-0.2,0-0.3,0-0.5c0-1.2-0.4-1.8-1.3-1.8c-1.5,0-2.5,0-3.1,0c-0.6,0-1.7,0-3.1,0c-0.9,0-1.3,1.1-1.3,3.1
		c0,0.3,0,0.5,0,0.8h-3.5c0-0.6,0-1.1,0-1.7c0-4.4,1.6-6.6,4.8-6.6c1.1,0,2.1,0,3.2,0c1,0,2.1,0,3.2,0c3.2,0,4.8,1.8,4.8,5.3
		c0,0.4,0,0.9,0,1.3c0,3.6-2.3,6-6.9,7.2c-3.8,1-5.7,2.6-5.7,4.8h12.8v4.4h-16.3V241.5z"/>
	<g>
		<rect x="58" y="260.8" class="st9" width="15.1" height="13.7"/>
		<polygon class="st9" points="88.9,267.6 69.2,282 69.2,253.3 		"/>
	</g>
</g>
<g>
	<path class="st9" d="M225.6,295.2c0,11.7-9.5,21.2-21.2,21.2c-11.7,0-21.2-9.5-21.2-21.2c0-11.7,9.5-21.2,21.2-21.2
		C216.1,274,225.6,283.5,225.6,295.2z"/>
	<polygon class="st9" points="231.8,260.5 244.5,268.4 296.1,223.1 291.6,220.9 304.1,217.9 306.8,227.8 302.4,226.2 262.9,279.1 
		279.7,288.3 225.6,298.7 	"/>
	<path class="st9" d="M218.5,282.3c0,0-21.5-46.4,19.5-67.5c0,0,30.6-16,64.2,1.7c0,0-31.8-27.4-80.7-3c0,0-38.9,18.3-37,73.9
		l8.2-3.2c0,0-7.7-49.4,44.4-73.2c0,0,15.1-7.8,40.5-3.8c0,0-60.1-5.8-68.9,40.9c0,0-4.3,20.6,3.1,36.9L218.5,282.3z"/>
</g>
<g>
	<path d="M396.1,209.9c0.6-3.3,0.6-3.3,3.8-3.3c1.3,0,2.6,0,4.4,0c0-1.6,0.1-3,0-4.4c-0.1-1.7,0.5-2.4,2.3-2.4
		c5.7,0.1,11.3,0.1,17,0c1.6,0,2.3,0.5,2.2,2.2c-0.1,1.5,0,2.9,0,4.6c1.6,0,3,0,4.4,0c3.9,0.1,3.2-0.2,3.7,3.3c2.6,0,5.2,0,7.8,0
		c3.3,0,4.7,1.4,4.7,4.7c0,34.2,0,68.5,0,102.7c0,3-1.4,4.5-4.4,4.5c-18,0-35.9,0-53.9,0c-3.1,0-4.4-1.4-4.4-4.5
		c0-34.3,0-68.6,0-103c0-3,1.4-4.4,4.4-4.4C390.7,209.9,393.4,209.9,396.1,209.9z M443.2,266.1c0-16,0-32,0-47.9
		c0-3.5-1.1-4.7-4.6-4.7c-15.8,0-31.5,0-47.3,0c-3.4,0-4.5,1.2-4.5,4.5c0,31.9,0,63.8,0,95.7c0,3.6,1.1,4.7,4.8,4.7
		c15.5,0,30.9,0,46.4,0c4.3,0,5.2-0.9,5.2-5.1C443.2,297.4,443.2,281.7,443.2,266.1z"/>
	<path d="M414.8,314.5c-6.9,0-13.8,0-20.8,0c-3.1,0-4.1-0.9-4.1-4.1c0-4,0-8.1,0-12.1c0-2.5,1.3-3.7,3.8-3.7c14.1,0,28.3,0,42.4,0
		c2.8,0,3.9,1.1,3.9,3.9c0,4,0,8.1,0,12.1c0,2.9-1.1,3.9-4,4C428.9,314.5,421.9,314.5,414.8,314.5z"/>
	<path d="M414.8,288.7c-6.9,0-13.8,0-20.8,0c-3.1,0-4.1-0.9-4.1-4.1c0-4,0-8.1,0-12.1c0-2.5,1.3-3.7,3.8-3.7c14.1,0,28.3,0,42.4,0
		c2.8,0,3.9,1.1,3.9,3.9c0,4,0,8.1,0,12.1c0,2.9-1.1,3.9-4,4C428.9,288.7,421.9,288.7,414.8,288.7z"/>
	<path d="M414.8,237.1c-6.9,0-13.8,0-20.8,0c-3.1,0-4.1-0.9-4.1-4.1c0-4,0-8.1,0-12.1c0-2.5,1.3-3.7,3.8-3.7c14.1,0,28.3,0,42.4,0
		c2.8,0,3.9,1.1,3.9,3.9c0,4,0,8.1,0,12.1c0,2.9-1.1,3.9-4,4C428.9,237.1,421.9,237.1,414.8,237.1z"/>
	<path d="M414.8,262.9c-6.9,0-13.8,0-20.8,0c-3.1,0-4.1-0.9-4.1-4.1c0-4,0-8.1,0-12.1c0-2.5,1.3-3.7,3.8-3.7c14.1,0,28.3,0,42.4,0
		c2.8,0,3.9,1.1,3.9,3.9c0,4,0,8.1,0,12.1c0,2.9-1.1,3.9-4,4C428.9,262.9,421.9,262.9,414.8,262.9z"/>
</g>
</svg>
