<?xml version="1.0" encoding="utf-8"?>
<!-- Generator: Adobe Illustrator 25.2.3, SVG Export Plug-In . SVG Version: 6.00 Build 0)  -->
<svg version="1.1" id="圖層_1" xmlns="http://www.w3.org/2000/svg" xmlns:xlink="http://www.w3.org/1999/xlink" x="0px" y="0px"
	 viewBox="0 0 150 150" style="enable-background:new 0 0 150 150;" xml:space="preserve">
<style type="text/css">
	.st0{fill:#89B829;}
	.st1{fill:#DD5519;}
	.st2{fill:#FFFFFF;}
	.st3{opacity:0.78;fill:#FFF000;}
	.st4{fill:#004212;}
	.st5{fill:#111111;}
	.st6{fill:#060001;}
	.st7{clip-path:url(#SVGID_4_);}
	.st8{fill:none;stroke:#004212;stroke-width:7.1711;stroke-linecap:round;stroke-linejoin:round;stroke-miterlimit:10;}
	.st9{clip-path:url(#SVGID_6_);}
	.st10{fill:none;stroke:#111111;stroke-width:5;stroke-linecap:round;stroke-linejoin:round;stroke-miterlimit:10;}
</style>
<g>
	<defs>
		<rect id="SVGID_1_" x="-1330.9" y="-481.7" width="1000" height="1000"/>
	</defs>
	<clipPath id="SVGID_2_">
		<use xlink:href="#SVGID_1_"  style="overflow:visible;"/>
	</clipPath>
	<g style="clip-path:url(#SVGID_2_);">
		
			<image style="overflow:visible;" width="3264" height="2448" xlink:href="38714E39.jpg"  transform="matrix(0.8271 0 0 0.8271 -1333.5422 -1032.7037)">
		</image>
	</g>
</g>
<g>
	<g>
		<polygon class="st0" points="-1209.5,760.4 -1207,759.4 -1205.7,759.4 -1204.1,758.7 -1204.1,757.1 -1203.1,756.7 -1204.7,756 
			-1205.8,755.6 -1205.8,754.5 -1210,752.8 -1210.1,752.8 -1212.1,753.6 -1212.1,754.9 -1215.5,754.9 -1215.5,756.5 -1214.4,756.9 
			-1214.4,757.7 -1216,758.3 -1216,759.3 -1213.2,760.4 		"/>
		<polygon class="st0" points="-1206.6,750.8 -1206.6,752.1 -1205.3,752.1 -1205.3,753.2 -1206.3,753.2 -1206.6,753.4 
			-1204.4,754.2 -1204.4,755.4 -1202.1,755.4 -1200.9,755.9 -1200.9,756.6 -1202.5,757.3 -1202.5,758.4 -1203.8,758.9 
			-1204.8,759.4 -1204.2,759.4 -1204.2,760.4 -1206.5,760.4 -1206.5,761.2 -1205.2,761.8 -1201.5,761.8 -1200.6,761.4 
			-1198.8,761.4 -1198.8,760.9 -1197,760.9 -1195.6,760.4 -1193.2,760.4 -1191.1,759.5 -1191.1,758.8 -1188.6,758.8 -1188.6,758 
			-1186.3,757 -1187.7,756.5 -1189.6,756.5 -1189.6,755.6 -1191.2,754.9 -1192.9,754.2 -1192.9,753.4 -1194.3,752.8 -1195.3,752.4 
			-1195.3,751.5 -1194.5,751.1 -1194.5,749.4 -1195.5,749 -1197.5,749 -1196.7,748.6 -1195.1,748 -1195.1,747.1 -1196.6,746.5 
			-1199.5,746.5 -1199.5,747.4 -1202.1,747.4 -1203.8,748.1 -1205.2,747.6 -1207.4,747.6 -1209.9,748.6 -1209.9,749.5 
			-1208.2,750.2 		"/>
		<polygon class="st0" points="-847.9,836.7 -850.6,835.6 -852.6,834.8 -852.6,833.6 -854.7,832.8 -856.3,832.8 -857.5,832.3 
			-861.1,830.8 -862.9,830.1 -862.9,828.5 -864.7,827.8 -864.7,826.7 -866.7,825.8 -869.7,824.7 -869.7,823.9 -870.7,823.5 
			-870.7,822.4 -872.6,822.4 -874.9,823.3 -874.9,825.5 -876.8,825.5 -876.8,829.2 -878.3,829.2 -880.6,828.2 -882.4,828.2 
			-883.5,827.8 -884.5,827.4 -885.9,826.8 -885.9,825.2 -884.4,824.6 -884.4,823.7 -890.6,823.7 -891.3,823.4 -894.4,823.4 
			-895.6,822.9 -897.2,822.9 -899.3,823.8 -900.5,824.3 -900.5,825.3 -903.2,826 -906.1,824.8 -911.2,826.9 -913.3,826.9 
			-914.2,827.2 -917.7,827.2 -919.6,828 -919.6,829.2 -921.6,830 -921.6,830.9 -925,830.9 -926.6,831.5 -930.6,831.5 -934.4,833.1 
			-938.1,833.1 -938.1,835 -939.9,835.8 -939.9,837 -939.9,838.6 -937.8,839.5 -937.8,840.3 -934.2,841.8 -934.2,842.8 
			-934.2,844.6 -935.4,845.1 -935.4,846.6 -933.7,847.2 -925.7,847.2 -923.8,846.5 -915.8,846.5 -911.7,844.8 -904.9,844.8 
			-902.7,843.9 -897.8,843.9 -896.4,844.5 -892,844.5 -890.6,845.1 -890.6,846.7 -887.8,847.8 -885.2,848.8 -883,848.8 -883,848.2 
			-879.4,848.2 -879.4,849.7 -877.1,850.6 -874.2,851.8 -871.3,851.8 -869,850.9 -867,850.9 -867,851.7 -863.5,851.7 -861.1,850.7 
			-856.3,850.7 -854.8,850.1 -854.8,847.8 -851.5,846.4 -851.5,845.3 -849.5,844.5 -849.5,843.4 -846.8,842.3 -846.8,838.2 
			-847.9,837.8 		"/>
		<polygon class="st0" points="-861,851.8 -862.4,852.4 -860.3,853.2 -862,853.9 -864.1,853.9 -866.2,853.1 -867.9,853.1 
			-868.9,853.5 -868.9,855.5 -867.5,856.1 -865.9,856.8 -865.9,857.7 -862.3,857.7 -861,857.1 -858.8,856.3 -858.8,855.4 
			-857,855.4 -857,854.3 -858.1,853.8 -856.7,853.3 -856.7,852.7 -859.4,851.6 		"/>
		<polygon class="st0" points="-793.7,849.9 -797.9,849.9 -797.9,849 -799.4,848.4 -799.4,846.8 -800.6,846.8 -802.5,846 
			-805.4,846 -806.8,846.6 -805.5,847.1 -805.5,848 -804.1,848 -804.1,849.1 -802.2,849.8 -802.2,850.6 -803.3,851.1 -803.3,852.5 
			-804.6,852.5 -806.3,853.2 -807.9,853.2 -807.9,854.2 -809.4,854.2 -809.4,854.9 -810.8,855.5 -813.4,856.6 -815.2,856.6 
			-815.2,857.3 -817.9,858.4 -818.8,858.8 -820.3,859.3 -820.3,860.1 -818.8,860.7 -816.4,860.7 -816.4,861.2 -811,861.2 
			-807.4,859.8 -807.4,858.9 -805.5,858.2 -803,858.2 -803,856.5 -802,856.1 -802,855.2 -798.1,855.2 -795.3,854 -795.3,853.2 
			-794.6,853.2 -794.6,852.4 -792.1,851.3 -790.6,851.3 -790.6,849.9 -790.6,849.1 -792.8,849.1 		"/>
		<polygon class="st0" points="-943.6,816.9 -935.8,816.9 -934.7,817.3 -931.8,817.3 -929.3,816.3 -929.3,815.1 -927.3,815.1 
			-927.3,813.6 -926.2,813.2 -924.9,812.7 -926.6,812 -926.6,810.1 -922.9,808.6 -925.2,807.7 -927.6,807.7 -928.6,807.3 
			-930.5,807.3 -935.2,809.1 -938.2,809.1 -940.1,809.9 -941.2,810.4 -943.6,811.4 -946.7,811.4 -948.6,812.1 -948.6,813.5 
			-946.3,814.5 -946.3,816 		"/>
		<polygon class="st0" points="-925.8,802.9 -929.8,804.5 -929.8,805.8 -929.8,806.6 -927.8,806.6 -927.8,805.8 -923.8,804.2 
			-921.1,805.3 -918.9,805.3 -921.2,806.2 -921.2,807.5 -922.3,807.9 -920.4,808.7 -918.2,808.7 -918.2,807.4 -915.3,806.2 
			-913.2,806.2 -913.2,807.4 -911.7,808 -908,808 -905.3,806.9 -907.4,806 -907.4,805.4 -909.5,804.6 -910.7,804.1 -910.7,802.1 
			-912.4,801.4 -915.2,801.4 -915.2,800.6 -918.7,799.2 -918.7,798 -920.9,797.1 -924.3,797.1 -927.3,798.4 -925,799.3 
			-926.6,799.3 -926.6,800.2 -924,801.3 -924,802.1 		"/>
		<polygon class="st0" points="-909.3,817.5 -907,817.5 -906,817.1 -901,817.1 -898.8,818 -896.3,816.9 -896.3,815.9 -894.7,816.6 
			-894.7,817.4 -889.9,817.4 -889.9,818.5 -892.1,818.5 -892.1,819.5 -893,819.5 -893,820.3 -891,821.1 -889,820.3 -889,819.3 
			-887.1,818.6 -885.7,818.6 -882.6,818.6 -882.6,819.8 -883.6,820.3 -883.6,821.8 -882.2,822.3 -880.6,821.7 -877.5,821.7 
			-875.9,821.7 -873.5,821.7 -870.4,820.4 -867.5,820.4 -865.2,821.3 -862,822.6 -859.7,822.6 -858,823.3 -853.5,823.3 
			-852.5,822.9 -854.7,822 -856.1,821.5 -860.5,819.7 -858.6,818.9 -857,819.6 -852.3,819.6 -849.4,818.4 -849.4,817.4 
			-847.9,817.4 -847.9,816.4 -848.7,816.1 -851.4,816.1 -852.7,816.6 -854.2,817.2 -858.3,817.2 -859.6,817.8 -862.4,817.8 
			-865.4,816.6 -868.6,816.6 -871.6,815.4 -873.3,815.4 -878.1,815.4 -880,814.6 -881.4,814.1 -883.2,814.8 -889,814.8 
			-891.7,813.7 -894.8,813.7 -898.3,813.7 -900.2,814.5 -902.8,814.5 -902.8,813.8 -901.3,813.2 -903.1,812.5 -903.1,811.2 
			-903.1,810.5 -906.3,810.5 -906.3,811.2 -907.9,811.8 -907.9,815.5 -909.2,815.5 -911.1,814.7 -912.4,814.7 -912.4,813.7 
			-909.4,812.5 -909.4,811.8 -913.3,811.8 -914.6,812.4 -918.1,812.4 -918.8,812 -922.4,812 -924.8,812.9 -924.8,814.8 
			-926.3,815.4 -926.3,816.7 -925.5,817 -925.5,819 -921.5,819 -921.5,818 -919.7,818 -919.7,818.9 -916.3,818.9 -914.8,818.3 
			-914.8,817.4 -916.6,816.6 -916.6,815.5 -914.6,815.5 -912.4,815.5 -910.6,816.3 -910.6,817 		"/>
		<polygon class="st0" points="-931,802.5 -933.7,801.5 -935.3,802.1 -935.3,803.1 -936.7,803.7 -936.7,804.2 -935.2,804.2 		"/>
		<polygon class="st0" points="-983.6,804.4 -983.6,803.4 -985.2,803.4 -985.2,801.3 -987,800.8 -989.4,801.8 -989.4,803.6 
			-988.4,804 -986.8,804.6 -986.8,805.7 -984.1,805.7 -982.3,804.9 		"/>
		<polygon class="st0" points="-899.5,820.1 -899.5,821.4 -898.4,821.8 -894.9,820.4 -897.5,819.3 		"/>
		<polygon class="st0" points="-820.4,824.3 -819,823.7 -821.4,822.7 -824.4,821.5 -824.4,820.7 -826.6,820.7 -828.2,821.4 
			-830.7,820.3 -831.9,819.8 -836.4,819.8 -836.4,819.3 -838.4,818.5 -840.2,819.2 -844.4,817.4 -845.2,818.5 -845.2,820.1 
			-841.2,820.1 -841.2,821.5 -837.2,821.5 -834.1,822.7 -830.1,822.7 -828.1,823.5 -825,823.5 -823,824.3 		"/>
		<polygon class="st0" points="-804.5,823.7 -805.6,823.3 -808.3,823.3 -812.1,821.8 -814.6,822.3 -812.4,823.2 -814,823.8 
			-817.4,823.8 -817.4,824.3 -815.8,824.9 -809.9,824.9 -807.9,824 -806.1,824 -803.6,825.1 -802.4,824.6 		"/>
		<polygon class="st0" points="-791,825.8 -791,824.6 -792.5,824 -795.9,824 -798.4,823.5 -800.2,824.2 -798.4,825 -798.4,826 
			-796.8,826 -796.8,825.4 -793.2,825.4 -793.2,825.8 		"/>
		<polygon class="st0" points="-774.6,824.3 -773.1,823.7 -773.1,823.1 -776.6,823.1 -778.1,823.7 -778.1,822.5 -779.9,822.5 
			-781.2,822.5 -783.5,822.5 -786.4,822.5 -786.4,821.5 -785.3,821.1 -785.3,820.4 -788.3,820.4 -792.4,819.3 -795.7,820.6 
			-792,822.1 -789.9,821.2 -788.4,821.9 -790.4,822.7 -789,823.2 -786.3,823.2 -784.6,823.2 -782.3,824.2 -780.5,824.9 
			-780.5,825.7 -778.9,826.4 -777.1,825.6 -774.6,825.6 		"/>
		<polygon class="st0" points="-768.1,821.4 -770.4,820.2 -772.3,820.9 -772.3,821.8 -769.2,821.8 		"/>
		<polygon class="st0" points="-754.4,823.4 -752.9,822.8 -752.9,822.3 -754.8,821.5 -757.9,821.9 -759.5,822.6 -757.4,823.4 		"/>
		<polygon class="st0" points="-750.6,828.6 -749,827.9 -751.4,827.9 -754.4,827.9 -755.7,827.4 -758.6,827.4 -760.2,826.8 
			-761.7,826.2 -763,826.5 -764.6,827.1 -761.5,828.4 -758.3,828.4 -758.3,828.9 -754.4,828.9 -753.5,828.6 		"/>
		<polygon class="st0" points="-747.7,831.2 -749.9,831.3 -751.3,831.8 -753.5,831.8 -753.5,832.4 -752.4,832.8 -750.7,833.5 
			-750.7,834.1 -751.9,834.5 -753.4,835.2 -752.2,835.7 -748.1,834 -748.1,832.9 -745.8,832 		"/>
		<polygon class="st0" points="-771.1,830.7 -769.5,831.4 -772.4,832.5 -772.4,833.5 -773.3,833.9 -771.4,834.7 -769.6,834 
			-767.1,832.9 -767.1,832.4 -767.1,830.3 -769.4,830.1 		"/>
		<polygon class="st0" points="-770.4,827.6 -769,828.2 -767.4,827.6 -768.8,827 		"/>
		<polygon class="st0" points="-780.3,833 -781.3,833.4 -782.7,834 -781.7,834.4 -779.2,834.4 -777.8,833.8 -779.2,832.5 		"/>
		<polygon class="st0" points="-776.4,835.6 -774.4,836.4 -772.5,835.7 -774.6,834.9 		"/>
		<polygon class="st0" points="-785.4,837.8 -783.8,838.4 -780.9,837.2 -783.4,837 		"/>
		<polygon class="st0" points="-791.2,829.3 -791.2,830.2 -795.2,830.2 -795.2,831 -793.1,831.8 -790.1,830.6 -788.6,830.1 
			-787.4,830.1 -787.4,829.4 -785.7,829.4 -785.7,828.4 -788.6,828.3 		"/>
		<polygon class="st0" points="-805,833.5 -803.9,833.1 -803.9,831.4 -802.4,830.8 -802.4,829.6 -804.7,828.7 -804.7,827.8 
			-807.2,827.3 -808.4,827.8 -811.5,827.8 -811.5,828.9 -809.4,829.8 -809.4,830.9 -810.6,830.9 -807.6,832.1 -807.6,833.5 		"/>
		<polygon class="st0" points="-819.4,835 -816.4,835 -816.4,836 -814.1,836 -812.2,835.2 -810.3,836 -808.1,836 -808.1,835 
			-810.4,834.1 -812.1,833.4 -814.3,833.4 -817,833.4 -821.2,831.7 -823.4,832.6 -821.3,833.5 -819.4,834.2 		"/>
		<polygon class="st0" points="-831.2,830.7 -833.4,830.6 -836.4,831.8 -836.4,834.3 -834.3,835.2 -831,835.2 -828.9,834.3 
			-828.9,832.7 -831.2,832.7 		"/>
		<polygon class="st0" points="-782.6,832.8 -782.6,831.4 -781,831.4 -781,829.7 -782.8,829.3 -784.3,829.9 -784.3,830.9 
			-785.5,831.4 -785.5,832.3 -784.2,832.8 		"/>
		<polygon class="st0" points="-879.2,775.2 -880.7,775.9 -880.7,776.6 -884.7,776.6 -886.7,777.4 -887.3,777.6 -887.4,778.4 
			-893.2,778.4 -895.2,779.2 -898.4,780.6 -901.2,781.7 -902.4,782.2 -902.4,783.1 -900.9,783.8 -900.9,784.8 -897.3,784.8 
			-897.3,783.4 -894.9,782.5 -891.3,782.5 -889.6,781.8 -886.4,781.8 -884.5,781 -880.4,781 -880.4,779.4 -878.3,780.3 
			-876.4,779.5 -876.4,777.3 -874.4,776.5 -871.6,775.3 -871.6,773.9 -873.8,773.9 -873.8,772.5 -874.4,772.2 -871.4,772.2 
			-871.4,772.9 -867.2,771.2 -863.4,771.2 -863.4,769.8 -861.4,769 -858,767.6 -855.2,767.6 -852.3,766.5 -852.3,766 -857.3,766 
			-858.8,766.6 -861.5,766.6 -861.5,768.4 -864.1,768.4 -865.7,769 -868.7,769 -870.7,768.2 -870.7,767.3 -875.3,767.3 
			-875.3,769.1 -876.6,769.7 -878.2,770.3 -878.2,771.1 -880.6,771.1 -880.6,771.8 -879.2,771.8 -879.2,774.4 		"/>
		<path class="st0" d="M-845.3,761.4l2.1,0.8l6.5-2.6l1.5-0.6v-1.4h3.6v-2.4h4.1v-2.4l2.1-0.9v-2.3l-1.1-0.4v-1.3l1.7-0.7l1.3-0.5
			l2.1-0.8l1.6,0.6l3.3-1.3h4.4v1h3.4v-1.3h1.3l3.8-1.5h1.8l4.7-1.9h2.4l1.9,0.8h2.9l2-0.8v-0.9l-1.4-0.6v-1.4l-1.2-0.5v-0.8l3-1.2
			v-10.1l-1.2-0.5l-1.8-0.7h-1.4l-2-0.8h-2.3l-1.6-0.6h-13.2v2.1l1.9,0.8l-1.7,0.7l-1.6-0.6h-2.2v-2.5h-1.6l-1.1,0.4h-3.1l-1.7-0.7
			h-3.4v0.8h-3v0.5l-1.3-0.5h-3.1v-3.2l-1.5-0.6h-1.3l-1.3-0.5h-9v1.4l-1.1-0.4l-3.8-1.5h-2.1v-1.1l-2.2-0.9h-3.3l-2.1-0.8h-5.8
			l-2-0.8h-3.1l-2.5-1h-2.1l-2.1,0.8v2.3h-3.2v1.2l-2.8,1.2c0,0-1.8-1.2-2.9-1.2c-1.1,0-5.1,0-5.1,0l-1.5-0.6l-2.2,0.9v2.3h-1.8
			l-2.2-0.9v-1.2h-1.8V719l1.1-0.4v-4.1h-1.9v-0.7l-1.7-0.7h-5.6l-2.7-1.1h-2.9l-2.2,0.9v1.4h-5.7l-1.3-0.5l-2.8-1.1h-9.2l-2.4-1
			h-4.8l0.9-0.4l7.4-3v-3.6l-7.5-3h-6l-2-0.8h-2.2v-2.1l-2.5-1h-5.5l-0.7,0.1v1.5v1.2l-3.1,1.2v1.8h-2.2v2.4h-2.4v-0.9h-3.3v1.2
			h-5.6v-0.9h-3l-2.3,0.9h-3.7l-2.3,0.9h-3.2l-5.7,2.3v1.5l2.7,1.1l-2.7,1.1h-5.1l-1.5,0.6h-5.4v2.6l7,2.8v5h-2.1l-2.7-1.1v-2.4
			l2-0.8l-1.7-0.7h-3.1l-4.7-1.9v4.1h-2.5l-2.2-0.9h-3.1v-2.3l-1.8,0.7v1c0,0,0,1.1,0,1.3c0,0.2,0,1.3,0,1.3l1.6,0.7v2.8h5.4
			l2.8,1.1v1.5h-1.5v0.7h2.7v1.3h-4.5l-1.8-0.7v-2.9h-3.4v1l1.1,0.5v1.2l-1.4,0.5l-1.7,0.7l-3.2,1.3v1.2h-2.8l-1.4-0.6l-1.8-0.7
			v-0.8h3.9l0.8-0.3v-1.1l2.2-0.9v-1.7v-1.8v-2.6v-1.8l-2.5-1v-1l3.7-1.5v-1.4l-1.5-0.6h-1.8l-2.4-1h-4v1l-3,1.2v1.4l-4.5,1.8v0.9
			l2,0.8v2.9l4.6,1.9l-1.8,0.7l-2.1-0.8l-3.5-1.4l-1.9-0.8h-4v-0.8h-5.4l-2.1,0.9v0.7l1.5,0.6l-1.9,0.8h-3.1l-2,0.8h-4.6v-0.8
			l-1.1-0.4l-1.2,0.5h-2.9v0.8h-2.9v1.2h-4.9v0.8h-1.9l-1.7,0.7v1.2h-3v-1l2.1-0.9v-1.7l-1.2-0.5h-2.7v-0.7h-6.2v0.6l2.5,1v1.3
			l-0.9,0.4v0.8l1.1,0.4v1.1h-1.5v0.7h-1.6h-1.8l-4.4,1.8h1.9v1.1l1.5,0.6v0.8h-3.1l-3.8-1.5h-1.4l-0.8,0.3l3.6,1.5v1.1h-4.9v-0.6
			l-3.5-1.4v-0.9h-0.9v-1.2v-1l-5.3-2.1v-0.8h2.8l4.8,1.9l0.2,0.1h0.7l2.4,1h2.7v0.5h2.9l2.1-0.8l2.7-1.1v-1v-1.8l-2.9-1.2h-2.3
			l-6.5-2.6l-1.1-0.5h-4.4l-1.7-0.7l-1.4-0.6l-1.3-0.5v-1.2l-2.6-1h-3.4l-1.5-0.6h-2.9l-0.8,0.3h-5.7l-1.5,0.6v1.2h-1.5l-1.3-0.5
			h-2.7l-2.5,1v0.8h-2.7l-1.7,0.7l-3.7,1.5v0.9l-3.9,1.6v1.2l-4,1.6v0.8l-1.8,0.7l-1.4,0.6v0.9v1.2l-2.8,1.1l-5.9,2.4h-3.1v1.8h-2.9
			l-1.6,0.7v3l0.9,0.4v0.9v2.3l0.7,0.3l2.4,1h5.8v0.9l-1.5,0.6v1.5v1h2.5l2.9-1.2v-1h1.3v1h1.8l2.1-0.8h1v1.5h2l1.7-0.7l1.4-0.6
			v-3.4l2.4-1l1.3-0.5l-2.3-0.9V745h3.4v-3.8l8.6-3.5v-2.2l2.9-1.2h4v1.8l-10.6,4.3v1.7l2.3,0.9v1.9l2.1,0.8h2.3v1.3l-2.1,0.8v1.7
			l-2.5,1l-1.1,0.4v2.3l-2.1,0.8l-1.2-0.5h-4.5l-4.1,1.7l-1.5-0.6v-1h-3.3v1.6h-3.1l-2.5-1h-2.6v0.9h-2.4v0.4h-2.9v0.8h-2.8
			l-2.7,1.1l-1.3,0.5v0.8l-1,0.4h-1.1v-0.4h-1.6l-1.5,0.6l-2,0.8l-1.5,0.6h-2.4l-2.2,0.9v0.4l-2,0.8h-5.3v1.1l2.9,1.2h2.9l2.9,1.2
			v2.1l-1.9,0.8h-4.1l-1-0.4h-2.5h-5.2l-2.3,0.9v1.3l-2,0.8v2v1.4l2.1,0.8v2.3h5.3v0.1l5.9-0.9h4.9l2-0.8v-1.5h3.8l1.2,0.5h1.7v-0.5
			h2.7l1.8-0.7h2v-1h-4.9l-2.2,0.9h-1.8V774l2.1-0.8h2.3v-0.6h2.4v-2.3h2.5l1.7,0.7h1.9l2.1-0.9h2.2v0.5l-0.9,0.4v1.2l-1.5,0.6v1.2
			l1.1,0.4v0.7l1.4,0.6h3.9v-2.3l-1.4-0.5l1.6-0.7v-0.7l4.5,1.8h2.5v0.8h2.5l2.6,1.1v0.8h-7.2l-1.3,0.5v1.1l1.4,0.5h3.2v0.3h2.4
			l2.5-1v-0.9h2.5v-0.7h1.1l2.4-1h1.5v0.7l1.5,0.6v1.2l2.1,0.8l1.2,0.5h2.4v1.2l2,0.8h1.5v0.6h3.3l1.7-0.7v-0.8v-0.4h-4.5v-0.7h-2
			v-0.8h2.5h2v-0.8h2v1.3l2.4,1h5.5l1.3-0.5h3.3v0.7l-1,0.4v0.9l1.8,0.7h2.3v-0.8h2.9v1l-1.5,0.6v1h-3.3l-1-0.4h-3.9l-1.6,0.6h-5.7
			l-1-0.4h-4.3l-1.2-0.5h-2.2l-1.5-0.6h-3.6l-2.1,0.8h-1.6v1.1v0.7h-1.6l-1-0.4l-1.9-0.8h-3.3v-0.9l-1.5-0.6h-8.2l-1.9-0.8l2.4-1
			v-0.9l-1.4-0.6l1.3-0.5v-0.6l-1.9-0.8h-4.3l-0.8,0.3h-13l-2,0.8h-4l-2,0.8h-2.2h-5.8l-5.8,0.9v0.2l-6.4,2.6l-2.7,1.1v1.9l-2.5,1
			h-2.9l-2.1,0.9v1.3l-2.8,1.1v1.7l-3.8,1.6v1v1.1v2.4l-1.9,0.8v1.7l1.7,0.7v1.8l7.9,3.2v0.6l1.9,0.8l3.7,1.5l5.2,2.1h5.4l2.8-1.1
			h4.9v0.7h2.9h4.4l3.5-1.4h7.5v0.9l2.4,1l1.5-0.6h3l1.8,0.7v2.6l-2.1,0.9v1.5l4.1,1.7l5.1,2.1v1.7l1.5,0.6v1.2v2l-2.5,1l-3.3,1.3v1
			v1.6l3.2,1.3v1v1.5l3.5,1.4v3.9l6.1,2.5v1.5l3.5,1.4v3.1l1.8,0.7h14.4l5.6-2.3l13.3-5.4v-0.7l1.8-0.7v-1.5h1.5l1.7-0.7l2.5-1v-1.3
			l-2.3-0.9V832l3.6-1.5l1.7-0.7h2.5l1.3-0.5h2.1l2.7-1.1v-5.5l-3.2-1.3v-3.2l1.3-0.5v-1.2l1.6-0.7l4.8-1.9h2.5l9.2-3.7l1.5-0.6v-2
			l2.2-0.9v-1.1l2.6-1v-1.4l-1.4-0.6v-0.7h-2.5v0.7h-4.4v0.7h-5.6h-3.2l-0.1,0h-2.8l-0.7-0.3l-2.2-0.9v-1.4l-2.6-1.1l-2-0.8v-1.2
			l-3-1.2v-1.8h-1.2v-1.2l-1.4-0.6v-0.7l-1.4-0.5V790l1.1-0.4l4.5,1.8l2.1,0.8v2l2,0.8v1.6l4.3,1.7v1.2l3,1.2v1l2.2,0.8l0,0h3.8V802
			h3.1v-0.5h3l1.9-0.8l1.1-0.4h2.2l3.5-1.4h5.3v-0.7h1.7l4.4-1.8l2.4-1v-0.8l2.4-1v-1.1l-0.5-0.2h-3.8l-5.2-2.1h-3.1l-1.1,0.4h-4.9
			V790l-3.5-1.4l-1.4-0.6v-0.8l-2.3-0.9l1.8-0.7l2.5,1v1.1l2.3,0.9h1.8l1.9,0.8h3l1.5-0.6h3.1v0.9h2.6l3.9,1.6h14.4l2.7,1.1h1.9v1.4
			l3.6,1.4h2.9l1.8,0.7v1.8l2.9,1.2v1l4.1,1.7v1.6l1.9,0.8v1.8l3,1.2l2.8-1.1h1.5v2.1l3.5,1.4l4-1.6v-1.8l-4.4-1.8V803l1.6-0.7v-2.8
			h1.7l7.5-3h2V796h1.3l2.8-1.1v-0.8h6.6v-0.8l2.2,0.9v1l4.2,1.7v1.5h-1.2v0.7l1.7,0.7h3.1l1.7-0.7h1.6v2l3.3,1.3v1.2l-1.9,0.8v1.7
			l4.9,2v2.1l-6.1-2.5h-4.2l-2.4-1l-1.7,0.7l3,1.2v1.1l8.3,3.3v1.5l8.2,3.3h2l7.7,3.1h6.9l1.8,0.7h4.8h1.9h5.3l1.7,0.7h4.6v0.5h1.8
			l1.8,0.7h2.7v-1.9h4.2v0.6l-2.3,0.9l1.5,0.6l1.2-0.5h4.4l1.5-0.6v-0.7h3.7v-1.7l-1.3-0.5h-3.5l-1.1,0.4h-23.5v-0.9h-4.1l-1.2-0.5
			h-8v-0.6h-3.4v-1.5h2.7v-1.1l-1.8-0.7l-1.5-0.6l-1.3-0.5h-1.2l-0.7,0.3l-1.3-0.5l-1.9-0.8l1.4-0.6v-1l-1.6-0.6v-2l-5.6-2.2
			l-1.5-0.6v-1.1h-2.1v-0.7l1.8-0.7l1.5-0.6h2.3v1.1l2.1,0.8h2.5v1.8h3.1l2.8-1.1l0.4-0.2h2.4l3.5-1.4v-1.1v-1.9l-1.2-0.5v-0.9
			l-6.4-2.6v-0.7l4.3-1.7l1.1-0.5v1.1l-2.4,1l0.4,0.2v0.8l1.2,0.5h3.5l3.5-1.4v-1.7h2.9v-0.8h4.4v-0.8h2.7l4.5-1.8h2.7v2h1.8v0.6h4
			v-0.9l0.7-0.3v-2.5l-0.8-0.3h-2.7v0.4h-1.3v-0.4v-0.4l1.5-0.6h2v-0.6l1.5-0.6l1.5-0.6v-1.6h-1.5v-2.3h-1.7v-1.1l-2.3-0.9l-1.2-0.5
			l2.6-1.1V779h2.3l2.5-1v-0.8l-1.2-0.5h-2.7V776h-3.5v0.7h-1.2l-1.1-0.5l2.4-1l3-1.2h1.5v1.2v0.4l0.8,0.3l0.8-0.3h1.3l3-1.2v0.6
			h-0.5v0.7l-0.9,0.4v0.8l1,0.4h2.2v0.3l-1.3,0.5v0.6h1.2v2.1l1.2,0.5h4.3l1.8-0.7h1.2l1.6-0.7l0.6-0.2v-2.3l-1.3-0.5h-1.1v-0.6
			l-1.3-0.5l-1-0.4v-0.6h1.9l4.1-1.7v-1h7.6l4.5-1.8v-0.5l1.4-0.6v-0.5l2.3-0.9l1.1-0.4l2.1-0.9v-0.6l1.5-0.6l2.1-0.8v-2.1h0.2V755
			l-1.4-0.6h-4.5l-1.2,0.5l-2.1-0.8h-3.2l2.2-0.9h4v-1l5.7-2.3v-1l3.6-1.5h14.5V747h4.4v0.9h6.7l0.8-0.3h2.9v-1.1h-1v-0.7l2.7-1.1
			l2.9-1.2v-1.1h3.2v1.9h1.7v1.1l6.1-2.4l0.8,0.3l-9.3,3.8h-1.9v1.9h-1.5l-6.2,2.5v3.3l1.5,0.6v1.9l2.1,0.8v1.9L-845.3,761.4z
			 M-1100.6,772.2h-8.2l-2.9-0.8h-6.3l-2.2,0.9h-3.9h-1.9l-2.1-0.8v-1.2l1.8-0.7l3-1.2v-1.1l1.4-0.6h1.4v1l2.2,0.9l1.6,0.6l1.8,0.7
			l1.1-0.4l1.6-0.6h2.9l1.6,0.6h2.1l1.5,0.6l2.5,1l1,0.4V772.2z M-1072.9,771.9l-2,0.8v1.8l3.3,1.3v1.8h-4l-2.1-0.8h-4.6v-1l2.7-1.1
			v-1.3h-2.4v-1.7l-2.4-1v-1v-1l-1.2-0.5l5.8-2.3l1-0.7h6.5l2.9,1.2l-2.4,1h-4.8v1.4v1.5L-1072.9,771.9z"/>
		<polygon class="st0" points="-870.2,753.6 -871.7,753.6 -873.6,754.4 -873.6,756.1 -874.4,756.1 -874.4,762.3 -874.3,762.3 
			-874.3,764.3 -874.3,766 -873.3,766 -873.3,766.8 -868.1,766.8 -868.1,765.4 -869.2,764.9 -869.2,763.1 -867.9,763.1 
			-866.8,763.6 -864.6,762.7 -864.6,762.1 -866.1,761.5 -866.1,760.3 -867.8,759.7 -867.8,756.3 -868.7,755.9 -868.7,754.2 		"/>
		<polygon class="st0" points="-1072.6,722.7 -1072.6,724.3 -1067.8,724.3 -1065.1,725.4 -1062.4,725.4 -1062.4,723.2 -1065,722.2 
			-1065,720.9 -1066.5,720.3 -1066.5,719.2 -1063.3,717.9 -1063.3,716.8 -1066.3,715.7 -1072.1,715.7 -1075.4,717 -1075.4,718.6 
			-1078,719.7 -1078,721.6 -1075.2,722.7 		"/>
		<polygon class="st0" points="-1081.3,727.9 -1078.3,726.7 -1078.3,725.8 -1082.3,724.5 -1085.8,725.9 -1085.8,727.2 
			-1083.9,727.9 		"/>
		<polygon class="st0" points="-1086.7,827.8 -1091,827.8 -1091,830.3 -1091,831.7 -1093.6,832.7 -1093.6,833.8 -1093.6,836.2 
			-1091.8,836.9 -1087.9,836.9 -1085.1,835.8 -1085.1,833.4 -1082.5,832.3 -1082.5,830.4 -1080.6,829.6 -1080.6,827 -1079.9,826.7 
			-1079.9,825.7 -1081.3,825.6 		"/>
		<polygon class="st0" points="-1025.4,808.6 -1028.5,807.3 -1028.5,806.4 -1030.9,805.4 -1034.3,806.7 -1030.7,808.2 
			-1030.7,810.7 -1030.7,812.6 -1030.7,815.3 -1028.7,815.3 -1026.1,815.3 -1026.1,813.3 -1023.3,812.2 -1023.3,810.7 
			-1025.4,809.9 		"/>
		<polygon class="st0" points="-1056,817.4 -1057.6,816.8 -1059,816.8 -1059,817.7 -1061.2,817.2 -1062.5,817.8 -1062.5,819.3 
			-1059.7,819.3 -1057.5,819.3 -1056,818.7 		"/>
		<polygon class="st0" points="-1066.3,818.3 -1066.8,817.6 -1069.3,818.6 -1069.3,819.6 -1072.3,820.7 -1070.6,821.4 
			-1067.7,820.2 -1066.3,819.7 		"/>
		<polygon class="st0" points="-1067.3,832.4 -1067.3,833.2 -1065.3,833.2 -1064,832.7 -1064,831.7 -1065.5,831.7 		"/>
		<polygon class="st0" points="-1056.4,832.3 -1054.6,833.1 -1051.8,831.9 -1053.7,831.2 		"/>
		<polygon class="st0" points="-1075.8,833.5 -1074,834.2 -1071,834.2 -1071,833.1 -1074.2,832.8 		"/>
		<polygon class="st0" points="-1079,822.8 -1079,824 -1076.8,823.1 -1076.8,821.7 -1079,821.3 		"/>
		<polygon class="st0" points="-1081.3,822.4 -1084.6,821.9 -1086.2,822.5 -1083.9,823.4 		"/>
		<polygon class="st0" points="-1095.5,822.8 -1097.2,823.5 -1097.2,824.7 -1093.2,824.7 -1093.2,825.9 -1091.2,826.7 
			-1089.1,825.8 -1087.5,826.5 -1085.3,825.6 -1086.9,825 -1088.3,824.4 -1090.1,825.1 -1091.9,824.3 -1091.9,823.1 		"/>
		<polygon class="st0" points="-1033.8,801 -1036,801.8 -1036,802.4 -1031.9,804.1 -1030.6,803.6 -1033.9,802.2 -1032.3,801.5 		"/>
		<polygon class="st0" points="-1241.5,730.9 -1245.5,730.9 -1245.5,730 -1247.3,729.3 -1250.3,729.3 -1251.7,728.7 -1255.6,728.7 
			-1256.1,729.1 -1259.3,730.4 -1256.4,731.6 -1256.4,732.6 -1255.2,733.1 -1252.7,733.1 -1252.7,734.1 -1249.6,734.1 
			-1247.6,733.3 -1245.3,734.3 -1243,735.2 -1239.9,733.9 -1239.9,732.6 -1241.5,732 		"/>
		<polygon class="st0" points="-1229.7,740.1 -1229.8,741.2 -1229.2,741.4 -1227.6,741.4 -1227.6,742.1 -1226.7,742.1 
			-1225.5,742.1 -1225.5,741.2 -1223.5,740.4 -1225.5,739.6 -1228.4,739.6 		"/>
		<polygon class="st0" points="-427.2,694.5 -422.9,692.8 -422.9,692.2 -426,692.2 -428.3,691.3 -430.4,691.3 -432.7,692.2 
			-432.7,693.3 -434.5,694 -439.8,694 -441.8,694 -449.3,697 -450.7,696.4 -442.9,693.2 -442.9,691.4 -448.5,691.4 -448.5,692.5 
			-449.8,693 -451.8,693.8 -457.8,693.8 -457.8,692.8 -454.7,691.6 -453.4,691 -460.4,691 -462.5,691.9 -465.8,691.9 -465.8,692.5 
			-469.6,692.5 -471,692 -467.9,690.7 -461.9,690.7 -460.3,690.1 -450,690.1 -445.9,690.1 -443.5,689.2 -443.5,687.6 -448.3,687.6 
			-451,687.6 -454,688.8 -454.9,688.5 -454.9,687.8 -451.7,686.5 -451.7,685.9 -455.8,685.9 -457.8,686.6 -462.6,686.6 
			-465.8,686.6 -467.7,687.4 -471.3,687.4 -472.3,687.8 -475.9,687.8 -475.9,686.8 -470.1,686.8 -470.1,685.6 -463.6,685.6 
			-459.2,685.6 -456.1,685.6 -456.1,684.9 -459.9,684.9 -462.1,684 -467,684 -471.8,684 -471.8,684.9 -474,684 -478.6,684 
			-482,685.4 -478.6,685.4 -478.6,686.2 -483,686.2 -483,688.1 -486,686.9 -490,686.9 -490,685.9 -495.3,685.9 -495.3,686.9 
			-490.7,686.9 -487.9,688.1 -485.2,689.2 -487.6,689.2 -490.2,689.2 -492.1,688.4 -494.1,688.4 -494.1,689.5 -494.1,691.3 
			-496.3,692.2 -504.7,688.8 -507.7,690.1 -505.4,691 -508.1,692.1 -512.5,692.1 -512.5,692.9 -516.4,692.9 -516.4,690.6 
			-518.8,690.6 -524.4,690.6 -526.1,691.2 -524.3,692 -522.8,692.6 -522.8,694 -523.8,693.6 -527,692.3 -529.3,692.3 -531.5,692.3 
			-531.5,693.3 -531.5,694.5 -531.5,695 -534.6,695 -536.4,694.2 -544.4,697.5 -542.6,698.2 -539,696.7 -536.7,697.6 -536.7,698.5 
			-538.5,699.2 -538.5,700.1 -540.7,701 -540.7,701.8 -540.7,702 -546.7,702 -551.5,703.9 -555.1,703.9 -555.1,705 -552.2,705 
			-548.4,706.6 -544.7,705.1 -540.5,705.1 -540.5,706.5 -543.8,707.8 -548.5,707.8 -548.5,709.7 -544.5,709.7 -540.5,708.1 
			-533.3,708.1 -527.8,710.3 -524.5,710.3 -524.5,712.5 -521.3,712.5 -516.4,714.5 -516.4,716.5 -516.4,719.4 -514.2,719.4 
			-514.2,718.6 -509.4,718.6 -506.7,719.7 -506.7,721.5 -504.9,722.2 -504.9,724.1 -506.9,724.9 -506.9,725.8 -511.3,725.8 
			-511.3,727.5 -511.3,729 -508.9,730 -506.2,730 -506.2,731.3 -507.7,731.3 -507.7,732.5 -505.8,733.3 -501.9,734.9 -497.5,734.9 
			-494.6,734.9 -494.6,735.9 -491.2,735.9 -488.2,734.6 -488.2,733.5 -489.3,733.1 -489.3,732.1 -487.6,732.1 -487.6,729.4 
			-481.6,727 -477.4,727 -477.4,728 -473.8,728 -468.3,725.8 -468.3,724.1 -463.8,724.1 -463.8,724.9 -459,724.9 -456.5,723.9 
			-451.9,723.9 -450,723.1 -447.9,722.3 -453.9,722.3 -459.2,722.3 -459.2,721.4 -457.3,720.6 -457.3,719.1 -455.2,718.3 
			-453.3,719.1 -450.5,720.2 -447.1,720.2 -447.1,721.6 -444.7,721.6 -444.7,718.8 -449.8,718.8 -453.2,717.5 -455.8,717.5 
			-455.8,716.2 -449.3,716.2 -449.3,714.7 -446.9,714.7 -444.1,715.9 -441,715.9 -441,714.8 -443.1,714 -443.1,713 -440.3,713 
			-440.3,712 -443.5,710.7 -442.9,710.5 -440.4,711.5 -438,710.5 -443.2,708.4 -440.5,707.3 -436.9,707.3 -438.6,706.6 
			-440.7,705.8 -444.2,705.8 -444.2,704.6 -441.8,704.6 -441.8,702.4 -437.9,702.4 -437.9,700.5 -440.4,699.5 -440.4,698.3 
			-438.7,697.6 -441.6,696.4 -440.8,696 -435,696 -432.7,695.1 -428.7,695.1 		"/>
		<polygon class="st0" points="-559,716.6 -562.9,716.6 -562.9,717.6 -565.6,717.6 -568.3,718.7 -570.4,718.7 -570.4,717 
			-568.8,716.4 -570.2,715.8 -570.2,714.1 -574.7,714.1 -574.7,714.7 -579.3,714.7 -579.3,716.8 -577.5,717.5 -577.5,718.7 
			-580.4,718.7 -580.4,716.6 -580.7,714.2 -580.9,713.3 -585,713.3 -590.7,715.6 -590.7,718.3 -587.6,719.5 -587.6,720.8 
			-584.5,720.8 -581.6,720.8 -581.6,720 -578.7,720 -578.7,721.7 -585.3,721.7 -585.3,723 -582.7,724 -579.5,724 -573.4,724 
			-571.1,723.1 -569.3,723.1 -567,724 -565.1,723.2 -561,724.9 -557.2,726.5 -559.2,727.3 -561.6,728.3 -561.6,730.3 -555.9,730.3 
			-555.9,728.9 -553.6,728 -551.8,728.7 -551.8,730.4 -554.5,731.5 -554.5,733.7 -556.9,734.7 -562.5,734.7 -562.5,736.3 
			-562.5,737.8 -556.7,737.8 -556.7,736.7 -553.4,738 -549.5,739.5 -545.3,739.5 -544.5,739.9 -537.7,742.6 -535.5,741.7 
			-542.7,738.7 -540.9,738.7 -536.2,740.6 -531.8,738.9 -531.8,737.3 -535.5,737.3 -535.5,736.2 -538.4,736.2 -540.2,735.4 
			-541.4,735 -541.4,732.9 -538.8,731.8 -536.6,732.7 -536.6,733.7 -532.5,735.3 -529.3,734 -526.8,733 -529,732.2 -534.5,729.9 
			-536.2,729.3 -537.8,729.3 -539,728.8 -541.5,727.8 -541.5,725.3 -544.4,724.1 -552.8,720.7 -554.5,720.7 -554.5,718.4 		"/>
		<polygon class="st0" points="-664,720.7 -661.3,719.6 -658.2,718.4 -658.2,717.3 -655.4,716.1 -653.1,715.2 -647.6,713.2 
			-651.7,711.9 -653.9,712.8 -657.5,712.8 -657.5,711.3 -661.9,711.3 -666.2,711.3 -666.2,712.3 -666.2,713.4 -666.2,714.5 
			-667.4,715.5 -670.7,716.8 -670.7,718 -667.4,719.3 		"/>
		<polygon class="st0" points="-620.9,726.1 -618.4,727.1 -615.9,727.1 -615.9,724.5 -617.3,724 -619.6,723 -623.8,721.4 
			-623.8,719.5 -622.5,719 -622.5,715.5 -626.1,714 -627.2,713.6 -629.5,714.5 -629.5,716.4 -629.5,718.5 -632.4,718.5 
			-632.4,717.1 -634.5,716.2 -636.8,717.1 -639.6,717.1 -639.6,715.9 -642.5,715.9 -644.2,716.5 -646,715.8 -643,714.6 -645,713.8 
			-647.1,714.3 -654.7,717.4 -654.7,718.4 -652.7,719.2 -650.1,720.2 -647.6,720.2 -647.6,720.7 -648.8,721.1 -652.7,721.1 
			-652.7,722.1 -649.9,723.2 -643.4,723.2 -643.4,722 -641.6,722.7 -640.1,723.3 -640.1,723.8 -650.1,723.8 -650.1,725 
			-647.9,725.8 -642.6,725.8 -642.6,726.7 -632.9,726.7 -631.6,726.2 -628.9,726.2 -628.9,724.9 -626.1,724.9 -626.1,726.1 		"/>
		<polygon class="st0" points="-597.8,698.7 -597.8,699.5 -597.8,700.5 -594,700.5 -594,701.4 -591.5,701.4 -588,700 -588,698.9 
			-584.9,698.9 -582.8,698 -586.3,696.6 -587.4,696.2 -589.9,695.2 -592.8,694 -597.1,691.4 -601.5,693.1 -598.6,694.3 
			-601.5,695.4 -601.5,696.3 -603,696.9 -603,697.9 -597.8,697.9 		"/>
		<path class="st0" d="M-586.4,690.5l-1.9,0.8l-2.3,0.9h3h6.2v1.2h-4.7l2.7,1.1h5.1v-1.6h4.4l0.7,0.3h1.8v-1.5l5.2-2.1l2.2,0.9
			l-4,1.6v1.4h5.7v0.2v0.7h-6.4h-3.8l-1.3,0.5h-2v0.8h2.9v0.9l1.6,0.7h2.2l-1.1,0.4h-3.1h-1.8l-4.4-1.8l-0.8-0.3h-1.5l-1-0.4h-2v0.9
			l2.4,1l3.8,1.5l1.8,0.7h3.8v0.8l-2.1,0.8l-2.4-1h-1.7h-3.8l-2,0.8l1.2,0.5h3.2v0.6v1.1h2.4l1.9-0.8h1v0.8l-2.8,1.1h-5.5v-0.8
			l-2-0.8l-2.3,0.9l2.1,0.8l-1.6,0.7l-1.4,0.6v0.5h3.9v0.5c0,0,4.5,0.2,4.5,0s0-1.2,0-1.2h5.6v1.1h3.8l2.4-1l-1.7-0.7h-3l-1.4-0.6
			l1.8-0.7h2h2.7l3-1.2h3.4v-1.1v-1h1.6v-0.6h-4.2v-1.4l1.8-0.7h3.5h4.5v-1l2.2,0.9l3.5-1.4v-1.3h3.9l8-3.2l-2.8-1.1l-4.1,1.7h-2.7
			l-1.9-0.8h2.1v-1.4h3.5h5.5l1.6-0.7l5.8-2.3l-1.3-0.5h-1.5l-1.5-0.6l-1.8-0.7h-2.5v0.8h-5.5h-2.7l2.4-1h-2l-1.3-0.5h-6.4l-1.8,0.7
			v0.7l-1.2-0.5l-2.9-1.2h-4.5l5,2l-2.1,0.9l-2.4-1l-2.2-0.9h-4.2l-1.9,0.8l-2.2,0.9v0.4l0.9,0.3l1.5,0.6h-4.9h-1.8l-1.6,0.7v-1.2
			l-2.1-0.8v1v0.9l-0.8,0.3h-2.4l-1.7-0.7l-1.6,0.5l-2.5,1l2.1,0.8H-586.4z"/>
		<polygon class="st0" points="-657,706 -655.3,705.3 -654,705.3 -654,706.7 -654,707.8 -650,707.8 -650,708.5 -644.4,708.5 
			-642.7,709.2 -642.7,710 -638.2,710 -636.2,709.2 -631.4,709.2 -628.6,708.1 -628.6,709.7 -624.4,708 -627.3,706.8 -629.2,706 
			-631.3,706.9 -633,706.2 -633,705.1 -636.5,705.1 -636.5,706.6 -636.5,708 -641.4,708 -641.4,706.4 -643.8,706.4 -647.1,706.4 
			-651.3,706.4 -651.3,704.8 -648.4,704.8 -648.4,703.3 -652,703.3 -654.2,703.3 -654.4,703.9 -658.4,704.2 -661.2,705.4 
			-661.2,707.2 -659.8,707.2 		"/>
		<polygon class="st0" points="-639.6,702.7 -639.6,701.6 -638.3,701 -638.3,700.1 -641.4,700.1 -642.5,700.1 -642.2,700.7 
			-644.5,701.7 -644.5,703.3 -641.1,703.3 		"/>
		<polygon class="st0" points="-616.7,705.9 -619.9,707.2 -616.5,708.6 -616.5,709.7 -613.3,709.7 -613.3,707.6 -609.6,707.6 
			-607.5,706.8 -612.4,705.9 		"/>
		<polygon class="st0" points="-607.9,708.8 -603.4,710.7 -599.4,709 -596.6,710.1 -596.6,707.8 -600.2,707.8 -600.2,706.1 
			-602,705.2 -606.9,705.2 -602.9,706.8 -605.9,708 		"/>
		<polygon class="st0" points="-585.6,710.3 -587.3,711 -581.3,711 -581.3,709.5 -576.7,709.5 -576.7,710.3 -574.3,711.2 
			-570.4,709.7 -573,708.6 -575.2,707.7 -581.5,707.7 -584.7,709 -587.8,709 -590.5,707.9 -590.5,706.4 -593.6,706.4 -593.6,708.1 
			-593.6,710.3 -589.6,710.3 		"/>
		<polygon class="st0" points="-610.2,700.3 -610.2,702.2 -607.5,702.2 -604.4,703.5 -600.2,703.5 -598.4,702.8 -599.6,702 
			-601.3,701.3 -604.5,701.3 -606.1,700.7 -608.5,699.7 		"/>
		<polygon class="st0" points="-624.7,700.9 -622.5,701.8 -618.2,701.8 -614.3,703.4 -612.9,702.8 -614.4,702.3 -614.4,700.3 
			-616.9,700.3 -622.2,700.3 -622.2,698.7 -624.7,698.7 -627.7,698.7 -624.7,699.9 		"/>
		<polygon class="st0" points="-611.1,718.7 -611.1,720.1 -608.8,721 -605.4,719.6 -605.4,717.6 -608.2,716.4 -610.5,716.4 
			-610.5,714.9 -607.1,714.9 -607.1,713 -609.4,713.2 -612.4,713.2 -612.4,714.9 -612.4,716.2 -613.7,716.7 -616,716.7 
			-613.8,717.6 		"/>
		<polygon class="st0" points="-598,718.3 -594.8,717 -593.5,716.5 -593.5,714.1 -590.9,714.1 -590.9,712.1 -594.4,712.1 
			-596.3,712.9 -597.7,712.3 -600.2,712.3 -603.7,713.7 -603.7,715.4 -600.1,716.8 -600.1,717.4 		"/>
		<polygon class="st0" points="-602.7,727.5 -602.7,726.1 -608.2,724.6 -611.8,726 -608.2,727.5 		"/>
		<polygon class="st0" points="-563.5,715.1 -561.5,715.9 -559.1,714.9 -562.4,713.3 -569.3,713.3 -569.3,715.5 -566.8,716.5 		"/>
		<polygon class="st0" points="-607.1,696.8 -611,695.2 -613.5,695.7 -615.4,696.5 -610.8,698.3 		"/>
		<polygon class="st0" points="-623.5,705 -623.5,703.1 -626.3,701.9 -628.4,702.2 -628.4,703.1 -625.5,704.2 		"/>
		<polygon class="st0" points="-570.2,741.9 -570.2,742.7 -567.9,743.7 -565,742.5 -565,741.4 -568.1,741.1 		"/>
		<polygon class="st0" points="-561.1,795.9 -558.7,794.9 -554.4,794.9 -554.4,794.2 -558.7,794.2 -562.5,792.7 -562.5,791.9 
			-565.8,791.9 -570,791.9 -570,791.1 -573.1,791.1 -575.9,792.3 -573.1,793.4 -571.5,793.4 -566.9,793.4 -563.5,794.8 
			-566.1,795.9 		"/>
		<polygon class="st0" points="-524.8,802 -522,802 -520.5,801.4 -524.7,799.7 -524.7,798.3 -527.2,797.3 -529.3,797.3 
			-530.9,796.6 -532.6,795.9 -538.7,795.9 -541.8,795.9 -541.8,795 -546.9,795 -549.4,794 -548.4,793.6 -551.6,792.2 -555.3,792.2 
			-555.3,791.1 -557.4,790.3 -559.9,789.3 -559.9,788.1 -562.7,786.9 -564.9,787.8 -566.9,787.6 -566.9,789.1 -563.5,789.1 
			-561.3,789.1 -561.3,790 -563.1,790.7 -563.9,791 -562.5,791.6 -559.3,791.6 -559.3,792.5 -557.9,793 -554.4,793 -554.4,794 
			-552.8,794.6 -552.8,795.7 -556.7,795.7 -556.7,797.2 -553.6,797.2 -548.9,797.2 -546.2,797.2 -544.2,797.2 -542.5,796.5 
			-540.2,797.5 -532.9,797.5 -529.9,798.7 -525.7,800.4 -525.7,801.6 		"/>
		<polygon class="st0" points="-571.2,796.7 -568.1,795.4 -570.9,794.9 -573.3,795.8 		"/>
		<polygon class="st0" points="-578.5,792 -580.2,792.5 -580.2,793.6 -574.7,793.6 -577.1,792.7 -577.1,791.8 		"/>
		<polygon class="st0" points="-590,813.8 -590,812.4 -590.5,812.7 -595.8,813.6 -595.8,814.6 -593.7,815.5 -590,815.5 
			-587.2,814.4 -588.5,813.8 		"/>
		<polygon class="st0" points="-569.1,837.7 -566.6,838.7 -564.9,838 -564.9,836.8 -567.5,837 		"/>
		<path class="st0" d="M-472.9,817.4l-1.5-0.6l-2.8-1.1h-8.2l-1.7-0.7h-3.2l-5.3-2.2l-3.8-1.5l-2.5-1v-1.8h-3.5l-3-1.2h-7.8
			l-3.6-1.5h-2.9l-2.2-0.9l1.9-0.8v-1.5h-3.3l-2.5,1v-0.8h-6.1v0.7h-1.9h-2.8l-1.8-0.7v-1.2h-1.9l-1.2,0.5h-3.6v-0.9h-2.7l-2.4,1
			l-1.7,0.7l-2.2,0.9l-3.6,1.5h-3.9l2.2-0.9h-3.4h-2.4l-2.2,0.9l-2.5-1l-2.6-1.1v-2.4l2.2-0.9l-1.7-0.7l-3-1.2h-3.6l-1.8,0.7l-2-0.8
			l1.5-0.6l2-0.8v-2.1v-1l-1.5-0.6h-6.5l-2.6,1.1v1l-1.3,0.5v0.8h-0.2l-1.6,0.7h-3.2l-3.8-1.5l-2.7-1.1l-1.7-0.7v-3.5h1.1v-2.3
			l4.8-2l2.1-0.8h7.4l3,1.2v-1.5h6.2h5.1l3.6,1.5v2.1l3.4,1.4h2.2v-2.3l-3.9-1.6v-2.3l8.7-3.5l2.8-1.1v-1.1l2.1-0.9l3.3-1.3v-2.2
			l4.9-2h4.4v-1l3-1.2h2.3h3.4v0.6l2.5,1l2.3-0.9l2.5-1h5.1l2.7-1.1v-2.1h-2h-3.5h-3.1h-4.2v-1.3h-5.1l-2.4,1v1.7l-3.2,1.3h-10.2
			l-5.3,2.2l-1.5,0.6h-8l-2.7-1.1v-2h-4.4v-2.2h-2.7l-1.9,0.8l-2.5-1l1.5-0.6h-5.9v-0.7h3.6h3.8v1.3h4.2l1.5,0.6h2.8h3.5v1.2
			l1.9,0.8v0.6h-2.3v1.5h2.7h3.8l2.3-0.9l3.4-1.4v-0.4h10.5l1.8-0.7v-1l-1.2-0.5v-0.8l4.3-1.7h3.4l1.7,0.7h3.2l1.8-0.7l1.9,0.8
			l1.4-0.5h3.5l3.5-1.4l2.2-0.9l1.4,0.6v0.8l-1.7,0.7l-2.1,0.8l2,0.8h7.6l2.3-0.9v-0.8h-3.9v-1.7l2.2-0.9v-3.2l-4-1.6l-3.5,1.4h-4
			v-1.2h1.8l2.3-0.9l-2.3-0.9l-2.7-1.1l-3-1.2h-2.1v-2.1l-2.1-0.8l-2.9-1.2v0.6v0.9h-3.9l-1.1,0.4h-1.5v-1.4h-3.1h-2.5l1.7-0.7v-1.6
			v-1.4l-3.3-1.3h-4.2v-1.1h-4.4h-1.5l-2.2-0.9l-2.6,1.1l2.5,1v2.2v1.2l-2.9,1.2v0.5l1.8,0.7l2,0.8v1.5l1.7,0.7v1.1h-3.9l-3.6,1.5
			l3.5,1.4v1.8v1.7l-2.5,1h-3.5h-1.8v-1.1l-2-0.8l-1.8-0.7v-3.2l-2.3-0.9h-2.1l-2.7,1.1v-1.5h-3.1l-3.6-1.5h-2.7v-0.6h-1.8h-2.2
			h-1.8v-1.7l-1.7-0.7l-1.9-0.8h-1.3v-3.6l3-1.2v-0.8l2.1-0.9v-1.1h3l2-0.8V739h-3.8h-1.6l-1.8-0.7l1.2-0.5h1.5l1.3,0.5h3.4h2
			l1.6-0.7h2.9v1.8l1.3,0.5h2.7l1.3,0.5l4.9-2l1.2,0.5l-4.5,1.8v1l1.8,0.7l1.8-0.7h2v-1.3v-0.7l1.6-0.7l2.1-0.8l-6.1-2.5v-1h-2.2
			l-2.4-1h2.9l5.1-2.1v-2.1l-1.2-0.5l-2.5-0.8v-1l3.1-1.2l-3.6-1.5h-3.1v1.7l-2.9,1.2v1.8l-2.9,1.2l-2.7-1.1v-2.3l-2.8-1.1v1.9
			l-2.3,0.9v-2l-4.2-1.7V724v-1.6v-1.2l-3-1.2h-3v1.4v2.3l3.8,1.5v2v1.2l-2.8,1.1v1.8h-3.5v-1.5h-13.8l-2.7-1.1h-3.8l-1.5,0.6v2.1
			h-5.7l-3.5-1.4h-11.1v-1.5l2.7-1.1v-1.2h-10.4l-4.9-2l-3.5,1.4h-9.1l-3.3-1.3l-4.4,1.8h-5.1l-2.7,1.1h-5.6h-7.6v-1.7h-5.8l-2-0.8
			h-5.6l-4.3-1.7h-5.9h-8l-3-1.2h-5l-4.7,1.9h-4.8l-5.4,2.2v1.5h-5.5v1l4,1.6l4,1.6h6.2v1.2l-1.3,0.5l-2.9,1.2h-4.9l-3.2-1.3
			l-3.2,1.3v1.7h7.8h3.6l1.8-0.7v3.4l-3.1,1.2l-5.3,2.1v1.8l2.4,1l-2.4,1l2.5,1l4.4-1.8v1.3l2.9,1.2h7.6v0.7l-4,1.6l1.6,0.7
			l-5.5,2.2l1.5,0.6l6.5-2.6l4.9-2v-1.9l4.4-1.8l4.9-2v-1.5h2.4v1.3l5.6,2.3h5.3h2.2h7.3l3.2,1.3h4.5h4l4.1,1.7v2.7h3.1v1.5h5.5v2.5
			v1.9l3.6,1.5v1.6h4.4l4.2,1.7l3.8,1.5v1.8l-1.6,0.7v9.3l3.9,1.6v1.7l4,1.6l3.1,1.2v1.3h3.6v2.4l4.1,1.7v2l2.4,1l3.2,1.3v1l1.6,0.6
			l2.1,0.8h2.2v-0.9l-2.8-1.1v-1l-4.5-1.8v-1.4l-4-1.6c0,0,0-1.3,0-1.7c0-0.4,1.9,0,1.9,0v1.7l3.5,1.4l3.5,1.4l2.1,0.8v1h3.8l7.4,3
			v2.8l3.5,1.4h2.5l4.1,1.7h3.2h3.1h5.1l2.4,1h0.5l1.2,1.6l2.2,0.9h3.6l1.8,0.7h5.5l1.6,0.6v1.7h1.9l2.5,1l2.6,1.1h3l3.2,1.3l2.4-1
			v-0.9l1.1-0.4l1.2,0.5v1.4v1.3l1.7,0.7v0.6h-2.4l-2.4,1v1.7l-4,1.6v2.5v1.6l1.9,0.8l5.1,2.1v2.4l1.9,0.8v1.3l4.5,1.8l3.8,1.5h3.9
			l3.4,1.4v4.3h-3.1v2.1v2.7v2.6v2.3v2.7l-3.4,1.4v1.7v3h-2.2v4.1h3.3v1.4l-2.2,0.9l-2,0.8v0.8l-1.8,0.7v4l3,1.2v3l2.5,1l1.9,0.8
			h3.9v1.6h1.2l1.9,0.8h4.4v-1h6.1h2.6v-0.8l-1.6-0.6l-2-0.8h-3.8l-2.8-1.1v-2.1l-1.5-0.6v-1.2h3.3v-0.9l5.3-2.1v-1.7l-1.8-0.7h-2.2
			v-0.9h4.4v-1.6l1.5-0.6l2.9-1.2v-1.5h-2.4v-0.5h3.4l1.7-0.7v-1.5l1.5-0.6h8.4l2.6-1.1v-1.8l-1.6-0.6v-0.8h6.1l2.2-0.9v-0.8l2.4-1
			l5.3-2.2v-2h5.5v-3l6.4-2.6h6.2v-1l5.4-2.2v-2.1l3.4-1.4v-2.9l8.9-3.6v-3.7l-2.6-1.1H-472.9z"/>
		<polygon class="st0" points="-756.7,789.7 -757.9,790.2 -759.6,790.2 -759.6,791.2 -759.6,792 -757.5,791.1 -755.2,792 
			-752.3,790.9 -752.3,790 -753.3,789.6 		"/>
		<polygon class="st0" points="-733.4,795 -735.3,794.2 -735.3,792.9 -739,792.9 -741.1,792 -744.8,792 -744.8,791.3 -749.4,791 
			-751.4,791.8 -751.4,792.7 -748.4,792.7 -746.4,793.6 -744,793.6 -741.9,794.4 -738.2,794.4 -738.2,795.7 -738.2,796.3 
			-738.2,798.2 -735.1,798.2 -732.9,797.3 -729.5,797.3 -728.7,797 -728.7,795.8 -730.7,795 		"/>
		<polygon class="st0" points="-524.2,866.8 -527.9,868.3 -527.9,869.4 -524.7,869.4 -522.8,870.1 -519.5,868.7 -515.5,868.7 
			-515.5,867.6 -517.5,866.8 		"/>
	</g>
	<g>
		<g>
			<circle class="st1" cx="-922.7" cy="764.7" r="11.6"/>
			<polygon class="st1" points="-922.9,789.3 -934.2,765.1 -911.1,765.1 			"/>
		</g>
		<circle class="st2" cx="-922.7" cy="764.7" r="6"/>
	</g>
	<g>
		<g>
			<circle class="st1" cx="-877.4" cy="820.5" r="11.6"/>
			<polygon class="st1" points="-877.6,845.1 -889,820.9 -865.8,820.9 			"/>
		</g>
		<circle class="st2" cx="-877.4" cy="820.5" r="6"/>
	</g>
	<g>
		<g>
			<circle class="st1" cx="-808.1" cy="830.6" r="11.6"/>
			<polygon class="st1" points="-808.3,855.2 -819.7,831.1 -796.5,831.1 			"/>
		</g>
		<circle class="st2" cx="-808.1" cy="830.6" r="6"/>
	</g>
	<g>
		<g>
			<circle class="st1" cx="-749" cy="766.4" r="11.6"/>
			<polygon class="st1" points="-749.2,791 -760.6,766.8 -737.4,766.8 			"/>
		</g>
		<circle class="st2" cx="-749" cy="766.4" r="6"/>
	</g>
	<g>
		<g>
			<circle class="st1" cx="-911.1" cy="812.6" r="11.6"/>
			<polygon class="st1" points="-911.3,837.2 -922.7,813 -899.5,813 			"/>
		</g>
		<circle class="st2" cx="-911.1" cy="812.6" r="6"/>
	</g>
	<g>
		<g>
			<circle class="st1" cx="-638.3" cy="743.3" r="11.6"/>
			<polygon class="st1" points="-638.5,767.9 -649.9,743.8 -626.7,743.8 			"/>
		</g>
		<circle class="st2" cx="-638.3" cy="743.3" r="6"/>
	</g>
	<g>
		<g>
			<circle class="st1" cx="-604.3" cy="758.2" r="11.6"/>
			<polygon class="st1" points="-604.5,782.8 -615.9,758.6 -592.7,758.6 			"/>
		</g>
		<circle class="st2" cx="-604.3" cy="758.2" r="6"/>
	</g>
	<g>
		<g>
			<circle class="st1" cx="-555.1" cy="794.5" r="11.6"/>
			<polygon class="st1" points="-555.3,819.1 -566.7,794.9 -543.5,794.9 			"/>
		</g>
		<circle class="st2" cx="-555.1" cy="794.5" r="6"/>
	</g>
	<g>
		<g>
			<circle class="st1" cx="-508.9" cy="800.5" r="11.6"/>
			<polygon class="st1" points="-509.2,825.1 -520.5,800.9 -497.3,800.9 			"/>
		</g>
		<circle class="st2" cx="-508.9" cy="800.5" r="6"/>
	</g>
	<g>
		<g>
			<circle class="st1" cx="-532.1" cy="827.7" r="11.6"/>
			<polygon class="st1" points="-532.4,852.3 -543.7,828.1 -520.5,828.1 			"/>
		</g>
		<circle class="st2" cx="-532.1" cy="827.7" r="6"/>
	</g>
	<g>
		<g>
			<circle class="st1" cx="-951.5" cy="743.3" r="11.6"/>
			<polygon class="st1" points="-951.7,767.9 -963.1,743.8 -939.9,743.8 			"/>
		</g>
		<circle class="st2" cx="-951.5" cy="743.3" r="6"/>
	</g>
	<g>
		<g>
			<circle class="st1" cx="-974.3" cy="758.8" r="11.6"/>
			<polygon class="st1" points="-974.5,783.4 -985.8,759.3 -962.7,759.3 			"/>
		</g>
		<circle class="st2" cx="-974.3" cy="758.8" r="6"/>
	</g>
	<g>
		<g>
			<circle class="st1" cx="-1015.8" cy="772.4" r="11.6"/>
			<polygon class="st1" points="-1016,797 -1027.4,772.8 -1004.2,772.8 			"/>
		</g>
		<circle class="st2" cx="-1015.8" cy="772.4" r="6"/>
	</g>
	<g>
		<g>
			<circle class="st1" cx="-1040.2" cy="764.8" r="11.6"/>
			<polygon class="st1" points="-1040.5,789.4 -1051.8,765.3 -1028.6,765.3 			"/>
		</g>
		<circle class="st2" cx="-1040.2" cy="764.8" r="6"/>
	</g>
	<g>
		<g>
			<circle class="st1" cx="-1085.3" cy="770.8" r="11.6"/>
			<polygon class="st1" points="-1085.6,795.5 -1096.9,771.3 -1073.7,771.3 			"/>
		</g>
		<circle class="st2" cx="-1085.3" cy="770.8" r="6"/>
	</g>
	<g>
		<g>
			<circle class="st1" cx="-880" cy="755.3" r="11.6"/>
			<polygon class="st1" points="-880.3,779.9 -891.6,755.8 -868.4,755.8 			"/>
		</g>
		<circle class="st2" cx="-880" cy="755.3" r="6"/>
	</g>
	<g>
		<g>
			<circle class="st1" cx="-870.5" cy="739" r="8"/>
			<polygon class="st1" points="-870.6,756 -878.4,739.3 -862.5,739.3 			"/>
		</g>
		<circle class="st2" cx="-870.5" cy="739" r="4.1"/>
	</g>
	<g>
		<g>
			<circle class="st1" cx="-898.3" cy="716.1" r="8"/>
			<polygon class="st1" points="-898.5,733 -906.3,716.4 -890.3,716.4 			"/>
		</g>
		<circle class="st2" cx="-898.3" cy="716.1" r="4.1"/>
	</g>
	<g>
		<g>
			<circle class="st1" cx="-836.4" cy="725.1" r="8"/>
			<polygon class="st1" points="-836.6,742.1 -844.4,725.4 -828.5,725.4 			"/>
		</g>
		<circle class="st2" cx="-836.4" cy="725.1" r="4.1"/>
	</g>
	<g>
		<g>
			<circle class="st1" cx="-925.8" cy="726.1" r="8"/>
			<polygon class="st1" points="-926,743.1 -933.8,726.4 -917.9,726.4 			"/>
		</g>
		<circle class="st2" cx="-925.8" cy="726.1" r="4.1"/>
	</g>
	<g>
		<g>
			<circle class="st1" cx="-805.4" cy="712.7" r="8"/>
			<polygon class="st1" points="-805.6,729.6 -813.4,713 -797.5,713 			"/>
		</g>
		<circle class="st2" cx="-805.4" cy="712.7" r="4.1"/>
	</g>
	<g>
		<g>
			<circle class="st1" cx="-740.1" cy="722.6" r="8"/>
			<polygon class="st1" points="-740.2,739.6 -748,722.9 -732.1,722.9 			"/>
		</g>
		<circle class="st2" cx="-740.1" cy="722.6" r="4.1"/>
	</g>
	<g>
		<g>
			<circle class="st1" cx="-709.5" cy="720.1" r="8"/>
			<polygon class="st1" points="-709.7,737 -717.5,720.4 -701.5,720.4 			"/>
		</g>
		<circle class="st2" cx="-709.5" cy="720.1" r="4.1"/>
	</g>
	<g>
		<g>
			<circle class="st1" cx="-659.1" cy="715.1" r="8"/>
			<polygon class="st1" points="-659.3,732.1 -667.1,715.4 -651.2,715.4 			"/>
		</g>
		<circle class="st2" cx="-659.1" cy="715.1" r="4.1"/>
	</g>
	<g>
		<g>
			<circle class="st1" cx="-619.7" cy="726.7" r="8"/>
			<polygon class="st1" points="-619.9,743.7 -627.7,727 -611.8,727 			"/>
		</g>
		<circle class="st2" cx="-619.7" cy="726.7" r="4.1"/>
	</g>
	<g>
		<g>
			<circle class="st1" cx="-553.1" cy="740.6" r="8"/>
			<polygon class="st1" points="-553.2,757.6 -561.1,740.9 -545.1,740.9 			"/>
		</g>
		<circle class="st2" cx="-553.1" cy="740.6" r="4.1"/>
	</g>
	<g>
		<g>
			<circle class="st1" cx="-678.7" cy="729.3" r="8"/>
			<polygon class="st1" points="-678.9,746.2 -686.7,729.6 -670.7,729.6 			"/>
		</g>
		<circle class="st2" cx="-678.7" cy="729.3" r="4.1"/>
	</g>
	<g>
		<g>
			<circle class="st1" cx="-1126.1" cy="725.5" r="8"/>
			<polygon class="st1" points="-1126.3,742.5 -1134.1,725.8 -1118.1,725.8 			"/>
		</g>
		<circle class="st2" cx="-1126.1" cy="725.5" r="4.1"/>
	</g>
	<g>
		<g>
			<circle class="st1" cx="-1136.1" cy="754.8" r="8"/>
			<polygon class="st1" points="-1136.3,771.7 -1144.1,755.1 -1128.2,755.1 			"/>
		</g>
		<circle class="st2" cx="-1136.1" cy="754.8" r="4.1"/>
	</g>
	<g>
		<g>
			<circle class="st1" cx="-1086.2" cy="730.7" r="8"/>
			<polygon class="st1" points="-1086.3,747.6 -1094.1,731 -1078.2,731 			"/>
		</g>
		<circle class="st2" cx="-1086.2" cy="730.7" r="4.1"/>
	</g>
	<g>
		<g>
			<circle class="st1" cx="-1062.4" cy="734.8" r="8"/>
			<polygon class="st1" points="-1062.6,751.8 -1070.4,735.1 -1054.4,735.1 			"/>
		</g>
		<circle class="st2" cx="-1062.4" cy="734.8" r="4.1"/>
	</g>
	<g>
		<g>
			<circle class="st1" cx="-1019.9" cy="726.2" r="8"/>
			<polygon class="st1" points="-1020.1,743.2 -1027.9,726.5 -1011.9,726.5 			"/>
		</g>
		<circle class="st2" cx="-1019.9" cy="726.2" r="4.1"/>
	</g>
	<g>
		<g>
			<circle class="st1" cx="-1186.3" cy="750.4" r="8"/>
			<polygon class="st1" points="-1186.5,767.4 -1194.3,750.7 -1178.4,750.7 			"/>
		</g>
		<circle class="st2" cx="-1186.3" cy="750.4" r="4.1"/>
	</g>
	<g>
		<g>
			<circle class="st1" cx="-1161" cy="744.8" r="8"/>
			<polygon class="st1" points="-1161.2,761.8 -1169,745.1 -1153,745.1 			"/>
		</g>
		<circle class="st2" cx="-1161" cy="744.8" r="4.1"/>
	</g>
</g>
<g>
	<text transform="matrix(1 0 0 1 -1220.8851 -368.3727)"><tspan x="0" y="0" class="st2" style="font-family:'CenturyGothic-Bold'; font-size:78px;">38,00</tspan><tspan x="196.6" y="0" class="st2" style="font-family:'CenturyGothic-Bold'; font-size:78px; letter-spacing:3;">0+</tspan><tspan x="294.9" y="0" class="st2" style="font-family:'CenturyGothic-Bold'; font-size:78px;">Free Courses</tspan></text>
</g>
<rect x="-1280.9" y="-206.7" class="st3" width="900" height="678"/>
<g>
	<text transform="matrix(1.1 0 0 1 -721.095 5.2792)" style="font-family:'ArialNarrow-Bold'; font-size:38.549px;">Scored card</text>
</g>
<g>
	<path class="st4" d="M-592-171.1c1.3,0.4,2.2,1.3,3.1,2.2c8.6,8.3,17.3,16.6,25.9,24.8c1.2,1.2,1.8,2.5,1.8,4.1
		c0,30.3,0,60.6,0,90.9c0,2.7-1.7,4.4-4.4,4.4c-29.1,0-58.2,0-87.2,0c-2.8,0-4.4-1.7-4.4-4.5c0-17.3,0-34.6,0-51.8c0-3.5,0-7,0-10.5
		c0-0.3,0-0.6,0-0.8c0.1-0.1,0.2-0.1,0.3-0.2c0.5,0.6,0.9,1.2,1.5,1.7c1.9,1.9,3.8,3.9,5.8,5.7c0.4,0.4,0.6,0.9,0.6,1.5
		c0,16.6,0,33.2,0,49.9c0,0.3,0,0.6,0,1c26.6,0,53.2,0,79.8,0c0-27.9,0-55.8,0-83.8c-0.3,0-0.7,0-1,0c-7.3,0-14.6,0-21.9,0
		c-2.9,0-4.5-1.6-4.5-4.5c0-6.9,0-13.9,0-20.8c0-0.3,0-0.6,0-1c-17.5,0-34.9,0-52.4,0c0,5.3,0,10.5,0,16c-0.3-0.3-0.5-0.4-0.6-0.5
		c-2.4-2.4-4.7-4.7-7.1-7.1c-0.3-0.3-0.4-0.7-0.4-1.1c0-3.4,0-6.9,0-10.3c0-3,0.6-3.9,3.3-5.1C-633.3-171.1-612.7-171.1-592-171.1z
		 M-588.7-144.7c4.4,0,8.7,0,13.2,0c-4.4-4.2-8.7-8.4-13.2-12.6C-588.7-153-588.7-148.9-588.7-144.7z"/>
	<path class="st4" d="M-680-142.1c0.6-0.7,1-1.6,1.7-2.2c3.6-3.6,7.2-7.2,10.8-10.8c1.6-1.6,3.3-1.6,4.9,0c2.2,2.2,4.4,4.4,6.5,6.5
		c0.1,0.1,0.3,0.3,0.4,0.4c-5.4,5.4-10.8,10.8-16.3,16.3c-2.1-2.1-4.2-4.2-6.3-6.4c-0.7-0.7-1.2-1.6-1.8-2.3
		C-680-141.2-680-141.7-680-142.1z"/>
	<path class="st4" d="M-669.8-130.2c5.3-5.3,10.7-10.7,16-16.1c19.4,19.4,38.7,38.8,58.1,58.2c-5.3,5.3-10.7,10.7-16,16.1
		C-631-91.3-650.4-110.7-669.8-130.2z"/>
	<path class="st4" d="M-618.1-115.9c1.4,0,2.7,0,4,0c10.3,0,20.6,0,30.9,0c2.2,0,3.7,1.2,4.2,3.3c0.5,2.4-1.3,4.7-3.8,4.8
		c-2.3,0.1-4.5,0-6.8,0c-6.6,0-13.3,0-19.9,0c-0.3,0-0.7-0.1-0.9-0.3c-2.5-2.4-5-4.9-7.5-7.4C-617.9-115.6-617.9-115.7-618.1-115.9z
		"/>
	<path class="st4" d="M-609.6-69.9c5.4-5.4,10.7-10.7,16.1-16.1c0.6,2,1.1,4.1,1.7,6.2c1.2,4.4,2.4,8.7,3.6,13.1
		c0.5,1.7-0.5,2.6-2.1,2.2c-6.4-1.7-12.7-3.5-19.1-5.2C-609.5-69.8-609.5-69.9-609.6-69.9z"/>
	<path class="st4" d="M-602.8-100.7c0.2,0,0.3,0,0.4,0c6.5,0,12.9,0,19.4,0c1.9,0,3.5,1.3,3.9,3c0.5,1.8-0.3,3.7-2,4.5
		c-0.6,0.3-1.3,0.5-2,0.5c-3.8,0-7.6,0-11.4,0c-0.3,0-0.6-0.1-0.8-0.3c-2.5-2.5-5-4.9-7.4-7.4C-602.7-100.4-602.7-100.5-602.8-100.7
		z"/>
</g>
<g>
	<text transform="matrix(1.1 0 0 1 -1157.7981 220.6899)" style="font-family:'ArialNarrow-Bold'; font-size:38.549px;">Distance to Hazard</text>
</g>
<g>
	<path class="st4" d="M-1065.6-94.6l-1.9,0v0.1c-0.1,19.6,10.9,27.4,20,33.1c9.5,6,22.8,8.7,36.8,8.7c7.4,0,35-2.6,49.9-17.7
		c8.5-8.7,10.2-19.5,10.2-29.1c0-7-0.9-13.5-0.9-18l0-0.7c0.3-10.7,4.3-15.5,5.7-18.6c4.5-10.5,10.6-20.7,10.6-33.3l0-1.9
		c-0.3-7-3.8-12-8.7-15c-4.8-3.1-10.8-4.3-16.7-4.3h0l-0.1,0c-6.2,0.1-18.6,4.5-27.3,13.2c-8.6,8.7-15.1,24.8-18.1,29.3
		c-4.5,7-15.8,12.2-24.1,14.7c-7.6,2.4-16.6,6.1-23.5,10.9c-6.7,4.6-14,10.3-13.9,28.8h3.7c0.2-17.6,5.7-21,12.3-25.7
		c6.4-4.5,15.1-8.1,22.5-10.4c8.6-2.8,20.5-7.8,26-16.2c3.3-5.2,9.7-20.8,17.6-28.7c7.7-7.9,20.1-12.1,24.7-12.1h0.1
		c5.3,0.1,10.7,1.2,14.7,3.8c4,2.6,6.7,6.3,7,12.1l0,1.7c0,11.4-5.6,21.1-10.2,31.9c-0.9,2.1-5.8,8.5-6,20l0,0.8
		c0,5,0.9,11.3,0.9,18c0,9.2-1.6,18.8-9.1,26.5c-13.3,13.8-40.6,16.7-47.3,16.6c-13.6,0-26.3-2.7-34.9-8.1c-9-5.8-18.2-11.9-18.3-30
		v-0.1H-1065.6"/>
	<path class="st4" d="M-1009.7-126.1c-25.5,0-46.1,14.1-46.1,31.5c0,17.4,20.7,31.5,46.1,31.5c25.5,0,46.2-14.1,46.2-31.5
		C-963.6-112-984.2-126.1-1009.7-126.1z M-1020.9-97c-5,0-8.9-1.5-8.9-3.6c0-2,4-3.6,8.9-3.6c5,0,9,1.6,9,3.6
		C-1012-98.5-1016-97-1020.9-97z"/>
	<path class="st4" d="M-955.8-144.1c7.9-11.4,7.3-25.5-1.3-31.4c-8.6-5.9-22-1.5-29.8,10c-7.9,11.4-7.3,25.4,1.3,31.4
		C-977.1-128.3-963.7-132.7-955.8-144.1"/>
	<polygon class="st4" points="-1049.7,-142.2 -1026.7,-142.4 -1026.7,-99.5 -1023.2,-99.5 -1023.2,-163.6 	"/>
	<path class="st4" d="M-1018.3-125.5c0,0,24.2-12,27.2-31.8c2,3.5,29.5,11.7,37.7,9.1c-5,9.9-14.7,29.7-14.1,56.9
		C-972.6-116.9-992.5-122.1-1018.3-125.5z"/>
</g>
<g>
	<path class="st5" d="M10.7-82.4l-1.9,0v0.1c-0.1,19.6,10.9,27.4,20,33.1c9.5,6,22.8,8.7,36.8,8.7c7.4,0,35-2.6,49.9-17.7
		c8.5-8.7,10.2-19.5,10.2-29.1c0-7-0.9-13.5-0.9-18l0-0.7c0.3-10.7,4.3-15.5,5.7-18.6c4.5-10.5,10.6-20.7,10.6-33.3l0-1.9
		c-0.3-7-3.8-12-8.7-15c-4.8-3.1-10.8-4.3-16.7-4.3h0l-0.1,0c-6.2,0.1-18.6,4.5-27.3,13.2c-8.6,8.7-15.1,24.8-18.1,29.3
		c-4.5,7-15.8,12.2-24.1,14.7c-7.6,2.4-16.6,6.1-23.5,10.9c-6.7,4.6-14,10.3-13.9,28.8h3.7c0.2-17.6,5.7-21,12.3-25.7
		c6.4-4.5,15.1-8.1,22.5-10.4c8.6-2.8,20.5-7.8,26-16.2c3.3-5.2,9.7-20.8,17.6-28.7c7.7-7.9,20.1-12.1,24.7-12.1h0.1
		c5.3,0.1,10.7,1.2,14.7,3.8c4,2.6,6.7,6.3,7,12.1l0,1.7c0,11.4-5.6,21.1-10.2,31.9c-0.9,2.1-5.8,8.5-6,20l0,0.8
		c0,5,0.9,11.3,0.9,18c0,9.2-1.6,18.8-9.1,26.5C99.7-47.1,72.4-44.1,65.7-44.2c-13.6,0-26.3-2.7-34.9-8.1c-9-5.8-18.2-11.9-18.3-30
		v-0.1H10.7"/>
	<path class="st5" d="M66.6-113.9c-25.5,0-46.1,14.1-46.1,31.5c0,17.4,20.7,31.5,46.1,31.5c25.5,0,46.2-14.1,46.2-31.5
		C112.7-99.8,92.1-113.9,66.6-113.9z M55.4-84.8c-5,0-8.9-1.5-8.9-3.6c0-2,4-3.6,8.9-3.6c5,0,9,1.6,9,3.6
		C64.3-86.3,60.3-84.8,55.4-84.8z"/>
	<path class="st5" d="M120.4-132c7.9-11.4,7.3-25.5-1.3-31.4c-8.6-5.9-22-1.5-29.8,10C81.4-142,82-127.9,90.7-122
		C99.2-116.1,112.6-120.5,120.4-132"/>
	<polygon class="st5" points="26.6,-130 49.6,-130.2 49.6,-87.3 53.1,-87.3 53.1,-151.4 	"/>
	<path class="st5" d="M58-113.4c0,0,24.2-12,27.2-31.8c2,3.5,29.5,11.7,37.7,9.1c-5,9.9-14.7,29.7-14.1,56.9
		C103.7-104.7,83.8-109.9,58-113.4z"/>
</g>
<g>
	<text transform="matrix(1.1 0 0 1 -742.3167 417.1537)"><tspan x="0" y="0" style="font-family:'ArialNarrow-Bold'; font-size:38.549px;">Up to 12 hours</tspan><tspan x="12.3" y="37.9" style="font-family:'ArialNarrow-Bold'; font-size:38.549px;">in GPS mode</tspan></text>
</g>
<g>
	<path class="st4" d="M-639.2,270c0.5-3.2,0.5-3.2,3.7-3.2c1.3,0,2.6,0,4.3,0c0-1.6,0.1-3,0-4.4c-0.1-1.6,0.5-2.4,2.3-2.3
		c5.6,0.1,11.2,0.1,16.8,0c1.6,0,2.3,0.5,2.2,2.1c-0.1,1.4,0,2.9,0,4.6c1.6,0,2.9,0,4.3,0c3.8,0.1,3.1-0.2,3.7,3.2
		c2.5,0,5.1,0,7.7,0c3.3,0,4.6,1.3,4.6,4.6c0,33.7,0,67.4,0,101.2c0,3-1.4,4.4-4.3,4.4c-17.7,0-35.4,0-53.1,0c-3,0-4.4-1.4-4.4-4.4
		c0-33.8,0-67.6,0-101.4c0-3,1.4-4.3,4.4-4.4C-644.5,269.9-641.9,270-639.2,270z M-592.8,325.3c0-15.7,0-31.5,0-47.2
		c0-3.5-1.1-4.6-4.5-4.6c-15.5,0-31,0-46.6,0c-3.3,0-4.5,1.1-4.5,4.4c0,31.4,0,62.8,0,94.2c0,3.6,1.1,4.6,4.7,4.6
		c15.2,0,30.5,0,45.7,0c4.2,0,5.1-0.9,5.1-5.1C-592.8,356.1-592.8,340.7-592.8,325.3z"/>
	<path class="st4" d="M-620.8,373c-6.8,0-13.6,0-20.4,0c-3.1,0-4-0.9-4-4c0-4,0-8,0-12c0-2.5,1.3-3.7,3.7-3.7c13.9,0,27.8,0,41.7,0
		c2.7,0,3.8,1.1,3.8,3.8c0,4,0,8,0,12c0,2.9-1.1,3.9-4,3.9C-606.9,373-613.8,373-620.8,373z"/>
	<path class="st4" d="M-620.8,347.5c-6.8,0-13.6,0-20.4,0c-3.1,0-4-0.9-4-4c0-4,0-8,0-12c0-2.5,1.3-3.7,3.7-3.7
		c13.9,0,27.8,0,41.7,0c2.7,0,3.8,1.1,3.8,3.8c0,4,0,8,0,12c0,2.9-1.1,3.9-4,3.9C-606.9,347.6-613.8,347.5-620.8,347.5z"/>
	<path class="st4" d="M-620.8,296.7c-6.8,0-13.6,0-20.4,0c-3.1,0-4-0.9-4-4c0-4,0-8,0-12c0-2.5,1.3-3.7,3.7-3.7
		c13.9,0,27.8,0,41.7,0c2.7,0,3.8,1.1,3.8,3.8c0,4,0,8,0,12c0,2.9-1.1,3.9-4,3.9C-606.9,296.7-613.8,296.7-620.8,296.7z"/>
	<path class="st4" d="M-620.8,322.1c-6.8,0-13.6,0-20.4,0c-3.1,0-4-0.9-4-4c0-4,0-8,0-12c0-2.5,1.3-3.7,3.7-3.7
		c13.9,0,27.8,0,41.7,0c2.7,0,3.8,1.1,3.8,3.8c0,4,0,8,0,12c0,2.9-1.1,3.9-4,3.9C-606.9,322.1-613.8,322.1-620.8,322.1z"/>
</g>
<g>
	<text transform="matrix(1.1 0 0 1 -1149.0808 -13.668)"><tspan x="0" y="0" style="font-family:'ArialNarrow-Bold'; font-size:38.549px;">Distance to Front/</tspan><tspan x="-27.3" y="37.9" style="font-family:'ArialNarrow-Bold'; font-size:38.549px;">Center/Back of Green</tspan></text>
</g>
<g>
	<text transform="matrix(1.1 0 0 1 -1117.2156 436.102)" style="font-family:'ArialNarrow-Bold'; font-size:38.549px;">Shot Distance</text>
</g>
<g>
	<path class="st4" d="M-1019.9,379.4c0,11.3-9.1,20.4-20.4,20.4c-11.3,0-20.4-9.1-20.4-20.4c0-11.3,9.1-20.4,20.4-20.4
		C-1029.1,359-1019.9,368.1-1019.9,379.4z"/>
	<polygon class="st4" points="-1014,346.1 -1001.8,353.7 -952.1,310.1 -956.5,308 -944.5,305.1 -941.9,314.7 -946,313.1 -984,363.9 
		-967.9,372.8 -1019.9,382.8 	"/>
	<path class="st4" d="M-1026.7,367c0,0-20.7-44.6,18.7-64.9c0,0,29.4-15.4,61.7,1.7c0,0-30.6-26.4-77.6-2.9c0,0-37.5,17.6-35.6,71
		l7.9-3c0,0-7.4-47.5,42.7-70.4c0,0,14.6-7.5,39-3.6c0,0-57.8-5.6-66.3,39.4c0,0-4.2,19.8,3,35.5L-1026.7,367z"/>
</g>
<g>
	<polygon class="st2" points="-577.1,1362.6 -592,1387.1 -592,1406.4 -559.4,1410.8 -544.8,1404.2 -550.6,1374.6 	"/>
	<polygon class="st6" points="-568.2,1372.7 -560.7,1382.1 -561.6,1395.6 -574.4,1404.9 -559.2,1405.8 -550.6,1397.8 -554.8,1380.7 
			"/>
	<polygon class="st2" points="-626.7,1358.9 -637.2,1369.4 -629.3,1379.7 -610.5,1380.5 -605.2,1374.9 -614.2,1355 	"/>
	<polygon class="st2" points="-591.2,1318.4 -579.7,1306.4 -582.4,1304.7 -609.5,1308.8 -628.8,1302.8 -638.8,1319.9 -640.5,1329.9 
		-631.5,1327 -628.3,1328.9 -618.3,1349.6 -613.5,1348.4 -610.1,1349.6 -608.6,1352.6 -602.5,1331.4 -602.5,1319.4 -616.1,1320.3 
		-625.9,1311.3 -615.1,1316 -600,1313.3 	"/>
	<polygon class="st2" points="-633.8,1333.8 -654.8,1340.9 -660.4,1367.7 -645,1369 -630.3,1354.1 	"/>
	<polygon class="st2" points="-658.6,1406.8 -638.7,1416.7 -615.9,1401.7 -625.8,1389.9 -646.8,1390 	"/>
	<polygon class="st2" points="-514.5,1353.8 -524.7,1318.6 -563.9,1298.9 -595.9,1331.6 -605.2,1360.6 -599,1372.9 -592,1376.1 
		-581,1357.7 -577.5,1356.5 -556,1365.5 -550.1,1361.4 -548.4,1346.3 -544.3,1364.5 -547.9,1368.9 -545.3,1371.4 -542.4,1382.9 
		-522.5,1378.7 -511.5,1370.5 	"/>
	<polygon class="st6" points="-545.4,1315.1 -559.1,1318 -537.2,1338.2 -528.9,1358 -529.6,1337.1 	"/>
</g>
<g>
	<ellipse class="st2" cx="-586.3" cy="1570" rx="74.2" ry="27.1"/>
	<g>
		<g>
			<g>
				<g>
					<path class="st6" d="M-585.1,1532.3c0,23.4-15.8,42.5-35.2,42.5c-19.5,0-35.2-19-35.2-42.5c0-23.4,35.2-59.8,35.2-59.8
						S-585.1,1508.8-585.1,1532.3z"/>
				</g>
			</g>
			<g>
				<g>
					<path class="st6" d="M-624,1561.5c-2.9,0.4-5.8-0.1-8.6-1.1c-2.8-1-5.5-2.6-7.9-4.9c-2.3-2.3-4.3-5.4-5.2-9
						c-1-3.5-0.9-7.3,0.1-10.6c0.5,3.4,1.3,6.6,2.5,9.3c1.3,2.7,2.9,5,4.9,6.9C-634.2,1556-629.2,1558.7-624,1561.5z"/>
				</g>
			</g>
		</g>
		<g>
			<g>
				<g>
					<path class="st2" d="M-594.3,1533.2c0,17.3-11.6,31.4-26,31.4c-14.4,0-26-14-26-31.4c0-17.3,26-44.2,26-44.2
						S-594.3,1515.9-594.3,1533.2z"/>
				</g>
			</g>
			<g>
				<g>
					<path class="st6" d="M-623,1554.8c-2.1,0.3-4.3-0.1-6.4-0.8c-2.1-0.7-4.1-1.9-5.8-3.6c-1.7-1.7-3.2-4-3.9-6.6
						c-0.7-2.6-0.7-5.4,0.1-7.8c0.4,2.5,0.9,4.8,1.9,6.8c0.9,2,2.2,3.7,3.7,5.1C-630.5,1550.8-626.9,1552.7-623,1554.8z"/>
				</g>
			</g>
		</g>
	</g>
</g>
<g>
	<g>
		<path class="st2" d="M-585.9,1212.2c25.3,0,50.5,0,75.8,0c-6.2-11-12.3-22-18.5-33c-2.7-4.7-5.4-9.3-8-14.2
			c-2.8-5.2-5.6-11.9-10-12.8c-4.6-1-8.7,4.2-11.7,9.7C-570.1,1184.1-585.9,1212.2-585.9,1212.2z"/>
		<path class="st6" d="M-637.3,1212.2c33.6,0,67.3,0,100.9,0c-8.2-14.6-16.4-29.3-24.6-44c-3.5-6.3-7.2-12.4-10.6-18.9
			c-3.7-6.9-7.4-15.8-13.3-17c-6.2-1.3-11.6,5.5-15.6,12.9C-616.3,1174.7-637.3,1212.2-637.3,1212.2z"/>
		<path class="st2" d="M-644.8,1212.2c33.6,0,67.3,0,100.9,0c-8.2-14.6-16.4-29.3-24.6-44c-3.5-6.3-7.2-12.4-10.6-18.9
			c-3.7-6.9-7.4-15.8-13.3-17c-6.2-1.3-11.6,5.5-15.6,12.9C-623.8,1174.7-644.8,1212.2-644.8,1212.2z"/>
	</g>
	<path class="st2" d="M-664.3,1212.2c19,0,38,0,57,0c-4.6-8.3-9.3-16.6-13.9-25c-2-3.6-4.1-7-6-10.7c-2.1-3.9-4.2-9-7.5-9.7
		c-3.5-0.7-6.6,3.1-8.8,7.3C-652.4,1190.9-664.3,1212.2-664.3,1212.2z"/>
</g>
<g>
	<path class="st4" d="M-881.8,103.6c-10.4-9.8-26.6-12.9-33.8-9.3c-8.3,4.1-14.5,12.8-23.2,12.7c0,0-19.8-1.6-29.3,0.2
		c-12.4,2.2-22.9,6.3-22.5,29.9c0,14.4,10.9,19.9,23.7,25.1c9.4,3.8,14.8,8,38.2,9.4c23.4,1.5,42.5-8.8,52.1-26
		C-872.4,137.6-870.7,114.2-881.8,103.6z M-886.9,117.8v4.2h-2.6v2.7h-4.1V122h-2.6v-4.2h2.6v-2.7h4.1v2.7H-886.9z M-896.4,136.6
		v-4.2h2.6v-2.7h4.1v2.7h2.6v4.2h-2.6v2.7h-4.1v-2.7H-896.4z M-900.2,101.6h2.6v-2.7h4.1v2.7h2.6v4.2h-2.6v2.7h-4.1v-2.7h-2.6V101.6
		z M-906.8,143.9v-4.2h2.6v-2.7h4.1v2.7h2.6v4.2h-2.6v2.7h-4.1v-2.7H-906.8z M-898.5,125.4v4.2h-2.6v2.7h-4.1v-2.7h-2.6v-4.2h2.6
		v-2.7h4.1v2.7H-898.5z M-908.9,112.1h2.6v-2.7h4.1v2.7h2.6v4.2h-2.6v2.7h-4.1v-2.7h-2.6V112.1z M-910.1,120.4v4.2h-2.6v2.7h-4.1
		v-2.7h-2.6v-4.2h2.6v-2.7h4.1v2.7H-910.1z M-919.9,138.4v-4.2h2.6v-2.7h4.1v2.7h2.6v4.2h-2.6v2.7h-4.1v-2.7H-919.9z M-922.2,106.4
		h2.6v-2.7h4.1v2.7h2.6v4.2h-2.6v2.7h-4.1v-2.7h-2.6V106.4z M-931.3,116.3h2.6v-2.7h4.1v2.7h2.6v4.2h-2.6v2.7h-4.1v-2.7h-2.6V116.3z
		 M-932.1,128.9h2.6v-2.7h4.1v2.7h2.6v4.2h-2.6v2.7h-4.1v-2.7h-2.6V128.9z M-943.6,140.6v-4.2h2.6v-2.7h4.1v2.7h2.6v4.2h-2.6v2.7
		h-4.1v-2.7H-943.6z M-944.2,122.4h2.6v-2.7h4.1v2.7h2.6v4.2h-2.6v2.7h-4.1v-2.7h-2.6V122.4z M-944.6,132v4.2h-2.6v2.7h-4.1v-2.7
		h-2.6V132h2.6v-2.7h4.1v2.7H-944.6z M-956.9,118.4h2.6v-2.7h4.1v2.7h2.6v4.2h-2.6v2.7h-4.1v-2.7h-2.6V118.4z M-955.6,127.8v4.2
		h-2.6v2.7h-4.1V132h-2.6v-4.2h2.6v-2.7h4.1v2.7H-955.6z M-967.9,113.2h2.6v-2.7h4.1v2.7h2.6v4.2h-2.6v2.7h-4.1v-2.7h-2.6V113.2z
		 M-976,122.8h2.6v-2.7h4.1v2.7h2.6v4.2h-2.6v2.7h-4.1V127h-2.6V122.8z M-974.9,135.8h-2.6v2.7h-4.1v-2.7h-2.6v-4.2h2.6v-2.7h4.1
		v2.7h2.6V135.8z M-974.3,137h2.6v-2.7h4.1v2.7h2.6v4.2h-2.6v2.7h-4.1v-2.7h-2.6V137z M-962.8,154.4h-2.6v2.7h-4.1v-2.7h-2.6v-4.2
		h2.6v-2.7h4.1v2.7h2.6V154.4z M-962.6,144.9v-4.2h2.6V138h4.1v2.7h2.6v4.2h-2.6v2.7h-4.1v-2.7H-962.6z M-950.4,158.9h-2.6v2.7h-4.1
		v-2.7h-2.6v-4.2h2.6V152h4.1v2.7h2.6V158.9z M-951.6,150v-4.2h2.6v-2.7h4.1v2.7h2.6v4.2h-2.6v2.7h-4.1V150H-951.6z M-936.6,161.6
		h-2.6v2.7h-4.1v-2.7h-2.6v-4.2h2.6v-2.7h4.1v2.7h2.6V161.6z M-929,153.5h-2.6v2.7h-4.1v-2.7h-2.6v-4.2h2.6v-2.7h4.1v2.7h2.6V153.5z
		 M-929.8,145.4v-4.2h2.6v-2.7h4.1v2.7h2.6v4.2h-2.6v2.7h-4.1v-2.7H-929.8z M-918.2,160.5h-2.6v2.7h-4.1v-2.7h-2.6v-4.2h2.6v-2.7
		h4.1v2.7h2.6V160.5z M-918.4,151.7v-4.2h2.6v-2.7h4.1v2.7h2.6v4.2h-2.6v2.7h-4.1v-2.7H-918.4z M-905.7,162.7h-2.6v2.7h-4.1v-2.7
		h-2.6v-4.2h2.6v-2.7h4.1v2.7h2.6V162.7z M-895.5,157h-2.6v2.7h-4.1V157h-2.6v-4.2h2.6v-2.7h4.1v2.7h2.6V157z M-885.6,151.1h-2.6
		v2.7h-4.1v-2.7h-2.6v-4.2h2.6v-2.7h4.1v2.7h2.6V151.1z"/>
	<g>
		<defs>
			<rect id="SVGID_3_" x="-1114" y="96.7" width="103.8" height="71.1"/>
		</defs>
		<clipPath id="SVGID_4_">
			<use xlink:href="#SVGID_3_"  style="overflow:visible;"/>
		</clipPath>
		<g class="st7">
			<path class="st8" d="M-1134.3,106.2c0,0,14,18.9,35.8-0.9v0c0,0,14.5,21.3,35,0.4c0,0,16.2,19.6,35.8-0.5v0v0
				c0,0,16.1,20.5,35.8,2.3"/>
			<path class="st8" d="M-1134.3,127.9c0,0,14,18.9,35.8-0.9v0c0,0,14.5,21.3,35,0.4c0,0,16.2,19.6,35.8-0.5v0v0
				c0,0,16.1,20.5,35.8,2.3"/>
			<path class="st8" d="M-1134.3,149.6c0,0,14,18.9,35.8-0.9v0c0,0,14.5,21.3,35,0.4c0,0,16.2,19.6,35.8-0.5v0v0
				c0,0,16.1,20.5,35.8,2.3"/>
		</g>
	</g>
</g>
<g>
	<text transform="matrix(1.1 0 0 1 -702.6877 220.6908)" style="font-family:'ArialNarrow-Bold'; font-size:38.549px;">Auto Hole</text>
</g>
<g>
	<path class="st4" d="M-690.4,150.9c-0.2,0-0.3,0-0.4,0V122l53.8-24.6l-53.8-21.1v-2.9h-7.5v52v26.3c-9.7,1.8-16.7,6.6-16.7,12.4
		c0,7.3,11,13.2,24.7,13.2c13.6,0,24.7-5.9,24.7-13.2C-665.7,156.8-676.8,150.9-690.4,150.9z M-687.3,86.4h5.3h5v23.9h-5V91h-5.3
		V86.4z"/>
	<path class="st4" d="M-579.5,154.1c-0.2,0-0.3,0-0.4,0v-28.9l53.8-24.6L-580,79.6v-2.9h-7.5v52v26.3c-9.7,1.8-16.7,6.6-16.7,12.4
		c0,7.3,11,13.2,24.7,13.2c13.6,0,24.7-5.9,24.7-13.2C-554.9,160-565.9,154.1-579.5,154.1z M-582.6,109.1c0-4.7,3.2-7.7,9.7-8.9
		c5.3-1,8-2.2,8-3.6c0-0.2,0-0.4,0-0.5c0-1.2-0.6-1.9-1.9-1.9c-2.1,0-3.5,0-4.3,0c-0.9,0-2.3,0-4.4,0c-1.2,0-1.9,1.1-1.9,3.2
		c0,0.3,0,0.5,0,0.8h-4.9c0-0.6,0-1.2,0-1.7c0-4.6,2.2-6.9,6.7-6.9c1.5,0,3,0,4.5,0c1.5,0,2.9,0,4.4,0c4.5,0,6.7,1.8,6.7,5.5
		c0,0.5,0,0.9,0,1.4c0,3.7-3.2,6.2-9.6,7.5c-5.4,1.1-8,2.7-8,5h17.9v4.5h-22.8V109.1z"/>
	<g>
		<rect x="-633.4" y="106.4" class="st4" width="15.8" height="24.9"/>
		<polygon class="st4" points="-601.1,118.9 -621.7,144.9 -621.7,92.8 		"/>
	</g>
</g>
<rect x="-1223" y="-343.8" style="fill:none;" width="794.2" height="118"/>
<text transform="matrix(1.0098 0 0 1 -1222.9723 -317.0733)"><tspan x="0" y="0" class="st2" style="font-family:'Calibri'; font-size:34px;">Support more than 38000 courses around the world. </tspan><tspan x="0" y="40.8" class="st2" style="font-family:'Calibri'; font-size:34px;">Quickly gets your location by high sensitivity GPS,  to </tspan><tspan x="0" y="81.6" class="st2" style="font-family:'Calibri'; font-size:34px;">recognize Golf course nearby.</tspan></text>
<g>
	<path class="st5" d="M273.6-173.1c1.3,0.4,2.2,1.3,3.1,2.2c8.6,8.3,17.3,16.6,25.9,24.8c1.2,1.2,1.8,2.5,1.8,4.1
		c0,30.3,0,60.6,0,90.9c0,2.7-1.7,4.4-4.4,4.4c-29.1,0-58.2,0-87.2,0c-2.8,0-4.4-1.7-4.4-4.5c0-17.3,0-34.6,0-51.8c0-3.5,0-7,0-10.5
		c0-0.3,0-0.6,0-0.8c0.1-0.1,0.2-0.1,0.3-0.2c0.5,0.6,0.9,1.2,1.5,1.7c1.9,1.9,3.8,3.9,5.8,5.7c0.4,0.4,0.6,0.9,0.6,1.5
		c0,16.6,0,33.2,0,49.9c0,0.3,0,0.6,0,1c26.6,0,53.2,0,79.8,0c0-27.9,0-55.8,0-83.8c-0.3,0-0.7,0-1,0c-7.3,0-14.6,0-21.9,0
		c-2.9,0-4.5-1.6-4.5-4.5c0-6.9,0-13.9,0-20.8c0-0.3,0-0.6,0-1c-17.5,0-34.9,0-52.4,0c0,5.3,0,10.5,0,16c-0.3-0.3-0.5-0.4-0.6-0.5
		c-2.4-2.4-4.7-4.7-7.1-7.1c-0.3-0.3-0.4-0.7-0.4-1.1c0-3.4,0-6.9,0-10.3c0-3,0.6-3.9,3.3-5.1C232.3-173.1,253-173.1,273.6-173.1z
		 M276.9-146.8c4.4,0,8.7,0,13.2,0c-4.4-4.2-8.7-8.4-13.2-12.6C276.9-155.1,276.9-151,276.9-146.8z"/>
	<path class="st5" d="M185.6-144.2c0.6-0.7,1-1.6,1.7-2.2c3.6-3.6,7.2-7.2,10.8-10.8c1.6-1.6,3.3-1.6,4.9,0c2.2,2.2,4.4,4.4,6.5,6.5
		c0.1,0.1,0.3,0.3,0.4,0.4c-5.4,5.4-10.8,10.8-16.3,16.3c-2.1-2.1-4.2-4.2-6.3-6.4c-0.7-0.7-1.2-1.6-1.8-2.3
		C185.6-143.2,185.6-143.7,185.6-144.2z"/>
	<path class="st5" d="M195.8-132.2c5.3-5.3,10.7-10.7,16-16.1c19.4,19.4,38.7,38.8,58.1,58.2c-5.3,5.3-10.7,10.7-16,16.1
		C234.6-93.4,215.2-112.8,195.8-132.2z"/>
	<path class="st5" d="M247.5-117.9c1.4,0,2.7,0,4,0c10.3,0,20.6,0,30.9,0c2.2,0,3.7,1.2,4.2,3.3c0.5,2.4-1.3,4.7-3.8,4.8
		c-2.3,0.1-4.5,0-6.8,0c-6.6,0-13.3,0-19.9,0c-0.3,0-0.7-0.1-0.9-0.3c-2.5-2.4-5-4.9-7.5-7.4C247.7-117.6,247.7-117.7,247.5-117.9z"
		/>
	<path class="st5" d="M256-71.9c5.4-5.4,10.7-10.7,16.1-16.1c0.6,2,1.1,4.1,1.7,6.2c1.2,4.4,2.4,8.7,3.6,13.1
		c0.5,1.7-0.5,2.6-2.1,2.2c-6.4-1.7-12.7-3.5-19.1-5.2C256.1-71.9,256.1-71.9,256-71.9z"/>
	<path class="st5" d="M262.8-102.7c0.2,0,0.3,0,0.4,0c6.5,0,12.9,0,19.4,0c1.9,0,3.5,1.3,3.9,3c0.5,1.8-0.3,3.7-2,4.5
		c-0.6,0.3-1.3,0.5-2,0.5c-3.8,0-7.6,0-11.4,0c-0.3,0-0.6-0.1-0.8-0.3c-2.5-2.5-5-4.9-7.4-7.4C262.9-102.5,262.9-102.6,262.8-102.7z
		"/>
</g>
<g>
	<path class="st5" d="M472.4-112.4c-10.4-9.8-26.6-12.9-33.8-9.3c-8.3,4.1-14.5,12.8-23.2,12.7c0,0-19.8-1.6-29.3,0.2
		c-12.4,2.2-22.9,6.3-22.5,29.9c0,14.4,10.9,19.9,23.7,25.1c9.4,3.8,14.8,8,38.2,9.4c23.4,1.5,42.5-8.8,52.1-26
		C481.9-78.5,483.6-101.9,472.4-112.4z M467.4-98.3v4.2h-2.6v2.7h-4.1v-2.7h-2.6v-4.2h2.6v-2.7h4.1v2.7H467.4z M457.8-79.4v-4.2h2.6
		v-2.7h4.1v2.7h2.6v4.2h-2.6v2.7h-4.1v-2.7H457.8z M454-114.5h2.6v-2.7h4.1v2.7h2.6v4.2h-2.6v2.7h-4.1v-2.7H454V-114.5z M447.5-72.2
		v-4.2h2.6v-2.7h4.1v2.7h2.6v4.2h-2.6v2.7h-4.1v-2.7H447.5z M455.7-90.6v4.2h-2.6v2.7H449v-2.7h-2.6v-4.2h2.6v-2.7h4.1v2.7H455.7z
		 M445.4-104h2.6v-2.7h4.1v2.7h2.6v4.2H452v2.7H448v-2.7h-2.6V-104z M444.1-95.7v4.2h-2.6v2.7h-4.1v-2.7h-2.6v-4.2h2.6v-2.7h4.1v2.7
		H444.1z M434.4-77.7v-4.2h2.6v-2.7h4.1v2.7h2.6v4.2H441v2.7H437v-2.7H434.4z M432-109.7h2.6v-2.7h4.1v2.7h2.6v4.2h-2.6v2.7h-4.1
		v-2.7H432V-109.7z M422.9-99.8h2.6v-2.7h4.1v2.7h2.6v4.2h-2.6v2.7h-4.1v-2.7h-2.6V-99.8z M422.1-87.1h2.6v-2.7h4.1v2.7h2.6v4.2
		h-2.6v2.7h-4.1v-2.7h-2.6V-87.1z M410.7-75.5v-4.2h2.6v-2.7h4.1v2.7h2.6v4.2h-2.6v2.7h-4.1v-2.7H410.7z M410-93.7h2.6v-2.7h4.1v2.7
		h2.6v4.2h-2.6v2.7h-4.1v-2.7H410V-93.7z M409.6-84.1v4.2H407v2.7h-4.1v-2.7h-2.6v-4.2h2.6v-2.7h4.1v2.7H409.6z M397.3-97.6h2.6
		v-2.7h4.1v2.7h2.6v4.2H404v2.7h-4.1v-2.7h-2.6V-97.6z M398.6-88.2v4.2H396v2.7h-4.1V-84h-2.6v-4.2h2.6v-2.7h4.1v2.7H398.6z
		 M386.3-102.9h2.6v-2.7h4.1v2.7h2.6v4.2H393v2.7h-4.1v-2.7h-2.6V-102.9z M378.3-93.2h2.6V-96h4.1v2.7h2.6v4.2h-2.6v2.7h-4.1v-2.7
		h-2.6V-93.2z M379.3-80.3h-2.6v2.7h-4.1v-2.7H370v-4.2h2.6v-2.7h4.1v2.7h2.6V-80.3z M379.9-79h2.6v-2.7h4.1v2.7h2.6v4.2h-2.6v2.7
		h-4.1v-2.7h-2.6V-79z M391.4-61.7h-2.6v2.7h-4.1v-2.7h-2.6v-4.2h2.6v-2.7h4.1v2.7h2.6V-61.7z M391.6-71.1v-4.2h2.6V-78h4.1v2.7h2.6
		v4.2h-2.6v2.7h-4.1v-2.7H391.6z M403.9-57.1h-2.6v2.7h-4.1v-2.7h-2.6v-4.2h2.6V-64h4.1v2.7h2.6V-57.1z M402.6-66.1v-4.2h2.6V-73
		h4.1v2.7h2.6v4.2h-2.6v2.7h-4.1v-2.7H402.6z M417.6-54.5H415v2.7H411v-2.7h-2.6v-4.2h2.6v-2.7h4.1v2.7h2.6V-54.5z M425.3-62.6h-2.6
		v2.7h-4.1v-2.7h-2.6v-4.2h2.6v-2.7h4.1v2.7h2.6V-62.6z M424.4-70.7v-4.2h2.6v-2.7h4.1v2.7h2.6v4.2h-2.6v2.7H427v-2.7H424.4z
		 M436-55.6h-2.6v2.7h-4.1v-2.7h-2.6v-4.2h2.6v-2.7h4.1v2.7h2.6V-55.6z M435.8-64.3v-4.2h2.6v-2.7h4.1v2.7h2.6v4.2h-2.6v2.7h-4.1
		v-2.7H435.8z M448.5-53.4h-2.6v2.7h-4.1v-2.7h-2.6v-4.2h2.6v-2.7h4.1v2.7h2.6V-53.4z M458.7-59.1h-2.6v2.7H452v-2.7h-2.6v-4.2h2.6
		V-66h4.1v2.7h2.6V-59.1z M468.6-65H466v2.7H462V-65h-2.6v-4.2h2.6v-2.7h4.1v2.7h2.6V-65z"/>
	<g>
		<defs>
			<rect id="SVGID_5_" x="355.1" y="-172.5" width="74" height="50.7"/>
		</defs>
		<clipPath id="SVGID_6_">
			<use xlink:href="#SVGID_5_"  style="overflow:visible;"/>
		</clipPath>
		<g class="st9">
			<path class="st10" d="M340.6-165.8c0,0,10,13.5,25.5-0.6v0c0,0,10.3,15.2,24.9,0.3c0,0,11.6,14,25.5-0.4v0v0
				c0,0,11.4,14.6,25.6,1.6"/>
			<path class="st10" d="M340.6-150.3c0,0,10,13.5,25.5-0.6v0c0,0,10.3,15.2,24.9,0.3c0,0,11.6,14,25.5-0.4v0v0
				c0,0,11.4,14.6,25.6,1.6"/>
			<path class="st10" d="M340.6-134.8c0,0,10,13.5,25.5-0.6v0c0,0,10.3,15.2,24.9,0.3c0,0,11.6,14,25.5-0.4v0v0
				c0,0,11.4,14.6,25.6,1.6"/>
		</g>
	</g>
</g>
<g>
	<path class="st5" d="M26.1,104.4c-0.1,0-0.3,0-0.4,0V74.2l40-25.9l-40-21.8v-3.1h-7.2v54.3v27.4c-9.3,1.9-16,6.9-16,13
		c0,7.6,10.6,13.8,23.6,13.8s23.6-6.2,23.6-13.8C49.7,110.5,39.1,104.4,26.1,104.4z M29.1,39h5h4.8v22.9h-4.8V43.4h-5V39z"/>
	<path class="st5" d="M107.9,104.4c-0.1,0-0.3,0-0.4,0V74.2l40-25.9l-40-21.8v-3.1h-7.2v54.3v27.4c-9.3,1.9-16,6.9-16,13
		c0,7.6,10.6,13.8,23.6,13.8s23.6-6.2,23.6-13.8C131.5,110.5,121,104.4,107.9,104.4z M107.3,56.6c0-4.5,2.3-7.4,6.9-8.5
		c3.8-0.9,5.7-2.1,5.7-3.4c0-0.2,0-0.3,0-0.5c0-1.2-0.4-1.8-1.3-1.8c-1.5,0-2.5,0-3.1,0c-0.6,0-1.7,0-3.1,0c-0.9,0-1.3,1.1-1.3,3.1
		c0,0.3,0,0.5,0,0.8h-3.5c0-0.6,0-1.1,0-1.7c0-4.4,1.6-6.6,4.8-6.6c1.1,0,2.1,0,3.2,0c1,0,2.1,0,3.2,0c3.2,0,4.8,1.8,4.8,5.3
		c0,0.4,0,0.9,0,1.3c0,3.6-2.3,6-6.9,7.2c-3.8,1-5.7,2.6-5.7,4.8h12.8V61h-16.3V56.6z"/>
	<g>
		<rect x="58" y="75.9" class="st5" width="15.1" height="13.7"/>
		<polygon class="st5" points="88.9,82.8 69.2,97.1 69.2,68.4 		"/>
	</g>
</g>
<g>
	<path class="st5" d="M225.6,110.3c0,11.7-9.5,21.2-21.2,21.2c-11.7,0-21.2-9.5-21.2-21.2c0-11.7,9.5-21.2,21.2-21.2
		C216.1,89.1,225.6,98.6,225.6,110.3z"/>
	<polygon class="st5" points="231.8,75.6 244.5,83.5 296.1,38.2 291.6,36 304.1,33 306.8,43 302.4,41.3 262.9,94.2 279.7,103.4 
		225.6,113.8 	"/>
	<path class="st5" d="M218.5,97.4c0,0-21.5-46.4,19.5-67.5c0,0,30.6-16,64.2,1.7c0,0-31.8-27.4-80.7-3c0,0-38.9,18.3-37,73.9
		l8.2-3.2c0,0-7.7-49.4,44.4-73.2c0,0,15.1-7.8,40.5-3.8c0,0-60.1-5.8-68.9,40.9c0,0-4.3,20.6,3.1,36.9L218.5,97.4z"/>
</g>
<g>
	<path class="st5" d="M396.1,25c0.6-3.3,0.6-3.3,3.8-3.3c1.3,0,2.6,0,4.4,0c0-1.6,0.1-3,0-4.4c-0.1-1.7,0.5-2.4,2.3-2.4
		c5.7,0.1,11.3,0.1,17,0c1.6,0,2.3,0.5,2.2,2.2c-0.1,1.5,0,2.9,0,4.6c1.6,0,3,0,4.4,0c3.9,0.1,3.2-0.2,3.7,3.3c2.6,0,5.2,0,7.8,0
		c3.3,0,4.7,1.4,4.7,4.7c0,34.2,0,68.5,0,102.7c0,3-1.4,4.5-4.4,4.5c-18,0-35.9,0-53.9,0c-3.1,0-4.4-1.4-4.4-4.5
		c0-34.3,0-68.6,0-103c0-3,1.4-4.4,4.4-4.4C390.7,25,393.4,25,396.1,25z M443.2,81.2c0-16,0-32,0-47.9c0-3.5-1.1-4.7-4.6-4.7
		c-15.8,0-31.5,0-47.3,0c-3.4,0-4.5,1.2-4.5,4.5c0,31.9,0,63.8,0,95.7c0,3.6,1.1,4.7,4.8,4.7c15.5,0,30.9,0,46.4,0
		c4.3,0,5.2-0.9,5.2-5.1C443.2,112.5,443.2,96.9,443.2,81.2z"/>
	<path class="st5" d="M414.8,129.6c-6.9,0-13.8,0-20.8,0c-3.1,0-4.1-0.9-4.1-4.1c0-4,0-8.1,0-12.1c0-2.5,1.3-3.7,3.8-3.7
		c14.1,0,28.3,0,42.4,0c2.8,0,3.9,1.1,3.9,3.9c0,4,0,8.1,0,12.1c0,2.9-1.1,3.9-4,4C428.9,129.6,421.9,129.6,414.8,129.6z"/>
	<path class="st5" d="M414.8,103.8c-6.9,0-13.8,0-20.8,0c-3.1,0-4.1-0.9-4.1-4.1c0-4,0-8.1,0-12.1c0-2.5,1.3-3.7,3.8-3.7
		c14.1,0,28.3,0,42.4,0c2.8,0,3.9,1.1,3.9,3.9c0,4,0,8.1,0,12.1c0,2.9-1.1,3.9-4,4C428.9,103.8,421.9,103.8,414.8,103.8z"/>
	<path class="st5" d="M414.8,52.2c-6.9,0-13.8,0-20.8,0c-3.1,0-4.1-0.9-4.1-4.1c0-4,0-8.1,0-12.1c0-2.5,1.3-3.7,3.8-3.7
		c14.1,0,28.3,0,42.4,0c2.8,0,3.9,1.1,3.9,3.9c0,4,0,8.1,0,12.1c0,2.9-1.1,3.9-4,4C428.9,52.2,421.9,52.2,414.8,52.2z"/>
	<path class="st5" d="M414.8,78c-6.9,0-13.8,0-20.8,0c-3.1,0-4.1-0.9-4.1-4.1c0-4,0-8.1,0-12.1c0-2.5,1.3-3.7,3.8-3.7
		c14.1,0,28.3,0,42.4,0c2.8,0,3.9,1.1,3.9,3.9c0,4,0,8.1,0,12.1c0,2.9-1.1,3.9-4,4C428.9,78,421.9,78,414.8,78z"/>
</g>
</svg>
