<?xml version="1.0" encoding="utf-8"?>
<!-- Generator: Adobe Illustrator 25.2.3, SVG Export Plug-In . SVG Version: 6.00 Build 0)  -->
<svg version="1.1" id="圖層_1" xmlns="http://www.w3.org/2000/svg" xmlns:xlink="http://www.w3.org/1999/xlink" x="0px" y="0px"
	 viewBox="0 0 150 150" style="enable-background:new 0 0 150 150;" xml:space="preserve">
<style type="text/css">
	.st0{fill:#89B829;}
	.st1{fill:#DD5519;}
	.st2{fill:#FFFFFF;}
	.st3{opacity:0.78;fill:#FFF000;}
	.st4{fill:#004212;}
	.st5{fill:#111111;}
	.st6{fill:#060001;}
	.st7{clip-path:url(#SVGID_4_);}
	.st8{fill:none;stroke:#004212;stroke-width:7.1711;stroke-linecap:round;stroke-linejoin:round;stroke-miterlimit:10;}
	.st9{clip-path:url(#SVGID_6_);}
	.st10{fill:none;stroke:#111111;stroke-width:5;stroke-linecap:round;stroke-linejoin:round;stroke-miterlimit:10;}
</style>
<g>
	<defs>
		<rect id="SVGID_1_" x="-1670.9" y="-296.8" width="1000" height="1000"/>
	</defs>
	<clipPath id="SVGID_2_">
		<use xlink:href="#SVGID_1_"  style="overflow:visible;"/>
	</clipPath>
	<g style="clip-path:url(#SVGID_2_);">
		
			<image style="overflow:visible;" width="3264" height="2448" xlink:href="7E62F9EE.jpg"  transform="matrix(0.8271 0 0 0.8271 -1673.5422 -847.8148)">
		</image>
	</g>
</g>
<g>
	<g>
		<polygon class="st0" points="-1549.5,945.3 -1547,944.2 -1545.7,944.2 -1544.1,943.6 -1544.1,942 -1543.1,941.6 -1544.7,940.9 
			-1545.8,940.5 -1545.8,939.4 -1550,937.7 -1550.1,937.7 -1552.1,938.5 -1552.1,939.8 -1555.5,939.8 -1555.5,941.4 -1554.4,941.8 
			-1554.4,942.6 -1556,943.2 -1556,944.1 -1553.2,945.3 		"/>
		<polygon class="st0" points="-1546.6,935.7 -1546.6,937 -1545.3,937 -1545.3,938 -1546.3,938 -1546.6,938.3 -1544.4,939.1 
			-1544.4,940.3 -1542.1,940.3 -1540.9,940.8 -1540.9,941.5 -1542.5,942.2 -1542.5,943.3 -1543.8,943.8 -1544.8,944.2 
			-1544.2,944.2 -1544.2,945.3 -1546.5,945.3 -1546.5,946.1 -1545.2,946.7 -1541.5,946.7 -1540.6,946.3 -1538.8,946.3 
			-1538.8,945.8 -1537,945.8 -1535.6,945.2 -1533.2,945.2 -1531.1,944.4 -1531.1,943.7 -1528.6,943.7 -1528.6,942.9 -1526.3,941.9 
			-1527.7,941.4 -1529.6,941.4 -1529.6,940.5 -1531.2,939.8 -1532.9,939.1 -1532.9,938.3 -1534.3,937.7 -1535.3,937.3 
			-1535.3,936.4 -1534.5,936 -1534.5,934.3 -1535.5,933.8 -1537.5,933.8 -1536.7,933.5 -1535.1,932.9 -1535.1,932 -1536.6,931.4 
			-1539.5,931.4 -1539.5,932.3 -1542.1,932.3 -1543.8,933 -1545.2,932.5 -1547.4,932.5 -1549.9,933.5 -1549.9,934.4 -1548.2,935.1 
					"/>
		<polygon class="st0" points="-1187.9,1021.6 -1190.6,1020.5 -1192.6,1019.7 -1192.6,1018.5 -1194.7,1017.7 -1196.3,1017.7 
			-1197.5,1017.2 -1201.1,1015.7 -1202.9,1015 -1202.9,1013.4 -1204.7,1012.7 -1204.7,1011.6 -1206.7,1010.7 -1209.7,1009.6 
			-1209.7,1008.8 -1210.7,1008.4 -1210.7,1007.3 -1212.6,1007.3 -1214.9,1008.2 -1214.9,1010.4 -1216.8,1010.4 -1216.8,1014.1 
			-1218.3,1014.1 -1220.6,1013.1 -1222.4,1013.1 -1223.5,1012.7 -1224.5,1012.3 -1225.9,1011.7 -1225.9,1010.1 -1224.4,1009.5 
			-1224.4,1008.6 -1230.6,1008.6 -1231.3,1008.3 -1234.4,1008.3 -1235.6,1007.8 -1237.2,1007.8 -1239.3,1008.7 -1240.5,1009.2 
			-1240.5,1010.2 -1243.2,1010.9 -1246.1,1009.7 -1251.2,1011.8 -1253.3,1011.8 -1254.2,1012.1 -1257.7,1012.1 -1259.6,1012.9 
			-1259.6,1014.1 -1261.6,1014.9 -1261.6,1015.8 -1265,1015.8 -1266.6,1016.4 -1270.6,1016.4 -1274.4,1018 -1278.1,1018 
			-1278.1,1019.9 -1279.9,1020.6 -1279.9,1021.9 -1279.9,1023.5 -1277.8,1024.4 -1277.8,1025.2 -1274.2,1026.6 -1274.2,1027.7 
			-1274.2,1029.5 -1275.4,1030 -1275.4,1031.5 -1273.7,1032.1 -1265.7,1032.1 -1263.8,1031.4 -1255.8,1031.4 -1251.7,1029.7 
			-1244.9,1029.7 -1242.7,1028.8 -1237.8,1028.8 -1236.4,1029.4 -1232,1029.4 -1230.6,1030 -1230.6,1031.6 -1227.8,1032.7 
			-1225.2,1033.7 -1223,1033.7 -1223,1033.1 -1219.4,1033.1 -1219.4,1034.6 -1217.1,1035.5 -1214.2,1036.7 -1211.3,1036.7 
			-1209,1035.8 -1207,1035.8 -1207,1036.6 -1203.5,1036.6 -1201.1,1035.6 -1196.3,1035.6 -1194.8,1035 -1194.8,1032.7 
			-1191.5,1031.3 -1191.5,1030.2 -1189.5,1029.4 -1189.5,1028.3 -1186.8,1027.2 -1186.8,1023.1 -1187.9,1022.6 		"/>
		<polygon class="st0" points="-1201,1036.7 -1202.4,1037.3 -1200.3,1038.1 -1202,1038.8 -1204.1,1038.8 -1206.2,1038 -1207.9,1038 
			-1208.9,1038.4 -1208.9,1040.4 -1207.5,1041 -1205.9,1041.6 -1205.9,1042.5 -1202.3,1042.5 -1201,1042 -1198.8,1041.1 
			-1198.8,1040.3 -1197,1040.3 -1197,1039.2 -1198.1,1038.7 -1196.7,1038.2 -1196.7,1037.6 -1199.4,1036.5 		"/>
		<polygon class="st0" points="-1133.7,1034.8 -1137.9,1034.8 -1137.9,1033.9 -1139.4,1033.3 -1139.4,1031.7 -1140.6,1031.7 
			-1142.5,1030.9 -1145.4,1030.9 -1146.8,1031.5 -1145.5,1032 -1145.5,1032.9 -1144.1,1032.9 -1144.1,1034 -1142.2,1034.7 
			-1142.2,1035.5 -1143.3,1036 -1143.3,1037.4 -1144.6,1037.4 -1146.3,1038.1 -1147.9,1038.1 -1147.9,1039.1 -1149.4,1039.1 
			-1149.4,1039.8 -1150.8,1040.4 -1153.4,1041.5 -1155.2,1041.5 -1155.2,1042.2 -1157.9,1043.3 -1158.8,1043.6 -1160.3,1044.2 
			-1160.3,1045 -1158.8,1045.6 -1156.4,1045.6 -1156.4,1046.1 -1151,1046.1 -1147.4,1044.7 -1147.4,1043.8 -1145.5,1043.1 
			-1143,1043.1 -1143,1041.4 -1142,1041 -1142,1040 -1138.1,1040 -1135.3,1038.9 -1135.3,1038.1 -1134.6,1038.1 -1134.6,1037.3 
			-1132.1,1036.2 -1130.6,1036.2 -1130.6,1034.8 -1130.6,1034 -1132.8,1034 		"/>
		<polygon class="st0" points="-1283.6,1001.8 -1275.8,1001.8 -1274.7,1002.2 -1271.8,1002.2 -1269.3,1001.2 -1269.3,999.9 
			-1267.3,999.9 -1267.3,998.5 -1266.2,998.1 -1264.9,997.6 -1266.6,996.9 -1266.6,995 -1262.9,993.5 -1265.2,992.6 -1267.6,992.6 
			-1268.6,992.1 -1270.5,992.1 -1275.2,994 -1278.2,994 -1280.1,994.8 -1281.2,995.3 -1283.6,996.2 -1286.7,996.2 -1288.6,997 
			-1288.6,998.4 -1286.3,999.4 -1286.3,1000.9 		"/>
		<polygon class="st0" points="-1265.8,987.8 -1269.8,989.4 -1269.8,990.6 -1269.8,991.5 -1267.8,991.5 -1267.8,990.7 
			-1263.8,989.1 -1261.1,990.2 -1258.9,990.2 -1261.2,991.1 -1261.2,992.4 -1262.3,992.8 -1260.4,993.6 -1258.2,993.6 
			-1258.2,992.3 -1255.3,991.1 -1253.2,991.1 -1253.2,992.3 -1251.7,992.9 -1248,992.9 -1245.3,991.8 -1247.4,990.9 -1247.4,990.3 
			-1249.5,989.5 -1250.7,989 -1250.7,987 -1252.4,986.3 -1255.2,986.3 -1255.2,985.5 -1258.7,984.1 -1258.7,982.9 -1260.9,982 
			-1264.3,982 -1267.3,983.3 -1265,984.2 -1266.6,984.2 -1266.6,985.1 -1264,986.1 -1264,987 		"/>
		<polygon class="st0" points="-1249.3,1002.4 -1247,1002.4 -1246,1002 -1241,1002 -1238.8,1002.8 -1236.3,1001.8 -1236.3,1000.8 
			-1234.7,1001.5 -1234.7,1002.2 -1229.9,1002.2 -1229.9,1003.3 -1232.1,1003.3 -1232.1,1004.4 -1233,1004.4 -1233,1005.2 
			-1231,1006 -1229,1005.2 -1229,1004.2 -1227.1,1003.5 -1225.7,1003.5 -1222.6,1003.5 -1222.6,1004.7 -1223.6,1005.1 
			-1223.6,1006.6 -1222.2,1007.2 -1220.6,1006.6 -1217.5,1006.6 -1215.9,1006.6 -1213.5,1006.6 -1210.4,1005.3 -1207.5,1005.3 
			-1205.2,1006.2 -1202,1007.5 -1199.7,1007.5 -1198,1008.2 -1193.5,1008.2 -1192.5,1007.8 -1194.7,1006.9 -1196.1,1006.4 
			-1200.5,1004.6 -1198.6,1003.8 -1197,1004.4 -1192.3,1004.4 -1189.4,1003.3 -1189.4,1002.2 -1187.9,1002.2 -1187.9,1001.3 
			-1188.7,1001 -1191.4,1001 -1192.7,1001.5 -1194.2,1002.1 -1198.3,1002.1 -1199.6,1002.7 -1202.4,1002.7 -1205.4,1001.5 
			-1208.6,1001.5 -1211.6,1000.3 -1213.3,1000.3 -1218.1,1000.3 -1220,999.5 -1221.4,998.9 -1223.2,999.7 -1229,999.7 
			-1231.7,998.6 -1234.8,998.6 -1238.3,998.6 -1240.2,999.3 -1242.8,999.3 -1242.8,998.7 -1241.3,998.1 -1243.1,997.4 
			-1243.1,996.1 -1243.1,995.4 -1246.3,995.4 -1246.3,996.1 -1247.9,996.7 -1247.9,1000.4 -1249.2,1000.4 -1251.1,999.6 
			-1252.4,999.6 -1252.4,998.6 -1249.4,997.4 -1249.4,996.7 -1253.3,996.7 -1254.6,997.2 -1258.1,997.2 -1258.8,996.9 
			-1262.4,996.9 -1264.8,997.8 -1264.8,999.7 -1266.3,1000.3 -1266.3,1001.6 -1265.5,1001.9 -1265.5,1003.9 -1261.5,1003.9 
			-1261.5,1002.9 -1259.7,1002.9 -1259.7,1003.8 -1256.3,1003.8 -1254.8,1003.2 -1254.8,1002.2 -1256.6,1001.5 -1256.6,1000.4 
			-1254.6,1000.4 -1252.4,1000.4 -1250.6,1001.1 -1250.6,1001.9 		"/>
		<polygon class="st0" points="-1271,987.4 -1273.7,986.4 -1275.3,987 -1275.3,988 -1276.7,988.6 -1276.7,989.1 -1275.2,989.1 		"/>
		<polygon class="st0" points="-1323.6,989.3 -1323.6,988.3 -1325.2,988.3 -1325.2,986.2 -1327,985.7 -1329.4,986.7 -1329.4,988.4 
			-1328.4,988.9 -1326.8,989.5 -1326.8,990.6 -1324.1,990.6 -1322.3,989.8 		"/>
		<polygon class="st0" points="-1239.5,1005 -1239.5,1006.3 -1238.4,1006.7 -1234.9,1005.3 -1237.5,1004.1 		"/>
		<polygon class="st0" points="-1160.4,1009.2 -1159,1008.6 -1161.4,1007.6 -1164.4,1006.4 -1164.4,1005.6 -1166.6,1005.6 
			-1168.2,1006.2 -1170.7,1005.2 -1171.9,1004.7 -1176.4,1004.7 -1176.4,1004.1 -1178.4,1003.4 -1180.2,1004.1 -1184.4,1002.2 
			-1185.2,1003.4 -1185.2,1005 -1181.2,1005 -1181.2,1006.4 -1177.2,1006.4 -1174.1,1007.6 -1170.1,1007.6 -1168.1,1008.4 
			-1165,1008.4 -1163,1009.2 		"/>
		<polygon class="st0" points="-1144.5,1008.6 -1145.6,1008.2 -1148.3,1008.2 -1152.1,1006.6 -1154.6,1007.2 -1152.4,1008.1 
			-1154,1008.7 -1157.4,1008.7 -1157.4,1009.1 -1155.8,1009.8 -1149.9,1009.8 -1147.9,1008.9 -1146.1,1008.9 -1143.6,1010 
			-1142.4,1009.5 		"/>
		<polygon class="st0" points="-1131,1010.7 -1131,1009.5 -1132.5,1008.9 -1135.9,1008.9 -1138.4,1008.4 -1140.2,1009.1 
			-1138.4,1009.8 -1138.4,1010.9 -1136.8,1010.9 -1136.8,1010.2 -1133.2,1010.2 -1133.2,1010.7 		"/>
		<polygon class="st0" points="-1114.6,1009.2 -1113.1,1008.6 -1113.1,1008 -1116.6,1008 -1118.1,1008.6 -1118.1,1007.4 
			-1119.9,1007.4 -1121.2,1007.4 -1123.5,1007.4 -1126.4,1007.4 -1126.4,1006.4 -1125.3,1005.9 -1125.3,1005.3 -1128.3,1005.3 
			-1132.4,1004.1 -1135.7,1005.5 -1132,1007 -1129.9,1006.1 -1128.4,1006.8 -1130.4,1007.6 -1129,1008.1 -1126.3,1008.1 
			-1124.6,1008.1 -1122.3,1009.1 -1120.5,1009.8 -1120.5,1010.6 -1118.9,1011.3 -1117.1,1010.5 -1114.6,1010.5 		"/>
		<polygon class="st0" points="-1108.1,1006.3 -1110.4,1005.1 -1112.3,1005.8 -1112.3,1006.7 -1109.2,1006.7 		"/>
		<polygon class="st0" points="-1094.4,1008.3 -1092.9,1007.7 -1092.9,1007.2 -1094.8,1006.4 -1097.9,1006.8 -1099.5,1007.5 
			-1097.4,1008.3 		"/>
		<polygon class="st0" points="-1090.6,1013.5 -1089,1012.8 -1091.4,1012.8 -1094.4,1012.8 -1095.7,1012.3 -1098.6,1012.3 
			-1100.2,1011.7 -1101.7,1011 -1103,1011.3 -1104.6,1012 -1101.5,1013.3 -1098.3,1013.3 -1098.3,1013.8 -1094.4,1013.8 
			-1093.5,1013.5 		"/>
		<polygon class="st0" points="-1087.7,1016.1 -1089.9,1016.2 -1091.3,1016.7 -1093.5,1016.7 -1093.5,1017.3 -1092.4,1017.7 
			-1090.7,1018.4 -1090.7,1019 -1091.9,1019.4 -1093.4,1020.1 -1092.2,1020.6 -1088.1,1018.9 -1088.1,1017.8 -1085.8,1016.9 		"/>
		<polygon class="st0" points="-1111.1,1015.6 -1109.5,1016.3 -1112.4,1017.4 -1112.4,1018.4 -1113.3,1018.8 -1111.4,1019.6 
			-1109.6,1018.9 -1107.1,1017.8 -1107.1,1017.3 -1107.1,1015.2 -1109.4,1014.9 		"/>
		<polygon class="st0" points="-1110.4,1012.5 -1109,1013.1 -1107.4,1012.5 -1108.8,1011.9 		"/>
		<polygon class="st0" points="-1120.3,1017.9 -1121.3,1018.3 -1122.7,1018.9 -1121.7,1019.3 -1119.2,1019.3 -1117.8,1018.7 
			-1119.2,1017.4 		"/>
		<polygon class="st0" points="-1116.4,1020.5 -1114.4,1021.3 -1112.5,1020.6 -1114.6,1019.8 		"/>
		<polygon class="st0" points="-1125.4,1022.6 -1123.8,1023.3 -1120.9,1022.1 -1123.4,1021.8 		"/>
		<polygon class="st0" points="-1131.2,1014.2 -1131.2,1015.1 -1135.2,1015.1 -1135.2,1015.9 -1133.1,1016.7 -1130.1,1015.5 
			-1128.6,1014.9 -1127.4,1014.9 -1127.4,1014.3 -1125.7,1014.3 -1125.7,1013.3 -1128.6,1013.2 		"/>
		<polygon class="st0" points="-1145,1018.4 -1143.9,1017.9 -1143.9,1016.3 -1142.4,1015.7 -1142.4,1014.5 -1144.7,1013.6 
			-1144.7,1012.7 -1147.2,1012.2 -1148.4,1012.7 -1151.5,1012.7 -1151.5,1013.8 -1149.4,1014.7 -1149.4,1015.7 -1150.6,1015.7 
			-1147.6,1017 -1147.6,1018.4 		"/>
		<polygon class="st0" points="-1159.4,1019.9 -1156.4,1019.9 -1156.4,1020.9 -1154.1,1020.9 -1152.2,1020.1 -1150.3,1020.9 
			-1148.1,1020.9 -1148.1,1019.9 -1150.4,1018.9 -1152.1,1018.2 -1154.3,1018.2 -1157,1018.2 -1161.2,1016.6 -1163.4,1017.5 
			-1161.3,1018.4 -1159.4,1019.1 		"/>
		<polygon class="st0" points="-1171.2,1015.6 -1173.4,1015.5 -1176.4,1016.7 -1176.4,1019.2 -1174.3,1020.1 -1171,1020.1 
			-1168.9,1019.2 -1168.9,1017.6 -1171.2,1017.6 		"/>
		<polygon class="st0" points="-1122.6,1017.7 -1122.6,1016.3 -1121,1016.3 -1121,1014.6 -1122.8,1014.2 -1124.3,1014.8 
			-1124.3,1015.7 -1125.5,1016.3 -1125.5,1017.1 -1124.2,1017.7 		"/>
		<polygon class="st0" points="-1219.2,960.1 -1220.7,960.7 -1220.7,961.5 -1224.7,961.5 -1226.7,962.3 -1227.3,962.5 
			-1227.4,963.3 -1233.2,963.3 -1235.2,964.1 -1238.4,965.4 -1241.2,966.6 -1242.4,967.1 -1242.4,968 -1240.9,968.7 -1240.9,969.7 
			-1237.3,969.7 -1237.3,968.3 -1234.9,967.3 -1231.3,967.3 -1229.6,966.7 -1226.4,966.7 -1224.5,965.9 -1220.4,965.9 
			-1220.4,964.3 -1218.3,965.1 -1216.4,964.4 -1216.4,962.2 -1214.4,961.4 -1211.6,960.2 -1211.6,958.8 -1213.8,958.8 
			-1213.8,957.4 -1214.4,957.1 -1211.4,957.1 -1211.4,957.8 -1207.2,956 -1203.4,956 -1203.4,954.7 -1201.4,953.9 -1198,952.5 
			-1195.2,952.5 -1192.3,951.4 -1192.3,950.9 -1197.3,950.9 -1198.8,951.5 -1201.5,951.5 -1201.5,953.3 -1204.1,953.3 
			-1205.7,953.9 -1208.7,953.9 -1210.7,953.1 -1210.7,952.2 -1215.3,952.2 -1215.3,954 -1216.6,954.6 -1218.2,955.2 -1218.2,956 
			-1220.6,956 -1220.6,956.7 -1219.2,956.7 -1219.2,959.3 		"/>
		<path class="st0" d="M-1185.3,946.3l2.1,0.8l6.5-2.6l1.5-0.6v-1.4h3.6V940h4.1v-2.4l2.1-0.9v-2.3l-1.1-0.4v-1.3l1.7-0.7l1.3-0.5
			l2.1-0.8l1.6,0.6l3.3-1.3h4.4v1h3.4v-1.3h1.3l3.8-1.5h1.8l4.7-1.9h2.4l1.9,0.8h2.9l2-0.8v-0.9l-1.4-0.6v-1.4l-1.2-0.5v-0.8l3-1.2
			v-10.1l-1.2-0.5l-1.8-0.7h-1.4l-2-0.8h-2.3l-1.6-0.6h-13.2v2.1l1.9,0.8l-1.7,0.7l-1.6-0.6h-2.2v-2.5h-1.6l-1.1,0.4h-3.1l-1.7-0.7
			h-3.4v0.8h-3v0.5l-1.3-0.5h-3.1V906l-1.5-0.6h-1.3l-1.3-0.5h-9v1.4l-1.1-0.4l-3.8-1.5h-2.1v-1.1l-2.2-0.9h-3.3l-2.1-0.8h-5.8
			l-2-0.8h-3.1l-2.5-1h-2.1l-2.1,0.8v2.3h-3.2v1.2l-2.8,1.2c0,0-1.8-1.2-2.9-1.2c-1.1,0-5.1,0-5.1,0l-1.5-0.6l-2.2,0.9v2.3h-1.8
			l-2.2-0.9v-1.2h-1.8v-0.6l1.1-0.4v-4.1h-1.9v-0.7l-1.7-0.7h-5.6l-2.7-1.1h-2.9l-2.2,0.9v1.4h-5.7l-1.3-0.5l-2.8-1.1h-9.2l-2.4-1
			h-4.8l0.9-0.4l7.4-3v-3.6l-7.5-3h-6l-2-0.8h-2.2v-2.1l-2.5-1h-5.5l-0.7,0.1v1.5v1.2l-3.1,1.2v1.8h-2.2v2.4h-2.4V890h-3.3v1.2h-5.6
			v-0.9h-3l-2.3,0.9h-3.7l-2.3,0.9h-3.2l-5.7,2.3v1.5l2.7,1.1l-2.7,1.1h-5.1l-1.5,0.6h-5.4v2.6l7,2.8v5h-2.1l-2.7-1.1v-2.4l2-0.8
			l-1.7-0.7h-3.1l-4.7-1.9v4.1h-2.5l-2.2-0.9h-3.1v-2.3l-1.8,0.7v1c0,0,0,1.1,0,1.3c0,0.2,0,1.3,0,1.3l1.6,0.7v2.8h5.4l2.8,1.1v1.5
			h-1.5v0.7h2.7v1.3h-4.5l-1.8-0.7v-2.9h-3.4v1l1.1,0.5v1.2l-1.4,0.5l-1.7,0.7l-3.2,1.3v1.2h-2.8l-1.4-0.6l-1.8-0.7v-0.8h3.9
			l0.8-0.3V915l2.2-0.9v-1.7v-1.8V908v-1.8l-2.5-1v-1l3.7-1.5v-1.4l-1.5-0.6h-1.8l-2.4-1h-4v1l-3,1.2v1.4l-4.5,1.8v0.9l2,0.8v2.9
			l4.6,1.9l-1.8,0.7l-2.1-0.8l-3.5-1.4l-1.9-0.8h-4v-0.8h-5.4l-2.1,0.9v0.7l1.5,0.6l-1.9,0.8h-3.1l-2,0.8h-4.6v-0.8l-1.1-0.4
			l-1.2,0.5h-2.9v0.8h-2.9v1.2h-4.9v0.8h-1.9l-1.7,0.7v1.2h-3v-1l2.1-0.9v-1.7l-1.2-0.5h-2.7v-0.7h-6.2v0.6l2.5,1v1.3l-0.9,0.4v0.8
			l1.1,0.4v1.1h-1.5v0.7h-1.6h-1.8l-4.4,1.8h1.9v1.1l1.5,0.6v0.8h-3.1l-3.8-1.5h-1.4l-0.8,0.3l3.6,1.5v1.1h-4.9V923l-3.5-1.4v-0.9
			h-0.9v-1.2v-1l-5.3-2.1v-0.8h2.8l4.8,1.9l0.2,0.1h0.7l2.4,1h2.7v0.5h2.9l2.1-0.8l2.7-1.1v-1v-1.8l-2.9-1.2h-2.3l-6.5-2.6l-1.1-0.5
			h-4.4l-1.7-0.7l-1.4-0.6l-1.3-0.5v-1.2l-2.6-1h-3.4l-1.5-0.6h-2.9l-0.8,0.3h-5.7l-1.5,0.6v1.2h-1.5l-1.3-0.5h-2.7l-2.5,1v0.8h-2.7
			l-1.7,0.7l-3.7,1.5v0.9l-3.9,1.6v1.2l-4,1.6v0.8l-1.8,0.7l-1.4,0.6v0.9v1.2l-2.8,1.1l-5.9,2.4h-3.1v1.8h-2.9l-1.6,0.7v3l0.9,0.4
			v0.9v2.3l0.7,0.3l2.4,1h5.8v0.9l-1.5,0.6v1.5v1h2.5l2.9-1.2v-1h1.3v1h1.8l2.1-0.8h1v1.5h2l1.7-0.7l1.4-0.6v-3.4l2.4-1l1.3-0.5
			l-2.3-0.9v-0.8h3.4V926l8.6-3.5v-2.2l2.9-1.2h4v1.8l-10.6,4.3v1.7l2.3,0.9v1.9l2.1,0.8h2.3v1.3l-2.1,0.8v1.7l-2.5,1l-1.1,0.4v2.3
			l-2.1,0.8l-1.2-0.5h-4.5l-4.1,1.7l-1.5-0.6v-1h-3.3v1.6h-3.1l-2.5-1h-2.6v0.9h-2.4v0.4h-2.9v0.8h-2.8l-2.7,1.1l-1.3,0.5v0.8
			l-1,0.4h-1.1v-0.4h-1.6l-1.5,0.6l-2,0.8l-1.5,0.6h-2.4l-2.2,0.9v0.4l-2,0.8h-5.3v1.1l2.9,1.2h2.9l2.9,1.2v2.1l-1.9,0.8h-4.1
			l-1-0.4h-2.5h-5.2l-2.3,0.9v1.3l-2,0.8v2v1.4l2.1,0.8v2.3h5.3v0.1l5.9-0.9h4.9l2-0.8v-1.5h3.8l1.2,0.5h1.7v-0.5h2.7l1.8-0.7h2v-1
			h-4.9l-2.2,0.9h-1.8v-0.6l2.1-0.8h2.3v-0.6h2.4v-2.3h2.5l1.7,0.7h1.9l2.1-0.9h2.2v0.5l-0.9,0.4v1.2l-1.5,0.6v1.2l1.1,0.4v0.7
			l1.4,0.6h3.9v-2.3l-1.4-0.5l1.6-0.7v-0.7l4.5,1.8h2.5v0.8h2.5l2.6,1.1v0.8h-7.2l-1.3,0.5v1.1l1.4,0.5h3.2v0.3h2.4l2.5-1v-0.9h2.5
			v-0.7h1.1l2.4-1h1.5v0.7l1.5,0.6v1.2l2.1,0.8l1.2,0.5h2.4v1.2l2,0.8h1.5v0.6h3.3l1.7-0.7v-0.8V964h-4.5v-0.7h-2v-0.8h2.5h2v-0.8h2
			v1.3l2.4,1h5.5l1.3-0.5h3.3v0.7l-1,0.4v0.9l1.8,0.7h2.3v-0.8h2.9v1l-1.5,0.6v1h-3.3l-1-0.4h-3.9l-1.6,0.6h-5.7l-1-0.4h-4.3
			l-1.2-0.5h-2.2l-1.5-0.6h-3.6l-2.1,0.8h-1.6v1.1v0.7h-1.6l-1-0.4l-1.9-0.8h-3.3v-0.9l-1.5-0.6h-8.2l-1.9-0.8l2.4-1v-0.9l-1.4-0.6
			l1.3-0.5v-0.6l-1.9-0.8h-4.3l-0.8,0.3h-13l-2,0.8h-4l-2,0.8h-2.2h-5.8l-5.8,0.9v0.2l-6.4,2.6l-2.7,1.1v1.9l-2.5,1h-2.9l-2.1,0.9
			v1.3l-2.8,1.1v1.7l-3.8,1.6v1v1.1v2.4l-1.9,0.8v1.7l1.7,0.7v1.8l7.9,3.2v0.6l1.9,0.8l3.7,1.5l5.2,2.1h5.4l2.8-1.1h4.9v0.7h2.9h4.4
			l3.5-1.4h7.5v0.9l2.4,1l1.5-0.6h3l1.8,0.7v2.6l-2.1,0.9v1.5l4.1,1.7l5.1,2.1v1.7l1.5,0.6v1.2v2l-2.5,1l-3.3,1.3v1v1.6l3.2,1.3v1
			v1.5l3.5,1.4v3.9l6.1,2.5v1.5l3.5,1.4v3.1l1.8,0.7h14.4l5.6-2.3l13.3-5.4v-0.7l1.8-0.7v-1.5h1.5l1.7-0.7l2.5-1v-1.3l-2.3-0.9v-1.6
			l3.6-1.5l1.7-0.7h2.5l1.3-0.5h2.1l2.7-1.1v-5.5l-3.2-1.3v-3.2l1.3-0.5v-1.2l1.6-0.7l4.8-1.9h2.5l9.2-3.7l1.5-0.6v-2l2.2-0.9v-1.1
			l2.6-1V988l-1.4-0.6v-0.7h-2.5v0.7h-4.4v0.7h-5.6h-3.2l-0.1,0h-2.8l-0.7-0.3l-2.2-0.9v-1.4l-2.6-1.1l-2-0.8v-1.2l-3-1.2v-1.8h-1.2
			v-1.2l-1.4-0.6V977l-1.4-0.5v-1.5l1.1-0.4l4.5,1.8l2.1,0.8v2l2,0.8v1.6l4.3,1.7v1.2l3,1.2v1l2.2,0.8l0,0h3.8v-0.5h3.1v-0.5h3
			l1.9-0.8l1.1-0.4h2.2l3.5-1.4h5.3v-0.7h1.7l4.4-1.8l2.4-1v-0.8l2.4-1v-1.1l-0.5-0.2h-3.8l-5.2-2.1h-3.1l-1.1,0.4h-4.9v-0.8
			l-3.5-1.4l-1.4-0.6v-0.8l-2.3-0.9l1.8-0.7l2.5,1v1.1l2.3,0.9h1.8l1.9,0.8h3l1.5-0.6h3.1v0.9h2.6l3.9,1.6h14.4l2.7,1.1h1.9v1.4
			l3.6,1.4h2.9l1.8,0.7v1.8l2.9,1.2v1l4.1,1.7v1.6l1.9,0.8v1.8l3,1.2l2.8-1.1h1.5v2.1l3.5,1.4l4-1.6v-1.8l-4.4-1.8v-1.2l1.6-0.7
			v-2.8h1.7l7.5-3h2v-0.5h1.3l2.8-1.1V979h6.6v-0.8l2.2,0.9v1l4.2,1.7v1.5h-1.2v0.7l1.7,0.7h3.1l1.7-0.7h1.6v2l3.3,1.3v1.2l-1.9,0.8
			v1.7l4.9,2v2.1l-6.1-2.5h-4.2l-2.4-1l-1.7,0.7l3,1.2v1.1l8.3,3.3v1.5l8.2,3.3h2l7.7,3.1h6.9l1.8,0.7h4.8h1.9h5.3l1.7,0.7h4.6v0.5
			h1.8l1.8,0.7h2.7v-1.9h4.2v0.6l-2.3,0.9l1.5,0.6l1.2-0.5h4.4l1.5-0.6v-0.7h3.7v-1.7l-1.3-0.5h-3.5l-1.1,0.4h-23.5v-0.9h-4.1
			l-1.2-0.5h-8v-0.6h-3.4v-1.5h2.7v-1.1l-1.8-0.7l-1.5-0.6l-1.3-0.5h-1.2l-0.7,0.3l-1.3-0.5l-1.9-0.8l1.4-0.6v-1l-1.6-0.6v-2
			l-5.6-2.2l-1.5-0.6v-1.1h-2.1V989l1.8-0.7l1.5-0.6h2.3v1.1l2.1,0.8h2.5v1.8h3.1l2.8-1.1l0.4-0.2h2.4l3.5-1.4v-1.1v-1.9l-1.2-0.5
			v-0.9l-6.4-2.6v-0.7l4.3-1.7l1.1-0.5v1.1l-2.4,1l0.4,0.2v0.8l1.2,0.5h3.5l3.5-1.4v-1.7h2.9v-0.8h4.4v-0.8h2.7l4.5-1.8h2.7v2h1.8
			v0.6h4v-0.9l0.7-0.3v-2.5l-0.8-0.3h-2.7v0.4h-1.3v-0.4v-0.4l1.5-0.6h2V973l1.5-0.6l1.5-0.6v-1.6h-1.5v-2.3h-1.7v-1.1l-2.3-0.9
			l-1.2-0.5l2.6-1.1v-0.4h2.3l2.5-1v-0.8l-1.2-0.5h-2.7v-0.7h-3.5v0.7h-1.2l-1.1-0.5l2.4-1l3-1.2h1.5v1.2v0.4l0.8,0.3l0.8-0.3h1.3
			l3-1.2v0.6h-0.5v0.7l-0.9,0.4v0.8l1,0.4h2.2v0.3l-1.3,0.5v0.6h1.2v2.1l1.2,0.5h4.3l1.8-0.7h1.2l1.6-0.7l0.6-0.2v-2.3l-1.3-0.5
			h-1.1v-0.6l-1.3-0.5l-1-0.4v-0.6h1.9l4.1-1.7v-1h7.6l4.5-1.8v-0.5l1.4-0.6v-0.5l2.3-0.9l1.1-0.4l2.1-0.9v-0.6l1.5-0.6l2.1-0.8
			v-2.1h0.2v-7.3l-1.4-0.6h-4.5l-1.2,0.5l-2.1-0.8h-3.2l2.2-0.9h4v-1l5.7-2.3v-1l3.6-1.5h14.5v-0.4h4.4v0.9h6.7l0.8-0.3h2.9v-1.1h-1
			v-0.7l2.7-1.1l2.9-1.2v-1.1h3.2v1.9h1.7v1.1l6.1-2.4l0.8,0.3l-9.3,3.8h-1.9v1.9h-1.5l-6.2,2.5v3.3l1.5,0.6v1.9l2.1,0.8v1.9
			L-1185.3,946.3z M-1440.6,957.1h-8.2l-2.9-0.8h-6.3l-2.2,0.9h-3.9h-1.9l-2.1-0.8v-1.2l1.8-0.7l3-1.2v-1.1l1.4-0.6h1.4v1l2.2,0.9
			l1.6,0.6l1.8,0.7l1.1-0.4l1.6-0.6h2.9l1.6,0.6h2.1l1.5,0.6l2.5,1l1,0.4V957.1z M-1412.9,956.8l-2,0.8v1.8l3.3,1.3v1.8h-4l-2.1-0.8
			h-4.6v-1l2.7-1.1v-1.3h-2.4v-1.7l-2.4-1v-1v-1l-1.2-0.5l5.8-2.3l1-0.7h6.5l2.9,1.2l-2.4,1h-4.8v1.4v1.5L-1412.9,956.8z"/>
		<polygon class="st0" points="-1210.2,938.5 -1211.7,938.5 -1213.6,939.3 -1213.6,941 -1214.4,941 -1214.4,947.2 -1214.3,947.2 
			-1214.3,949.1 -1214.3,950.9 -1213.3,950.9 -1213.3,951.7 -1208.1,951.7 -1208.1,950.3 -1209.2,949.8 -1209.2,948 -1207.9,948 
			-1206.8,948.5 -1204.6,947.6 -1204.6,947 -1206.1,946.4 -1206.1,945.2 -1207.8,944.5 -1207.8,941.2 -1208.7,940.8 -1208.7,939.1 
					"/>
		<polygon class="st0" points="-1412.6,907.6 -1412.6,909.2 -1407.8,909.2 -1405.1,910.3 -1402.4,910.3 -1402.4,908.1 -1405,907.1 
			-1405,905.8 -1406.5,905.2 -1406.5,904.1 -1403.3,902.8 -1403.3,901.7 -1406.3,900.6 -1412.1,900.6 -1415.4,901.9 -1415.4,903.5 
			-1418,904.6 -1418,906.5 -1415.2,907.6 		"/>
		<polygon class="st0" points="-1421.3,912.8 -1418.3,911.6 -1418.3,910.7 -1422.3,909.4 -1425.8,910.8 -1425.8,912 -1423.9,912.8 
					"/>
		<polygon class="st0" points="-1426.7,1012.7 -1431,1012.7 -1431,1015.2 -1431,1016.6 -1433.6,1017.6 -1433.6,1018.7 
			-1433.6,1021.1 -1431.8,1021.8 -1427.9,1021.8 -1425.1,1020.7 -1425.1,1018.2 -1422.5,1017.2 -1422.5,1015.3 -1420.6,1014.5 
			-1420.6,1011.9 -1419.9,1011.6 -1419.9,1010.6 -1421.3,1010.5 		"/>
		<polygon class="st0" points="-1365.4,993.5 -1368.5,992.2 -1368.5,991.3 -1370.9,990.3 -1374.3,991.6 -1370.7,993.1 
			-1370.7,995.6 -1370.7,997.5 -1370.7,1000.2 -1368.7,1000.2 -1366.1,1000.2 -1366.1,998.2 -1363.3,997.1 -1363.3,995.6 
			-1365.4,994.8 		"/>
		<polygon class="st0" points="-1396,1002.3 -1397.6,1001.7 -1399,1001.7 -1399,1002.6 -1401.2,1002.1 -1402.5,1002.6 
			-1402.5,1004.2 -1399.7,1004.2 -1397.5,1004.2 -1396,1003.6 		"/>
		<polygon class="st0" points="-1406.3,1003.2 -1406.8,1002.5 -1409.3,1003.5 -1409.3,1004.4 -1412.3,1005.6 -1410.6,1006.3 
			-1407.7,1005.1 -1406.3,1004.6 		"/>
		<polygon class="st0" points="-1407.3,1017.3 -1407.3,1018.1 -1405.3,1018.1 -1404,1017.5 -1404,1016.6 -1405.5,1016.6 		"/>
		<polygon class="st0" points="-1396.4,1017.2 -1394.6,1017.9 -1391.8,1016.8 -1393.7,1016.1 		"/>
		<polygon class="st0" points="-1415.8,1018.4 -1414,1019.1 -1411,1019.1 -1411,1018 -1414.2,1017.7 		"/>
		<polygon class="st0" points="-1419,1007.7 -1419,1008.8 -1416.8,1008 -1416.8,1006.6 -1419,1006.2 		"/>
		<polygon class="st0" points="-1421.3,1007.3 -1424.6,1006.8 -1426.2,1007.4 -1423.9,1008.3 		"/>
		<polygon class="st0" points="-1435.5,1007.7 -1437.2,1008.4 -1437.2,1009.6 -1433.2,1009.6 -1433.2,1010.8 -1431.2,1011.6 
			-1429.1,1010.7 -1427.5,1011.3 -1425.3,1010.5 -1426.9,1009.8 -1428.3,1009.2 -1430.1,1009.9 -1431.9,1009.2 -1431.9,1008 		"/>
		<polygon class="st0" points="-1373.8,985.8 -1376,986.7 -1376,987.3 -1371.9,989 -1370.6,988.4 -1373.9,987.1 -1372.3,986.4 		"/>
		<polygon class="st0" points="-1581.5,915.8 -1585.5,915.8 -1585.5,914.9 -1587.3,914.2 -1590.3,914.2 -1591.7,913.6 
			-1595.6,913.6 -1596.1,914 -1599.3,915.3 -1596.4,916.5 -1596.4,917.5 -1595.2,918 -1592.7,918 -1592.7,919 -1589.6,919 
			-1587.6,918.2 -1585.3,919.1 -1583,920.1 -1579.9,918.8 -1579.9,917.5 -1581.5,916.9 		"/>
		<polygon class="st0" points="-1569.7,925 -1569.8,926 -1569.2,926.3 -1567.6,926.3 -1567.6,927 -1566.7,927 -1565.5,927 
			-1565.5,926.1 -1563.5,925.3 -1565.5,924.5 -1568.4,924.5 		"/>
		<polygon class="st0" points="-767.2,879.4 -762.9,877.7 -762.9,877.1 -766,877.1 -768.3,876.2 -770.4,876.2 -772.7,877.1 
			-772.7,878.2 -774.5,878.9 -779.8,878.9 -781.8,878.9 -789.3,881.9 -790.7,881.3 -782.9,878.1 -782.9,876.3 -788.5,876.3 
			-788.5,877.4 -789.8,877.9 -791.8,878.7 -797.8,878.7 -797.8,877.7 -794.7,876.5 -793.4,875.9 -800.4,875.9 -802.5,876.8 
			-805.8,876.8 -805.8,877.4 -809.6,877.4 -811,876.9 -807.9,875.6 -801.9,875.6 -800.3,875 -790,875 -785.9,875 -783.5,874 
			-783.5,872.5 -788.3,872.5 -791,872.5 -794,873.7 -794.9,873.4 -794.9,872.7 -791.7,871.4 -791.7,870.7 -795.8,870.7 
			-797.8,871.5 -802.6,871.5 -805.8,871.5 -807.7,872.3 -811.3,872.3 -812.3,872.7 -815.9,872.7 -815.9,871.7 -810.1,871.7 
			-810.1,870.5 -803.6,870.5 -799.2,870.5 -796.1,870.5 -796.1,869.8 -799.9,869.8 -802.1,868.9 -807,868.9 -811.8,868.9 
			-811.8,869.8 -814,868.9 -818.6,868.9 -822,870.3 -818.6,870.3 -818.6,871.1 -823,871.1 -823,873 -826,871.8 -830,871.8 
			-830,870.7 -835.3,870.7 -835.3,871.8 -830.7,871.8 -827.9,872.9 -825.2,874.1 -827.6,874.1 -830.2,874.1 -832.1,873.3 
			-834.1,873.3 -834.1,874.4 -834.1,876.2 -836.3,877.1 -844.7,873.7 -847.7,875 -845.4,875.9 -848.1,877 -852.5,877 -852.5,877.8 
			-856.4,877.8 -856.4,875.4 -858.8,875.4 -864.4,875.4 -866.1,876.1 -864.3,876.9 -862.8,877.4 -862.8,878.9 -863.8,878.5 
			-867,877.2 -869.3,877.2 -871.5,877.2 -871.5,878.2 -871.5,879.4 -871.5,879.8 -874.6,879.8 -876.4,879.1 -884.4,882.3 
			-882.6,883.1 -879,881.6 -876.7,882.5 -876.7,883.4 -878.5,884.1 -878.5,885 -880.7,885.9 -880.7,886.7 -880.7,886.9 
			-886.7,886.8 -891.5,888.8 -895.1,888.8 -895.1,889.9 -892.2,889.9 -888.4,891.5 -884.7,890 -880.5,890 -880.5,891.4 
			-883.8,892.7 -888.5,892.7 -888.5,894.6 -884.5,894.6 -880.5,893 -873.3,893 -867.8,895.2 -864.5,895.2 -864.5,897.4 
			-861.3,897.4 -856.4,899.4 -856.4,901.4 -856.4,904.3 -854.2,904.3 -854.2,903.5 -849.4,903.5 -846.7,904.6 -846.7,906.4 
			-844.9,907.1 -844.9,909 -846.9,909.8 -846.9,910.7 -851.3,910.7 -851.3,912.3 -851.3,913.9 -848.9,914.9 -846.2,914.9 
			-846.2,916.2 -847.7,916.2 -847.7,917.4 -845.8,918.2 -841.9,919.8 -837.5,919.8 -834.6,919.8 -834.6,920.8 -831.2,920.8 
			-828.2,919.5 -828.2,918.4 -829.3,917.9 -829.3,916.9 -827.6,916.9 -827.6,914.3 -821.6,911.9 -817.4,911.9 -817.4,912.9 
			-813.8,912.9 -808.3,910.7 -808.3,909 -803.8,909 -803.8,909.8 -799,909.8 -796.5,908.8 -791.9,908.8 -790,908 -787.9,907.2 
			-793.9,907.2 -799.2,907.2 -799.2,906.3 -797.3,905.5 -797.3,904 -795.2,903.2 -793.3,904 -790.5,905.1 -787.1,905.1 
			-787.1,906.5 -784.7,906.5 -784.7,903.7 -789.8,903.7 -793.2,902.4 -795.8,902.4 -795.8,901.1 -789.3,901.1 -789.3,899.6 
			-786.9,899.6 -784.1,900.7 -781,900.7 -781,899.7 -783.1,898.9 -783.1,897.9 -780.3,897.9 -780.3,896.9 -783.5,895.6 
			-782.9,895.4 -780.4,896.3 -778,895.4 -783.2,893.3 -780.5,892.2 -776.9,892.2 -778.6,891.5 -780.7,890.7 -784.2,890.7 
			-784.2,889.4 -781.8,889.4 -781.8,887.3 -777.9,887.3 -777.9,885.4 -780.4,884.4 -780.4,883.2 -778.7,882.5 -781.6,881.3 
			-780.8,880.9 -775,880.9 -772.7,880 -768.7,880 		"/>
		<polygon class="st0" points="-899,901.5 -902.9,901.5 -902.9,902.5 -905.6,902.5 -908.3,903.5 -910.4,903.5 -910.4,901.9 
			-908.8,901.3 -910.2,900.7 -910.2,899 -914.7,899 -914.7,899.6 -919.3,899.6 -919.3,901.7 -917.5,902.4 -917.5,903.6 
			-920.4,903.6 -920.4,901.5 -920.7,899.1 -920.9,898.1 -925,898.1 -930.7,900.5 -930.7,903.1 -927.6,904.4 -927.6,905.7 
			-924.5,905.7 -921.6,905.7 -921.6,904.9 -918.7,904.9 -918.7,906.6 -925.3,906.6 -925.3,907.8 -922.7,908.9 -919.5,908.9 
			-913.4,908.9 -911.1,908 -909.3,908 -907,908.9 -905.1,908.1 -901,909.8 -897.2,911.4 -899.2,912.2 -901.6,913.2 -901.6,915.2 
			-895.9,915.2 -895.9,913.8 -893.6,912.9 -891.8,913.6 -891.8,915.3 -894.5,916.4 -894.5,918.6 -896.9,919.6 -902.5,919.6 
			-902.5,921.2 -902.5,922.7 -896.7,922.7 -896.7,921.5 -893.4,922.9 -889.5,924.4 -885.3,924.4 -884.5,924.7 -877.7,927.5 
			-875.5,926.6 -882.7,923.6 -880.9,923.6 -876.2,925.5 -871.8,923.8 -871.8,922.2 -875.5,922.2 -875.5,921.1 -878.4,921.1 
			-880.2,920.3 -881.4,919.8 -881.4,917.7 -878.8,916.7 -876.6,917.6 -876.6,918.6 -872.5,920.2 -869.3,918.9 -866.8,917.9 
			-869,917.1 -874.5,914.8 -876.2,914.2 -877.8,914.2 -879,913.7 -881.5,912.7 -881.5,910.2 -884.4,909 -892.8,905.6 -894.5,905.6 
			-894.5,903.3 		"/>
		<polygon class="st0" points="-1004,905.6 -1001.3,904.5 -998.2,903.2 -998.2,902.2 -995.4,901 -993.1,900.1 -987.6,898.1 
			-991.7,896.8 -993.9,897.7 -997.5,897.7 -997.5,896.2 -1001.9,896.2 -1006.2,896.2 -1006.2,897.2 -1006.2,898.2 -1006.2,899.4 
			-1007.4,900.4 -1010.7,901.7 -1010.7,902.8 -1007.4,904.2 		"/>
		<polygon class="st0" points="-960.9,911 -958.4,912 -955.9,912 -955.9,909.4 -957.3,908.8 -959.6,907.9 -963.8,906.2 
			-963.8,904.4 -962.5,903.9 -962.5,900.4 -966.1,898.9 -967.2,898.4 -969.5,899.4 -969.5,901.3 -969.5,903.4 -972.4,903.4 
			-972.4,902 -974.5,901.1 -976.8,902 -979.6,902 -979.6,900.7 -982.5,900.7 -984.2,901.4 -986,900.7 -983,899.5 -985,898.6 
			-987.1,899.2 -994.7,902.3 -994.7,903.2 -992.7,904 -990.1,905.1 -987.6,905.1 -987.6,905.5 -988.8,906 -992.7,906 -992.7,907 
			-989.9,908.1 -983.4,908.1 -983.4,906.9 -981.6,907.6 -980.1,908.2 -980.1,908.7 -990.1,908.7 -990.1,909.8 -987.9,910.7 
			-982.6,910.7 -982.6,911.6 -972.9,911.6 -971.6,911 -968.9,911 -968.9,909.7 -966.1,909.7 -966.1,911 		"/>
		<polygon class="st0" points="-937.8,883.5 -937.8,884.4 -937.8,885.4 -934,885.4 -934,886.3 -931.5,886.3 -928,884.9 -928,883.8 
			-924.9,883.8 -922.8,882.9 -926.3,881.5 -927.4,881.1 -929.9,880.1 -932.8,878.9 -937.1,876.3 -941.5,878 -938.6,879.2 
			-941.5,880.3 -941.5,881.2 -943,881.8 -943,882.8 -937.8,882.8 		"/>
		<path class="st0" d="M-926.4,875.4l-1.9,0.8l-2.3,0.9h3h6.2v1.2h-4.7l2.7,1.1h5.1v-1.6h4.4l0.7,0.3h1.8v-1.5l5.2-2.1l2.2,0.9
			l-4,1.6v1.4h5.7v0.2v0.7h-6.4h-3.8l-1.3,0.5h-2v0.8h2.9v0.9l1.6,0.7h2.2l-1.1,0.4h-3.1h-1.8l-4.4-1.8l-0.8-0.3h-1.5l-1-0.4h-2v0.9
			l2.4,1l3.8,1.5l1.8,0.7h3.8v0.8l-2.1,0.8l-2.4-1h-1.7h-3.8l-2,0.8l1.2,0.5h3.2v0.6v1.1h2.4l1.9-0.8h1v0.8l-2.8,1.1h-5.5v-0.8
			l-2-0.8l-2.3,0.9l2.1,0.8l-1.6,0.7l-1.4,0.6v0.5h3.9v0.5c0,0,4.5,0.2,4.5,0c0-0.2,0-1.2,0-1.2h5.6v1.1h3.8l2.4-1l-1.7-0.7h-3
			l-1.4-0.6l1.8-0.7h2h2.7l3-1.2h3.4V886v-1h1.6v-0.6h-4.2v-1.4l1.8-0.7h3.5h4.5v-1l2.2,0.9l3.5-1.4v-1.3h3.9l8-3.2l-2.8-1.1
			l-4.1,1.7h-2.7l-1.9-0.8h2.1v-1.4h3.5h5.5l1.6-0.7l5.8-2.3l-1.3-0.5h-1.5l-1.5-0.6l-1.8-0.7h-2.5v0.8h-5.5h-2.7l2.4-1h-2l-1.3-0.5
			h-6.4l-1.8,0.7v0.7l-1.2-0.5l-2.9-1.2h-4.5l5,2l-2.1,0.9l-2.4-1l-2.2-0.9h-4.2l-1.9,0.8l-2.2,0.9v0.4l0.9,0.3l1.5,0.6h-4.9h-1.8
			l-1.6,0.7v-1.2l-2.1-0.8v1v0.9l-0.8,0.3h-2.4l-1.7-0.7l-1.6,0.5l-2.5,1l2.1,0.8H-926.4z"/>
		<polygon class="st0" points="-997,890.9 -995.3,890.2 -994,890.2 -994,891.6 -994,892.7 -990,892.7 -990,893.4 -984.4,893.4 
			-982.7,894 -982.7,894.9 -978.2,894.9 -976.2,894.1 -971.4,894.1 -968.6,893 -968.6,894.6 -964.4,892.8 -967.3,891.7 
			-969.2,890.9 -971.3,891.8 -973,891.1 -973,890 -976.5,890 -976.5,891.5 -976.5,892.9 -981.4,892.9 -981.4,891.3 -983.8,891.3 
			-987.1,891.3 -991.3,891.3 -991.3,889.7 -988.4,889.7 -988.4,888.2 -992,888.2 -994.2,888.2 -994.4,888.8 -998.4,889.1 
			-1001.2,890.3 -1001.2,892.1 -999.8,892.1 		"/>
		<polygon class="st0" points="-979.6,887.6 -979.6,886.5 -978.3,885.9 -978.3,885 -981.4,885 -982.5,885 -982.2,885.6 
			-984.5,886.6 -984.5,888.2 -981.1,888.2 		"/>
		<polygon class="st0" points="-956.7,890.8 -959.9,892.1 -956.5,893.5 -956.5,894.6 -953.3,894.6 -953.3,892.5 -949.6,892.5 
			-947.5,891.7 -952.4,890.8 		"/>
		<polygon class="st0" points="-947.9,893.7 -943.4,895.5 -939.4,893.9 -936.6,895 -936.6,892.7 -940.2,892.7 -940.2,891 
			-942,890.1 -946.9,890.1 -942.9,891.7 -945.9,892.9 		"/>
		<polygon class="st0" points="-925.6,895.2 -927.3,895.9 -921.3,895.9 -921.3,894.4 -916.7,894.4 -916.7,895.1 -914.3,896.1 
			-910.4,894.6 -913,893.5 -915.2,892.6 -921.5,892.6 -924.7,893.9 -927.8,893.9 -930.5,892.8 -930.5,891.3 -933.6,891.3 
			-933.6,893 -933.6,895.2 -929.6,895.2 		"/>
		<polygon class="st0" points="-950.2,885.2 -950.2,887.1 -947.5,887.1 -944.4,888.4 -940.2,888.4 -938.4,887.7 -939.6,886.9 
			-941.3,886.2 -944.5,886.2 -946.1,885.6 -948.5,884.6 		"/>
		<polygon class="st0" points="-964.7,885.8 -962.5,886.7 -958.2,886.7 -954.3,888.3 -952.9,887.7 -954.4,887.1 -954.4,885.2 
			-956.9,885.2 -962.2,885.2 -962.2,883.6 -964.7,883.6 -967.7,883.6 -964.7,884.8 		"/>
		<polygon class="st0" points="-951.1,903.6 -951.1,905 -948.8,905.9 -945.4,904.5 -945.4,902.5 -948.2,901.3 -950.5,901.3 
			-950.5,899.8 -947.1,899.8 -947.1,897.9 -949.4,898.1 -952.4,898.1 -952.4,899.8 -952.4,901.1 -953.7,901.6 -956,901.6 
			-953.8,902.5 		"/>
		<polygon class="st0" points="-938,903.2 -934.8,901.9 -933.5,901.4 -933.5,899 -930.9,899 -930.9,897 -934.4,897 -936.3,897.7 
			-937.7,897.2 -940.2,897.2 -943.7,898.6 -943.7,900.3 -940.1,901.7 -940.1,902.3 		"/>
		<polygon class="st0" points="-942.7,912.4 -942.7,911 -948.2,909.5 -951.8,910.9 -948.2,912.4 		"/>
		<polygon class="st0" points="-903.5,900 -901.5,900.8 -899.1,899.8 -902.4,898.2 -909.3,898.2 -909.3,900.4 -906.8,901.3 		"/>
		<polygon class="st0" points="-947.1,881.7 -951,880.1 -953.5,880.6 -955.4,881.4 -950.8,883.2 		"/>
		<polygon class="st0" points="-963.5,889.9 -963.5,887.9 -966.3,886.8 -968.4,887.1 -968.4,887.9 -965.5,889.1 		"/>
		<polygon class="st0" points="-910.2,926.8 -910.2,927.6 -907.9,928.5 -905,927.4 -905,926.2 -908.1,925.9 		"/>
		<polygon class="st0" points="-901.1,980.8 -898.7,979.8 -894.4,979.8 -894.4,979.1 -898.7,979.1 -902.5,977.6 -902.5,976.8 
			-905.8,976.8 -910,976.8 -910,976 -913.1,976 -915.9,977.2 -913.1,978.3 -911.5,978.3 -906.9,978.3 -903.5,979.7 -906.1,980.8 		
			"/>
		<polygon class="st0" points="-864.8,986.8 -862,986.8 -860.5,986.2 -864.7,984.5 -864.7,983.2 -867.2,982.2 -869.3,982.2 
			-870.9,981.5 -872.6,980.8 -878.7,980.8 -881.8,980.8 -881.8,979.9 -886.9,979.9 -889.4,978.9 -888.4,978.5 -891.6,977.1 
			-895.3,977.1 -895.3,976 -897.4,975.2 -899.9,974.2 -899.9,973 -902.7,971.8 -904.9,972.7 -906.9,972.5 -906.9,974 -903.5,974 
			-901.3,974 -901.3,974.9 -903.1,975.6 -903.9,975.9 -902.5,976.5 -899.3,976.5 -899.3,977.4 -897.9,977.9 -894.4,977.9 
			-894.4,978.9 -892.8,979.5 -892.8,980.6 -896.7,980.6 -896.7,982.1 -893.6,982.1 -888.9,982.1 -886.2,982.1 -884.2,982.1 
			-882.5,981.4 -880.2,982.3 -872.9,982.3 -869.9,983.6 -865.7,985.2 -865.7,986.5 		"/>
		<polygon class="st0" points="-911.2,981.6 -908.1,980.3 -910.9,979.8 -913.3,980.7 		"/>
		<polygon class="st0" points="-918.5,976.9 -920.2,977.4 -920.2,978.5 -914.7,978.5 -917.1,977.6 -917.1,976.7 		"/>
		<polygon class="st0" points="-930,998.7 -930,997.3 -930.5,997.5 -935.8,998.5 -935.8,999.5 -933.7,1000.4 -930,1000.4 
			-927.2,999.2 -928.5,998.7 		"/>
		<polygon class="st0" points="-909.1,1022.6 -906.6,1023.6 -904.9,1022.9 -904.9,1021.7 -907.5,1021.9 		"/>
		<path class="st0" d="M-812.9,1002.3l-1.5-0.6l-2.8-1.1h-8.2l-1.7-0.7h-3.2l-5.3-2.2l-3.8-1.5l-2.5-1v-1.8h-3.5l-3-1.2h-7.8
			l-3.6-1.5h-2.9l-2.2-0.9l1.9-0.8v-1.5h-3.3l-2.5,1v-0.8h-6.1v0.7h-1.9h-2.8l-1.8-0.7v-1.2h-1.9l-1.2,0.5h-3.6v-0.9h-2.7l-2.4,1
			l-1.7,0.7l-2.2,0.9l-3.6,1.5h-3.9l2.2-0.9h-3.4h-2.4l-2.2,0.9l-2.5-1l-2.6-1.1v-2.4l2.2-0.9l-1.7-0.7l-3-1.2h-3.6l-1.8,0.7l-2-0.8
			l1.5-0.6l2-0.8v-2.1v-1l-1.5-0.6h-6.5l-2.6,1.1v1l-1.3,0.5v0.8h-0.2l-1.6,0.7h-3.2l-3.8-1.5l-2.7-1.1l-1.7-0.7v-3.5h1.1v-2.3
			l4.8-2l2.1-0.8h7.4l3,1.2v-1.5h6.2h5.1l3.6,1.5v2.1l3.4,1.4h2.2v-2.3l-3.9-1.6v-2.3l8.7-3.5l2.8-1.1v-1.1l2.1-0.9l3.3-1.3v-2.2
			l4.9-2h4.4v-1l3-1.2h2.3h3.4v0.6l2.5,1l2.3-0.9l2.5-1h5.1l2.7-1.1v-2.1h-2h-3.5h-3.1h-4.2v-1.3h-5.1l-2.4,1v1.7l-3.2,1.3h-10.2
			l-5.3,2.2l-1.5,0.6h-8l-2.7-1.1v-2h-4.4v-2.2h-2.7l-1.9,0.8l-2.5-1l1.5-0.6h-5.9v-0.7h3.6h3.8v1.3h4.2l1.5,0.6h2.8h3.5v1.2
			l1.9,0.8v0.6h-2.3v1.5h2.7h3.8l2.3-0.9l3.4-1.4v-0.4h10.5l1.8-0.7v-1l-1.2-0.5v-0.8l4.3-1.7h3.4l1.7,0.7h3.2l1.8-0.7l1.9,0.8
			l1.4-0.5h3.5l3.5-1.4l2.2-0.9l1.4,0.6v0.8l-1.7,0.7l-2.1,0.8l2,0.8h7.6l2.3-0.9v-0.8h-3.9V946l2.2-0.9V942l-4-1.6l-3.5,1.4h-4
			v-1.2h1.8l2.3-0.9l-2.3-0.9l-2.7-1.1l-3-1.2h-2.1v-2.1l-2.1-0.8l-2.9-1.2v0.6v0.9h-3.9l-1.1,0.4h-1.5v-1.4h-3.1h-2.5l1.7-0.7v-1.6
			v-1.4l-3.3-1.3h-4.2v-1.1h-4.4h-1.5l-2.2-0.9l-2.6,1.1l2.5,1v2.2v1.2l-2.9,1.2v0.5l1.8,0.7l2,0.8v1.5l1.7,0.7v1.1h-3.9l-3.6,1.5
			l3.5,1.4v1.8v1.7l-2.5,1h-3.5h-1.8V944l-2-0.8l-1.8-0.7v-3.2l-2.3-0.9h-2.1l-2.7,1.1V938h-3.1l-3.6-1.5h-2.7V936h-1.8h-2.2h-1.8
			v-1.7l-1.7-0.7l-1.9-0.8h-1.3v-3.6l3-1.2v-0.8l2.1-0.9v-1.1h3l2-0.8v-0.6h-3.8h-1.6l-1.8-0.7l1.2-0.5h1.5l1.3,0.5h3.4h2l1.6-0.7
			h2.9v1.8l1.3,0.5h2.7l1.3,0.5l4.9-2l1.2,0.5l-4.5,1.8v1l1.8,0.7l1.8-0.7h2v-1.3v-0.7l1.6-0.7l2.1-0.8l-6.1-2.5v-1h-2.2l-2.4-1h2.9
			l5.1-2.1v-2.1l-1.2-0.5l-2.5-0.8v-1l3.1-1.2l-3.6-1.5h-3.1v1.7l-2.9,1.2v1.8l-2.9,1.2l-2.7-1.1v-2.3l-2.8-1.1v1.9l-2.3,0.9v-2
			l-4.2-1.7v-1.2v-1.6v-1.2l-3-1.2h-3v1.4v2.3l3.8,1.5v2v1.2l-2.8,1.1v1.8h-3.5v-1.5h-13.8l-2.7-1.1h-3.8l-1.5,0.6v2.1h-5.7
			l-3.5-1.4h-11.1v-1.5l2.7-1.1v-1.2h-10.4l-4.9-2l-3.5,1.4h-9.1l-3.3-1.3l-4.4,1.8h-5.1l-2.7,1.1h-5.6h-7.6v-1.7h-5.8l-2-0.8h-5.6
			l-4.3-1.7h-5.9h-8l-3-1.2h-5l-4.7,1.9h-4.8l-5.4,2.2v1.5h-5.5v1l4,1.6l4,1.6h6.2v1.2l-1.3,0.5l-2.9,1.2h-4.9l-3.2-1.3l-3.2,1.3
			v1.7h7.8h3.6l1.8-0.7v3.4l-3.1,1.2l-5.3,2.1v1.8l2.4,1l-2.4,1l2.5,1l4.4-1.8v1.3l2.9,1.2h7.6v0.7l-4,1.6l1.6,0.7l-5.5,2.2l1.5,0.6
			l6.5-2.6l4.9-2v-1.9l4.4-1.8l4.9-2v-1.5h2.4v1.3l5.6,2.3h5.3h2.2h7.3l3.2,1.3h4.5h4l4.1,1.7v2.7h3.1v1.5h5.5v2.5v1.9l3.6,1.5v1.6
			h4.4l4.2,1.7l3.8,1.5v1.8l-1.6,0.7v9.3l3.9,1.6v1.7l4,1.6l3.1,1.2v1.3h3.6v2.4l4.1,1.7v2l2.4,1l3.2,1.3v1l1.6,0.6l2.1,0.8h2.2
			v-0.9l-2.8-1.1v-1l-4.5-1.8v-1.4l-4-1.6c0,0,0-1.3,0-1.7c0-0.4,1.9,0,1.9,0v1.7l3.5,1.4l3.5,1.4l2.1,0.8v1h3.8l7.4,3v2.8l3.5,1.4
			h2.5l4.1,1.7h3.2h3.1h5.1l2.4,1h0.5l1.2,1.6l2.2,0.9h3.6l1.8,0.7h5.5l1.6,0.6v1.7h1.9l2.5,1l2.6,1.1h3l3.2,1.3l2.4-1v-0.9l1.1-0.4
			l1.2,0.5v1.4v1.3l1.7,0.7v0.6h-2.4l-2.4,1v1.7l-4,1.6v2.5v1.6l1.9,0.8l5.1,2.1v2.4l1.9,0.8v1.3l4.5,1.8l3.8,1.5h3.9l3.4,1.4v4.3
			h-3.1v2.1v2.7v2.6v2.3v2.7l-3.4,1.4v1.7v3h-2.2v4.1h3.3v1.4l-2.2,0.9l-2,0.8v0.8l-1.8,0.7v4l3,1.2v3l2.5,1l1.9,0.8h3.9v1.6h1.2
			l1.9,0.8h4.4v-1h6.1h2.6v-0.8l-1.6-0.6l-2-0.8h-3.8l-2.8-1.1v-2.1l-1.5-0.6v-1.2h3.3v-0.9l5.3-2.1v-1.7l-1.8-0.7h-2.2v-0.9h4.4
			v-1.6l1.5-0.6l2.9-1.2v-1.5h-2.4v-0.5h3.4l1.7-0.7v-1.5l1.5-0.6h8.4l2.6-1.1v-1.8l-1.6-0.6v-0.8h6.1l2.2-0.9v-0.8l2.4-1l5.3-2.2
			v-2h5.5v-3l6.4-2.6h6.2v-1l5.4-2.2v-2.1l3.4-1.4v-2.9l8.9-3.6v-3.7l-2.6-1.1H-812.9z"/>
		<polygon class="st0" points="-1096.7,974.6 -1097.9,975.1 -1099.6,975.1 -1099.6,976.1 -1099.6,976.8 -1097.5,976 -1095.2,976.9 
			-1092.3,975.8 -1092.3,974.9 -1093.3,974.5 		"/>
		<polygon class="st0" points="-1073.4,979.9 -1075.3,979.1 -1075.3,977.8 -1079,977.8 -1081.1,976.9 -1084.8,976.9 -1084.8,976.2 
			-1089.4,975.9 -1091.4,976.7 -1091.4,977.6 -1088.4,977.6 -1086.4,978.5 -1084,978.5 -1081.9,979.3 -1078.2,979.3 -1078.2,980.6 
			-1078.2,981.1 -1078.2,983.1 -1075.1,983.1 -1072.9,982.2 -1069.5,982.2 -1068.7,981.9 -1068.7,980.7 -1070.7,979.9 		"/>
		<polygon class="st0" points="-864.2,1051.7 -867.9,1053.2 -867.9,1054.3 -864.7,1054.3 -862.8,1055 -859.5,1053.6 -855.5,1053.6 
			-855.5,1052.5 -857.5,1051.7 		"/>
	</g>
	<g>
		<g>
			<circle class="st1" cx="-1262.7" cy="949.6" r="11.6"/>
			<polygon class="st1" points="-1262.9,974.2 -1274.2,950 -1251.1,950 			"/>
		</g>
		<circle class="st2" cx="-1262.7" cy="949.6" r="6"/>
	</g>
	<g>
		<g>
			<circle class="st1" cx="-1217.4" cy="1005.4" r="11.6"/>
			<polygon class="st1" points="-1217.6,1030 -1229,1005.8 -1205.8,1005.8 			"/>
		</g>
		<circle class="st2" cx="-1217.4" cy="1005.4" r="6"/>
	</g>
	<g>
		<g>
			<circle class="st1" cx="-1148.1" cy="1015.5" r="11.6"/>
			<polygon class="st1" points="-1148.3,1040.1 -1159.7,1016 -1136.5,1016 			"/>
		</g>
		<circle class="st2" cx="-1148.1" cy="1015.5" r="6"/>
	</g>
	<g>
		<g>
			<circle class="st1" cx="-1089" cy="951.3" r="11.6"/>
			<polygon class="st1" points="-1089.2,975.9 -1100.6,951.7 -1077.4,951.7 			"/>
		</g>
		<circle class="st2" cx="-1089" cy="951.3" r="6"/>
	</g>
	<g>
		<g>
			<circle class="st1" cx="-1251.1" cy="997.4" r="11.6"/>
			<polygon class="st1" points="-1251.3,1022 -1262.7,997.9 -1239.5,997.9 			"/>
		</g>
		<circle class="st2" cx="-1251.1" cy="997.4" r="6"/>
	</g>
	<g>
		<g>
			<circle class="st1" cx="-978.3" cy="928.2" r="11.6"/>
			<polygon class="st1" points="-978.5,952.8 -989.9,928.7 -966.7,928.7 			"/>
		</g>
		<circle class="st2" cx="-978.3" cy="928.2" r="6"/>
	</g>
	<g>
		<g>
			<circle class="st1" cx="-944.3" cy="943.1" r="11.6"/>
			<polygon class="st1" points="-944.5,967.7 -955.9,943.5 -932.7,943.5 			"/>
		</g>
		<circle class="st2" cx="-944.3" cy="943.1" r="6"/>
	</g>
	<g>
		<g>
			<circle class="st1" cx="-895.1" cy="979.3" r="11.6"/>
			<polygon class="st1" points="-895.3,1003.9 -906.7,979.8 -883.5,979.8 			"/>
		</g>
		<circle class="st2" cx="-895.1" cy="979.3" r="6"/>
	</g>
	<g>
		<g>
			<circle class="st1" cx="-848.9" cy="985.4" r="11.6"/>
			<polygon class="st1" points="-849.2,1010 -860.5,985.8 -837.3,985.8 			"/>
		</g>
		<circle class="st2" cx="-848.9" cy="985.4" r="6"/>
	</g>
	<g>
		<g>
			<circle class="st1" cx="-872.1" cy="1012.6" r="11.6"/>
			<polygon class="st1" points="-872.4,1037.2 -883.7,1013 -860.5,1013 			"/>
		</g>
		<circle class="st2" cx="-872.1" cy="1012.6" r="6"/>
	</g>
	<g>
		<g>
			<circle class="st1" cx="-1291.5" cy="928.2" r="11.6"/>
			<polygon class="st1" points="-1291.7,952.8 -1303.1,928.7 -1279.9,928.7 			"/>
		</g>
		<circle class="st2" cx="-1291.5" cy="928.2" r="6"/>
	</g>
	<g>
		<g>
			<circle class="st1" cx="-1314.3" cy="943.7" r="11.6"/>
			<polygon class="st1" points="-1314.5,968.3 -1325.8,944.1 -1302.7,944.1 			"/>
		</g>
		<circle class="st2" cx="-1314.3" cy="943.7" r="6"/>
	</g>
	<g>
		<g>
			<circle class="st1" cx="-1355.8" cy="957.3" r="11.6"/>
			<polygon class="st1" points="-1356,981.9 -1367.4,957.7 -1344.2,957.7 			"/>
		</g>
		<circle class="st2" cx="-1355.8" cy="957.3" r="6"/>
	</g>
	<g>
		<g>
			<circle class="st1" cx="-1380.2" cy="949.7" r="11.6"/>
			<polygon class="st1" points="-1380.5,974.3 -1391.8,950.2 -1368.6,950.2 			"/>
		</g>
		<circle class="st2" cx="-1380.2" cy="949.7" r="6"/>
	</g>
	<g>
		<g>
			<circle class="st1" cx="-1425.3" cy="955.7" r="11.6"/>
			<polygon class="st1" points="-1425.6,980.3 -1436.9,956.2 -1413.7,956.2 			"/>
		</g>
		<circle class="st2" cx="-1425.3" cy="955.7" r="6"/>
	</g>
	<g>
		<g>
			<circle class="st1" cx="-1220" cy="940.2" r="11.6"/>
			<polygon class="st1" points="-1220.3,964.8 -1231.6,940.7 -1208.4,940.7 			"/>
		</g>
		<circle class="st2" cx="-1220" cy="940.2" r="6"/>
	</g>
	<g>
		<g>
			<circle class="st1" cx="-1210.5" cy="923.9" r="8"/>
			<polygon class="st1" points="-1210.6,940.8 -1218.4,924.2 -1202.5,924.2 			"/>
		</g>
		<circle class="st2" cx="-1210.5" cy="923.9" r="4.1"/>
	</g>
	<g>
		<g>
			<circle class="st1" cx="-1238.3" cy="901" r="8"/>
			<polygon class="st1" points="-1238.5,917.9 -1246.3,901.3 -1230.3,901.3 			"/>
		</g>
		<circle class="st2" cx="-1238.3" cy="901" r="4.1"/>
	</g>
	<g>
		<g>
			<circle class="st1" cx="-1176.4" cy="910" r="8"/>
			<polygon class="st1" points="-1176.6,927 -1184.4,910.3 -1168.5,910.3 			"/>
		</g>
		<circle class="st2" cx="-1176.4" cy="910" r="4.1"/>
	</g>
	<g>
		<g>
			<circle class="st1" cx="-1265.8" cy="911" r="8"/>
			<polygon class="st1" points="-1266,927.9 -1273.8,911.3 -1257.9,911.3 			"/>
		</g>
		<circle class="st2" cx="-1265.8" cy="911" r="4.1"/>
	</g>
	<g>
		<g>
			<circle class="st1" cx="-1145.4" cy="897.6" r="8"/>
			<polygon class="st1" points="-1145.6,914.5 -1153.4,897.9 -1137.5,897.9 			"/>
		</g>
		<circle class="st2" cx="-1145.4" cy="897.6" r="4.1"/>
	</g>
	<g>
		<g>
			<circle class="st1" cx="-1080.1" cy="907.5" r="8"/>
			<polygon class="st1" points="-1080.2,924.4 -1088,907.8 -1072.1,907.8 			"/>
		</g>
		<circle class="st2" cx="-1080.1" cy="907.5" r="4.1"/>
	</g>
	<g>
		<g>
			<circle class="st1" cx="-1049.5" cy="905" r="8"/>
			<polygon class="st1" points="-1049.7,921.9 -1057.5,905.3 -1041.5,905.3 			"/>
		</g>
		<circle class="st2" cx="-1049.5" cy="905" r="4.1"/>
	</g>
	<g>
		<g>
			<circle class="st1" cx="-999.1" cy="900" r="8"/>
			<polygon class="st1" points="-999.3,916.9 -1007.1,900.3 -991.2,900.3 			"/>
		</g>
		<circle class="st2" cx="-999.1" cy="900" r="4.1"/>
	</g>
	<g>
		<g>
			<circle class="st1" cx="-959.7" cy="911.6" r="8"/>
			<polygon class="st1" points="-959.9,928.6 -967.7,911.9 -951.8,911.9 			"/>
		</g>
		<circle class="st2" cx="-959.7" cy="911.6" r="4.1"/>
	</g>
	<g>
		<g>
			<circle class="st1" cx="-893.1" cy="925.5" r="8"/>
			<polygon class="st1" points="-893.2,942.5 -901.1,925.8 -885.1,925.8 			"/>
		</g>
		<circle class="st2" cx="-893.1" cy="925.5" r="4.1"/>
	</g>
	<g>
		<g>
			<circle class="st1" cx="-1018.7" cy="914.2" r="8"/>
			<polygon class="st1" points="-1018.9,931.1 -1026.7,914.5 -1010.7,914.5 			"/>
		</g>
		<circle class="st2" cx="-1018.7" cy="914.2" r="4.1"/>
	</g>
	<g>
		<g>
			<circle class="st1" cx="-1466.1" cy="910.4" r="8"/>
			<polygon class="st1" points="-1466.3,927.3 -1474.1,910.7 -1458.1,910.7 			"/>
		</g>
		<circle class="st2" cx="-1466.1" cy="910.4" r="4.1"/>
	</g>
	<g>
		<g>
			<circle class="st1" cx="-1476.1" cy="939.7" r="8"/>
			<polygon class="st1" points="-1476.3,956.6 -1484.1,940 -1468.2,940 			"/>
		</g>
		<circle class="st2" cx="-1476.1" cy="939.7" r="4.1"/>
	</g>
	<g>
		<g>
			<circle class="st1" cx="-1426.2" cy="915.6" r="8"/>
			<polygon class="st1" points="-1426.3,932.5 -1434.1,915.9 -1418.2,915.9 			"/>
		</g>
		<circle class="st2" cx="-1426.2" cy="915.6" r="4.1"/>
	</g>
	<g>
		<g>
			<circle class="st1" cx="-1402.4" cy="919.7" r="8"/>
			<polygon class="st1" points="-1402.6,936.7 -1410.4,920 -1394.4,920 			"/>
		</g>
		<circle class="st2" cx="-1402.4" cy="919.7" r="4.1"/>
	</g>
	<g>
		<g>
			<circle class="st1" cx="-1359.9" cy="911.1" r="8"/>
			<polygon class="st1" points="-1360.1,928.1 -1367.9,911.4 -1351.9,911.4 			"/>
		</g>
		<circle class="st2" cx="-1359.9" cy="911.1" r="4.1"/>
	</g>
	<g>
		<g>
			<circle class="st1" cx="-1526.3" cy="935.3" r="8"/>
			<polygon class="st1" points="-1526.5,952.3 -1534.3,935.6 -1518.4,935.6 			"/>
		</g>
		<circle class="st2" cx="-1526.3" cy="935.3" r="4.1"/>
	</g>
	<g>
		<g>
			<circle class="st1" cx="-1501" cy="929.7" r="8"/>
			<polygon class="st1" points="-1501.2,946.7 -1509,930 -1493,930 			"/>
		</g>
		<circle class="st2" cx="-1501" cy="929.7" r="4.1"/>
	</g>
</g>
<g>
	<text transform="matrix(1 0 0 1 -1560.8851 -183.4838)"><tspan x="0" y="0" class="st2" style="font-family:'CenturyGothic-Bold'; font-size:78px;">38,00</tspan><tspan x="196.6" y="0" class="st2" style="font-family:'CenturyGothic-Bold'; font-size:78px; letter-spacing:3;">0+</tspan><tspan x="294.9" y="0" class="st2" style="font-family:'CenturyGothic-Bold'; font-size:78px;">Free Courses</tspan></text>
</g>
<rect x="-1620.9" y="-21.8" class="st3" width="900" height="678"/>
<g>
	<text transform="matrix(1.1 0 0 1 -1061.095 190.1681)" style="font-family:'ArialNarrow-Bold'; font-size:38.549px;">Scored card</text>
</g>
<g>
	<path class="st4" d="M-932,13.8c1.3,0.4,2.2,1.3,3.1,2.2c8.6,8.3,17.3,16.6,25.9,24.8c1.2,1.2,1.8,2.5,1.8,4.1
		c0,30.3,0,60.6,0,90.9c0,2.7-1.7,4.4-4.4,4.4c-29.1,0-58.2,0-87.2,0c-2.8,0-4.4-1.7-4.4-4.5c0-17.3,0-34.6,0-51.8c0-3.5,0-7,0-10.5
		c0-0.3,0-0.6,0-0.8c0.1-0.1,0.2-0.1,0.3-0.2c0.5,0.6,0.9,1.2,1.5,1.7c1.9,1.9,3.8,3.9,5.8,5.7c0.4,0.4,0.6,0.9,0.6,1.5
		c0,16.6,0,33.2,0,49.9c0,0.3,0,0.6,0,1c26.6,0,53.2,0,79.8,0c0-27.9,0-55.8,0-83.8c-0.3,0-0.7,0-1,0c-7.3,0-14.6,0-21.9,0
		c-2.9,0-4.5-1.6-4.5-4.5c0-6.9,0-13.9,0-20.8c0-0.3,0-0.6,0-1c-17.5,0-34.9,0-52.4,0c0,5.3,0,10.5,0,16c-0.3-0.3-0.5-0.4-0.6-0.5
		c-2.4-2.4-4.7-4.7-7.1-7.1c-0.3-0.3-0.4-0.7-0.4-1.1c0-3.4,0-6.9,0-10.3c0-3,0.6-3.9,3.3-5.1C-973.3,13.8-952.7,13.8-932,13.8z
		 M-928.7,40.2c4.4,0,8.7,0,13.2,0c-4.4-4.2-8.7-8.4-13.2-12.6C-928.7,31.8-928.7,36-928.7,40.2z"/>
	<path class="st4" d="M-1020,42.7c0.6-0.7,1-1.6,1.7-2.2c3.6-3.6,7.2-7.2,10.8-10.8c1.6-1.6,3.3-1.6,4.9,0c2.2,2.2,4.4,4.4,6.5,6.5
		c0.1,0.1,0.3,0.3,0.4,0.4c-5.4,5.4-10.8,10.8-16.3,16.3c-2.1-2.1-4.2-4.2-6.3-6.4c-0.7-0.7-1.2-1.6-1.8-2.3
		C-1020,43.7-1020,43.2-1020,42.7z"/>
	<path class="st4" d="M-1009.8,54.7c5.3-5.3,10.7-10.7,16-16.1c19.4,19.4,38.7,38.8,58.1,58.2c-5.3,5.3-10.7,10.7-16,16.1
		C-971,93.6-990.4,74.1-1009.8,54.7z"/>
	<path class="st4" d="M-958.1,69c1.4,0,2.7,0,4,0c10.3,0,20.6,0,30.9,0c2.2,0,3.7,1.2,4.2,3.3c0.5,2.4-1.3,4.7-3.8,4.8
		c-2.3,0.1-4.5,0-6.8,0c-6.6,0-13.3,0-19.9,0c-0.3,0-0.7-0.1-0.9-0.3c-2.5-2.4-5-4.9-7.5-7.4C-957.9,69.3-957.9,69.2-958.1,69z"/>
	<path class="st4" d="M-949.6,115c5.4-5.4,10.7-10.7,16.1-16.1c0.6,2,1.1,4.1,1.7,6.2c1.2,4.4,2.4,8.7,3.6,13.1
		c0.5,1.7-0.5,2.6-2.1,2.2c-6.4-1.7-12.7-3.5-19.1-5.2C-949.5,115-949.5,115-949.6,115z"/>
	<path class="st4" d="M-942.8,84.2c0.2,0,0.3,0,0.4,0c6.5,0,12.9,0,19.4,0c1.9,0,3.5,1.3,3.9,3c0.5,1.8-0.3,3.7-2,4.5
		c-0.6,0.3-1.3,0.5-2,0.5c-3.8,0-7.6,0-11.4,0c-0.3,0-0.6-0.1-0.8-0.3c-2.5-2.5-5-4.9-7.4-7.4C-942.7,84.5-942.7,84.4-942.8,84.2z"
		/>
</g>
<g>
	<text transform="matrix(1.1 0 0 1 -1497.7981 405.5787)" style="font-family:'ArialNarrow-Bold'; font-size:38.549px;">Distance to Hazard</text>
</g>
<g>
	<path class="st4" d="M-1405.6,90.3l-1.9,0v0.1c-0.1,19.6,10.9,27.4,20,33.1c9.5,6,22.8,8.7,36.8,8.7c7.4,0,35-2.6,49.9-17.7
		c8.5-8.7,10.2-19.5,10.2-29.1c0-7-0.9-13.5-0.9-18l0-0.7c0.3-10.7,4.3-15.5,5.7-18.6c4.5-10.5,10.6-20.7,10.6-33.3l0-1.9
		c-0.3-7-3.8-12-8.7-15c-4.8-3.1-10.8-4.3-16.7-4.3h0l-0.1,0c-6.2,0.1-18.6,4.5-27.3,13.2c-8.6,8.7-15.1,24.8-18.1,29.3
		c-4.5,7-15.8,12.2-24.1,14.7c-7.6,2.4-16.6,6.1-23.5,10.9c-6.7,4.6-14,10.3-13.9,28.8h3.7c0.2-17.6,5.7-21,12.3-25.7
		c6.4-4.5,15.1-8.1,22.5-10.4c8.6-2.8,20.5-7.8,26-16.2c3.3-5.2,9.7-20.8,17.6-28.7c7.7-7.9,20.1-12.1,24.7-12.1h0.1
		c5.3,0.1,10.7,1.2,14.7,3.8c4,2.6,6.7,6.3,7,12.1l0,1.7c0,11.4-5.6,21.1-10.2,31.9c-0.9,2.1-5.8,8.5-6,20l0,0.8
		c0,5,0.9,11.3,0.9,18c0,9.2-1.6,18.8-9.1,26.5c-13.3,13.8-40.6,16.7-47.3,16.6c-13.6,0-26.3-2.7-34.9-8.1c-9-5.8-18.2-11.9-18.3-30
		v-0.1H-1405.6"/>
	<path class="st4" d="M-1349.7,58.8c-25.5,0-46.1,14.1-46.1,31.5c0,17.4,20.7,31.5,46.1,31.5c25.5,0,46.2-14.1,46.2-31.5
		C-1303.6,72.9-1324.2,58.8-1349.7,58.8z M-1360.9,87.9c-5,0-8.9-1.5-8.9-3.6c0-2,4-3.6,8.9-3.6c5,0,9,1.6,9,3.6
		C-1352,86.4-1356,87.9-1360.9,87.9z"/>
	<path class="st4" d="M-1295.8,40.7c7.9-11.4,7.3-25.5-1.3-31.4c-8.6-5.9-22-1.5-29.8,10c-7.9,11.4-7.3,25.4,1.3,31.4
		C-1317.1,56.6-1303.7,52.2-1295.8,40.7"/>
	<polygon class="st4" points="-1389.7,42.7 -1366.7,42.5 -1366.7,85.4 -1363.2,85.4 -1363.2,21.3 	"/>
	<path class="st4" d="M-1358.3,59.3c0,0,24.2-12,27.2-31.8c2,3.5,29.5,11.7,37.7,9.1c-5,9.9-14.7,29.7-14.1,56.9
		C-1312.6,68-1332.5,62.8-1358.3,59.3z"/>
</g>
<g>
	<path class="st5" d="M-329.3,102.5l-1.9,0v0.1c-0.1,19.6,10.9,27.4,20,33.1c9.5,6,22.8,8.7,36.8,8.7c7.4,0,35-2.6,49.9-17.7
		c8.5-8.7,10.2-19.5,10.2-29.1c0-7-0.9-13.5-0.9-18l0-0.7c0.3-10.7,4.3-15.5,5.7-18.6c4.5-10.5,10.6-20.7,10.6-33.3l0-1.9
		c-0.3-7-3.8-12-8.7-15c-4.8-3.1-10.8-4.3-16.7-4.3h0l-0.1,0c-6.2,0.1-18.6,4.5-27.3,13.2c-8.6,8.7-15.1,24.8-18.1,29.3
		c-4.5,7-15.8,12.2-24.1,14.7c-7.6,2.4-16.6,6.1-23.5,10.9c-6.7,4.6-14,10.3-13.9,28.8h3.7c0.2-17.6,5.7-21,12.3-25.7
		c6.4-4.5,15.1-8.1,22.5-10.4c8.6-2.8,20.5-7.8,26-16.2c3.3-5.2,9.7-20.8,17.6-28.7c7.7-7.9,20.1-12.1,24.7-12.1h0.1
		c5.3,0.1,10.7,1.2,14.7,3.8c4,2.6,6.7,6.3,7,12.1l0,1.7c0,11.4-5.6,21.1-10.2,31.9c-0.9,2.1-5.8,8.5-6,20l0,0.8
		c0,5,0.9,11.3,0.9,18c0,9.2-1.6,18.8-9.1,26.5c-13.3,13.8-40.6,16.7-47.3,16.6c-13.6,0-26.3-2.7-34.9-8.1c-9-5.8-18.2-11.9-18.3-30
		v-0.1H-329.3"/>
	<path class="st5" d="M-273.4,71c-25.5,0-46.1,14.1-46.1,31.5c0,17.4,20.7,31.5,46.1,31.5c25.5,0,46.2-14.1,46.2-31.5
		C-227.3,85.1-247.9,71-273.4,71z M-284.6,100.1c-5,0-8.9-1.5-8.9-3.6c0-2,4-3.6,8.9-3.6c5,0,9,1.6,9,3.6
		C-275.7,98.6-279.7,100.1-284.6,100.1z"/>
	<path class="st5" d="M-219.6,52.9c7.9-11.4,7.3-25.5-1.3-31.4c-8.6-5.9-22-1.5-29.8,10c-7.9,11.4-7.3,25.4,1.3,31.4
		C-240.8,68.8-227.4,64.3-219.6,52.9"/>
	<polygon class="st5" points="-313.4,54.9 -290.4,54.7 -290.4,97.6 -286.9,97.6 -286.9,33.5 	"/>
	<path class="st5" d="M-282,71.5c0,0,24.2-12,27.2-31.8c2,3.5,29.5,11.7,37.7,9.1c-5,9.9-14.7,29.7-14.1,56.9
		C-236.3,80.2-256.2,75-282,71.5z"/>
</g>
<g>
	<text transform="matrix(1.1 0 0 1 -1082.3167 602.0426)"><tspan x="0" y="0" style="font-family:'ArialNarrow-Bold'; font-size:38.549px;">Up to 12 hours</tspan><tspan x="12.3" y="37.9" style="font-family:'ArialNarrow-Bold'; font-size:38.549px;">in GPS mode</tspan></text>
</g>
<g>
	<path class="st4" d="M-979.2,454.8c0.5-3.2,0.5-3.2,3.7-3.2c1.3,0,2.6,0,4.3,0c0-1.6,0.1-3,0-4.4c-0.1-1.6,0.5-2.4,2.3-2.3
		c5.6,0.1,11.2,0.1,16.8,0c1.6,0,2.3,0.5,2.2,2.1c-0.1,1.4,0,2.9,0,4.6c1.6,0,2.9,0,4.3,0c3.8,0.1,3.1-0.2,3.7,3.2
		c2.5,0,5.1,0,7.7,0c3.3,0,4.6,1.3,4.6,4.6c0,33.7,0,67.4,0,101.2c0,3-1.4,4.4-4.3,4.4c-17.7,0-35.4,0-53.1,0c-3,0-4.4-1.4-4.4-4.4
		c0-33.8,0-67.6,0-101.4c0-3,1.4-4.3,4.4-4.4C-984.5,454.8-981.9,454.8-979.2,454.8z M-932.8,510.1c0-15.7,0-31.5,0-47.2
		c0-3.5-1.1-4.6-4.5-4.6c-15.5,0-31,0-46.6,0c-3.3,0-4.5,1.1-4.5,4.4c0,31.4,0,62.8,0,94.2c0,3.6,1.1,4.6,4.7,4.6
		c15.2,0,30.5,0,45.7,0c4.2,0,5.1-0.9,5.1-5.1C-932.8,541-932.8,525.6-932.8,510.1z"/>
	<path class="st4" d="M-960.8,557.8c-6.8,0-13.6,0-20.4,0c-3.1,0-4-0.9-4-4c0-4,0-8,0-12c0-2.5,1.3-3.7,3.7-3.7
		c13.9,0,27.8,0,41.7,0c2.7,0,3.8,1.1,3.8,3.8c0,4,0,8,0,12c0,2.9-1.1,3.9-4,3.9C-946.9,557.9-953.8,557.8-960.8,557.8z"/>
	<path class="st4" d="M-960.8,532.4c-6.8,0-13.6,0-20.4,0c-3.1,0-4-0.9-4-4c0-4,0-8,0-12c0-2.5,1.3-3.7,3.7-3.7
		c13.9,0,27.8,0,41.7,0c2.7,0,3.8,1.1,3.8,3.8c0,4,0,8,0,12c0,2.9-1.1,3.9-4,3.9C-946.9,532.4-953.8,532.4-960.8,532.4z"/>
	<path class="st4" d="M-960.8,481.6c-6.8,0-13.6,0-20.4,0c-3.1,0-4-0.9-4-4c0-4,0-8,0-12c0-2.5,1.3-3.7,3.7-3.7
		c13.9,0,27.8,0,41.7,0c2.7,0,3.8,1.1,3.8,3.8c0,4,0,8,0,12c0,2.9-1.1,3.9-4,3.9C-946.9,481.6-953.8,481.6-960.8,481.6z"/>
	<path class="st4" d="M-960.8,507c-6.8,0-13.6,0-20.4,0c-3.1,0-4-0.9-4-4c0-4,0-8,0-12c0-2.5,1.3-3.7,3.7-3.7c13.9,0,27.8,0,41.7,0
		c2.7,0,3.8,1.1,3.8,3.8c0,4,0,8,0,12c0,2.9-1.1,3.9-4,3.9C-946.9,507-953.8,507-960.8,507z"/>
</g>
<g>
	<text transform="matrix(1.1 0 0 1 -1489.0808 171.2208)"><tspan x="0" y="0" style="font-family:'ArialNarrow-Bold'; font-size:38.549px;">Distance to Front/</tspan><tspan x="-27.3" y="37.9" style="font-family:'ArialNarrow-Bold'; font-size:38.549px;">Center/Back of Green</tspan></text>
</g>
<g>
	<text transform="matrix(1.1 0 0 1 -1457.2156 620.9908)" style="font-family:'ArialNarrow-Bold'; font-size:38.549px;">Shot Distance</text>
</g>
<g>
	<path class="st4" d="M-1359.9,564.3c0,11.3-9.1,20.4-20.4,20.4c-11.3,0-20.4-9.1-20.4-20.4c0-11.3,9.1-20.4,20.4-20.4
		C-1369.1,543.9-1359.9,553-1359.9,564.3z"/>
	<polygon class="st4" points="-1354,531 -1341.8,538.5 -1292.1,495 -1296.5,492.9 -1284.5,490 -1281.9,499.5 -1286,498 -1324,548.8 
		-1307.9,557.7 -1359.9,567.7 	"/>
	<path class="st4" d="M-1366.7,551.9c0,0-20.7-44.6,18.7-64.9c0,0,29.4-15.4,61.7,1.7c0,0-30.6-26.4-77.6-2.9c0,0-37.5,17.6-35.6,71
		l7.9-3c0,0-7.4-47.5,42.7-70.4c0,0,14.6-7.5,39-3.6c0,0-57.8-5.6-66.3,39.4c0,0-4.2,19.8,3,35.5L-1366.7,551.9z"/>
</g>
<g>
	<polygon class="st2" points="-917.1,1547.5 -932,1572 -932,1591.3 -899.4,1595.7 -884.8,1589.1 -890.6,1559.5 	"/>
	<polygon class="st6" points="-908.2,1557.6 -900.7,1566.9 -901.6,1580.5 -914.4,1589.8 -899.2,1590.6 -890.6,1582.7 -894.8,1565.6 
			"/>
	<polygon class="st2" points="-966.7,1543.8 -977.2,1554.2 -969.3,1564.6 -950.5,1565.4 -945.2,1559.8 -954.2,1539.9 	"/>
	<polygon class="st2" points="-931.2,1503.3 -919.7,1491.3 -922.4,1489.6 -949.5,1493.6 -968.8,1487.7 -978.8,1504.8 -980.5,1514.8 
		-971.5,1511.9 -968.3,1513.8 -958.3,1534.4 -953.5,1533.3 -950.1,1534.4 -948.6,1537.5 -942.5,1516.3 -942.5,1504.3 -956.1,1505.2 
		-965.9,1496.2 -955.1,1500.9 -940,1498.2 	"/>
	<polygon class="st2" points="-973.8,1518.7 -994.8,1525.8 -1000.4,1552.6 -985,1553.9 -970.3,1539 	"/>
	<polygon class="st2" points="-998.6,1591.7 -978.7,1601.6 -955.9,1586.6 -965.8,1574.7 -986.8,1574.9 	"/>
	<polygon class="st2" points="-854.5,1538.7 -864.7,1503.5 -903.9,1483.8 -935.9,1516.5 -945.2,1545.4 -939,1557.8 -932,1561 
		-921,1542.6 -917.5,1541.4 -896,1550.4 -890.1,1546.3 -888.4,1531.2 -884.3,1549.3 -887.9,1553.7 -885.3,1556.3 -882.4,1567.8 
		-862.5,1563.6 -851.5,1555.4 	"/>
	<polygon class="st6" points="-885.4,1500 -899.1,1502.9 -877.2,1523.1 -868.9,1542.9 -869.6,1522 	"/>
</g>
<g>
	<ellipse class="st2" cx="-926.3" cy="1754.9" rx="74.2" ry="27.1"/>
	<g>
		<g>
			<g>
				<g>
					<path class="st6" d="M-925.1,1717.1c0,23.4-15.8,42.5-35.2,42.5c-19.5,0-35.2-19-35.2-42.5c0-23.4,35.2-59.8,35.2-59.8
						S-925.1,1693.7-925.1,1717.1z"/>
				</g>
			</g>
			<g>
				<g>
					<path class="st6" d="M-964,1746.3c-2.9,0.4-5.8-0.1-8.6-1.1c-2.8-1-5.5-2.6-7.9-4.9c-2.3-2.3-4.3-5.4-5.2-9
						c-1-3.5-0.9-7.3,0.1-10.6c0.5,3.4,1.3,6.6,2.5,9.3c1.3,2.7,2.9,5,4.9,6.9C-974.2,1740.9-969.2,1743.5-964,1746.3z"/>
				</g>
			</g>
		</g>
		<g>
			<g>
				<g>
					<path class="st2" d="M-934.3,1718.1c0,17.3-11.6,31.4-26,31.4c-14.4,0-26-14-26-31.4c0-17.3,26-44.2,26-44.2
						S-934.3,1700.8-934.3,1718.1z"/>
				</g>
			</g>
			<g>
				<g>
					<path class="st6" d="M-963,1739.7c-2.1,0.3-4.3-0.1-6.4-0.8c-2.1-0.7-4.1-1.9-5.8-3.6c-1.7-1.7-3.2-4-3.9-6.6
						c-0.7-2.6-0.7-5.4,0.1-7.8c0.4,2.5,0.9,4.8,1.9,6.8c0.9,2,2.2,3.7,3.7,5.1C-970.5,1735.7-966.9,1737.6-963,1739.7z"/>
				</g>
			</g>
		</g>
	</g>
</g>
<g>
	<g>
		<path class="st2" d="M-925.9,1397.1c25.3,0,50.5,0,75.8,0c-6.2-11-12.3-22-18.5-33c-2.7-4.7-5.4-9.3-8-14.2
			c-2.8-5.2-5.6-11.9-10-12.8c-4.6-1-8.7,4.2-11.7,9.7C-910.1,1369-925.9,1397.1-925.9,1397.1z"/>
		<path class="st6" d="M-977.3,1397.1c33.6,0,67.3,0,100.9,0c-8.2-14.6-16.4-29.3-24.6-44c-3.5-6.3-7.2-12.4-10.6-18.9
			c-3.7-6.9-7.4-15.8-13.3-17c-6.2-1.3-11.6,5.5-15.6,12.9C-956.3,1359.6-977.3,1397.1-977.3,1397.1z"/>
		<path class="st2" d="M-984.8,1397.1c33.6,0,67.3,0,100.9,0c-8.2-14.6-16.4-29.3-24.6-44c-3.5-6.3-7.2-12.4-10.6-18.9
			c-3.7-6.9-7.4-15.8-13.3-17c-6.2-1.3-11.6,5.5-15.6,12.9C-963.8,1359.6-984.8,1397.1-984.8,1397.1z"/>
	</g>
	<path class="st2" d="M-1004.3,1397.1c19,0,38,0,57,0c-4.6-8.3-9.3-16.6-13.9-25c-2-3.6-4.1-7-6-10.7c-2.1-3.9-4.2-9-7.5-9.7
		c-3.5-0.7-6.6,3.1-8.8,7.3C-992.4,1375.8-1004.3,1397.1-1004.3,1397.1z"/>
</g>
<g>
	<path class="st4" d="M-1221.8,288.5c-10.4-9.8-26.6-12.9-33.8-9.3c-8.3,4.1-14.5,12.8-23.2,12.7c0,0-19.8-1.6-29.3,0.2
		c-12.4,2.2-22.9,6.3-22.5,29.9c0,14.4,10.9,19.9,23.7,25.1c9.4,3.8,14.8,8,38.2,9.4c23.4,1.5,42.5-8.8,52.1-26
		C-1212.4,322.5-1210.7,299.1-1221.8,288.5z M-1226.9,302.7v4.2h-2.6v2.7h-4.1v-2.7h-2.6v-4.2h2.6V300h4.1v2.7H-1226.9z
		 M-1236.4,321.5v-4.2h2.6v-2.7h4.1v2.7h2.6v4.2h-2.6v2.7h-4.1v-2.7H-1236.4z M-1240.2,286.5h2.6v-2.7h4.1v2.7h2.6v4.2h-2.6v2.7
		h-4.1v-2.7h-2.6V286.5z M-1246.8,328.7v-4.2h2.6v-2.7h4.1v2.7h2.6v4.2h-2.6v2.7h-4.1v-2.7H-1246.8z M-1238.5,310.3v4.2h-2.6v2.7
		h-4.1v-2.7h-2.6v-4.2h2.6v-2.7h4.1v2.7H-1238.5z M-1248.9,297h2.6v-2.7h4.1v2.7h2.6v4.2h-2.6v2.7h-4.1v-2.7h-2.6V297z
		 M-1250.1,305.3v4.2h-2.6v2.7h-4.1v-2.7h-2.6v-4.2h2.6v-2.7h4.1v2.7H-1250.1z M-1259.9,323.3v-4.2h2.6v-2.7h4.1v2.7h2.6v4.2h-2.6
		v2.7h-4.1v-2.7H-1259.9z M-1262.2,291.3h2.6v-2.7h4.1v2.7h2.6v4.2h-2.6v2.7h-4.1v-2.7h-2.6V291.3z M-1271.3,301.1h2.6v-2.7h4.1v2.7
		h2.6v4.2h-2.6v2.7h-4.1v-2.7h-2.6V301.1z M-1272.1,313.8h2.6v-2.7h4.1v2.7h2.6v4.2h-2.6v2.7h-4.1V318h-2.6V313.8z M-1283.6,325.5
		v-4.2h2.6v-2.7h4.1v2.7h2.6v4.2h-2.6v2.7h-4.1v-2.7H-1283.6z M-1284.2,307.3h2.6v-2.7h4.1v2.7h2.6v4.2h-2.6v2.7h-4.1v-2.7h-2.6
		V307.3z M-1284.6,316.9v4.2h-2.6v2.7h-4.1v-2.7h-2.6v-4.2h2.6v-2.7h4.1v2.7H-1284.6z M-1296.9,303.3h2.6v-2.7h4.1v2.7h2.6v4.2h-2.6
		v2.7h-4.1v-2.7h-2.6V303.3z M-1295.6,312.7v4.2h-2.6v2.7h-4.1v-2.7h-2.6v-4.2h2.6V310h4.1v2.7H-1295.6z M-1307.9,298.1h2.6v-2.7
		h4.1v2.7h2.6v4.2h-2.6v2.7h-4.1v-2.7h-2.6V298.1z M-1316,307.7h2.6V305h4.1v2.7h2.6v4.2h-2.6v2.7h-4.1v-2.7h-2.6V307.7z
		 M-1314.9,320.6h-2.6v2.7h-4.1v-2.7h-2.6v-4.2h2.6v-2.7h4.1v2.7h2.6V320.6z M-1314.3,321.9h2.6v-2.7h4.1v2.7h2.6v4.2h-2.6v2.7h-4.1
		v-2.7h-2.6V321.9z M-1302.8,339.2h-2.6v2.7h-4.1v-2.7h-2.6V335h2.6v-2.7h4.1v2.7h2.6V339.2z M-1302.6,329.8v-4.2h2.6v-2.7h4.1v2.7
		h2.6v4.2h-2.6v2.7h-4.1v-2.7H-1302.6z M-1290.4,343.8h-2.6v2.7h-4.1v-2.7h-2.6v-4.2h2.6v-2.7h4.1v2.7h2.6V343.8z M-1291.6,334.9
		v-4.2h2.6V328h4.1v2.7h2.6v4.2h-2.6v2.7h-4.1v-2.7H-1291.6z M-1276.6,346.5h-2.6v2.7h-4.1v-2.7h-2.6v-4.2h2.6v-2.7h4.1v2.7h2.6
		V346.5z M-1269,338.4h-2.6v2.7h-4.1v-2.7h-2.6v-4.2h2.6v-2.7h4.1v2.7h2.6V338.4z M-1269.8,330.3v-4.2h2.6v-2.7h4.1v2.7h2.6v4.2
		h-2.6v2.7h-4.1v-2.7H-1269.8z M-1258.2,345.4h-2.6v2.7h-4.1v-2.7h-2.6v-4.2h2.6v-2.7h4.1v2.7h2.6V345.4z M-1258.4,336.6v-4.2h2.6
		v-2.7h4.1v2.7h2.6v4.2h-2.6v2.7h-4.1v-2.7H-1258.4z M-1245.7,347.6h-2.6v2.7h-4.1v-2.7h-2.6v-4.2h2.6v-2.7h4.1v2.7h2.6V347.6z
		 M-1235.5,341.9h-2.6v2.7h-4.1v-2.7h-2.6v-4.2h2.6V335h4.1v2.7h2.6V341.9z M-1225.6,336h-2.6v2.7h-4.1V336h-2.6v-4.2h2.6v-2.7h4.1
		v2.7h2.6V336z"/>
	<g>
		<defs>
			<rect id="SVGID_3_" x="-1454" y="281.6" width="103.8" height="71.1"/>
		</defs>
		<clipPath id="SVGID_4_">
			<use xlink:href="#SVGID_3_"  style="overflow:visible;"/>
		</clipPath>
		<g class="st7">
			<path class="st8" d="M-1474.3,291c0,0,14,18.9,35.8-0.9v0c0,0,14.5,21.3,35,0.4c0,0,16.2,19.6,35.8-0.5v0v0
				c0,0,16.1,20.5,35.8,2.3"/>
			<path class="st8" d="M-1474.3,312.8c0,0,14,18.9,35.8-0.9v0c0,0,14.5,21.3,35,0.4c0,0,16.2,19.6,35.8-0.5v0v0
				c0,0,16.1,20.5,35.8,2.3"/>
			<path class="st8" d="M-1474.3,334.5c0,0,14,18.9,35.8-0.9v0c0,0,14.5,21.3,35,0.4c0,0,16.2,19.6,35.8-0.5v0v0
				c0,0,16.1,20.5,35.8,2.3"/>
		</g>
	</g>
</g>
<g>
	<text transform="matrix(1.1 0 0 1 -1042.6877 405.5797)" style="font-family:'ArialNarrow-Bold'; font-size:38.549px;">Auto Hole</text>
</g>
<g>
	<path class="st4" d="M-1030.4,335.8c-0.2,0-0.3,0-0.4,0v-28.9l53.8-24.6l-53.8-21.1v-2.9h-7.5v52v26.3c-9.7,1.8-16.7,6.6-16.7,12.4
		c0,7.3,11,13.2,24.7,13.2c13.6,0,24.7-5.9,24.7-13.2C-1005.7,341.7-1016.8,335.8-1030.4,335.8z M-1027.3,271.3h5.3h5v23.9h-5v-19.4
		h-5.3V271.3z"/>
	<path class="st4" d="M-919.5,339c-0.2,0-0.3,0-0.4,0v-28.9l53.8-24.6l-53.8-21.1v-2.9h-7.5v52v26.3c-9.7,1.8-16.7,6.6-16.7,12.4
		c0,7.3,11,13.2,24.7,13.2c13.6,0,24.7-5.9,24.7-13.2C-894.9,344.9-905.9,339-919.5,339z M-922.6,293.9c0-4.7,3.2-7.7,9.7-8.9
		c5.3-1,8-2.2,8-3.6c0-0.2,0-0.4,0-0.5c0-1.2-0.6-1.9-1.9-1.9c-2.1,0-3.5,0-4.3,0c-0.9,0-2.3,0-4.4,0c-1.2,0-1.9,1.1-1.9,3.2
		c0,0.3,0,0.5,0,0.8h-4.9c0-0.6,0-1.2,0-1.7c0-4.6,2.2-6.9,6.7-6.9c1.5,0,3,0,4.5,0c1.5,0,2.9,0,4.4,0c4.5,0,6.7,1.8,6.7,5.5
		c0,0.5,0,0.9,0,1.4c0,3.7-3.2,6.2-9.6,7.5c-5.4,1.1-8,2.7-8,5h17.9v4.5h-22.8V293.9z"/>
	<g>
		<rect x="-973.4" y="291.3" class="st4" width="15.8" height="24.9"/>
		<polygon class="st4" points="-941.1,303.7 -961.7,329.8 -961.7,277.7 		"/>
	</g>
</g>
<rect x="-1563" y="-158.9" style="fill:none;" width="794.2" height="118"/>
<text transform="matrix(1.0098 0 0 1 -1562.9723 -132.1844)"><tspan x="0" y="0" class="st2" style="font-family:'Calibri'; font-size:34px;">Support more than 38000 courses around the world. </tspan><tspan x="0" y="40.8" class="st2" style="font-family:'Calibri'; font-size:34px;">Quickly gets your location by high sensitivity GPS,  to </tspan><tspan x="0" y="81.6" class="st2" style="font-family:'Calibri'; font-size:34px;">recognize Golf course nearby.</tspan></text>
<g>
	<path class="st5" d="M-66.4,11.8c1.3,0.4,2.2,1.3,3.1,2.2c8.6,8.3,17.3,16.6,25.9,24.8c1.2,1.2,1.8,2.5,1.8,4.1
		c0,30.3,0,60.6,0,90.9c0,2.7-1.7,4.4-4.4,4.4c-29.1,0-58.2,0-87.2,0c-2.8,0-4.4-1.7-4.4-4.5c0-17.3,0-34.6,0-51.8c0-3.5,0-7,0-10.5
		c0-0.3,0-0.6,0-0.8c0.1-0.1,0.2-0.1,0.3-0.2c0.5,0.6,0.9,1.2,1.5,1.7c1.9,1.9,3.8,3.9,5.8,5.7c0.4,0.4,0.6,0.9,0.6,1.5
		c0,16.6,0,33.2,0,49.9c0,0.3,0,0.6,0,1c26.6,0,53.2,0,79.8,0c0-27.9,0-55.8,0-83.8c-0.3,0-0.7,0-1,0c-7.3,0-14.6,0-21.9,0
		c-2.9,0-4.5-1.6-4.5-4.5c0-6.9,0-13.9,0-20.8c0-0.3,0-0.6,0-1c-17.5,0-34.9,0-52.4,0c0,5.3,0,10.5,0,16c-0.3-0.3-0.5-0.4-0.6-0.5
		c-2.4-2.4-4.7-4.7-7.1-7.1c-0.3-0.3-0.4-0.7-0.4-1.1c0-3.4,0-6.9,0-10.3c0-3,0.6-3.9,3.3-5.1C-107.7,11.8-87,11.8-66.4,11.8z
		 M-63.1,38.1c4.4,0,8.7,0,13.2,0c-4.4-4.2-8.7-8.4-13.2-12.6C-63.1,29.8-63.1,33.9-63.1,38.1z"/>
	<path class="st5" d="M-154.4,40.7c0.6-0.7,1-1.6,1.7-2.2c3.6-3.6,7.2-7.2,10.8-10.8c1.6-1.6,3.3-1.6,4.9,0c2.2,2.2,4.4,4.4,6.5,6.5
		c0.1,0.1,0.3,0.3,0.4,0.4c-5.4,5.4-10.8,10.8-16.3,16.3c-2.1-2.1-4.2-4.2-6.3-6.4c-0.7-0.7-1.2-1.6-1.8-2.3
		C-154.4,41.7-154.4,41.2-154.4,40.7z"/>
	<path class="st5" d="M-144.2,52.7c5.3-5.3,10.7-10.7,16-16.1c19.4,19.4,38.7,38.8,58.1,58.2c-5.3,5.3-10.7,10.7-16,16.1
		C-105.4,91.5-124.8,72.1-144.2,52.7z"/>
	<path class="st5" d="M-92.5,67c1.4,0,2.7,0,4,0c10.3,0,20.6,0,30.9,0c2.2,0,3.7,1.2,4.2,3.3c0.5,2.4-1.3,4.7-3.8,4.8
		c-2.3,0.1-4.5,0-6.8,0c-6.6,0-13.3,0-19.9,0c-0.3,0-0.7-0.1-0.9-0.3c-2.5-2.4-5-4.9-7.5-7.4C-92.3,67.2-92.3,67.2-92.5,67z"/>
	<path class="st5" d="M-84,112.9c5.4-5.4,10.7-10.7,16.1-16.1c0.6,2,1.1,4.1,1.7,6.2c1.2,4.4,2.4,8.7,3.6,13.1
		c0.5,1.7-0.5,2.6-2.1,2.2c-6.4-1.7-12.7-3.5-19.1-5.2C-83.9,113-83.9,113-84,112.9z"/>
	<path class="st5" d="M-77.2,82.2c0.2,0,0.3,0,0.4,0c6.5,0,12.9,0,19.4,0c1.9,0,3.5,1.3,3.9,3c0.5,1.8-0.3,3.7-2,4.5
		c-0.6,0.3-1.3,0.5-2,0.5c-3.8,0-7.6,0-11.4,0c-0.3,0-0.6-0.1-0.8-0.3c-2.5-2.5-5-4.9-7.4-7.4C-77.1,82.4-77.1,82.3-77.2,82.2z"/>
</g>
<g>
	<path class="st5" d="M132.4,72.5c-10.4-9.8-26.6-12.9-33.8-9.3C90.4,67.3,84.1,76,75.5,75.8c0,0-19.8-1.6-29.3,0.2
		c-12.4,2.2-22.9,6.3-22.5,29.9c0,14.4,10.9,19.9,23.7,25.1c9.4,3.8,14.8,8,38.2,9.4c23.4,1.5,42.5-8.8,52.1-26
		C141.9,106.4,143.6,83,132.4,72.5z M127.4,86.6v4.2h-2.6v2.7h-4.1v-2.7h-2.6v-4.2h2.6v-2.7h4.1v2.7H127.4z M117.8,105.5v-4.2h2.6
		v-2.7h4.1v2.7h2.6v4.2h-2.6v2.7h-4.1v-2.7H117.8z M114,70.4h2.6v-2.7h4.1v2.7h2.6v4.2h-2.6v2.7h-4.1v-2.7H114V70.4z M107.5,112.7
		v-4.2h2.6v-2.7h4.1v2.7h2.6v4.2h-2.6v2.7h-4.1v-2.7H107.5z M115.7,94.3v4.2h-2.6v2.7H109v-2.7h-2.6v-4.2h2.6v-2.7h4.1v2.7H115.7z
		 M105.4,80.9h2.6v-2.7h4.1v2.7h2.6v4.2H112v2.7H108v-2.7h-2.6V80.9z M104.1,89.2v4.2h-2.6v2.7h-4.1v-2.7h-2.6v-4.2h2.6v-2.7h4.1
		v2.7H104.1z M94.4,107.2V103H97v-2.7h4.1v2.7h2.6v4.2H101v2.7H97v-2.7H94.4z M92,75.2h2.6v-2.7h4.1v2.7h2.6v4.2h-2.6v2.7h-4.1v-2.7
		H92V75.2z M82.9,85.1h2.6v-2.7h4.1v2.7h2.6v4.2h-2.6V92h-4.1v-2.7h-2.6V85.1z M82.1,97.8h2.6v-2.7h4.1v2.7h2.6v4.2h-2.6v2.7h-4.1
		V102h-2.6V97.8z M70.7,109.4v-4.2h2.6v-2.7h4.1v2.7H80v4.2h-2.6v2.7h-4.1v-2.7H70.7z M70,91.2h2.6v-2.7h4.1v2.7h2.6v4.2h-2.6v2.7
		h-4.1v-2.7H70V91.2z M69.6,100.8v4.2H67v2.7h-4.1V105h-2.6v-4.2h2.6v-2.7H67v2.7H69.6z M57.3,87.3h2.6v-2.7H64v2.7h2.6v4.2H64v2.7
		h-4.1v-2.7h-2.6V87.3z M58.6,96.7v4.2H56v2.7h-4.1v-2.7h-2.6v-4.2h2.6V94H56v2.7H58.6z M46.3,82h2.6v-2.7H53V82h2.6v4.2H53v2.7
		h-4.1v-2.7h-2.6V82z M38.3,91.6h2.6v-2.7h4.1v2.7h2.6v4.2h-2.6v2.7h-4.1v-2.7h-2.6V91.6z M39.3,104.6h-2.6v2.7h-4.1v-2.7H30v-4.2
		h2.6v-2.7h4.1v2.7h2.6V104.6z M39.9,105.9h2.6v-2.7h4.1v2.7h2.6v4.2h-2.6v2.7h-4.1v-2.7h-2.6V105.9z M51.4,123.2h-2.6v2.7h-4.1
		v-2.7h-2.6V119h2.6v-2.7h4.1v2.7h2.6V123.2z M51.6,113.8v-4.2h2.6v-2.7h4.1v2.7h2.6v4.2h-2.6v2.7h-4.1v-2.7H51.6z M63.9,127.8h-2.6
		v2.7h-4.1v-2.7h-2.6v-4.2h2.6v-2.7h4.1v2.7h2.6V127.8z M62.6,118.8v-4.2h2.6v-2.7h4.1v2.7h2.6v4.2h-2.6v2.7h-4.1v-2.7H62.6z
		 M77.6,130.4H75v2.7H71v-2.7h-2.6v-4.2H71v-2.7H75v2.7h2.6V130.4z M85.3,122.3h-2.6v2.7h-4.1v-2.7h-2.6v-4.2h2.6v-2.7h4.1v2.7h2.6
		V122.3z M84.4,114.2V110H87v-2.7h4.1v2.7h2.6v4.2h-2.6v2.7H87v-2.7H84.4z M96,129.3h-2.6v2.7h-4.1v-2.7h-2.6v-4.2h2.6v-2.7h4.1v2.7
		H96V129.3z M95.8,120.6v-4.2h2.6v-2.7h4.1v2.7h2.6v4.2h-2.6v2.7h-4.1v-2.7H95.8z M108.5,131.5h-2.6v2.7h-4.1v-2.7h-2.6v-4.2h2.6
		v-2.7h4.1v2.7h2.6V131.5z M118.7,125.8h-2.6v2.7H112v-2.7h-2.6v-4.2h2.6v-2.7h4.1v2.7h2.6V125.8z M128.6,119.9H126v2.7H122v-2.7
		h-2.6v-4.2h2.6V113h4.1v2.7h2.6V119.9z"/>
	<g>
		<defs>
			<rect id="SVGID_5_" x="15.1" y="12.4" width="74" height="50.7"/>
		</defs>
		<clipPath id="SVGID_6_">
			<use xlink:href="#SVGID_5_"  style="overflow:visible;"/>
		</clipPath>
		<g class="st9">
			<path class="st10" d="M0.6,19.1c0,0,10,13.5,25.5-0.6v0c0,0,10.3,15.2,24.9,0.3c0,0,11.6,14,25.5-0.4v0v0c0,0,11.4,14.6,25.6,1.6
				"/>
			<path class="st10" d="M0.6,34.6c0,0,10,13.5,25.5-0.6v0c0,0,10.3,15.2,24.9,0.3c0,0,11.6,14,25.5-0.4v0v0c0,0,11.4,14.6,25.6,1.6
				"/>
			<path class="st10" d="M0.6,50c0,0,10,13.5,25.5-0.6v0c0,0,10.3,15.2,24.9,0.3c0,0,11.6,14,25.5-0.4v0v0c0,0,11.4,14.6,25.6,1.6"
				/>
		</g>
	</g>
</g>
<g>
	<path class="st5" d="M-313.9,289.3c-0.1,0-0.3,0-0.4,0V259l40-25.9l-40-21.8v-3.1h-7.2v54.3V290c-9.3,1.9-16,6.9-16,13
		c0,7.6,10.6,13.8,23.6,13.8s23.6-6.2,23.6-13.8C-290.3,295.4-300.9,289.3-313.9,289.3z M-310.9,223.9h5h4.8v22.9h-4.8v-18.6h-5
		V223.9z"/>
	<path class="st5" d="M-232.1,289.3c-0.1,0-0.3,0-0.4,0V259l40-25.9l-40-21.8v-3.1h-7.2v54.3V290c-9.3,1.9-16,6.9-16,13
		c0,7.6,10.6,13.8,23.6,13.8c13,0,23.6-6.2,23.6-13.8C-208.5,295.4-219,289.3-232.1,289.3z M-232.7,241.5c0-4.5,2.3-7.4,6.9-8.5
		c3.8-0.9,5.7-2.1,5.7-3.4c0-0.2,0-0.3,0-0.5c0-1.2-0.4-1.8-1.3-1.8c-1.5,0-2.5,0-3.1,0c-0.6,0-1.7,0-3.1,0c-0.9,0-1.3,1.1-1.3,3.1
		c0,0.3,0,0.5,0,0.8h-3.5c0-0.6,0-1.1,0-1.7c0-4.4,1.6-6.6,4.8-6.6c1.1,0,2.1,0,3.2,0c1,0,2.1,0,3.2,0c3.2,0,4.8,1.8,4.8,5.3
		c0,0.4,0,0.9,0,1.3c0,3.6-2.3,6-6.9,7.2c-3.8,1-5.7,2.6-5.7,4.8h12.8v4.4h-16.3V241.5z"/>
	<g>
		<rect x="-282" y="260.8" class="st5" width="15.1" height="13.7"/>
		<polygon class="st5" points="-251.1,267.6 -270.8,282 -270.8,253.3 		"/>
	</g>
</g>
<g>
	<path class="st5" d="M-114.4,295.2c0,11.7-9.5,21.2-21.2,21.2c-11.7,0-21.2-9.5-21.2-21.2c0-11.7,9.5-21.2,21.2-21.2
		C-123.9,274-114.4,283.5-114.4,295.2z"/>
	<polygon class="st5" points="-108.2,260.5 -95.5,268.4 -43.9,223.1 -48.4,220.9 -35.9,217.9 -33.2,227.8 -37.6,226.2 -77.1,279.1 
		-60.3,288.3 -114.4,298.7 	"/>
	<path class="st5" d="M-121.5,282.3c0,0-21.5-46.4,19.5-67.5c0,0,30.6-16,64.2,1.7c0,0-31.8-27.4-80.7-3c0,0-38.9,18.3-37,73.9
		l8.2-3.2c0,0-7.7-49.4,44.4-73.2c0,0,15.1-7.8,40.5-3.8c0,0-60.1-5.8-68.9,40.9c0,0-4.3,20.6,3.1,36.9L-121.5,282.3z"/>
</g>
<g>
	<path class="st5" d="M56.1,209.9c0.6-3.3,0.6-3.3,3.8-3.3c1.3,0,2.6,0,4.4,0c0-1.6,0.1-3,0-4.4c-0.1-1.7,0.5-2.4,2.3-2.4
		c5.7,0.1,11.3,0.1,17,0c1.6,0,2.3,0.5,2.2,2.2c-0.1,1.5,0,2.9,0,4.6c1.6,0,3,0,4.4,0c3.9,0.1,3.2-0.2,3.7,3.3c2.6,0,5.2,0,7.8,0
		c3.3,0,4.7,1.4,4.7,4.7c0,34.2,0,68.5,0,102.7c0,3-1.4,4.5-4.4,4.5c-18,0-35.9,0-53.9,0c-3.1,0-4.4-1.4-4.4-4.5
		c0-34.3,0-68.6,0-103c0-3,1.4-4.4,4.4-4.4C50.7,209.9,53.4,209.9,56.1,209.9z M103.2,266.1c0-16,0-32,0-47.9c0-3.5-1.1-4.7-4.6-4.7
		c-15.8,0-31.5,0-47.3,0c-3.4,0-4.5,1.2-4.5,4.5c0,31.9,0,63.8,0,95.7c0,3.6,1.1,4.7,4.8,4.7c15.5,0,30.9,0,46.4,0
		c4.3,0,5.2-0.9,5.2-5.1C103.2,297.4,103.2,281.7,103.2,266.1z"/>
	<path class="st5" d="M74.8,314.5c-6.9,0-13.8,0-20.8,0c-3.1,0-4.1-0.9-4.1-4.1c0-4,0-8.1,0-12.1c0-2.5,1.3-3.7,3.8-3.7
		c14.1,0,28.3,0,42.4,0c2.8,0,3.9,1.1,3.9,3.9c0,4,0,8.1,0,12.1c0,2.9-1.1,3.9-4,4C88.9,314.5,81.9,314.5,74.8,314.5z"/>
	<path class="st5" d="M74.8,288.7c-6.9,0-13.8,0-20.8,0c-3.1,0-4.1-0.9-4.1-4.1c0-4,0-8.1,0-12.1c0-2.5,1.3-3.7,3.8-3.7
		c14.1,0,28.3,0,42.4,0c2.8,0,3.9,1.1,3.9,3.9c0,4,0,8.1,0,12.1c0,2.9-1.1,3.9-4,4C88.9,288.7,81.9,288.7,74.8,288.7z"/>
	<path class="st5" d="M74.8,237.1c-6.9,0-13.8,0-20.8,0c-3.1,0-4.1-0.9-4.1-4.1c0-4,0-8.1,0-12.1c0-2.5,1.3-3.7,3.8-3.7
		c14.1,0,28.3,0,42.4,0c2.8,0,3.9,1.1,3.9,3.9c0,4,0,8.1,0,12.1c0,2.9-1.1,3.9-4,4C88.9,237.1,81.9,237.1,74.8,237.1z"/>
	<path class="st5" d="M74.8,262.9c-6.9,0-13.8,0-20.8,0c-3.1,0-4.1-0.9-4.1-4.1c0-4,0-8.1,0-12.1c0-2.5,1.3-3.7,3.8-3.7
		c14.1,0,28.3,0,42.4,0c2.8,0,3.9,1.1,3.9,3.9c0,4,0,8.1,0,12.1c0,2.9-1.1,3.9-4,4C88.9,262.9,81.9,262.9,74.8,262.9z"/>
</g>
</svg>
