<?xml version="1.0" encoding="utf-8"?>
<!-- Generator: Adobe Illustrator 25.2.3, SVG Export Plug-In . SVG Version: 6.00 Build 0)  -->
<svg version="1.1" id="圖層_1" xmlns="http://www.w3.org/2000/svg" xmlns:xlink="http://www.w3.org/1999/xlink" x="0px" y="0px"
	 viewBox="0 0 150 150" style="enable-background:new 0 0 150 150;" xml:space="preserve">
<style type="text/css">
	.st0{fill:#89B829;}
	.st1{fill:#DD5519;}
	.st2{fill:#FFFFFF;}
	.st3{opacity:0.78;fill:#FFF000;}
	.st4{fill:#004212;}
	.st5{fill:#111111;}
	.st6{fill:#060001;}
	.st7{clip-path:url(#SVGID_4_);}
	.st8{fill:none;stroke:#004212;stroke-width:7.1711;stroke-linecap:round;stroke-linejoin:round;stroke-miterlimit:10;}
	.st9{clip-path:url(#SVGID_6_);}
	.st10{fill:none;stroke:#000000;stroke-width:5;stroke-linecap:round;stroke-linejoin:round;stroke-miterlimit:10;}
</style>
<g>
	<defs>
		<rect id="SVGID_1_" x="-1500.9" y="-296.8" width="1000" height="1000"/>
	</defs>
	<clipPath id="SVGID_2_">
		<use xlink:href="#SVGID_1_"  style="overflow:visible;"/>
	</clipPath>
	<g style="clip-path:url(#SVGID_2_);">
		
			<image style="overflow:visible;" width="3264" height="2448" xlink:href="C454A5A7.jpg"  transform="matrix(0.8271 0 0 0.8271 -1503.5422 -847.8148)">
		</image>
	</g>
</g>
<g>
	<g>
		<polygon class="st0" points="-1379.5,945.3 -1377,944.2 -1375.7,944.2 -1374.1,943.6 -1374.1,942 -1373.1,941.6 -1374.7,940.9 
			-1375.8,940.5 -1375.8,939.4 -1380,937.7 -1380.1,937.7 -1382.1,938.5 -1382.1,939.8 -1385.5,939.8 -1385.5,941.4 -1384.4,941.8 
			-1384.4,942.6 -1386,943.2 -1386,944.1 -1383.2,945.3 		"/>
		<polygon class="st0" points="-1376.6,935.7 -1376.6,937 -1375.3,937 -1375.3,938 -1376.3,938 -1376.6,938.3 -1374.4,939.1 
			-1374.4,940.3 -1372.1,940.3 -1370.9,940.8 -1370.9,941.5 -1372.5,942.2 -1372.5,943.3 -1373.8,943.8 -1374.8,944.2 
			-1374.2,944.2 -1374.2,945.3 -1376.5,945.3 -1376.5,946.1 -1375.2,946.7 -1371.5,946.7 -1370.6,946.3 -1368.8,946.3 
			-1368.8,945.8 -1367,945.8 -1365.6,945.2 -1363.2,945.2 -1361.1,944.4 -1361.1,943.7 -1358.6,943.7 -1358.6,942.9 -1356.3,941.9 
			-1357.7,941.4 -1359.6,941.4 -1359.6,940.5 -1361.2,939.8 -1362.9,939.1 -1362.9,938.3 -1364.3,937.7 -1365.3,937.3 
			-1365.3,936.4 -1364.5,936 -1364.5,934.3 -1365.5,933.8 -1367.5,933.8 -1366.7,933.5 -1365.1,932.9 -1365.1,932 -1366.6,931.4 
			-1369.5,931.4 -1369.5,932.3 -1372.1,932.3 -1373.8,933 -1375.2,932.5 -1377.4,932.5 -1379.9,933.5 -1379.9,934.4 -1378.2,935.1 
					"/>
		<polygon class="st0" points="-1017.9,1021.6 -1020.6,1020.5 -1022.6,1019.7 -1022.6,1018.5 -1024.7,1017.7 -1026.3,1017.7 
			-1027.5,1017.2 -1031.1,1015.7 -1032.9,1015 -1032.9,1013.4 -1034.7,1012.7 -1034.7,1011.6 -1036.7,1010.7 -1039.7,1009.6 
			-1039.7,1008.8 -1040.7,1008.4 -1040.7,1007.3 -1042.6,1007.3 -1044.9,1008.2 -1044.9,1010.4 -1046.8,1010.4 -1046.8,1014.1 
			-1048.3,1014.1 -1050.6,1013.1 -1052.4,1013.1 -1053.5,1012.7 -1054.5,1012.3 -1055.9,1011.7 -1055.9,1010.1 -1054.4,1009.5 
			-1054.4,1008.6 -1060.6,1008.6 -1061.3,1008.3 -1064.4,1008.3 -1065.6,1007.8 -1067.2,1007.8 -1069.3,1008.7 -1070.5,1009.2 
			-1070.5,1010.2 -1073.2,1010.9 -1076.1,1009.7 -1081.2,1011.8 -1083.3,1011.8 -1084.2,1012.1 -1087.7,1012.1 -1089.6,1012.9 
			-1089.6,1014.1 -1091.6,1014.9 -1091.6,1015.8 -1095,1015.8 -1096.6,1016.4 -1100.6,1016.4 -1104.4,1018 -1108.1,1018 
			-1108.1,1019.9 -1109.9,1020.6 -1109.9,1021.9 -1109.9,1023.5 -1107.8,1024.4 -1107.8,1025.2 -1104.2,1026.6 -1104.2,1027.7 
			-1104.2,1029.5 -1105.4,1030 -1105.4,1031.5 -1103.7,1032.1 -1095.7,1032.1 -1093.8,1031.4 -1085.8,1031.4 -1081.7,1029.7 
			-1074.9,1029.7 -1072.7,1028.8 -1067.8,1028.8 -1066.4,1029.4 -1062,1029.4 -1060.6,1030 -1060.6,1031.6 -1057.8,1032.7 
			-1055.2,1033.7 -1053,1033.7 -1053,1033.1 -1049.4,1033.1 -1049.4,1034.6 -1047.1,1035.5 -1044.2,1036.7 -1041.3,1036.7 
			-1039,1035.8 -1037,1035.8 -1037,1036.6 -1033.5,1036.6 -1031.1,1035.6 -1026.3,1035.6 -1024.8,1035 -1024.8,1032.7 
			-1021.5,1031.3 -1021.5,1030.2 -1019.5,1029.4 -1019.5,1028.3 -1016.8,1027.2 -1016.8,1023.1 -1017.9,1022.6 		"/>
		<polygon class="st0" points="-1031,1036.7 -1032.4,1037.3 -1030.3,1038.1 -1032,1038.8 -1034.1,1038.8 -1036.2,1038 -1037.9,1038 
			-1038.9,1038.4 -1038.9,1040.4 -1037.5,1041 -1035.9,1041.6 -1035.9,1042.5 -1032.3,1042.5 -1031,1042 -1028.8,1041.1 
			-1028.8,1040.3 -1027,1040.3 -1027,1039.2 -1028.1,1038.7 -1026.7,1038.2 -1026.7,1037.6 -1029.4,1036.5 		"/>
		<polygon class="st0" points="-963.7,1034.8 -967.9,1034.8 -967.9,1033.9 -969.4,1033.3 -969.4,1031.7 -970.6,1031.7 
			-972.5,1030.9 -975.4,1030.9 -976.8,1031.5 -975.5,1032 -975.5,1032.9 -974.1,1032.9 -974.1,1034 -972.2,1034.7 -972.2,1035.5 
			-973.3,1036 -973.3,1037.4 -974.6,1037.4 -976.3,1038.1 -977.9,1038.1 -977.9,1039.1 -979.4,1039.1 -979.4,1039.8 -980.8,1040.4 
			-983.4,1041.5 -985.2,1041.5 -985.2,1042.2 -987.9,1043.3 -988.8,1043.6 -990.3,1044.2 -990.3,1045 -988.8,1045.6 -986.4,1045.6 
			-986.4,1046.1 -981,1046.1 -977.4,1044.7 -977.4,1043.8 -975.5,1043.1 -973,1043.1 -973,1041.4 -972,1041 -972,1040 -968.1,1040 
			-965.3,1038.9 -965.3,1038.1 -964.6,1038.1 -964.6,1037.3 -962.1,1036.2 -960.6,1036.2 -960.6,1034.8 -960.6,1034 -962.8,1034 		
			"/>
		<polygon class="st0" points="-1113.6,1001.8 -1105.8,1001.8 -1104.7,1002.2 -1101.8,1002.2 -1099.3,1001.2 -1099.3,999.9 
			-1097.3,999.9 -1097.3,998.5 -1096.2,998.1 -1094.9,997.6 -1096.6,996.9 -1096.6,995 -1092.9,993.5 -1095.2,992.6 -1097.6,992.6 
			-1098.6,992.1 -1100.5,992.1 -1105.2,994 -1108.2,994 -1110.1,994.8 -1111.2,995.3 -1113.6,996.2 -1116.7,996.2 -1118.6,997 
			-1118.6,998.4 -1116.3,999.4 -1116.3,1000.9 		"/>
		<polygon class="st0" points="-1095.8,987.8 -1099.8,989.4 -1099.8,990.6 -1099.8,991.5 -1097.8,991.5 -1097.8,990.7 
			-1093.8,989.1 -1091.1,990.2 -1088.9,990.2 -1091.2,991.1 -1091.2,992.4 -1092.3,992.8 -1090.4,993.6 -1088.2,993.6 
			-1088.2,992.3 -1085.3,991.1 -1083.2,991.1 -1083.2,992.3 -1081.7,992.9 -1078,992.9 -1075.3,991.8 -1077.4,990.9 -1077.4,990.3 
			-1079.5,989.5 -1080.7,989 -1080.7,987 -1082.4,986.3 -1085.2,986.3 -1085.2,985.5 -1088.7,984.1 -1088.7,982.9 -1090.9,982 
			-1094.3,982 -1097.3,983.3 -1095,984.2 -1096.6,984.2 -1096.6,985.1 -1094,986.1 -1094,987 		"/>
		<polygon class="st0" points="-1079.3,1002.4 -1077,1002.4 -1076,1002 -1071,1002 -1068.8,1002.8 -1066.3,1001.8 -1066.3,1000.8 
			-1064.7,1001.5 -1064.7,1002.2 -1059.9,1002.2 -1059.9,1003.3 -1062.1,1003.3 -1062.1,1004.4 -1063,1004.4 -1063,1005.2 
			-1061,1006 -1059,1005.2 -1059,1004.2 -1057.1,1003.5 -1055.7,1003.5 -1052.6,1003.5 -1052.6,1004.7 -1053.6,1005.1 
			-1053.6,1006.6 -1052.2,1007.2 -1050.6,1006.6 -1047.5,1006.6 -1045.9,1006.6 -1043.5,1006.6 -1040.4,1005.3 -1037.5,1005.3 
			-1035.2,1006.2 -1032,1007.5 -1029.7,1007.5 -1028,1008.2 -1023.5,1008.2 -1022.5,1007.8 -1024.7,1006.9 -1026.1,1006.4 
			-1030.5,1004.6 -1028.6,1003.8 -1027,1004.4 -1022.3,1004.4 -1019.4,1003.3 -1019.4,1002.2 -1017.9,1002.2 -1017.9,1001.3 
			-1018.7,1001 -1021.4,1001 -1022.7,1001.5 -1024.2,1002.1 -1028.3,1002.1 -1029.6,1002.7 -1032.4,1002.7 -1035.4,1001.5 
			-1038.6,1001.5 -1041.6,1000.3 -1043.3,1000.3 -1048.1,1000.3 -1050,999.5 -1051.4,998.9 -1053.2,999.7 -1059,999.7 
			-1061.7,998.6 -1064.8,998.6 -1068.3,998.6 -1070.2,999.3 -1072.8,999.3 -1072.8,998.7 -1071.3,998.1 -1073.1,997.4 
			-1073.1,996.1 -1073.1,995.4 -1076.3,995.4 -1076.3,996.1 -1077.9,996.7 -1077.9,1000.4 -1079.2,1000.4 -1081.1,999.6 
			-1082.4,999.6 -1082.4,998.6 -1079.4,997.4 -1079.4,996.7 -1083.3,996.7 -1084.6,997.2 -1088.1,997.2 -1088.8,996.9 
			-1092.4,996.9 -1094.8,997.8 -1094.8,999.7 -1096.3,1000.3 -1096.3,1001.6 -1095.5,1001.9 -1095.5,1003.9 -1091.5,1003.9 
			-1091.5,1002.9 -1089.7,1002.9 -1089.7,1003.8 -1086.3,1003.8 -1084.8,1003.2 -1084.8,1002.2 -1086.6,1001.5 -1086.6,1000.4 
			-1084.6,1000.4 -1082.4,1000.4 -1080.6,1001.1 -1080.6,1001.9 		"/>
		<polygon class="st0" points="-1101,987.4 -1103.7,986.4 -1105.3,987 -1105.3,988 -1106.7,988.6 -1106.7,989.1 -1105.2,989.1 		"/>
		<polygon class="st0" points="-1153.6,989.3 -1153.6,988.3 -1155.2,988.3 -1155.2,986.2 -1157,985.7 -1159.4,986.7 -1159.4,988.4 
			-1158.4,988.9 -1156.8,989.5 -1156.8,990.6 -1154.1,990.6 -1152.3,989.8 		"/>
		<polygon class="st0" points="-1069.5,1005 -1069.5,1006.3 -1068.4,1006.7 -1064.9,1005.3 -1067.5,1004.1 		"/>
		<polygon class="st0" points="-990.4,1009.2 -989,1008.6 -991.4,1007.6 -994.4,1006.4 -994.4,1005.6 -996.6,1005.6 -998.2,1006.2 
			-1000.7,1005.2 -1001.9,1004.7 -1006.4,1004.7 -1006.4,1004.1 -1008.4,1003.4 -1010.2,1004.1 -1014.4,1002.2 -1015.2,1003.4 
			-1015.2,1005 -1011.2,1005 -1011.2,1006.4 -1007.2,1006.4 -1004.1,1007.6 -1000.1,1007.6 -998.1,1008.4 -995,1008.4 -993,1009.2 
					"/>
		<polygon class="st0" points="-974.5,1008.6 -975.6,1008.2 -978.3,1008.2 -982.1,1006.6 -984.6,1007.2 -982.4,1008.1 -984,1008.7 
			-987.4,1008.7 -987.4,1009.1 -985.8,1009.8 -979.9,1009.8 -977.9,1008.9 -976.1,1008.9 -973.6,1010 -972.4,1009.5 		"/>
		<polygon class="st0" points="-961,1010.7 -961,1009.5 -962.5,1008.9 -965.9,1008.9 -968.4,1008.4 -970.2,1009.1 -968.4,1009.8 
			-968.4,1010.9 -966.8,1010.9 -966.8,1010.2 -963.2,1010.2 -963.2,1010.7 		"/>
		<polygon class="st0" points="-944.6,1009.2 -943.1,1008.6 -943.1,1008 -946.6,1008 -948.1,1008.6 -948.1,1007.4 -949.9,1007.4 
			-951.2,1007.4 -953.5,1007.4 -956.4,1007.4 -956.4,1006.4 -955.3,1005.9 -955.3,1005.3 -958.3,1005.3 -962.4,1004.1 
			-965.7,1005.5 -962,1007 -959.9,1006.1 -958.4,1006.8 -960.4,1007.6 -959,1008.1 -956.3,1008.1 -954.6,1008.1 -952.3,1009.1 
			-950.5,1009.8 -950.5,1010.6 -948.9,1011.3 -947.1,1010.5 -944.6,1010.5 		"/>
		<polygon class="st0" points="-938.1,1006.3 -940.4,1005.1 -942.3,1005.8 -942.3,1006.7 -939.2,1006.7 		"/>
		<polygon class="st0" points="-924.4,1008.3 -922.9,1007.7 -922.9,1007.2 -924.8,1006.4 -927.9,1006.8 -929.5,1007.5 
			-927.4,1008.3 		"/>
		<polygon class="st0" points="-920.6,1013.5 -919,1012.8 -921.4,1012.8 -924.4,1012.8 -925.7,1012.3 -928.6,1012.3 -930.2,1011.7 
			-931.7,1011 -933,1011.3 -934.6,1012 -931.5,1013.3 -928.3,1013.3 -928.3,1013.8 -924.4,1013.8 -923.5,1013.5 		"/>
		<polygon class="st0" points="-917.7,1016.1 -919.9,1016.2 -921.3,1016.7 -923.5,1016.7 -923.5,1017.3 -922.4,1017.7 
			-920.7,1018.4 -920.7,1019 -921.9,1019.4 -923.4,1020.1 -922.2,1020.6 -918.1,1018.9 -918.1,1017.8 -915.8,1016.9 		"/>
		<polygon class="st0" points="-941.1,1015.6 -939.5,1016.3 -942.4,1017.4 -942.4,1018.4 -943.3,1018.8 -941.4,1019.6 
			-939.6,1018.9 -937.1,1017.8 -937.1,1017.3 -937.1,1015.2 -939.4,1014.9 		"/>
		<polygon class="st0" points="-940.4,1012.5 -939,1013.1 -937.4,1012.5 -938.8,1011.9 		"/>
		<polygon class="st0" points="-950.3,1017.9 -951.3,1018.3 -952.7,1018.9 -951.7,1019.3 -949.2,1019.3 -947.8,1018.7 
			-949.2,1017.4 		"/>
		<polygon class="st0" points="-946.4,1020.5 -944.4,1021.3 -942.5,1020.6 -944.6,1019.8 		"/>
		<polygon class="st0" points="-955.4,1022.6 -953.8,1023.3 -950.9,1022.1 -953.4,1021.8 		"/>
		<polygon class="st0" points="-961.2,1014.2 -961.2,1015.1 -965.2,1015.1 -965.2,1015.9 -963.1,1016.7 -960.1,1015.5 
			-958.6,1014.9 -957.4,1014.9 -957.4,1014.3 -955.7,1014.3 -955.7,1013.3 -958.6,1013.2 		"/>
		<polygon class="st0" points="-975,1018.4 -973.9,1017.9 -973.9,1016.3 -972.4,1015.7 -972.4,1014.5 -974.7,1013.6 -974.7,1012.7 
			-977.2,1012.2 -978.4,1012.7 -981.5,1012.7 -981.5,1013.8 -979.4,1014.7 -979.4,1015.7 -980.6,1015.7 -977.6,1017 -977.6,1018.4 
					"/>
		<polygon class="st0" points="-989.4,1019.9 -986.4,1019.9 -986.4,1020.9 -984.1,1020.9 -982.2,1020.1 -980.3,1020.9 
			-978.1,1020.9 -978.1,1019.9 -980.4,1018.9 -982.1,1018.2 -984.3,1018.2 -987,1018.2 -991.2,1016.6 -993.4,1017.5 -991.3,1018.4 
			-989.4,1019.1 		"/>
		<polygon class="st0" points="-1001.2,1015.6 -1003.4,1015.5 -1006.4,1016.7 -1006.4,1019.2 -1004.3,1020.1 -1001,1020.1 
			-998.9,1019.2 -998.9,1017.6 -1001.2,1017.6 		"/>
		<polygon class="st0" points="-952.6,1017.7 -952.6,1016.3 -951,1016.3 -951,1014.6 -952.8,1014.2 -954.3,1014.8 -954.3,1015.7 
			-955.5,1016.3 -955.5,1017.1 -954.2,1017.7 		"/>
		<polygon class="st0" points="-1049.2,960.1 -1050.7,960.7 -1050.7,961.5 -1054.7,961.5 -1056.7,962.3 -1057.3,962.5 
			-1057.4,963.3 -1063.2,963.3 -1065.2,964.1 -1068.4,965.4 -1071.2,966.6 -1072.4,967.1 -1072.4,968 -1070.9,968.7 -1070.9,969.7 
			-1067.3,969.7 -1067.3,968.3 -1064.9,967.3 -1061.3,967.3 -1059.6,966.7 -1056.4,966.7 -1054.5,965.9 -1050.4,965.9 
			-1050.4,964.3 -1048.3,965.1 -1046.4,964.4 -1046.4,962.2 -1044.4,961.4 -1041.6,960.2 -1041.6,958.8 -1043.8,958.8 
			-1043.8,957.4 -1044.4,957.1 -1041.4,957.1 -1041.4,957.8 -1037.2,956 -1033.4,956 -1033.4,954.7 -1031.4,953.9 -1028,952.5 
			-1025.2,952.5 -1022.3,951.4 -1022.3,950.9 -1027.3,950.9 -1028.8,951.5 -1031.5,951.5 -1031.5,953.3 -1034.1,953.3 
			-1035.7,953.9 -1038.7,953.9 -1040.7,953.1 -1040.7,952.2 -1045.3,952.2 -1045.3,954 -1046.6,954.6 -1048.2,955.2 -1048.2,956 
			-1050.6,956 -1050.6,956.7 -1049.2,956.7 -1049.2,959.3 		"/>
		<path class="st0" d="M-1015.3,946.3l2.1,0.8l6.5-2.6l1.5-0.6v-1.4h3.6V940h4.1v-2.4l2.1-0.9v-2.3l-1.1-0.4v-1.3l1.7-0.7l1.3-0.5
			l2.1-0.8l1.6,0.6l3.3-1.3h4.4v1h3.4v-1.3h1.3l3.8-1.5h1.8l4.7-1.9h2.4l1.9,0.8h2.9l2-0.8v-0.9l-1.4-0.6v-1.4l-1.2-0.5v-0.8l3-1.2
			v-10.1l-1.2-0.5l-1.8-0.7h-1.4l-2-0.8h-2.3l-1.6-0.6h-13.2v2.1l1.9,0.8l-1.7,0.7l-1.6-0.6h-2.2v-2.5h-1.6l-1.1,0.4h-3.1l-1.7-0.7
			h-3.4v0.8h-3v0.5l-1.3-0.5h-3.1V906l-1.5-0.6h-1.3l-1.3-0.5h-9v1.4l-1.1-0.4l-3.8-1.5h-2.1v-1.1l-2.2-0.9h-3.3l-2.1-0.8h-5.8
			l-2-0.8h-3.1l-2.5-1h-2.1l-2.1,0.8v2.3h-3.2v1.2l-2.8,1.2c0,0-1.8-1.2-2.9-1.2c-1.1,0-5.1,0-5.1,0l-1.5-0.6l-2.2,0.9v2.3h-1.8
			l-2.2-0.9v-1.2h-1.8v-0.6l1.1-0.4v-4.1h-1.9v-0.7l-1.7-0.7h-5.6l-2.7-1.1h-2.9l-2.2,0.9v1.4h-5.7l-1.3-0.5l-2.8-1.1h-9.2l-2.4-1
			h-4.8l0.9-0.4l7.4-3v-3.6l-7.5-3h-6l-2-0.8h-2.2v-2.1l-2.5-1h-5.5l-0.7,0.1v1.5v1.2l-3.1,1.2v1.8h-2.2v2.4h-2.4V890h-3.3v1.2h-5.6
			v-0.9h-3l-2.3,0.9h-3.7l-2.3,0.9h-3.2l-5.7,2.3v1.5l2.7,1.1l-2.7,1.1h-5.1l-1.5,0.6h-5.4v2.6l7,2.8v5h-2.1l-2.7-1.1v-2.4l2-0.8
			l-1.7-0.7h-3.1l-4.7-1.9v4.1h-2.5l-2.2-0.9h-3.1v-2.3l-1.8,0.7v1c0,0,0,1.1,0,1.3c0,0.2,0,1.3,0,1.3l1.6,0.7v2.8h5.4l2.8,1.1v1.5
			h-1.5v0.7h2.7v1.3h-4.5l-1.8-0.7v-2.9h-3.4v1l1.1,0.5v1.2l-1.4,0.5l-1.7,0.7l-3.2,1.3v1.2h-2.8l-1.4-0.6l-1.8-0.7v-0.8h3.9
			l0.8-0.3V915l2.2-0.9v-1.7v-1.8V908v-1.8l-2.5-1v-1l3.7-1.5v-1.4l-1.5-0.6h-1.8l-2.4-1h-4v1l-3,1.2v1.4l-4.5,1.8v0.9l2,0.8v2.9
			l4.6,1.9l-1.8,0.7l-2.1-0.8l-3.5-1.4l-1.9-0.8h-4v-0.8h-5.4l-2.1,0.9v0.7l1.5,0.6l-1.9,0.8h-3.1l-2,0.8h-4.6v-0.8l-1.1-0.4
			l-1.2,0.5h-2.9v0.8h-2.9v1.2h-4.9v0.8h-1.9l-1.7,0.7v1.2h-3v-1l2.1-0.9v-1.7l-1.2-0.5h-2.7v-0.7h-6.2v0.6l2.5,1v1.3l-0.9,0.4v0.8
			l1.1,0.4v1.1h-1.5v0.7h-1.6h-1.8l-4.4,1.8h1.9v1.1l1.5,0.6v0.8h-3.1l-3.8-1.5h-1.4l-0.8,0.3l3.6,1.5v1.1h-4.9V923l-3.5-1.4v-0.9
			h-0.9v-1.2v-1l-5.3-2.1v-0.8h2.8l4.8,1.9l0.2,0.1h0.7l2.4,1h2.7v0.5h2.9l2.1-0.8l2.7-1.1v-1v-1.8l-2.9-1.2h-2.3l-6.5-2.6l-1.1-0.5
			h-4.4l-1.7-0.7l-1.4-0.6l-1.3-0.5v-1.2l-2.6-1h-3.4l-1.5-0.6h-2.9l-0.8,0.3h-5.7l-1.5,0.6v1.2h-1.5l-1.3-0.5h-2.7l-2.5,1v0.8h-2.7
			l-1.7,0.7l-3.7,1.5v0.9l-3.9,1.6v1.2l-4,1.6v0.8l-1.8,0.7l-1.4,0.6v0.9v1.2l-2.8,1.1l-5.9,2.4h-3.1v1.8h-2.9l-1.6,0.7v3l0.9,0.4
			v0.9v2.3l0.7,0.3l2.4,1h5.8v0.9l-1.5,0.6v1.5v1h2.5l2.9-1.2v-1h1.3v1h1.8l2.1-0.8h1v1.5h2l1.7-0.7l1.4-0.6v-3.4l2.4-1l1.3-0.5
			l-2.3-0.9v-0.8h3.4V926l8.6-3.5v-2.2l2.9-1.2h4v1.8l-10.6,4.3v1.7l2.3,0.9v1.9l2.1,0.8h2.3v1.3l-2.1,0.8v1.7l-2.5,1l-1.1,0.4v2.3
			l-2.1,0.8l-1.2-0.5h-4.5l-4.1,1.7l-1.5-0.6v-1h-3.3v1.6h-3.1l-2.5-1h-2.6v0.9h-2.4v0.4h-2.9v0.8h-2.8l-2.7,1.1l-1.3,0.5v0.8
			l-1,0.4h-1.1v-0.4h-1.6l-1.5,0.6l-2,0.8l-1.5,0.6h-2.4l-2.2,0.9v0.4l-2,0.8h-5.3v1.1l2.9,1.2h2.9l2.9,1.2v2.1l-1.9,0.8h-4.1
			l-1-0.4h-2.5h-5.2l-2.3,0.9v1.3l-2,0.8v2v1.4l2.1,0.8v2.3h5.3v0.1l5.9-0.9h4.9l2-0.8v-1.5h3.8l1.2,0.5h1.7v-0.5h2.7l1.8-0.7h2v-1
			h-4.9l-2.2,0.9h-1.8v-0.6l2.1-0.8h2.3v-0.6h2.4v-2.3h2.5l1.7,0.7h1.9l2.1-0.9h2.2v0.5l-0.9,0.4v1.2l-1.5,0.6v1.2l1.1,0.4v0.7
			l1.4,0.6h3.9v-2.3l-1.4-0.5l1.6-0.7v-0.7l4.5,1.8h2.5v0.8h2.5l2.6,1.1v0.8h-7.2l-1.3,0.5v1.1l1.4,0.5h3.2v0.3h2.4l2.5-1v-0.9h2.5
			v-0.7h1.1l2.4-1h1.5v0.7l1.5,0.6v1.2l2.1,0.8l1.2,0.5h2.4v1.2l2,0.8h1.5v0.6h3.3l1.7-0.7v-0.8V964h-4.5v-0.7h-2v-0.8h2.5h2v-0.8h2
			v1.3l2.4,1h5.5l1.3-0.5h3.3v0.7l-1,0.4v0.9l1.8,0.7h2.3v-0.8h2.9v1l-1.5,0.6v1h-3.3l-1-0.4h-3.9l-1.6,0.6h-5.7l-1-0.4h-4.3
			l-1.2-0.5h-2.2l-1.5-0.6h-3.6l-2.1,0.8h-1.6v1.1v0.7h-1.6l-1-0.4l-1.9-0.8h-3.3v-0.9l-1.5-0.6h-8.2l-1.9-0.8l2.4-1v-0.9l-1.4-0.6
			l1.3-0.5v-0.6l-1.9-0.8h-4.3l-0.8,0.3h-13l-2,0.8h-4l-2,0.8h-2.2h-5.8l-5.8,0.9v0.2l-6.4,2.6l-2.7,1.1v1.9l-2.5,1h-2.9l-2.1,0.9
			v1.3l-2.8,1.1v1.7l-3.8,1.6v1v1.1v2.4l-1.9,0.8v1.7l1.7,0.7v1.8l7.9,3.2v0.6l1.9,0.8l3.7,1.5l5.2,2.1h5.4l2.8-1.1h4.9v0.7h2.9h4.4
			l3.5-1.4h7.5v0.9l2.4,1l1.5-0.6h3l1.8,0.7v2.6l-2.1,0.9v1.5l4.1,1.7l5.1,2.1v1.7l1.5,0.6v1.2v2l-2.5,1l-3.3,1.3v1v1.6l3.2,1.3v1
			v1.5l3.5,1.4v3.9l6.1,2.5v1.5l3.5,1.4v3.1l1.8,0.7h14.4l5.6-2.3l13.3-5.4v-0.7l1.8-0.7v-1.5h1.5l1.7-0.7l2.5-1v-1.3l-2.3-0.9v-1.6
			l3.6-1.5l1.7-0.7h2.5l1.3-0.5h2.1l2.7-1.1v-5.5l-3.2-1.3v-3.2l1.3-0.5v-1.2l1.6-0.7l4.8-1.9h2.5l9.2-3.7l1.5-0.6v-2l2.2-0.9v-1.1
			l2.6-1V988l-1.4-0.6v-0.7h-2.5v0.7h-4.4v0.7h-5.6h-3.2l-0.1,0h-2.8l-0.7-0.3l-2.2-0.9v-1.4l-2.6-1.1l-2-0.8v-1.2l-3-1.2v-1.8h-1.2
			v-1.2l-1.4-0.6V977l-1.4-0.5v-1.5l1.1-0.4l4.5,1.8l2.1,0.8v2l2,0.8v1.6l4.3,1.7v1.2l3,1.2v1l2.2,0.8l0,0h3.8v-0.5h3.1v-0.5h3
			l1.9-0.8l1.1-0.4h2.2l3.5-1.4h5.3v-0.7h1.7l4.4-1.8l2.4-1v-0.8l2.4-1v-1.1l-0.5-0.2h-3.8l-5.2-2.1h-3.1l-1.1,0.4h-4.9v-0.8
			l-3.5-1.4l-1.4-0.6v-0.8l-2.3-0.9l1.8-0.7l2.5,1v1.1l2.3,0.9h1.8l1.9,0.8h3l1.5-0.6h3.1v0.9h2.6l3.9,1.6h14.4l2.7,1.1h1.9v1.4
			l3.6,1.4h2.9l1.8,0.7v1.8l2.9,1.2v1l4.1,1.7v1.6l1.9,0.8v1.8l3,1.2l2.8-1.1h1.5v2.1l3.5,1.4l4-1.6v-1.8l-4.4-1.8v-1.2l1.6-0.7
			v-2.8h1.7l7.5-3h2v-0.5h1.3l2.8-1.1V979h6.6v-0.8l2.2,0.9v1l4.2,1.7v1.5h-1.2v0.7l1.7,0.7h3.1l1.7-0.7h1.6v2l3.3,1.3v1.2l-1.9,0.8
			v1.7l4.9,2v2.1l-6.1-2.5h-4.2l-2.4-1l-1.7,0.7l3,1.2v1.1l8.3,3.3v1.5l8.2,3.3h2l7.7,3.1h6.9l1.8,0.7h4.8h1.9h5.3l1.7,0.7h4.6v0.5
			h1.8l1.8,0.7h2.7v-1.9h4.2v0.6l-2.3,0.9l1.5,0.6l1.2-0.5h4.4l1.5-0.6v-0.7h3.7v-1.7l-1.3-0.5h-3.5l-1.1,0.4h-23.5v-0.9h-4.1
			l-1.2-0.5h-8v-0.6h-3.4v-1.5h2.7v-1.1l-1.8-0.7l-1.5-0.6l-1.3-0.5h-1.2l-0.7,0.3l-1.3-0.5l-1.9-0.8l1.4-0.6v-1l-1.6-0.6v-2
			l-5.6-2.2l-1.5-0.6v-1.1h-2.1V989l1.8-0.7l1.5-0.6h2.3v1.1l2.1,0.8h2.5v1.8h3.1l2.8-1.1l0.4-0.2h2.4l3.5-1.4v-1.1v-1.9l-1.2-0.5
			v-0.9l-6.4-2.6v-0.7l4.3-1.7l1.1-0.5v1.1l-2.4,1l0.4,0.2v0.8l1.2,0.5h3.5l3.5-1.4v-1.7h2.9v-0.8h4.4v-0.8h2.7l4.5-1.8h2.7v2h1.8
			v0.6h4v-0.9l0.7-0.3v-2.5l-0.8-0.3h-2.7v0.4h-1.3v-0.4v-0.4l1.5-0.6h2V973l1.5-0.6l1.5-0.6v-1.6h-1.5v-2.3h-1.7v-1.1l-2.3-0.9
			l-1.2-0.5l2.6-1.1v-0.4h2.3l2.5-1v-0.8l-1.2-0.5h-2.7v-0.7h-3.5v0.7h-1.2l-1.1-0.5l2.4-1l3-1.2h1.5v1.2v0.4l0.8,0.3l0.8-0.3h1.3
			l3-1.2v0.6h-0.5v0.7l-0.9,0.4v0.8l1,0.4h2.2v0.3l-1.3,0.5v0.6h1.2v2.1l1.2,0.5h4.3l1.8-0.7h1.2l1.6-0.7l0.6-0.2v-2.3l-1.3-0.5
			h-1.1v-0.6l-1.3-0.5l-1-0.4v-0.6h1.9l4.1-1.7v-1h7.6l4.5-1.8v-0.5l1.4-0.6v-0.5l2.3-0.9l1.1-0.4l2.1-0.9v-0.6l1.5-0.6l2.1-0.8
			v-2.1h0.2v-7.3l-1.4-0.6h-4.5l-1.2,0.5l-2.1-0.8h-3.2l2.2-0.9h4v-1l5.7-2.3v-1l3.6-1.5h14.5v-0.4h4.4v0.9h6.7l0.8-0.3h2.9v-1.1h-1
			v-0.7l2.7-1.1l2.9-1.2v-1.1h3.2v1.9h1.7v1.1l6.1-2.4l0.8,0.3l-9.3,3.8h-1.9v1.9h-1.5l-6.2,2.5v3.3l1.5,0.6v1.9l2.1,0.8v1.9
			L-1015.3,946.3z M-1270.6,957.1h-8.2l-2.9-0.8h-6.3l-2.2,0.9h-3.9h-1.9l-2.1-0.8v-1.2l1.8-0.7l3-1.2v-1.1l1.4-0.6h1.4v1l2.2,0.9
			l1.6,0.6l1.8,0.7l1.1-0.4l1.6-0.6h2.9l1.6,0.6h2.1l1.5,0.6l2.5,1l1,0.4V957.1z M-1242.9,956.8l-2,0.8v1.8l3.3,1.3v1.8h-4l-2.1-0.8
			h-4.6v-1l2.7-1.1v-1.3h-2.4v-1.7l-2.4-1v-1v-1l-1.2-0.5l5.8-2.3l1-0.7h6.5l2.9,1.2l-2.4,1h-4.8v1.4v1.5L-1242.9,956.8z"/>
		<polygon class="st0" points="-1040.2,938.5 -1041.7,938.5 -1043.6,939.3 -1043.6,941 -1044.4,941 -1044.4,947.2 -1044.3,947.2 
			-1044.3,949.1 -1044.3,950.9 -1043.3,950.9 -1043.3,951.7 -1038.1,951.7 -1038.1,950.3 -1039.2,949.8 -1039.2,948 -1037.9,948 
			-1036.8,948.5 -1034.6,947.6 -1034.6,947 -1036.1,946.4 -1036.1,945.2 -1037.8,944.5 -1037.8,941.2 -1038.7,940.8 -1038.7,939.1 
					"/>
		<polygon class="st0" points="-1242.6,907.6 -1242.6,909.2 -1237.8,909.2 -1235.1,910.3 -1232.4,910.3 -1232.4,908.1 -1235,907.1 
			-1235,905.8 -1236.5,905.2 -1236.5,904.1 -1233.3,902.8 -1233.3,901.7 -1236.3,900.6 -1242.1,900.6 -1245.4,901.9 -1245.4,903.5 
			-1248,904.6 -1248,906.5 -1245.2,907.6 		"/>
		<polygon class="st0" points="-1251.3,912.8 -1248.3,911.6 -1248.3,910.7 -1252.3,909.4 -1255.8,910.8 -1255.8,912 -1253.9,912.8 
					"/>
		<polygon class="st0" points="-1256.7,1012.7 -1261,1012.7 -1261,1015.2 -1261,1016.6 -1263.6,1017.6 -1263.6,1018.7 
			-1263.6,1021.1 -1261.8,1021.8 -1257.9,1021.8 -1255.1,1020.7 -1255.1,1018.2 -1252.5,1017.2 -1252.5,1015.3 -1250.6,1014.5 
			-1250.6,1011.9 -1249.9,1011.6 -1249.9,1010.6 -1251.3,1010.5 		"/>
		<polygon class="st0" points="-1195.4,993.5 -1198.5,992.2 -1198.5,991.3 -1200.9,990.3 -1204.3,991.6 -1200.7,993.1 
			-1200.7,995.6 -1200.7,997.5 -1200.7,1000.2 -1198.7,1000.2 -1196.1,1000.2 -1196.1,998.2 -1193.3,997.1 -1193.3,995.6 
			-1195.4,994.8 		"/>
		<polygon class="st0" points="-1226,1002.3 -1227.6,1001.7 -1229,1001.7 -1229,1002.6 -1231.2,1002.1 -1232.5,1002.6 
			-1232.5,1004.2 -1229.7,1004.2 -1227.5,1004.2 -1226,1003.6 		"/>
		<polygon class="st0" points="-1236.3,1003.2 -1236.8,1002.5 -1239.3,1003.5 -1239.3,1004.4 -1242.3,1005.6 -1240.6,1006.3 
			-1237.7,1005.1 -1236.3,1004.6 		"/>
		<polygon class="st0" points="-1237.3,1017.3 -1237.3,1018.1 -1235.3,1018.1 -1234,1017.5 -1234,1016.6 -1235.5,1016.6 		"/>
		<polygon class="st0" points="-1226.4,1017.2 -1224.6,1017.9 -1221.8,1016.8 -1223.7,1016.1 		"/>
		<polygon class="st0" points="-1245.8,1018.4 -1244,1019.1 -1241,1019.1 -1241,1018 -1244.2,1017.7 		"/>
		<polygon class="st0" points="-1249,1007.7 -1249,1008.8 -1246.8,1008 -1246.8,1006.6 -1249,1006.2 		"/>
		<polygon class="st0" points="-1251.3,1007.3 -1254.6,1006.8 -1256.2,1007.4 -1253.9,1008.3 		"/>
		<polygon class="st0" points="-1265.5,1007.7 -1267.2,1008.4 -1267.2,1009.6 -1263.2,1009.6 -1263.2,1010.8 -1261.2,1011.6 
			-1259.1,1010.7 -1257.5,1011.3 -1255.3,1010.5 -1256.9,1009.8 -1258.3,1009.2 -1260.1,1009.9 -1261.9,1009.2 -1261.9,1008 		"/>
		<polygon class="st0" points="-1203.8,985.8 -1206,986.7 -1206,987.3 -1201.9,989 -1200.6,988.4 -1203.9,987.1 -1202.3,986.4 		"/>
		<polygon class="st0" points="-1411.5,915.8 -1415.5,915.8 -1415.5,914.9 -1417.3,914.2 -1420.3,914.2 -1421.7,913.6 
			-1425.6,913.6 -1426.1,914 -1429.3,915.3 -1426.4,916.5 -1426.4,917.5 -1425.2,918 -1422.7,918 -1422.7,919 -1419.6,919 
			-1417.6,918.2 -1415.3,919.1 -1413,920.1 -1409.9,918.8 -1409.9,917.5 -1411.5,916.9 		"/>
		<polygon class="st0" points="-1399.7,925 -1399.8,926 -1399.2,926.3 -1397.6,926.3 -1397.6,927 -1396.7,927 -1395.5,927 
			-1395.5,926.1 -1393.5,925.3 -1395.5,924.5 -1398.4,924.5 		"/>
		<polygon class="st0" points="-597.2,879.4 -592.9,877.7 -592.9,877.1 -596,877.1 -598.3,876.2 -600.4,876.2 -602.7,877.1 
			-602.7,878.2 -604.5,878.9 -609.8,878.9 -611.8,878.9 -619.3,881.9 -620.7,881.3 -612.9,878.1 -612.9,876.3 -618.5,876.3 
			-618.5,877.4 -619.8,877.9 -621.8,878.7 -627.8,878.7 -627.8,877.7 -624.7,876.5 -623.4,875.9 -630.4,875.9 -632.5,876.8 
			-635.8,876.8 -635.8,877.4 -639.6,877.4 -641,876.9 -637.9,875.6 -631.9,875.6 -630.3,875 -620,875 -615.9,875 -613.5,874 
			-613.5,872.5 -618.3,872.5 -621,872.5 -624,873.7 -624.9,873.4 -624.9,872.7 -621.7,871.4 -621.7,870.7 -625.8,870.7 
			-627.8,871.5 -632.6,871.5 -635.8,871.5 -637.7,872.3 -641.3,872.3 -642.3,872.7 -645.9,872.7 -645.9,871.7 -640.1,871.7 
			-640.1,870.5 -633.6,870.5 -629.2,870.5 -626.1,870.5 -626.1,869.8 -629.9,869.8 -632.1,868.9 -637,868.9 -641.8,868.9 
			-641.8,869.8 -644,868.9 -648.6,868.9 -652,870.3 -648.6,870.3 -648.6,871.1 -653,871.1 -653,873 -656,871.8 -660,871.8 
			-660,870.7 -665.3,870.7 -665.3,871.8 -660.7,871.8 -657.9,872.9 -655.2,874.1 -657.6,874.1 -660.2,874.1 -662.1,873.3 
			-664.1,873.3 -664.1,874.4 -664.1,876.2 -666.3,877.1 -674.7,873.7 -677.7,875 -675.4,875.9 -678.1,877 -682.5,877 -682.5,877.8 
			-686.4,877.8 -686.4,875.4 -688.8,875.4 -694.4,875.4 -696.1,876.1 -694.3,876.9 -692.8,877.4 -692.8,878.9 -693.8,878.5 
			-697,877.2 -699.3,877.2 -701.5,877.2 -701.5,878.2 -701.5,879.4 -701.5,879.8 -704.6,879.8 -706.4,879.1 -714.4,882.3 
			-712.6,883.1 -709,881.6 -706.7,882.5 -706.7,883.4 -708.5,884.1 -708.5,885 -710.7,885.9 -710.7,886.7 -710.7,886.9 
			-716.7,886.8 -721.5,888.8 -725.1,888.8 -725.1,889.9 -722.2,889.9 -718.4,891.5 -714.7,890 -710.5,890 -710.5,891.4 
			-713.8,892.7 -718.5,892.7 -718.5,894.6 -714.5,894.6 -710.5,893 -703.3,893 -697.8,895.2 -694.5,895.2 -694.5,897.4 
			-691.3,897.4 -686.4,899.4 -686.4,901.4 -686.4,904.3 -684.2,904.3 -684.2,903.5 -679.4,903.5 -676.7,904.6 -676.7,906.4 
			-674.9,907.1 -674.9,909 -676.9,909.8 -676.9,910.7 -681.3,910.7 -681.3,912.3 -681.3,913.9 -678.9,914.9 -676.2,914.9 
			-676.2,916.2 -677.7,916.2 -677.7,917.4 -675.8,918.2 -671.9,919.8 -667.5,919.8 -664.6,919.8 -664.6,920.8 -661.2,920.8 
			-658.2,919.5 -658.2,918.4 -659.3,917.9 -659.3,916.9 -657.6,916.9 -657.6,914.3 -651.6,911.9 -647.4,911.9 -647.4,912.9 
			-643.8,912.9 -638.3,910.7 -638.3,909 -633.8,909 -633.8,909.8 -629,909.8 -626.5,908.8 -621.9,908.8 -620,908 -617.9,907.2 
			-623.9,907.2 -629.2,907.2 -629.2,906.3 -627.3,905.5 -627.3,904 -625.2,903.2 -623.3,904 -620.5,905.1 -617.1,905.1 
			-617.1,906.5 -614.7,906.5 -614.7,903.7 -619.8,903.7 -623.2,902.4 -625.8,902.4 -625.8,901.1 -619.3,901.1 -619.3,899.6 
			-616.9,899.6 -614.1,900.7 -611,900.7 -611,899.7 -613.1,898.9 -613.1,897.9 -610.3,897.9 -610.3,896.9 -613.5,895.6 
			-612.9,895.4 -610.4,896.3 -608,895.4 -613.2,893.3 -610.5,892.2 -606.9,892.2 -608.6,891.5 -610.7,890.7 -614.2,890.7 
			-614.2,889.4 -611.8,889.4 -611.8,887.3 -607.9,887.3 -607.9,885.4 -610.4,884.4 -610.4,883.2 -608.7,882.5 -611.6,881.3 
			-610.8,880.9 -605,880.9 -602.7,880 -598.7,880 		"/>
		<polygon class="st0" points="-729,901.5 -732.9,901.5 -732.9,902.5 -735.6,902.5 -738.3,903.5 -740.4,903.5 -740.4,901.9 
			-738.8,901.3 -740.2,900.7 -740.2,899 -744.7,899 -744.7,899.6 -749.3,899.6 -749.3,901.7 -747.5,902.4 -747.5,903.6 
			-750.4,903.6 -750.4,901.5 -750.7,899.1 -750.9,898.1 -755,898.1 -760.7,900.5 -760.7,903.1 -757.6,904.4 -757.6,905.7 
			-754.5,905.7 -751.6,905.7 -751.6,904.9 -748.7,904.9 -748.7,906.6 -755.3,906.6 -755.3,907.8 -752.7,908.9 -749.5,908.9 
			-743.4,908.9 -741.1,908 -739.3,908 -737,908.9 -735.1,908.1 -731,909.8 -727.2,911.4 -729.2,912.2 -731.6,913.2 -731.6,915.2 
			-725.9,915.2 -725.9,913.8 -723.6,912.9 -721.8,913.6 -721.8,915.3 -724.5,916.4 -724.5,918.6 -726.9,919.6 -732.5,919.6 
			-732.5,921.2 -732.5,922.7 -726.7,922.7 -726.7,921.5 -723.4,922.9 -719.5,924.4 -715.3,924.4 -714.5,924.7 -707.7,927.5 
			-705.5,926.6 -712.7,923.6 -710.9,923.6 -706.2,925.5 -701.8,923.8 -701.8,922.2 -705.5,922.2 -705.5,921.1 -708.4,921.1 
			-710.2,920.3 -711.4,919.8 -711.4,917.7 -708.8,916.7 -706.6,917.6 -706.6,918.6 -702.5,920.2 -699.3,918.9 -696.8,917.9 
			-699,917.1 -704.5,914.8 -706.2,914.2 -707.8,914.2 -709,913.7 -711.5,912.7 -711.5,910.2 -714.4,909 -722.8,905.6 -724.5,905.6 
			-724.5,903.3 		"/>
		<polygon class="st0" points="-834,905.6 -831.3,904.5 -828.2,903.2 -828.2,902.2 -825.4,901 -823.1,900.1 -817.6,898.1 
			-821.7,896.8 -823.9,897.7 -827.5,897.7 -827.5,896.2 -831.9,896.2 -836.2,896.2 -836.2,897.2 -836.2,898.2 -836.2,899.4 
			-837.4,900.4 -840.7,901.7 -840.7,902.8 -837.4,904.2 		"/>
		<polygon class="st0" points="-790.9,911 -788.4,912 -785.9,912 -785.9,909.4 -787.3,908.8 -789.6,907.9 -793.8,906.2 
			-793.8,904.4 -792.5,903.9 -792.5,900.4 -796.1,898.9 -797.2,898.4 -799.5,899.4 -799.5,901.3 -799.5,903.4 -802.4,903.4 
			-802.4,902 -804.5,901.1 -806.8,902 -809.6,902 -809.6,900.7 -812.5,900.7 -814.2,901.4 -816,900.7 -813,899.5 -815,898.6 
			-817.1,899.2 -824.7,902.3 -824.7,903.2 -822.7,904 -820.1,905.1 -817.6,905.1 -817.6,905.5 -818.8,906 -822.7,906 -822.7,907 
			-819.9,908.1 -813.4,908.1 -813.4,906.9 -811.6,907.6 -810.1,908.2 -810.1,908.7 -820.1,908.7 -820.1,909.8 -817.9,910.7 
			-812.6,910.7 -812.6,911.6 -802.9,911.6 -801.6,911 -798.9,911 -798.9,909.7 -796.1,909.7 -796.1,911 		"/>
		<polygon class="st0" points="-767.8,883.5 -767.8,884.4 -767.8,885.4 -764,885.4 -764,886.3 -761.5,886.3 -758,884.9 -758,883.8 
			-754.9,883.8 -752.8,882.9 -756.3,881.5 -757.4,881.1 -759.9,880.1 -762.8,878.9 -767.1,876.3 -771.5,878 -768.6,879.2 
			-771.5,880.3 -771.5,881.2 -773,881.8 -773,882.8 -767.8,882.8 		"/>
		<path class="st0" d="M-756.4,875.4l-1.9,0.8l-2.3,0.9h3h6.2v1.2h-4.7l2.7,1.1h5.1v-1.6h4.4l0.7,0.3h1.8v-1.5l5.2-2.1l2.2,0.9
			l-4,1.6v1.4h5.7v0.2v0.7h-6.4h-3.8l-1.3,0.5h-2v0.8h2.9v0.9l1.6,0.7h2.2l-1.1,0.4h-3.1h-1.8l-4.4-1.8l-0.8-0.3h-1.5l-1-0.4h-2v0.9
			l2.4,1l3.8,1.5l1.8,0.7h3.8v0.8l-2.1,0.8l-2.4-1h-1.7h-3.8l-2,0.8l1.2,0.5h3.2v0.6v1.1h2.4l1.9-0.8h1v0.8l-2.8,1.1h-5.5v-0.8
			l-2-0.8l-2.3,0.9l2.1,0.8l-1.6,0.7l-1.4,0.6v0.5h3.9v0.5c0,0,4.5,0.2,4.5,0c0-0.2,0-1.2,0-1.2h5.6v1.1h3.8l2.4-1l-1.7-0.7h-3
			l-1.4-0.6l1.8-0.7h2h2.7l3-1.2h3.4V886v-1h1.6v-0.6h-4.2v-1.4l1.8-0.7h3.5h4.5v-1l2.2,0.9l3.5-1.4v-1.3h3.9l8-3.2l-2.8-1.1
			l-4.1,1.7h-2.7l-1.9-0.8h2.1v-1.4h3.5h5.5l1.6-0.7l5.8-2.3l-1.3-0.5h-1.5l-1.5-0.6l-1.8-0.7h-2.5v0.8h-5.5h-2.7l2.4-1h-2l-1.3-0.5
			h-6.4l-1.8,0.7v0.7l-1.2-0.5l-2.9-1.2h-4.5l5,2l-2.1,0.9l-2.4-1l-2.2-0.9h-4.2l-1.9,0.8l-2.2,0.9v0.4l0.9,0.3l1.5,0.6h-4.9h-1.8
			l-1.6,0.7v-1.2l-2.1-0.8v1v0.9l-0.8,0.3h-2.4l-1.7-0.7l-1.6,0.5l-2.5,1l2.1,0.8H-756.4z"/>
		<polygon class="st0" points="-827,890.9 -825.3,890.2 -824,890.2 -824,891.6 -824,892.7 -820,892.7 -820,893.4 -814.4,893.4 
			-812.7,894 -812.7,894.9 -808.2,894.9 -806.2,894.1 -801.4,894.1 -798.6,893 -798.6,894.6 -794.4,892.8 -797.3,891.7 
			-799.2,890.9 -801.3,891.8 -803,891.1 -803,890 -806.5,890 -806.5,891.5 -806.5,892.9 -811.4,892.9 -811.4,891.3 -813.8,891.3 
			-817.1,891.3 -821.3,891.3 -821.3,889.7 -818.4,889.7 -818.4,888.2 -822,888.2 -824.2,888.2 -824.4,888.8 -828.4,889.1 
			-831.2,890.3 -831.2,892.1 -829.8,892.1 		"/>
		<polygon class="st0" points="-809.6,887.6 -809.6,886.5 -808.3,885.9 -808.3,885 -811.4,885 -812.5,885 -812.2,885.6 
			-814.5,886.6 -814.5,888.2 -811.1,888.2 		"/>
		<polygon class="st0" points="-786.7,890.8 -789.9,892.1 -786.5,893.5 -786.5,894.6 -783.3,894.6 -783.3,892.5 -779.6,892.5 
			-777.5,891.7 -782.4,890.8 		"/>
		<polygon class="st0" points="-777.9,893.7 -773.4,895.5 -769.4,893.9 -766.6,895 -766.6,892.7 -770.2,892.7 -770.2,891 
			-772,890.1 -776.9,890.1 -772.9,891.7 -775.9,892.9 		"/>
		<polygon class="st0" points="-755.6,895.2 -757.3,895.9 -751.3,895.9 -751.3,894.4 -746.7,894.4 -746.7,895.1 -744.3,896.1 
			-740.4,894.6 -743,893.5 -745.2,892.6 -751.5,892.6 -754.7,893.9 -757.8,893.9 -760.5,892.8 -760.5,891.3 -763.6,891.3 
			-763.6,893 -763.6,895.2 -759.6,895.2 		"/>
		<polygon class="st0" points="-780.2,885.2 -780.2,887.1 -777.5,887.1 -774.4,888.4 -770.2,888.4 -768.4,887.7 -769.6,886.9 
			-771.3,886.2 -774.5,886.2 -776.1,885.6 -778.5,884.6 		"/>
		<polygon class="st0" points="-794.7,885.8 -792.5,886.7 -788.2,886.7 -784.3,888.3 -782.9,887.7 -784.4,887.1 -784.4,885.2 
			-786.9,885.2 -792.2,885.2 -792.2,883.6 -794.7,883.6 -797.7,883.6 -794.7,884.8 		"/>
		<polygon class="st0" points="-781.1,903.6 -781.1,905 -778.8,905.9 -775.4,904.5 -775.4,902.5 -778.2,901.3 -780.5,901.3 
			-780.5,899.8 -777.1,899.8 -777.1,897.9 -779.4,898.1 -782.4,898.1 -782.4,899.8 -782.4,901.1 -783.7,901.6 -786,901.6 
			-783.8,902.5 		"/>
		<polygon class="st0" points="-768,903.2 -764.8,901.9 -763.5,901.4 -763.5,899 -760.9,899 -760.9,897 -764.4,897 -766.3,897.7 
			-767.7,897.2 -770.2,897.2 -773.7,898.6 -773.7,900.3 -770.1,901.7 -770.1,902.3 		"/>
		<polygon class="st0" points="-772.7,912.4 -772.7,911 -778.2,909.5 -781.8,910.9 -778.2,912.4 		"/>
		<polygon class="st0" points="-733.5,900 -731.5,900.8 -729.1,899.8 -732.4,898.2 -739.3,898.2 -739.3,900.4 -736.8,901.3 		"/>
		<polygon class="st0" points="-777.1,881.7 -781,880.1 -783.5,880.6 -785.4,881.4 -780.8,883.2 		"/>
		<polygon class="st0" points="-793.5,889.9 -793.5,887.9 -796.3,886.8 -798.4,887.1 -798.4,887.9 -795.5,889.1 		"/>
		<polygon class="st0" points="-740.2,926.8 -740.2,927.6 -737.9,928.5 -735,927.4 -735,926.2 -738.1,925.9 		"/>
		<polygon class="st0" points="-731.1,980.8 -728.7,979.8 -724.4,979.8 -724.4,979.1 -728.7,979.1 -732.5,977.6 -732.5,976.8 
			-735.8,976.8 -740,976.8 -740,976 -743.1,976 -745.9,977.2 -743.1,978.3 -741.5,978.3 -736.9,978.3 -733.5,979.7 -736.1,980.8 		
			"/>
		<polygon class="st0" points="-694.8,986.8 -692,986.8 -690.5,986.2 -694.7,984.5 -694.7,983.2 -697.2,982.2 -699.3,982.2 
			-700.9,981.5 -702.6,980.8 -708.7,980.8 -711.8,980.8 -711.8,979.9 -716.9,979.9 -719.4,978.9 -718.4,978.5 -721.6,977.1 
			-725.3,977.1 -725.3,976 -727.4,975.2 -729.9,974.2 -729.9,973 -732.7,971.8 -734.9,972.7 -736.9,972.5 -736.9,974 -733.5,974 
			-731.3,974 -731.3,974.9 -733.1,975.6 -733.9,975.9 -732.5,976.5 -729.3,976.5 -729.3,977.4 -727.9,977.9 -724.4,977.9 
			-724.4,978.9 -722.8,979.5 -722.8,980.6 -726.7,980.6 -726.7,982.1 -723.6,982.1 -718.9,982.1 -716.2,982.1 -714.2,982.1 
			-712.5,981.4 -710.2,982.3 -702.9,982.3 -699.9,983.6 -695.7,985.2 -695.7,986.5 		"/>
		<polygon class="st0" points="-741.2,981.6 -738.1,980.3 -740.9,979.8 -743.3,980.7 		"/>
		<polygon class="st0" points="-748.5,976.9 -750.2,977.4 -750.2,978.5 -744.7,978.5 -747.1,977.6 -747.1,976.7 		"/>
		<polygon class="st0" points="-760,998.7 -760,997.3 -760.5,997.5 -765.8,998.5 -765.8,999.5 -763.7,1000.4 -760,1000.4 
			-757.2,999.2 -758.5,998.7 		"/>
		<polygon class="st0" points="-739.1,1022.6 -736.6,1023.6 -734.9,1022.9 -734.9,1021.7 -737.5,1021.9 		"/>
		<path class="st0" d="M-642.9,1002.3l-1.5-0.6l-2.8-1.1h-8.2l-1.7-0.7h-3.2l-5.3-2.2l-3.8-1.5l-2.5-1v-1.8h-3.5l-3-1.2h-7.8
			l-3.6-1.5h-2.9l-2.2-0.9l1.9-0.8v-1.5h-3.3l-2.5,1v-0.8h-6.1v0.7h-1.9h-2.8l-1.8-0.7v-1.2h-1.9l-1.2,0.5h-3.6v-0.9h-2.7l-2.4,1
			l-1.7,0.7l-2.2,0.9l-3.6,1.5h-3.9l2.2-0.9h-3.4h-2.4l-2.2,0.9l-2.5-1l-2.6-1.1v-2.4l2.2-0.9l-1.7-0.7l-3-1.2h-3.6l-1.8,0.7l-2-0.8
			l1.5-0.6l2-0.8v-2.1v-1l-1.5-0.6h-6.5l-2.6,1.1v1l-1.3,0.5v0.8h-0.2l-1.6,0.7h-3.2l-3.8-1.5l-2.7-1.1l-1.7-0.7v-3.5h1.1v-2.3
			l4.8-2l2.1-0.8h7.4l3,1.2v-1.5h6.2h5.1l3.6,1.5v2.1l3.4,1.4h2.2v-2.3l-3.9-1.6v-2.3l8.7-3.5l2.8-1.1v-1.1l2.1-0.9l3.3-1.3v-2.2
			l4.9-2h4.4v-1l3-1.2h2.3h3.4v0.6l2.5,1l2.3-0.9l2.5-1h5.1l2.7-1.1v-2.1h-2h-3.5h-3.1h-4.2v-1.3h-5.1l-2.4,1v1.7l-3.2,1.3h-10.2
			l-5.3,2.2l-1.5,0.6h-8l-2.7-1.1v-2h-4.4v-2.2h-2.7l-1.9,0.8l-2.5-1l1.5-0.6h-5.9v-0.7h3.6h3.8v1.3h4.2l1.5,0.6h2.8h3.5v1.2
			l1.9,0.8v0.6h-2.3v1.5h2.7h3.8l2.3-0.9l3.4-1.4v-0.4h10.5l1.8-0.7v-1l-1.2-0.5v-0.8l4.3-1.7h3.4l1.7,0.7h3.2l1.8-0.7l1.9,0.8
			l1.4-0.5h3.5l3.5-1.4l2.2-0.9l1.4,0.6v0.8l-1.7,0.7l-2.1,0.8l2,0.8h7.6l2.3-0.9v-0.8h-3.9V946l2.2-0.9V942l-4-1.6l-3.5,1.4h-4
			v-1.2h1.8l2.3-0.9l-2.3-0.9l-2.7-1.1l-3-1.2h-2.1v-2.1l-2.1-0.8l-2.9-1.2v0.6v0.9h-3.9l-1.1,0.4h-1.5v-1.4h-3.1h-2.5l1.7-0.7v-1.6
			v-1.4l-3.3-1.3h-4.2v-1.1h-4.4h-1.5l-2.2-0.9l-2.6,1.1l2.5,1v2.2v1.2l-2.9,1.2v0.5l1.8,0.7l2,0.8v1.5l1.7,0.7v1.1h-3.9l-3.6,1.5
			l3.5,1.4v1.8v1.7l-2.5,1h-3.5h-1.8V944l-2-0.8l-1.8-0.7v-3.2l-2.3-0.9h-2.1l-2.7,1.1V938h-3.1l-3.6-1.5h-2.7V936h-1.8h-2.2h-1.8
			v-1.7l-1.7-0.7l-1.9-0.8h-1.3v-3.6l3-1.2v-0.8l2.1-0.9v-1.1h3l2-0.8v-0.6h-3.8h-1.6l-1.8-0.7l1.2-0.5h1.5l1.3,0.5h3.4h2l1.6-0.7
			h2.9v1.8l1.3,0.5h2.7l1.3,0.5l4.9-2l1.2,0.5l-4.5,1.8v1l1.8,0.7l1.8-0.7h2v-1.3v-0.7l1.6-0.7l2.1-0.8l-6.1-2.5v-1h-2.2l-2.4-1h2.9
			l5.1-2.1v-2.1l-1.2-0.5l-2.5-0.8v-1l3.1-1.2l-3.6-1.5h-3.1v1.7l-2.9,1.2v1.8l-2.9,1.2l-2.7-1.1v-2.3l-2.8-1.1v1.9l-2.3,0.9v-2
			l-4.2-1.7v-1.2v-1.6v-1.2l-3-1.2h-3v1.4v2.3l3.8,1.5v2v1.2l-2.8,1.1v1.8h-3.5v-1.5h-13.8l-2.7-1.1h-3.8l-1.5,0.6v2.1h-5.7
			l-3.5-1.4h-11.1v-1.5l2.7-1.1v-1.2h-10.4l-4.9-2l-3.5,1.4h-9.1l-3.3-1.3l-4.4,1.8h-5.1l-2.7,1.1h-5.6h-7.6v-1.7h-5.8l-2-0.8h-5.6
			l-4.3-1.7h-5.9h-8l-3-1.2h-5l-4.7,1.9h-4.8l-5.4,2.2v1.5h-5.5v1l4,1.6l4,1.6h6.2v1.2l-1.3,0.5l-2.9,1.2h-4.9l-3.2-1.3l-3.2,1.3
			v1.7h7.8h3.6l1.8-0.7v3.4l-3.1,1.2l-5.3,2.1v1.8l2.4,1l-2.4,1l2.5,1l4.4-1.8v1.3l2.9,1.2h7.6v0.7l-4,1.6l1.6,0.7l-5.5,2.2l1.5,0.6
			l6.5-2.6l4.9-2v-1.9l4.4-1.8l4.9-2v-1.5h2.4v1.3l5.6,2.3h5.3h2.2h7.3l3.2,1.3h4.5h4l4.1,1.7v2.7h3.1v1.5h5.5v2.5v1.9l3.6,1.5v1.6
			h4.4l4.2,1.7l3.8,1.5v1.8l-1.6,0.7v9.3l3.9,1.6v1.7l4,1.6l3.1,1.2v1.3h3.6v2.4l4.1,1.7v2l2.4,1l3.2,1.3v1l1.6,0.6l2.1,0.8h2.2
			v-0.9l-2.8-1.1v-1l-4.5-1.8v-1.4l-4-1.6c0,0,0-1.3,0-1.7c0-0.4,1.9,0,1.9,0v1.7l3.5,1.4l3.5,1.4l2.1,0.8v1h3.8l7.4,3v2.8l3.5,1.4
			h2.5l4.1,1.7h3.2h3.1h5.1l2.4,1h0.5l1.2,1.6l2.2,0.9h3.6l1.8,0.7h5.5l1.6,0.6v1.7h1.9l2.5,1l2.6,1.1h3l3.2,1.3l2.4-1v-0.9l1.1-0.4
			l1.2,0.5v1.4v1.3l1.7,0.7v0.6h-2.4l-2.4,1v1.7l-4,1.6v2.5v1.6l1.9,0.8l5.1,2.1v2.4l1.9,0.8v1.3l4.5,1.8l3.8,1.5h3.9l3.4,1.4v4.3
			h-3.1v2.1v2.7v2.6v2.3v2.7l-3.4,1.4v1.7v3h-2.2v4.1h3.3v1.4l-2.2,0.9l-2,0.8v0.8l-1.8,0.7v4l3,1.2v3l2.5,1l1.9,0.8h3.9v1.6h1.2
			l1.9,0.8h4.4v-1h6.1h2.6v-0.8l-1.6-0.6l-2-0.8h-3.8l-2.8-1.1v-2.1l-1.5-0.6v-1.2h3.3v-0.9l5.3-2.1v-1.7l-1.8-0.7h-2.2v-0.9h4.4
			v-1.6l1.5-0.6l2.9-1.2v-1.5h-2.4v-0.5h3.4l1.7-0.7v-1.5l1.5-0.6h8.4l2.6-1.1v-1.8l-1.6-0.6v-0.8h6.1l2.2-0.9v-0.8l2.4-1l5.3-2.2
			v-2h5.5v-3l6.4-2.6h6.2v-1l5.4-2.2v-2.1l3.4-1.4v-2.9l8.9-3.6v-3.7l-2.6-1.1H-642.9z"/>
		<polygon class="st0" points="-926.7,974.6 -927.9,975.1 -929.6,975.1 -929.6,976.1 -929.6,976.8 -927.5,976 -925.2,976.9 
			-922.3,975.8 -922.3,974.9 -923.3,974.5 		"/>
		<polygon class="st0" points="-903.4,979.9 -905.3,979.1 -905.3,977.8 -909,977.8 -911.1,976.9 -914.8,976.9 -914.8,976.2 
			-919.4,975.9 -921.4,976.7 -921.4,977.6 -918.4,977.6 -916.4,978.5 -914,978.5 -911.9,979.3 -908.2,979.3 -908.2,980.6 
			-908.2,981.1 -908.2,983.1 -905.1,983.1 -902.9,982.2 -899.5,982.2 -898.7,981.9 -898.7,980.7 -900.7,979.9 		"/>
		<polygon class="st0" points="-694.2,1051.7 -697.9,1053.2 -697.9,1054.3 -694.7,1054.3 -692.8,1055 -689.5,1053.6 -685.5,1053.6 
			-685.5,1052.5 -687.5,1051.7 		"/>
	</g>
	<g>
		<g>
			<circle class="st1" cx="-1092.7" cy="949.6" r="11.6"/>
			<polygon class="st1" points="-1092.9,974.2 -1104.2,950 -1081.1,950 			"/>
		</g>
		<circle class="st2" cx="-1092.7" cy="949.6" r="6"/>
	</g>
	<g>
		<g>
			<circle class="st1" cx="-1047.4" cy="1005.4" r="11.6"/>
			<polygon class="st1" points="-1047.6,1030 -1059,1005.8 -1035.8,1005.8 			"/>
		</g>
		<circle class="st2" cx="-1047.4" cy="1005.4" r="6"/>
	</g>
	<g>
		<g>
			<circle class="st1" cx="-978.1" cy="1015.5" r="11.6"/>
			<polygon class="st1" points="-978.3,1040.1 -989.7,1016 -966.5,1016 			"/>
		</g>
		<circle class="st2" cx="-978.1" cy="1015.5" r="6"/>
	</g>
	<g>
		<g>
			<circle class="st1" cx="-919" cy="951.3" r="11.6"/>
			<polygon class="st1" points="-919.2,975.9 -930.6,951.7 -907.4,951.7 			"/>
		</g>
		<circle class="st2" cx="-919" cy="951.3" r="6"/>
	</g>
	<g>
		<g>
			<circle class="st1" cx="-1081.1" cy="997.4" r="11.6"/>
			<polygon class="st1" points="-1081.3,1022 -1092.7,997.9 -1069.5,997.9 			"/>
		</g>
		<circle class="st2" cx="-1081.1" cy="997.4" r="6"/>
	</g>
	<g>
		<g>
			<circle class="st1" cx="-808.3" cy="928.2" r="11.6"/>
			<polygon class="st1" points="-808.5,952.8 -819.9,928.7 -796.7,928.7 			"/>
		</g>
		<circle class="st2" cx="-808.3" cy="928.2" r="6"/>
	</g>
	<g>
		<g>
			<circle class="st1" cx="-774.3" cy="943.1" r="11.6"/>
			<polygon class="st1" points="-774.5,967.7 -785.9,943.5 -762.7,943.5 			"/>
		</g>
		<circle class="st2" cx="-774.3" cy="943.1" r="6"/>
	</g>
	<g>
		<g>
			<circle class="st1" cx="-725.1" cy="979.3" r="11.6"/>
			<polygon class="st1" points="-725.3,1003.9 -736.7,979.8 -713.5,979.8 			"/>
		</g>
		<circle class="st2" cx="-725.1" cy="979.3" r="6"/>
	</g>
	<g>
		<g>
			<circle class="st1" cx="-678.9" cy="985.4" r="11.6"/>
			<polygon class="st1" points="-679.2,1010 -690.5,985.8 -667.3,985.8 			"/>
		</g>
		<circle class="st2" cx="-678.9" cy="985.4" r="6"/>
	</g>
	<g>
		<g>
			<circle class="st1" cx="-702.1" cy="1012.6" r="11.6"/>
			<polygon class="st1" points="-702.4,1037.2 -713.7,1013 -690.5,1013 			"/>
		</g>
		<circle class="st2" cx="-702.1" cy="1012.6" r="6"/>
	</g>
	<g>
		<g>
			<circle class="st1" cx="-1121.5" cy="928.2" r="11.6"/>
			<polygon class="st1" points="-1121.7,952.8 -1133.1,928.7 -1109.9,928.7 			"/>
		</g>
		<circle class="st2" cx="-1121.5" cy="928.2" r="6"/>
	</g>
	<g>
		<g>
			<circle class="st1" cx="-1144.3" cy="943.7" r="11.6"/>
			<polygon class="st1" points="-1144.5,968.3 -1155.8,944.1 -1132.7,944.1 			"/>
		</g>
		<circle class="st2" cx="-1144.3" cy="943.7" r="6"/>
	</g>
	<g>
		<g>
			<circle class="st1" cx="-1185.8" cy="957.3" r="11.6"/>
			<polygon class="st1" points="-1186,981.9 -1197.4,957.7 -1174.2,957.7 			"/>
		</g>
		<circle class="st2" cx="-1185.8" cy="957.3" r="6"/>
	</g>
	<g>
		<g>
			<circle class="st1" cx="-1210.2" cy="949.7" r="11.6"/>
			<polygon class="st1" points="-1210.5,974.3 -1221.8,950.2 -1198.6,950.2 			"/>
		</g>
		<circle class="st2" cx="-1210.2" cy="949.7" r="6"/>
	</g>
	<g>
		<g>
			<circle class="st1" cx="-1255.3" cy="955.7" r="11.6"/>
			<polygon class="st1" points="-1255.6,980.3 -1266.9,956.2 -1243.7,956.2 			"/>
		</g>
		<circle class="st2" cx="-1255.3" cy="955.7" r="6"/>
	</g>
	<g>
		<g>
			<circle class="st1" cx="-1050" cy="940.2" r="11.6"/>
			<polygon class="st1" points="-1050.3,964.8 -1061.6,940.7 -1038.4,940.7 			"/>
		</g>
		<circle class="st2" cx="-1050" cy="940.2" r="6"/>
	</g>
	<g>
		<g>
			<circle class="st1" cx="-1040.5" cy="923.9" r="8"/>
			<polygon class="st1" points="-1040.6,940.8 -1048.4,924.2 -1032.5,924.2 			"/>
		</g>
		<circle class="st2" cx="-1040.5" cy="923.9" r="4.1"/>
	</g>
	<g>
		<g>
			<circle class="st1" cx="-1068.3" cy="901" r="8"/>
			<polygon class="st1" points="-1068.5,917.9 -1076.3,901.3 -1060.3,901.3 			"/>
		</g>
		<circle class="st2" cx="-1068.3" cy="901" r="4.1"/>
	</g>
	<g>
		<g>
			<circle class="st1" cx="-1006.4" cy="910" r="8"/>
			<polygon class="st1" points="-1006.6,927 -1014.4,910.3 -998.5,910.3 			"/>
		</g>
		<circle class="st2" cx="-1006.4" cy="910" r="4.1"/>
	</g>
	<g>
		<g>
			<circle class="st1" cx="-1095.8" cy="911" r="8"/>
			<polygon class="st1" points="-1096,927.9 -1103.8,911.3 -1087.9,911.3 			"/>
		</g>
		<circle class="st2" cx="-1095.8" cy="911" r="4.1"/>
	</g>
	<g>
		<g>
			<circle class="st1" cx="-975.4" cy="897.6" r="8"/>
			<polygon class="st1" points="-975.6,914.5 -983.4,897.9 -967.5,897.9 			"/>
		</g>
		<circle class="st2" cx="-975.4" cy="897.6" r="4.1"/>
	</g>
	<g>
		<g>
			<circle class="st1" cx="-910.1" cy="907.5" r="8"/>
			<polygon class="st1" points="-910.2,924.4 -918,907.8 -902.1,907.8 			"/>
		</g>
		<circle class="st2" cx="-910.1" cy="907.5" r="4.1"/>
	</g>
	<g>
		<g>
			<circle class="st1" cx="-879.5" cy="905" r="8"/>
			<polygon class="st1" points="-879.7,921.9 -887.5,905.3 -871.5,905.3 			"/>
		</g>
		<circle class="st2" cx="-879.5" cy="905" r="4.1"/>
	</g>
	<g>
		<g>
			<circle class="st1" cx="-829.1" cy="900" r="8"/>
			<polygon class="st1" points="-829.3,916.9 -837.1,900.3 -821.2,900.3 			"/>
		</g>
		<circle class="st2" cx="-829.1" cy="900" r="4.1"/>
	</g>
	<g>
		<g>
			<circle class="st1" cx="-789.7" cy="911.6" r="8"/>
			<polygon class="st1" points="-789.9,928.6 -797.7,911.9 -781.8,911.9 			"/>
		</g>
		<circle class="st2" cx="-789.7" cy="911.6" r="4.1"/>
	</g>
	<g>
		<g>
			<circle class="st1" cx="-723.1" cy="925.5" r="8"/>
			<polygon class="st1" points="-723.2,942.5 -731.1,925.8 -715.1,925.8 			"/>
		</g>
		<circle class="st2" cx="-723.1" cy="925.5" r="4.1"/>
	</g>
	<g>
		<g>
			<circle class="st1" cx="-848.7" cy="914.2" r="8"/>
			<polygon class="st1" points="-848.9,931.1 -856.7,914.5 -840.7,914.5 			"/>
		</g>
		<circle class="st2" cx="-848.7" cy="914.2" r="4.1"/>
	</g>
	<g>
		<g>
			<circle class="st1" cx="-1296.1" cy="910.4" r="8"/>
			<polygon class="st1" points="-1296.3,927.3 -1304.1,910.7 -1288.1,910.7 			"/>
		</g>
		<circle class="st2" cx="-1296.1" cy="910.4" r="4.1"/>
	</g>
	<g>
		<g>
			<circle class="st1" cx="-1306.1" cy="939.7" r="8"/>
			<polygon class="st1" points="-1306.3,956.6 -1314.1,940 -1298.2,940 			"/>
		</g>
		<circle class="st2" cx="-1306.1" cy="939.7" r="4.1"/>
	</g>
	<g>
		<g>
			<circle class="st1" cx="-1256.2" cy="915.6" r="8"/>
			<polygon class="st1" points="-1256.3,932.5 -1264.1,915.9 -1248.2,915.9 			"/>
		</g>
		<circle class="st2" cx="-1256.2" cy="915.6" r="4.1"/>
	</g>
	<g>
		<g>
			<circle class="st1" cx="-1232.4" cy="919.7" r="8"/>
			<polygon class="st1" points="-1232.6,936.7 -1240.4,920 -1224.4,920 			"/>
		</g>
		<circle class="st2" cx="-1232.4" cy="919.7" r="4.1"/>
	</g>
	<g>
		<g>
			<circle class="st1" cx="-1189.9" cy="911.1" r="8"/>
			<polygon class="st1" points="-1190.1,928.1 -1197.9,911.4 -1181.9,911.4 			"/>
		</g>
		<circle class="st2" cx="-1189.9" cy="911.1" r="4.1"/>
	</g>
	<g>
		<g>
			<circle class="st1" cx="-1356.3" cy="935.3" r="8"/>
			<polygon class="st1" points="-1356.5,952.3 -1364.3,935.6 -1348.4,935.6 			"/>
		</g>
		<circle class="st2" cx="-1356.3" cy="935.3" r="4.1"/>
	</g>
	<g>
		<g>
			<circle class="st1" cx="-1331" cy="929.7" r="8"/>
			<polygon class="st1" points="-1331.2,946.7 -1339,930 -1323,930 			"/>
		</g>
		<circle class="st2" cx="-1331" cy="929.7" r="4.1"/>
	</g>
</g>
<g>
	<text transform="matrix(1 0 0 1 -1390.8851 -183.4838)"><tspan x="0" y="0" class="st2" style="font-family:'CenturyGothic-Bold'; font-size:78px;">38,00</tspan><tspan x="196.6" y="0" class="st2" style="font-family:'CenturyGothic-Bold'; font-size:78px; letter-spacing:3;">0+</tspan><tspan x="294.9" y="0" class="st2" style="font-family:'CenturyGothic-Bold'; font-size:78px;">Free Courses</tspan></text>
</g>
<rect x="-1450.9" y="-21.8" class="st3" width="900" height="678"/>
<g>
	<text transform="matrix(1.1 0 0 1 -891.095 190.1681)" style="font-family:'ArialNarrow-Bold'; font-size:38.549px;">Scored card</text>
</g>
<g>
	<path class="st4" d="M-762,13.8c1.3,0.4,2.2,1.3,3.1,2.2c8.6,8.3,17.3,16.6,25.9,24.8c1.2,1.2,1.8,2.5,1.8,4.1
		c0,30.3,0,60.6,0,90.9c0,2.7-1.7,4.4-4.4,4.4c-29.1,0-58.2,0-87.2,0c-2.8,0-4.4-1.7-4.4-4.5c0-17.3,0-34.6,0-51.8c0-3.5,0-7,0-10.5
		c0-0.3,0-0.6,0-0.8c0.1-0.1,0.2-0.1,0.3-0.2c0.5,0.6,0.9,1.2,1.5,1.7c1.9,1.9,3.8,3.9,5.8,5.7c0.4,0.4,0.6,0.9,0.6,1.5
		c0,16.6,0,33.2,0,49.9c0,0.3,0,0.6,0,1c26.6,0,53.2,0,79.8,0c0-27.9,0-55.8,0-83.8c-0.3,0-0.7,0-1,0c-7.3,0-14.6,0-21.9,0
		c-2.9,0-4.5-1.6-4.5-4.5c0-6.9,0-13.9,0-20.8c0-0.3,0-0.6,0-1c-17.5,0-34.9,0-52.4,0c0,5.3,0,10.5,0,16c-0.3-0.3-0.5-0.4-0.6-0.5
		c-2.4-2.4-4.7-4.7-7.1-7.1c-0.3-0.3-0.4-0.7-0.4-1.1c0-3.4,0-6.9,0-10.3c0-3,0.6-3.9,3.3-5.1C-803.3,13.8-782.7,13.8-762,13.8z
		 M-758.7,40.2c4.4,0,8.7,0,13.2,0c-4.4-4.2-8.7-8.4-13.2-12.6C-758.7,31.8-758.7,36-758.7,40.2z"/>
	<path class="st4" d="M-850,42.7c0.6-0.7,1-1.6,1.7-2.2c3.6-3.6,7.2-7.2,10.8-10.8c1.6-1.6,3.3-1.6,4.9,0c2.2,2.2,4.4,4.4,6.5,6.5
		c0.1,0.1,0.3,0.3,0.4,0.4c-5.4,5.4-10.8,10.8-16.3,16.3c-2.1-2.1-4.2-4.2-6.3-6.4c-0.7-0.7-1.2-1.6-1.8-2.3
		C-850,43.7-850,43.2-850,42.7z"/>
	<path class="st4" d="M-839.8,54.7c5.3-5.3,10.7-10.7,16-16.1c19.4,19.4,38.7,38.8,58.1,58.2c-5.3,5.3-10.7,10.7-16,16.1
		C-801,93.6-820.4,74.1-839.8,54.7z"/>
	<path class="st4" d="M-788.1,69c1.4,0,2.7,0,4,0c10.3,0,20.6,0,30.9,0c2.2,0,3.7,1.2,4.2,3.3c0.5,2.4-1.3,4.7-3.8,4.8
		c-2.3,0.1-4.5,0-6.8,0c-6.6,0-13.3,0-19.9,0c-0.3,0-0.7-0.1-0.9-0.3c-2.5-2.4-5-4.9-7.5-7.4C-787.9,69.3-787.9,69.2-788.1,69z"/>
	<path class="st4" d="M-779.6,115c5.4-5.4,10.7-10.7,16.1-16.1c0.6,2,1.1,4.1,1.7,6.2c1.2,4.4,2.4,8.7,3.6,13.1
		c0.5,1.7-0.5,2.6-2.1,2.2c-6.4-1.7-12.7-3.5-19.1-5.2C-779.5,115-779.5,115-779.6,115z"/>
	<path class="st4" d="M-772.8,84.2c0.2,0,0.3,0,0.4,0c6.5,0,12.9,0,19.4,0c1.9,0,3.5,1.3,3.9,3c0.5,1.8-0.3,3.7-2,4.5
		c-0.6,0.3-1.3,0.5-2,0.5c-3.8,0-7.6,0-11.4,0c-0.3,0-0.6-0.1-0.8-0.3c-2.5-2.5-5-4.9-7.4-7.4C-772.7,84.5-772.7,84.4-772.8,84.2z"
		/>
</g>
<g>
	<text transform="matrix(1.1 0 0 1 -1327.7981 405.5787)" style="font-family:'ArialNarrow-Bold'; font-size:38.549px;">Distance to Hazard</text>
</g>
<g>
	<path class="st4" d="M-1235.6,90.3l-1.9,0v0.1c-0.1,19.6,10.9,27.4,20,33.1c9.5,6,22.8,8.7,36.8,8.7c7.4,0,35-2.6,49.9-17.7
		c8.5-8.7,10.2-19.5,10.2-29.1c0-7-0.9-13.5-0.9-18l0-0.7c0.3-10.7,4.3-15.5,5.7-18.6c4.5-10.5,10.6-20.7,10.6-33.3l0-1.9
		c-0.3-7-3.8-12-8.7-15c-4.8-3.1-10.8-4.3-16.7-4.3h0l-0.1,0c-6.2,0.1-18.6,4.5-27.3,13.2c-8.6,8.7-15.1,24.8-18.1,29.3
		c-4.5,7-15.8,12.2-24.1,14.7c-7.6,2.4-16.6,6.1-23.5,10.9c-6.7,4.6-14,10.3-13.9,28.8h3.7c0.2-17.6,5.7-21,12.3-25.7
		c6.4-4.5,15.1-8.1,22.5-10.4c8.6-2.8,20.5-7.8,26-16.2c3.3-5.2,9.7-20.8,17.6-28.7c7.7-7.9,20.1-12.1,24.7-12.1h0.1
		c5.3,0.1,10.7,1.2,14.7,3.8c4,2.6,6.7,6.3,7,12.1l0,1.7c0,11.4-5.6,21.1-10.2,31.9c-0.9,2.1-5.8,8.5-6,20l0,0.8
		c0,5,0.9,11.3,0.9,18c0,9.2-1.6,18.8-9.1,26.5c-13.3,13.8-40.6,16.7-47.3,16.6c-13.6,0-26.3-2.7-34.9-8.1c-9-5.8-18.2-11.9-18.3-30
		v-0.1H-1235.6"/>
	<path class="st4" d="M-1179.7,58.8c-25.5,0-46.1,14.1-46.1,31.5c0,17.4,20.7,31.5,46.1,31.5c25.5,0,46.2-14.1,46.2-31.5
		C-1133.6,72.9-1154.2,58.8-1179.7,58.8z M-1190.9,87.9c-5,0-8.9-1.5-8.9-3.6c0-2,4-3.6,8.9-3.6c5,0,9,1.6,9,3.6
		C-1182,86.4-1186,87.9-1190.9,87.9z"/>
	<path class="st4" d="M-1125.8,40.7c7.9-11.4,7.3-25.5-1.3-31.4c-8.6-5.9-22-1.5-29.8,10c-7.9,11.4-7.3,25.4,1.3,31.4
		C-1147.1,56.6-1133.7,52.2-1125.8,40.7"/>
	<polygon class="st4" points="-1219.7,42.7 -1196.7,42.5 -1196.7,85.4 -1193.2,85.4 -1193.2,21.3 	"/>
	<path class="st4" d="M-1188.3,59.3c0,0,24.2-12,27.2-31.8c2,3.5,29.5,11.7,37.7,9.1c-5,9.9-14.7,29.7-14.1,56.9
		C-1142.6,68-1162.5,62.8-1188.3,59.3z"/>
</g>
<g>
	<path class="st5" d="M-159.3,102.5l-1.9,0v0.1c-0.1,19.6,10.9,27.4,20,33.1c9.5,6,22.8,8.7,36.8,8.7c7.4,0,35-2.6,49.9-17.7
		c8.5-8.7,10.2-19.5,10.2-29.1c0-7-0.9-13.5-0.9-18l0-0.7c0.3-10.7,4.3-15.5,5.7-18.6c4.5-10.5,10.6-20.7,10.6-33.3l0-1.9
		c-0.3-7-3.8-12-8.7-15C-42.4,7-48.4,5.7-54.2,5.7h0l-0.1,0c-6.2,0.1-18.6,4.5-27.3,13.2c-8.6,8.7-15.1,24.8-18.1,29.3
		c-4.5,7-15.8,12.2-24.1,14.7c-7.6,2.4-16.6,6.1-23.5,10.9c-6.7,4.6-14,10.3-13.9,28.8h3.7c0.2-17.6,5.7-21,12.3-25.7
		c6.4-4.5,15.1-8.1,22.5-10.4c8.6-2.8,20.5-7.8,26-16.2c3.3-5.2,9.7-20.8,17.6-28.7c7.7-7.9,20.1-12.1,24.7-12.1h0.1
		c5.3,0.1,10.7,1.2,14.7,3.8c4,2.6,6.7,6.3,7,12.1l0,1.7c0,11.4-5.6,21.1-10.2,31.9c-0.9,2.1-5.8,8.5-6,20l0,0.8
		c0,5,0.9,11.3,0.9,18c0,9.2-1.6,18.8-9.1,26.5c-13.3,13.8-40.6,16.7-47.3,16.6c-13.6,0-26.3-2.7-34.9-8.1c-9-5.8-18.2-11.9-18.3-30
		v-0.1H-159.3"/>
	<path class="st5" d="M-103.4,71c-25.5,0-46.1,14.1-46.1,31.5c0,17.4,20.7,31.5,46.1,31.5c25.5,0,46.2-14.1,46.2-31.5
		C-57.3,85.1-77.9,71-103.4,71z M-114.6,100.1c-5,0-8.9-1.5-8.9-3.6c0-2,4-3.6,8.9-3.6c5,0,9,1.6,9,3.6
		C-105.7,98.6-109.7,100.1-114.6,100.1z"/>
	<path class="st5" d="M-49.6,52.9c7.9-11.4,7.3-25.5-1.3-31.4c-8.6-5.9-22-1.5-29.8,10C-88.6,42.9-88,57-79.3,62.9
		C-70.8,68.8-57.4,64.3-49.6,52.9"/>
	<polygon class="st5" points="-143.4,54.9 -120.4,54.7 -120.4,97.6 -116.9,97.6 -116.9,33.5 	"/>
	<path class="st5" d="M-112,71.5c0,0,24.2-12,27.2-31.8c2,3.5,29.5,11.7,37.7,9.1c-5,9.9-14.7,29.7-14.1,56.9
		C-66.3,80.2-86.2,75-112,71.5z"/>
</g>
<g>
	<text transform="matrix(1.1 0 0 1 -912.3167 602.0426)"><tspan x="0" y="0" style="font-family:'ArialNarrow-Bold'; font-size:38.549px;">Up to 12 hours</tspan><tspan x="12.3" y="37.9" style="font-family:'ArialNarrow-Bold'; font-size:38.549px;">in GPS mode</tspan></text>
</g>
<g>
	<path class="st4" d="M-809.2,454.8c0.5-3.2,0.5-3.2,3.7-3.2c1.3,0,2.6,0,4.3,0c0-1.6,0.1-3,0-4.4c-0.1-1.6,0.5-2.4,2.3-2.3
		c5.6,0.1,11.2,0.1,16.8,0c1.6,0,2.3,0.5,2.2,2.1c-0.1,1.4,0,2.9,0,4.6c1.6,0,2.9,0,4.3,0c3.8,0.1,3.1-0.2,3.7,3.2
		c2.5,0,5.1,0,7.7,0c3.3,0,4.6,1.3,4.6,4.6c0,33.7,0,67.4,0,101.2c0,3-1.4,4.4-4.3,4.4c-17.7,0-35.4,0-53.1,0c-3,0-4.4-1.4-4.4-4.4
		c0-33.8,0-67.6,0-101.4c0-3,1.4-4.3,4.4-4.4C-814.5,454.8-811.9,454.8-809.2,454.8z M-762.8,510.1c0-15.7,0-31.5,0-47.2
		c0-3.5-1.1-4.6-4.5-4.6c-15.5,0-31,0-46.6,0c-3.3,0-4.5,1.1-4.5,4.4c0,31.4,0,62.8,0,94.2c0,3.6,1.1,4.6,4.7,4.6
		c15.2,0,30.5,0,45.7,0c4.2,0,5.1-0.9,5.1-5.1C-762.8,541-762.8,525.6-762.8,510.1z"/>
	<path class="st4" d="M-790.8,557.8c-6.8,0-13.6,0-20.4,0c-3.1,0-4-0.9-4-4c0-4,0-8,0-12c0-2.5,1.3-3.7,3.7-3.7
		c13.9,0,27.8,0,41.7,0c2.7,0,3.8,1.1,3.8,3.8c0,4,0,8,0,12c0,2.9-1.1,3.9-4,3.9C-776.9,557.9-783.8,557.8-790.8,557.8z"/>
	<path class="st4" d="M-790.8,532.4c-6.8,0-13.6,0-20.4,0c-3.1,0-4-0.9-4-4c0-4,0-8,0-12c0-2.5,1.3-3.7,3.7-3.7
		c13.9,0,27.8,0,41.7,0c2.7,0,3.8,1.1,3.8,3.8c0,4,0,8,0,12c0,2.9-1.1,3.9-4,3.9C-776.9,532.4-783.8,532.4-790.8,532.4z"/>
	<path class="st4" d="M-790.8,481.6c-6.8,0-13.6,0-20.4,0c-3.1,0-4-0.9-4-4c0-4,0-8,0-12c0-2.5,1.3-3.7,3.7-3.7
		c13.9,0,27.8,0,41.7,0c2.7,0,3.8,1.1,3.8,3.8c0,4,0,8,0,12c0,2.9-1.1,3.9-4,3.9C-776.9,481.6-783.8,481.6-790.8,481.6z"/>
	<path class="st4" d="M-790.8,507c-6.8,0-13.6,0-20.4,0c-3.1,0-4-0.9-4-4c0-4,0-8,0-12c0-2.5,1.3-3.7,3.7-3.7c13.9,0,27.8,0,41.7,0
		c2.7,0,3.8,1.1,3.8,3.8c0,4,0,8,0,12c0,2.9-1.1,3.9-4,3.9C-776.9,507-783.8,507-790.8,507z"/>
</g>
<g>
	<text transform="matrix(1.1 0 0 1 -1319.0808 171.2208)"><tspan x="0" y="0" style="font-family:'ArialNarrow-Bold'; font-size:38.549px;">Distance to Front/</tspan><tspan x="-27.3" y="37.9" style="font-family:'ArialNarrow-Bold'; font-size:38.549px;">Center/Back of Green</tspan></text>
</g>
<g>
	<text transform="matrix(1.1 0 0 1 -1287.2156 620.9908)" style="font-family:'ArialNarrow-Bold'; font-size:38.549px;">Shot Distance</text>
</g>
<g>
	<path class="st4" d="M-1189.9,564.3c0,11.3-9.1,20.4-20.4,20.4c-11.3,0-20.4-9.1-20.4-20.4c0-11.3,9.1-20.4,20.4-20.4
		C-1199.1,543.9-1189.9,553-1189.9,564.3z"/>
	<polygon class="st4" points="-1184,531 -1171.8,538.5 -1122.1,495 -1126.5,492.9 -1114.5,490 -1111.9,499.5 -1116,498 -1154,548.8 
		-1137.9,557.7 -1189.9,567.7 	"/>
	<path class="st4" d="M-1196.7,551.9c0,0-20.7-44.6,18.7-64.9c0,0,29.4-15.4,61.7,1.7c0,0-30.6-26.4-77.6-2.9c0,0-37.5,17.6-35.6,71
		l7.9-3c0,0-7.4-47.5,42.7-70.4c0,0,14.6-7.5,39-3.6c0,0-57.8-5.6-66.3,39.4c0,0-4.2,19.8,3,35.5L-1196.7,551.9z"/>
</g>
<g>
	<polygon class="st2" points="-747.1,1547.5 -762,1572 -762,1591.3 -729.4,1595.7 -714.8,1589.1 -720.6,1559.5 	"/>
	<polygon class="st6" points="-738.2,1557.6 -730.7,1566.9 -731.6,1580.5 -744.4,1589.8 -729.2,1590.6 -720.6,1582.7 -724.8,1565.6 
			"/>
	<polygon class="st2" points="-796.7,1543.8 -807.2,1554.2 -799.3,1564.6 -780.5,1565.4 -775.2,1559.8 -784.2,1539.9 	"/>
	<polygon class="st2" points="-761.2,1503.3 -749.7,1491.3 -752.4,1489.6 -779.5,1493.6 -798.8,1487.7 -808.8,1504.8 -810.5,1514.8 
		-801.5,1511.9 -798.3,1513.8 -788.3,1534.4 -783.5,1533.3 -780.1,1534.4 -778.6,1537.5 -772.5,1516.3 -772.5,1504.3 -786.1,1505.2 
		-795.9,1496.2 -785.1,1500.9 -770,1498.2 	"/>
	<polygon class="st2" points="-803.8,1518.7 -824.8,1525.8 -830.4,1552.6 -815,1553.9 -800.3,1539 	"/>
	<polygon class="st2" points="-828.6,1591.7 -808.7,1601.6 -785.9,1586.6 -795.8,1574.7 -816.8,1574.9 	"/>
	<polygon class="st2" points="-684.5,1538.7 -694.7,1503.5 -733.9,1483.8 -765.9,1516.5 -775.2,1545.4 -769,1557.8 -762,1561 
		-751,1542.6 -747.5,1541.4 -726,1550.4 -720.1,1546.3 -718.4,1531.2 -714.3,1549.3 -717.9,1553.7 -715.3,1556.3 -712.4,1567.8 
		-692.5,1563.6 -681.5,1555.4 	"/>
	<polygon class="st6" points="-715.4,1500 -729.1,1502.9 -707.2,1523.1 -698.9,1542.9 -699.6,1522 	"/>
</g>
<g>
	<ellipse class="st2" cx="-756.3" cy="1754.9" rx="74.2" ry="27.1"/>
	<g>
		<g>
			<g>
				<g>
					<path class="st6" d="M-755.1,1717.1c0,23.4-15.8,42.5-35.2,42.5c-19.5,0-35.2-19-35.2-42.5c0-23.4,35.2-59.8,35.2-59.8
						S-755.1,1693.7-755.1,1717.1z"/>
				</g>
			</g>
			<g>
				<g>
					<path class="st6" d="M-794,1746.3c-2.9,0.4-5.8-0.1-8.6-1.1c-2.8-1-5.5-2.6-7.9-4.9c-2.3-2.3-4.3-5.4-5.2-9
						c-1-3.5-0.9-7.3,0.1-10.6c0.5,3.4,1.3,6.6,2.5,9.3c1.3,2.7,2.9,5,4.9,6.9C-804.2,1740.9-799.2,1743.5-794,1746.3z"/>
				</g>
			</g>
		</g>
		<g>
			<g>
				<g>
					<path class="st2" d="M-764.3,1718.1c0,17.3-11.6,31.4-26,31.4c-14.4,0-26-14-26-31.4c0-17.3,26-44.2,26-44.2
						S-764.3,1700.8-764.3,1718.1z"/>
				</g>
			</g>
			<g>
				<g>
					<path class="st6" d="M-793,1739.7c-2.1,0.3-4.3-0.1-6.4-0.8c-2.1-0.7-4.1-1.9-5.8-3.6c-1.7-1.7-3.2-4-3.9-6.6
						c-0.7-2.6-0.7-5.4,0.1-7.8c0.4,2.5,0.9,4.8,1.9,6.8c0.9,2,2.2,3.7,3.7,5.1C-800.5,1735.7-796.9,1737.6-793,1739.7z"/>
				</g>
			</g>
		</g>
	</g>
</g>
<g>
	<g>
		<path class="st2" d="M-755.9,1397.1c25.3,0,50.5,0,75.8,0c-6.2-11-12.3-22-18.5-33c-2.7-4.7-5.4-9.3-8-14.2
			c-2.8-5.2-5.6-11.9-10-12.8c-4.6-1-8.7,4.2-11.7,9.7C-740.1,1369-755.9,1397.1-755.9,1397.1z"/>
		<path class="st6" d="M-807.3,1397.1c33.6,0,67.3,0,100.9,0c-8.2-14.6-16.4-29.3-24.6-44c-3.5-6.3-7.2-12.4-10.6-18.9
			c-3.7-6.9-7.4-15.8-13.3-17c-6.2-1.3-11.6,5.5-15.6,12.9C-786.3,1359.6-807.3,1397.1-807.3,1397.1z"/>
		<path class="st2" d="M-814.8,1397.1c33.6,0,67.3,0,100.9,0c-8.2-14.6-16.4-29.3-24.6-44c-3.5-6.3-7.2-12.4-10.6-18.9
			c-3.7-6.9-7.4-15.8-13.3-17c-6.2-1.3-11.6,5.5-15.6,12.9C-793.8,1359.6-814.8,1397.1-814.8,1397.1z"/>
	</g>
	<path class="st2" d="M-834.3,1397.1c19,0,38,0,57,0c-4.6-8.3-9.3-16.6-13.9-25c-2-3.6-4.1-7-6-10.7c-2.1-3.9-4.2-9-7.5-9.7
		c-3.5-0.7-6.6,3.1-8.8,7.3C-822.4,1375.8-834.3,1397.1-834.3,1397.1z"/>
</g>
<g>
	<path class="st4" d="M-1051.8,288.5c-10.4-9.8-26.6-12.9-33.8-9.3c-8.3,4.1-14.5,12.8-23.2,12.7c0,0-19.8-1.6-29.3,0.2
		c-12.4,2.2-22.9,6.3-22.5,29.9c0,14.4,10.9,19.9,23.7,25.1c9.4,3.8,14.8,8,38.2,9.4c23.4,1.5,42.5-8.8,52.1-26
		C-1042.4,322.5-1040.7,299.1-1051.8,288.5z M-1056.9,302.7v4.2h-2.6v2.7h-4.1v-2.7h-2.6v-4.2h2.6V300h4.1v2.7H-1056.9z
		 M-1066.4,321.5v-4.2h2.6v-2.7h4.1v2.7h2.6v4.2h-2.6v2.7h-4.1v-2.7H-1066.4z M-1070.2,286.5h2.6v-2.7h4.1v2.7h2.6v4.2h-2.6v2.7
		h-4.1v-2.7h-2.6V286.5z M-1076.8,328.7v-4.2h2.6v-2.7h4.1v2.7h2.6v4.2h-2.6v2.7h-4.1v-2.7H-1076.8z M-1068.5,310.3v4.2h-2.6v2.7
		h-4.1v-2.7h-2.6v-4.2h2.6v-2.7h4.1v2.7H-1068.5z M-1078.9,297h2.6v-2.7h4.1v2.7h2.6v4.2h-2.6v2.7h-4.1v-2.7h-2.6V297z
		 M-1080.1,305.3v4.2h-2.6v2.7h-4.1v-2.7h-2.6v-4.2h2.6v-2.7h4.1v2.7H-1080.1z M-1089.9,323.3v-4.2h2.6v-2.7h4.1v2.7h2.6v4.2h-2.6
		v2.7h-4.1v-2.7H-1089.9z M-1092.2,291.3h2.6v-2.7h4.1v2.7h2.6v4.2h-2.6v2.7h-4.1v-2.7h-2.6V291.3z M-1101.3,301.1h2.6v-2.7h4.1v2.7
		h2.6v4.2h-2.6v2.7h-4.1v-2.7h-2.6V301.1z M-1102.1,313.8h2.6v-2.7h4.1v2.7h2.6v4.2h-2.6v2.7h-4.1V318h-2.6V313.8z M-1113.6,325.5
		v-4.2h2.6v-2.7h4.1v2.7h2.6v4.2h-2.6v2.7h-4.1v-2.7H-1113.6z M-1114.2,307.3h2.6v-2.7h4.1v2.7h2.6v4.2h-2.6v2.7h-4.1v-2.7h-2.6
		V307.3z M-1114.6,316.9v4.2h-2.6v2.7h-4.1v-2.7h-2.6v-4.2h2.6v-2.7h4.1v2.7H-1114.6z M-1126.9,303.3h2.6v-2.7h4.1v2.7h2.6v4.2h-2.6
		v2.7h-4.1v-2.7h-2.6V303.3z M-1125.6,312.7v4.2h-2.6v2.7h-4.1v-2.7h-2.6v-4.2h2.6V310h4.1v2.7H-1125.6z M-1137.9,298.1h2.6v-2.7
		h4.1v2.7h2.6v4.2h-2.6v2.7h-4.1v-2.7h-2.6V298.1z M-1146,307.7h2.6V305h4.1v2.7h2.6v4.2h-2.6v2.7h-4.1v-2.7h-2.6V307.7z
		 M-1144.9,320.6h-2.6v2.7h-4.1v-2.7h-2.6v-4.2h2.6v-2.7h4.1v2.7h2.6V320.6z M-1144.3,321.9h2.6v-2.7h4.1v2.7h2.6v4.2h-2.6v2.7h-4.1
		v-2.7h-2.6V321.9z M-1132.8,339.2h-2.6v2.7h-4.1v-2.7h-2.6V335h2.6v-2.7h4.1v2.7h2.6V339.2z M-1132.6,329.8v-4.2h2.6v-2.7h4.1v2.7
		h2.6v4.2h-2.6v2.7h-4.1v-2.7H-1132.6z M-1120.4,343.8h-2.6v2.7h-4.1v-2.7h-2.6v-4.2h2.6v-2.7h4.1v2.7h2.6V343.8z M-1121.6,334.9
		v-4.2h2.6V328h4.1v2.7h2.6v4.2h-2.6v2.7h-4.1v-2.7H-1121.6z M-1106.6,346.5h-2.6v2.7h-4.1v-2.7h-2.6v-4.2h2.6v-2.7h4.1v2.7h2.6
		V346.5z M-1099,338.4h-2.6v2.7h-4.1v-2.7h-2.6v-4.2h2.6v-2.7h4.1v2.7h2.6V338.4z M-1099.8,330.3v-4.2h2.6v-2.7h4.1v2.7h2.6v4.2
		h-2.6v2.7h-4.1v-2.7H-1099.8z M-1088.2,345.4h-2.6v2.7h-4.1v-2.7h-2.6v-4.2h2.6v-2.7h4.1v2.7h2.6V345.4z M-1088.4,336.6v-4.2h2.6
		v-2.7h4.1v2.7h2.6v4.2h-2.6v2.7h-4.1v-2.7H-1088.4z M-1075.7,347.6h-2.6v2.7h-4.1v-2.7h-2.6v-4.2h2.6v-2.7h4.1v2.7h2.6V347.6z
		 M-1065.5,341.9h-2.6v2.7h-4.1v-2.7h-2.6v-4.2h2.6V335h4.1v2.7h2.6V341.9z M-1055.6,336h-2.6v2.7h-4.1V336h-2.6v-4.2h2.6v-2.7h4.1
		v2.7h2.6V336z"/>
	<g>
		<defs>
			<rect id="SVGID_3_" x="-1284" y="281.6" width="103.8" height="71.1"/>
		</defs>
		<clipPath id="SVGID_4_">
			<use xlink:href="#SVGID_3_"  style="overflow:visible;"/>
		</clipPath>
		<g class="st7">
			<path class="st8" d="M-1304.3,291c0,0,14,18.9,35.8-0.9v0c0,0,14.5,21.3,35,0.4c0,0,16.2,19.6,35.8-0.5v0v0
				c0,0,16.1,20.5,35.8,2.3"/>
			<path class="st8" d="M-1304.3,312.8c0,0,14,18.9,35.8-0.9v0c0,0,14.5,21.3,35,0.4c0,0,16.2,19.6,35.8-0.5v0v0
				c0,0,16.1,20.5,35.8,2.3"/>
			<path class="st8" d="M-1304.3,334.5c0,0,14,18.9,35.8-0.9v0c0,0,14.5,21.3,35,0.4c0,0,16.2,19.6,35.8-0.5v0v0
				c0,0,16.1,20.5,35.8,2.3"/>
		</g>
	</g>
</g>
<g>
	<text transform="matrix(1.1 0 0 1 -872.6877 405.5797)" style="font-family:'ArialNarrow-Bold'; font-size:38.549px;">Auto Hole</text>
</g>
<g>
	<path class="st4" d="M-860.4,335.8c-0.2,0-0.3,0-0.4,0v-28.9l53.8-24.6l-53.8-21.1v-2.9h-7.5v52v26.3c-9.7,1.8-16.7,6.6-16.7,12.4
		c0,7.3,11,13.2,24.7,13.2c13.6,0,24.7-5.9,24.7-13.2C-835.7,341.7-846.8,335.8-860.4,335.8z M-857.3,271.3h5.3h5v23.9h-5v-19.4
		h-5.3V271.3z"/>
	<path class="st4" d="M-749.5,339c-0.2,0-0.3,0-0.4,0v-28.9l53.8-24.6l-53.8-21.1v-2.9h-7.5v52v26.3c-9.7,1.8-16.7,6.6-16.7,12.4
		c0,7.3,11,13.2,24.7,13.2c13.6,0,24.7-5.9,24.7-13.2C-724.9,344.9-735.9,339-749.5,339z M-752.6,293.9c0-4.7,3.2-7.7,9.7-8.9
		c5.3-1,8-2.2,8-3.6c0-0.2,0-0.4,0-0.5c0-1.2-0.6-1.9-1.9-1.9c-2.1,0-3.5,0-4.3,0c-0.9,0-2.3,0-4.4,0c-1.2,0-1.9,1.1-1.9,3.2
		c0,0.3,0,0.5,0,0.8h-4.9c0-0.6,0-1.2,0-1.7c0-4.6,2.2-6.9,6.7-6.9c1.5,0,3,0,4.5,0c1.5,0,2.9,0,4.4,0c4.5,0,6.7,1.8,6.7,5.5
		c0,0.5,0,0.9,0,1.4c0,3.7-3.2,6.2-9.6,7.5c-5.4,1.1-8,2.7-8,5h17.9v4.5h-22.8V293.9z"/>
	<g>
		<rect x="-803.4" y="291.3" class="st4" width="15.8" height="24.9"/>
		<polygon class="st4" points="-771.1,303.7 -791.7,329.8 -791.7,277.7 		"/>
	</g>
</g>
<rect x="-1393" y="-158.9" style="fill:none;" width="794.2" height="118"/>
<text transform="matrix(1.0098 0 0 1 -1392.9723 -132.1844)"><tspan x="0" y="0" class="st2" style="font-family:'Calibri'; font-size:34px;">Support more than 38000 courses around the world. </tspan><tspan x="0" y="40.8" class="st2" style="font-family:'Calibri'; font-size:34px;">Quickly gets your location by high sensitivity GPS,  to </tspan><tspan x="0" y="81.6" class="st2" style="font-family:'Calibri'; font-size:34px;">recognize Golf course nearby.</tspan></text>
<g>
	<path class="st5" d="M103.6,11.8c1.3,0.4,2.2,1.3,3.1,2.2c8.6,8.3,17.3,16.6,25.9,24.8c1.2,1.2,1.8,2.5,1.8,4.1
		c0,30.3,0,60.6,0,90.9c0,2.7-1.7,4.4-4.4,4.4c-29.1,0-58.2,0-87.2,0c-2.8,0-4.4-1.7-4.4-4.5c0-17.3,0-34.6,0-51.8c0-3.5,0-7,0-10.5
		c0-0.3,0-0.6,0-0.8c0.1-0.1,0.2-0.1,0.3-0.2c0.5,0.6,0.9,1.2,1.5,1.7c1.9,1.9,3.8,3.9,5.8,5.7c0.4,0.4,0.6,0.9,0.6,1.5
		c0,16.6,0,33.2,0,49.9c0,0.3,0,0.6,0,1c26.6,0,53.2,0,79.8,0c0-27.9,0-55.8,0-83.8c-0.3,0-0.7,0-1,0c-7.3,0-14.6,0-21.9,0
		c-2.9,0-4.5-1.6-4.5-4.5c0-6.9,0-13.9,0-20.8c0-0.3,0-0.6,0-1c-17.5,0-34.9,0-52.4,0c0,5.3,0,10.5,0,16c-0.3-0.3-0.5-0.4-0.6-0.5
		c-2.4-2.4-4.7-4.7-7.1-7.1c-0.3-0.3-0.4-0.7-0.4-1.1c0-3.4,0-6.9,0-10.3c0-3,0.6-3.9,3.3-5.1C62.3,11.8,83,11.8,103.6,11.8z
		 M106.9,38.1c4.4,0,8.7,0,13.2,0c-4.4-4.2-8.7-8.4-13.2-12.6C106.9,29.8,106.9,33.9,106.9,38.1z"/>
	<path class="st5" d="M15.6,40.7c0.6-0.7,1-1.6,1.7-2.2c3.6-3.6,7.2-7.2,10.8-10.8c1.6-1.6,3.3-1.6,4.9,0c2.2,2.2,4.4,4.4,6.5,6.5
		c0.1,0.1,0.3,0.3,0.4,0.4C34.5,40,29.1,45.4,23.6,50.9c-2.1-2.1-4.2-4.2-6.3-6.4c-0.7-0.7-1.2-1.6-1.8-2.3
		C15.6,41.7,15.6,41.2,15.6,40.7z"/>
	<path class="st5" d="M25.8,52.7c5.3-5.3,10.7-10.7,16-16.1C61.2,56,80.6,75.5,99.9,94.8c-5.3,5.3-10.7,10.7-16,16.1
		C64.6,91.5,45.2,72.1,25.8,52.7z"/>
	<path class="st5" d="M77.5,67c1.4,0,2.7,0,4,0c10.3,0,20.6,0,30.9,0c2.2,0,3.7,1.2,4.2,3.3c0.5,2.4-1.3,4.7-3.8,4.8
		c-2.3,0.1-4.5,0-6.8,0c-6.6,0-13.3,0-19.9,0c-0.3,0-0.7-0.1-0.9-0.3c-2.5-2.4-5-4.9-7.5-7.4C77.7,67.2,77.7,67.2,77.5,67z"/>
	<path class="st5" d="M86,112.9c5.4-5.4,10.7-10.7,16.1-16.1c0.6,2,1.1,4.1,1.7,6.2c1.2,4.4,2.4,8.7,3.6,13.1
		c0.5,1.7-0.5,2.6-2.1,2.2c-6.4-1.7-12.7-3.5-19.1-5.2C86.1,113,86.1,113,86,112.9z"/>
	<path class="st5" d="M92.8,82.2c0.2,0,0.3,0,0.4,0c6.5,0,12.9,0,19.4,0c1.9,0,3.5,1.3,3.9,3c0.5,1.8-0.3,3.7-2,4.5
		c-0.6,0.3-1.3,0.5-2,0.5c-3.8,0-7.6,0-11.4,0c-0.3,0-0.6-0.1-0.8-0.3c-2.5-2.5-5-4.9-7.4-7.4C92.9,82.4,92.9,82.3,92.8,82.2z"/>
</g>
<g>
	<path d="M302.4,72.5c-10.4-9.8-26.6-12.9-33.8-9.3c-8.3,4.1-14.5,12.8-23.2,12.7c0,0-19.8-1.6-29.3,0.2
		c-12.4,2.2-22.9,6.3-22.5,29.9c0,14.4,10.9,19.9,23.7,25.1c9.4,3.8,14.8,8,38.2,9.4c23.4,1.5,42.5-8.8,52.1-26
		C311.9,106.4,313.6,83,302.4,72.5z M297.4,86.6v4.2h-2.6v2.7h-4.1v-2.7h-2.6v-4.2h2.6v-2.7h4.1v2.7H297.4z M287.8,105.5v-4.2h2.6
		v-2.7h4.1v2.7h2.6v4.2h-2.6v2.7h-4.1v-2.7H287.8z M284,70.4h2.6v-2.7h4.1v2.7h2.6v4.2h-2.6v2.7h-4.1v-2.7H284V70.4z M277.5,112.7
		v-4.2h2.6v-2.7h4.1v2.7h2.6v4.2h-2.6v2.7h-4.1v-2.7H277.5z M285.7,94.3v4.2h-2.6v2.7H279v-2.7h-2.6v-4.2h2.6v-2.7h4.1v2.7H285.7z
		 M275.4,80.9h2.6v-2.7h4.1v2.7h2.6v4.2H282v2.7H278v-2.7h-2.6V80.9z M274.1,89.2v4.2h-2.6v2.7h-4.1v-2.7h-2.6v-4.2h2.6v-2.7h4.1
		v2.7H274.1z M264.4,107.2V103h2.6v-2.7h4.1v2.7h2.6v4.2H271v2.7H267v-2.7H264.4z M262,75.2h2.6v-2.7h4.1v2.7h2.6v4.2h-2.6v2.7h-4.1
		v-2.7H262V75.2z M252.9,85.1h2.6v-2.7h4.1v2.7h2.6v4.2h-2.6V92h-4.1v-2.7h-2.6V85.1z M252.1,97.8h2.6v-2.7h4.1v2.7h2.6v4.2h-2.6
		v2.7h-4.1V102h-2.6V97.8z M240.7,109.4v-4.2h2.6v-2.7h4.1v2.7h2.6v4.2h-2.6v2.7h-4.1v-2.7H240.7z M240,91.2h2.6v-2.7h4.1v2.7h2.6
		v4.2h-2.6v2.7h-4.1v-2.7H240V91.2z M239.6,100.8v4.2H237v2.7h-4.1V105h-2.6v-4.2h2.6v-2.7h4.1v2.7H239.6z M227.3,87.3h2.6v-2.7h4.1
		v2.7h2.6v4.2H234v2.7h-4.1v-2.7h-2.6V87.3z M228.6,96.7v4.2H226v2.7h-4.1v-2.7h-2.6v-4.2h2.6V94h4.1v2.7H228.6z M216.3,82h2.6v-2.7
		h4.1V82h2.6v4.2H223v2.7h-4.1v-2.7h-2.6V82z M208.3,91.6h2.6v-2.7h4.1v2.7h2.6v4.2h-2.6v2.7h-4.1v-2.7h-2.6V91.6z M209.3,104.6
		h-2.6v2.7h-4.1v-2.7H200v-4.2h2.6v-2.7h4.1v2.7h2.6V104.6z M209.9,105.9h2.6v-2.7h4.1v2.7h2.6v4.2h-2.6v2.7h-4.1v-2.7h-2.6V105.9z
		 M221.4,123.2h-2.6v2.7h-4.1v-2.7h-2.6V119h2.6v-2.7h4.1v2.7h2.6V123.2z M221.6,113.8v-4.2h2.6v-2.7h4.1v2.7h2.6v4.2h-2.6v2.7h-4.1
		v-2.7H221.6z M233.9,127.8h-2.6v2.7h-4.1v-2.7h-2.6v-4.2h2.6v-2.7h4.1v2.7h2.6V127.8z M232.6,118.8v-4.2h2.6v-2.7h4.1v2.7h2.6v4.2
		h-2.6v2.7h-4.1v-2.7H232.6z M247.6,130.4H245v2.7H241v-2.7h-2.6v-4.2h2.6v-2.7h4.1v2.7h2.6V130.4z M255.3,122.3h-2.6v2.7h-4.1v-2.7
		h-2.6v-4.2h2.6v-2.7h4.1v2.7h2.6V122.3z M254.4,114.2V110h2.6v-2.7h4.1v2.7h2.6v4.2h-2.6v2.7H257v-2.7H254.4z M266,129.3h-2.6v2.7
		h-4.1v-2.7h-2.6v-4.2h2.6v-2.7h4.1v2.7h2.6V129.3z M265.8,120.6v-4.2h2.6v-2.7h4.1v2.7h2.6v4.2h-2.6v2.7h-4.1v-2.7H265.8z
		 M278.5,131.5h-2.6v2.7h-4.1v-2.7h-2.6v-4.2h2.6v-2.7h4.1v2.7h2.6V131.5z M288.7,125.8h-2.6v2.7H282v-2.7h-2.6v-4.2h2.6v-2.7h4.1
		v2.7h2.6V125.8z M298.6,119.9H296v2.7H292v-2.7h-2.6v-4.2h2.6V113h4.1v2.7h2.6V119.9z"/>
	<g>
		<defs>
			<rect id="SVGID_5_" x="185.1" y="12.4" width="74" height="50.7"/>
		</defs>
		<clipPath id="SVGID_6_">
			<use xlink:href="#SVGID_5_"  style="overflow:visible;"/>
		</clipPath>
		<g class="st9">
			<path class="st10" d="M170.6,19.1c0,0,10,13.5,25.5-0.6v0c0,0,10.3,15.2,24.9,0.3c0,0,11.6,14,25.5-0.4v0v0
				c0,0,11.4,14.6,25.6,1.6"/>
			<path class="st10" d="M170.6,34.6c0,0,10,13.5,25.5-0.6v0c0,0,10.3,15.2,24.9,0.3c0,0,11.6,14,25.5-0.4v0v0
				c0,0,11.4,14.6,25.6,1.6"/>
			<path class="st10" d="M170.6,50c0,0,10,13.5,25.5-0.6v0c0,0,10.3,15.2,24.9,0.3c0,0,11.6,14,25.5-0.4v0v0c0,0,11.4,14.6,25.6,1.6
				"/>
		</g>
	</g>
</g>
<g>
	<path class="st5" d="M-143.9,289.3c-0.1,0-0.3,0-0.4,0V259l40-25.9l-40-21.8v-3.1h-7.2v54.3V290c-9.3,1.9-16,6.9-16,13
		c0,7.6,10.6,13.8,23.6,13.8c13,0,23.6-6.2,23.6-13.8C-120.3,295.4-130.9,289.3-143.9,289.3z M-140.9,223.9h5h4.8v22.9h-4.8v-18.6
		h-5V223.9z"/>
	<path class="st5" d="M-62.1,289.3c-0.1,0-0.3,0-0.4,0V259l40-25.9l-40-21.8v-3.1h-7.2v54.3V290c-9.3,1.9-16,6.9-16,13
		c0,7.6,10.6,13.8,23.6,13.8s23.6-6.2,23.6-13.8C-38.5,295.4-49,289.3-62.1,289.3z M-62.7,241.5c0-4.5,2.3-7.4,6.9-8.5
		c3.8-0.9,5.7-2.1,5.7-3.4c0-0.2,0-0.3,0-0.5c0-1.2-0.4-1.8-1.3-1.8c-1.5,0-2.5,0-3.1,0c-0.6,0-1.7,0-3.1,0c-0.9,0-1.3,1.1-1.3,3.1
		c0,0.3,0,0.5,0,0.8h-3.5c0-0.6,0-1.1,0-1.7c0-4.4,1.6-6.6,4.8-6.6c1.1,0,2.1,0,3.2,0c1,0,2.1,0,3.2,0c3.2,0,4.8,1.8,4.8,5.3
		c0,0.4,0,0.9,0,1.3c0,3.6-2.3,6-6.9,7.2c-3.8,1-5.7,2.6-5.7,4.8h12.8v4.4h-16.3V241.5z"/>
	<g>
		<rect x="-112" y="260.8" class="st5" width="15.1" height="13.7"/>
		<polygon class="st5" points="-81.1,267.6 -100.8,282 -100.8,253.3 		"/>
	</g>
</g>
<g>
	<path class="st5" d="M55.6,295.2c0,11.7-9.5,21.2-21.2,21.2c-11.7,0-21.2-9.5-21.2-21.2c0-11.7,9.5-21.2,21.2-21.2
		C46.1,274,55.6,283.5,55.6,295.2z"/>
	<polygon class="st5" points="61.8,260.5 74.5,268.4 126.1,223.1 121.6,220.9 134.1,217.9 136.8,227.8 132.4,226.2 92.9,279.1 
		109.7,288.3 55.6,298.7 	"/>
	<path class="st5" d="M48.5,282.3c0,0-21.5-46.4,19.5-67.5c0,0,30.6-16,64.2,1.7c0,0-31.8-27.4-80.7-3c0,0-38.9,18.3-37,73.9
		l8.2-3.2c0,0-7.7-49.4,44.4-73.2c0,0,15.1-7.8,40.5-3.8c0,0-60.1-5.8-68.9,40.9c0,0-4.3,20.6,3.1,36.9L48.5,282.3z"/>
</g>
<g>
	<path class="st5" d="M226.1,209.9c0.6-3.3,0.6-3.3,3.8-3.3c1.3,0,2.6,0,4.4,0c0-1.6,0.1-3,0-4.4c-0.1-1.7,0.5-2.4,2.3-2.4
		c5.7,0.1,11.3,0.1,17,0c1.6,0,2.3,0.5,2.2,2.2c-0.1,1.5,0,2.9,0,4.6c1.6,0,3,0,4.4,0c3.9,0.1,3.2-0.2,3.7,3.3c2.6,0,5.2,0,7.8,0
		c3.3,0,4.7,1.4,4.7,4.7c0,34.2,0,68.5,0,102.7c0,3-1.4,4.5-4.4,4.5c-18,0-35.9,0-53.9,0c-3.1,0-4.4-1.4-4.4-4.5
		c0-34.3,0-68.6,0-103c0-3,1.4-4.4,4.4-4.4C220.7,209.9,223.4,209.9,226.1,209.9z M273.2,266.1c0-16,0-32,0-47.9
		c0-3.5-1.1-4.7-4.6-4.7c-15.8,0-31.5,0-47.3,0c-3.4,0-4.5,1.2-4.5,4.5c0,31.9,0,63.8,0,95.7c0,3.6,1.1,4.7,4.8,4.7
		c15.5,0,30.9,0,46.4,0c4.3,0,5.2-0.9,5.2-5.1C273.2,297.4,273.2,281.7,273.2,266.1z"/>
	<path class="st5" d="M244.8,314.5c-6.9,0-13.8,0-20.8,0c-3.1,0-4.1-0.9-4.1-4.1c0-4,0-8.1,0-12.1c0-2.5,1.3-3.7,3.8-3.7
		c14.1,0,28.3,0,42.4,0c2.8,0,3.9,1.1,3.9,3.9c0,4,0,8.1,0,12.1c0,2.9-1.1,3.9-4,4C258.9,314.5,251.9,314.5,244.8,314.5z"/>
	<path class="st5" d="M244.8,288.7c-6.9,0-13.8,0-20.8,0c-3.1,0-4.1-0.9-4.1-4.1c0-4,0-8.1,0-12.1c0-2.5,1.3-3.7,3.8-3.7
		c14.1,0,28.3,0,42.4,0c2.8,0,3.9,1.1,3.9,3.9c0,4,0,8.1,0,12.1c0,2.9-1.1,3.9-4,4C258.9,288.7,251.9,288.7,244.8,288.7z"/>
	<path class="st5" d="M244.8,237.1c-6.9,0-13.8,0-20.8,0c-3.1,0-4.1-0.9-4.1-4.1c0-4,0-8.1,0-12.1c0-2.5,1.3-3.7,3.8-3.7
		c14.1,0,28.3,0,42.4,0c2.8,0,3.9,1.1,3.9,3.9c0,4,0,8.1,0,12.1c0,2.9-1.1,3.9-4,4C258.9,237.1,251.9,237.1,244.8,237.1z"/>
	<path class="st5" d="M244.8,262.9c-6.9,0-13.8,0-20.8,0c-3.1,0-4.1-0.9-4.1-4.1c0-4,0-8.1,0-12.1c0-2.5,1.3-3.7,3.8-3.7
		c14.1,0,28.3,0,42.4,0c2.8,0,3.9,1.1,3.9,3.9c0,4,0,8.1,0,12.1c0,2.9-1.1,3.9-4,4C258.9,262.9,251.9,262.9,244.8,262.9z"/>
</g>
</svg>
