<?xml version="1.0" encoding="utf-8"?>
<!-- Generator: Adobe Illustrator 25.4.1, SVG Export Plug-In . SVG Version: 6.00 Build 0)  -->
<svg version="1.1" id="圖層_1" xmlns="http://www.w3.org/2000/svg" xmlns:xlink="http://www.w3.org/1999/xlink" x="0px" y="0px"
	 viewBox="0 0 186.5 39.2" style="enable-background:new 0 0 186.5 39.2;" xml:space="preserve">
<style type="text/css">
	.st0{fill:#17288B;}
</style>
<g>
	<path class="st0" d="M152.9,23.1l-7.1-8.9c-5.3,0-10.7,0-16,0l-12.5,10.7V14.2h-8.9v24.9h8.9V26.7l12.5,12.5h12.5L128,24.9l8.9-7.1
		l10.7,10.7v10.7h10.7V28.5l12.5-14.2h-10.7L152.9,23.1z"/>
	<rect x="26.7" y="17.8" class="st0" width="12.5" height="21.3"/>
	<rect y="0" class="st0" width="39.1" height="7.1"/>
	<rect y="17.8" class="st0" width="14.2" height="21.3"/>
	<path class="st0" d="M104.7,26.4c-1.5-1.1-3.3-1.9-5.4-2.3c-1.1-0.3-2.1-0.5-3.1-0.8c-1-0.2-2-0.5-2.9-0.7c-1.9-0.5-2.9-1.2-2.9-2
		c0-0.3,0.1-0.6,0.4-0.8c0.3-0.3,0.6-0.5,1-0.6c0.4-0.2,0.8-0.3,1.3-0.4s1-0.1,1.4-0.1c1.4,0,2.5,0.2,3.5,0.5
		c0.5,0.1,1.2,0.4,2.3,0.9c1,0.4,2.3,1,4,1.8V15c-0.3,0-1.5-0.3-3.5-0.8c-2.1-0.5-4.2-0.8-6.4-0.8c-1.8,0-3.5,0.2-5.1,0.5
		c-1.7,0.3-3.1,0.9-4.4,1.5c-1.3,0.7-2.3,1.5-3.1,2.4c-0.8,0.9-1.2,2-1.2,3.2c0,2,0.8,3.6,2.3,4.6s3.3,1.8,5.4,2.3
		c1.1,0.3,2.1,0.5,3.1,0.8s2,0.5,3,0.8c2,0.5,3,1.2,3,2c0,0.4-0.1,0.7-0.4,0.9c-0.3,0.3-0.7,0.5-1.1,0.7c-0.5,0.2-1,0.3-1.6,0.4
		c-0.6,0.1-1.2,0.1-1.8,0.1c-2.9,0-6.4-1-10.4-3.1L82,37.3c0.3,0.3,1.6,0.7,3.9,1.2s4.7,0.7,7,0.7c4.1,0,7.5-0.7,10.2-2.1
		c2.7-1.4,4.1-3.5,4.1-6.1C107,29,106.2,27.5,104.7,26.4z"/>
	<polygon class="st0" points="173.8,15.4 175.8,15.4 175.8,21 177.2,21 177.2,15.4 179.2,15.4 179.2,14.2 173.8,14.2 	"/>
	<polygon class="st0" points="184.5,14.2 183.3,18.8 182.1,14.2 180,14.2 180,21 181.3,21 181.3,15.6 182.6,21 183.9,21 185.3,15.6 
		185.3,21 186.5,21 186.5,14.2 	"/>
	<polygon class="st0" points="60.8,13.4 52.4,13.4 52.4,20.1 60.8,20.1 60.8,39.1 69.7,39.1 69.7,20.1 79,20.1 79,13.4 69.7,13.4 	
		"/>
</g>
</svg>
